<svg width="28" height="22" viewBox="0 0 28 22" fill="none" xmlns="http://www.w3.org/2000/svg">
<g id="Twitter">
<path id="Shape" fill-rule="evenodd" clip-rule="evenodd" d="M26.8674 2.75347C27.1025 2.64695 27.3792 2.71179 27.5459 2.90863C27.7115 3.10547 27.7277 3.38916 27.5853 3.60337C26.9653 4.52989 26.0322 5.16753 25.1299 5.78409L25.1271 5.786L25.079 5.81886C24.9598 5.90031 24.8417 5.98107 24.7253 6.06274C24.7276 6.19126 24.7288 6.32095 24.7288 6.45063C24.7288 14.0939 18.9127 22 9.18056 22C6.20593 22 3.30888 21.1524 0.802036 19.5453C0.575088 19.3994 0.477825 19.1168 0.569299 18.8621C0.660772 18.6085 0.915509 18.4511 1.18183 18.4823C3.35867 18.7359 5.51698 18.2924 7.36267 17.2248C5.53204 16.6899 4.04067 15.2807 3.4374 13.4026C3.37604 13.2081 3.42004 12.9951 3.55551 12.8422C3.64814 12.7368 3.77435 12.6708 3.90983 12.6523C2.47635 11.5755 1.56625 9.85832 1.56625 7.97558C1.56625 7.77063 1.67509 7.54716 1.85225 7.44295C2.02825 7.33874 2.24709 7.30284 2.42656 7.40242C2.49951 7.44411 2.57361 7.48232 2.64888 7.51821C1.98077 6.55484 1.60909 5.39811 1.60909 4.18811C1.60909 3.15642 1.88235 2.14095 2.39993 1.25053C2.49488 1.08611 2.66509 0.980737 2.85498 0.963368C3.03677 0.954105 3.22898 1.02821 3.3494 1.17526C5.7694 4.1441 9.27551 6.02684 13.0572 6.40895C13.0398 6.22021 13.0306 6.03032 13.0306 5.84042C13.0306 2.62032 15.6509 0 18.871 0C20.3681 0 21.8178 0.582421 22.8993 1.60832C23.9044 1.37905 24.8642 0.994632 25.757 0.465474C25.9631 0.340421 26.2248 0.358947 26.4135 0.509474C26.6011 0.658842 26.6775 0.908947 26.6046 1.13821L26.5027 1.46474L26.5011 1.46986C26.3027 2.10531 26.1531 2.58445 25.7801 3.02558C26.1113 3.01979 26.4668 2.93063 26.8674 2.75347ZM23.7978 5.30084C24.0155 5.14337 24.2425 4.98705 24.4729 4.83074C24.789 4.61537 25.1097 4.39537 25.4131 4.16611C25.0298 4.12326 24.6524 4.00979 24.2679 3.81989C24.078 3.72611 23.9541 3.53621 23.946 3.32432C23.9379 3.11242 24.0456 2.91211 24.2274 2.80326C24.6234 2.56705 24.8411 2.38526 24.9974 2.14442C24.2992 2.43968 23.5732 2.662 22.8252 2.81021C22.6307 2.84842 22.4292 2.78242 22.2914 2.63768C21.4079 1.69747 20.1632 1.15789 18.8733 1.15789C16.2912 1.15789 14.1908 3.25832 14.1908 5.84042C14.1908 6.204 14.2313 6.56411 14.3112 6.90916C14.3517 7.08632 14.3077 7.27274 14.1908 7.41168C14.0738 7.55179 13.9071 7.63053 13.7172 7.61895C9.63909 7.414 5.79835 5.59611 3.04604 2.59484C2.86193 3.10316 2.76698 3.64158 2.76698 4.18811C2.76698 5.75705 3.54625 7.21368 4.85004 8.08558C5.0654 8.22916 5.15919 8.49779 5.0793 8.74442C4.9994 8.99105 4.78867 9.16358 4.50846 9.14505C3.92951 9.12653 3.35519 9.02 2.80751 8.83474C3.16067 10.6932 4.59761 12.1892 6.48035 12.5678C6.74319 12.6211 6.9354 12.848 6.94467 13.1166C6.95393 13.3841 6.77793 13.6238 6.51856 13.6956C5.99404 13.8368 5.44983 13.9028 4.90909 13.8994C5.70919 15.3363 7.22488 16.2707 8.9154 16.302C9.16088 16.3066 9.37625 16.4653 9.45382 16.6968C9.5314 16.9284 9.45498 17.1855 9.26161 17.336C7.56877 18.6629 5.58414 19.4549 3.46867 19.6587C5.26456 20.4368 7.20404 20.8421 9.18056 20.8421C18.1878 20.8421 23.5697 13.5254 23.5709 6.45063C23.5709 6.23063 23.5674 6.01411 23.5581 5.79642C23.55 5.60189 23.6392 5.41547 23.7978 5.30084Z" fill="#023A15"/>
</g>
</svg>
