<svg xmlns="http://www.w3.org/2000/svg" viewBox="0 0 36.76 37.49"><g data-name="Layer 2"><path fill="#ec1b2e" d="M36.76 37.49H0V0h36.76zm-19-11.83c0-.09-.05-.17-.07-.24l-1.05-3.91c0-.09-.07-.21.05-.25s.14.09.17.18c.16.54.31 1.09.47 1.64.08.23.14.47.24.7A.35.35 0 0018 24a.38.38 0 00.33-.36.87.87 0 000-.36c-.24-.83-.5-1.67-.75-2.5a1.5 1.5 0 00-.33-.59.89.89 0 00-.68-.29h-2a.79.79 0 00-.62.25 1.46 1.46 0 00-.39.63c-.14.49-.29 1-.44 1.49l-.36 1.2a.33.33 0 00-.52.14l-.42.68a.39.39 0 01-.38.2h-.8a.45.45 0 01-.43-.23l-.36-.6c-.17-.28-.27-.32-.57-.19v-2.8a1.38 1.38 0 00-1.3-1.35H5.62a1.36 1.36 0 00-1.28 1.27v3.05a1.13 1.13 0 00.08.24.34.34 0 010 .16c-.21 1.17-.43 2.33-.64 3.5-.09.46-.17.91-.26 1.36a.25.25 0 00.18.3.24.24 0 00.3-.2c0-.13 0-.26.07-.38L4.91 24A.08.08 0 015 24a.47.47 0 00.2-.43v-2.34a.75.75 0 010-.15.16.16 0 01.16-.13.12.12 0 01.13.12.88.88 0 010 .17v7.41a.58.58 0 101.16-.08v-4.2a.49.49 0 010-.12.13.13 0 01.16-.13c.1 0 .14.07.14.22v4.21a.59.59 0 00.2.47.55.55 0 00.63.09.56.56 0 00.33-.54v-7.33a1 1 0 010-.17c0-.08 0-.15.14-.15a.16.16 0 01.16.16.86.86 0 010 .16v2.35a.41.41 0 00.5.43 1.64 1.64 0 00.28-.16l.05.09c.23.43.46.86.7 1.29a.87.87 0 01.07.67c-.1.42-.22.83-.33 1.24 0 .1 0 .19-.07.3H10v1.25a.43.43 0 00.41.48c.26 0 .41-.19.41-.49v-1.23h.21v1.29a.4.4 0 00.42.42.39.39 0 00.39-.42v-1.31h.44v-.14c-.12-.48-.25-1-.38-1.44a.78.78 0 01.05-.54c.26-.5.54-1 .81-1.49a.4.4 0 00.71-.15 1.17 1.17 0 00.05-.11c.2-.71.41-1.42.61-2.13a.59.59 0 01.06-.14.15.15 0 01.1-.06.12.12 0 01.08.09.41.41 0 010 .19l-.9 3.36c-.07.25-.14.5-.21.78h1.05V28.59a.75.75 0 00.1.36.49.49 0 00.57.19.51.51 0 00.36-.5v-3h.26v2.91a.75.75 0 000 .26.51.51 0 00.59.32.53.53 0 00.4-.52v-3zm13-.82v-3.62a.47.47 0 010-.17c0-.05.07-.12.11-.12A.25.25 0 0131 21a.31.31 0 010 .17v2.4a.4.4 0 00.4.45.42.42 0 00.42-.46V20.7a1.39 1.39 0 00-1.37-1.39h-2.12A1.36 1.36 0 0027 20.39a1.2 1.2 0 00-.05.33v2.85a.41.41 0 10.82 0V21.2a.44.44 0 010-.17.26.26 0 01.16-.1s.1.06.12.11a.82.82 0 010 .22v7.37a.59.59 0 00.68.53.61.61 0 00.49-.64v-4.26a.13.13 0 01.14-.14.12.12 0 01.15.12 1.21 1.21 0 010 .19v4.16a.58.58 0 00.72.56.59.59 0 00.45-.62zm-7.2.83a1.3 1.3 0 000-.15c-.31-1.13-.62-2.26-.92-3.4-.06-.23-.13-.47-.18-.71a.11.11 0 01.07-.16c.09 0 .12 0 .14.11a.14.14 0 010 .06c.16.54.31 1.08.47 1.61.07.23.13.46.21.68a.4.4 0 00.46.28.43.43 0 00.34-.48.85.85 0 000-.22c-.26-.84-.51-1.68-.76-2.53a1.48 1.48 0 00-.4-.64.85.85 0 00-.58-.23h-2a.81.81 0 00-.5.16 1.26 1.26 0 00-.47.68q-.39 1.23-.75 2.49a1.09 1.09 0 00-.06.36.36.36 0 00.28.39.37.37 0 00.46-.16 1 1 0 00.1-.24c.16-.52.31-1 .46-1.56l.18-.64c0-.06 0-.14.14-.12s.1.11.09.18v.1c-.34 1.28-.69 2.57-1 3.86l-.07.28h1v2.93a.53.53 0 00.53.58.54.54 0 00.51-.57v-2.93h.27v2.92a.53.53 0 00.72.54.56.56 0 00.32-.57v-2.73a1 1 0 010-.17zm1-.31v3.24a1.09 1.09 0 000 .18.41.41 0 00.49.38.44.44 0 00.36-.46v-1.24-.13c0-.03.07-.08.1-.08a.13.13 0 01.1.08.32.32 0 010 .14v1.26a.43.43 0 10.86 0v-3.36a.19.19 0 01.07.11c.15.4.29.81.44 1.21a.18.18 0 00.21.13.33.33 0 00.26-.47c-.2-.5-.4-1-.58-1.49a.72.72 0 00-.8-.57h-1.08a.67.67 0 00-.7.43c-.14.3-.27.61-.4.92s-.24.62-.35.94a.29.29 0 00.11.35.27.27 0 00.41-.17c.13-.42.26-.84.38-1.25a.78.78 0 00.1-.15zM3.19 4.66v5.58c0 .12 0 .16.15.16h1.07c.12 0 .15 0 .15-.16V3.35c0-.13 0-.16-.15-.15H3.6a.19.19 0 00-.13 0 4.82 4.82 0 01-1.21.8.12.12 0 00-.09.13v.86a.2.2 0 000 .07l.49-.17zm3.58 14.27a1.06 1.06 0 10-1-1.05 1 1 0 001 1.05zm22.64 0a1 1 0 001-1 1 1 0 10-1 1zm-8.1.49a1 1 0 001-1 1 1 0 10-2 0 1 1 0 001 1zm-4.83-1a1 1 0 10-2 0 1 1 0 001 1 1 1 0 001-.99zM10.7 9.06v-.61c0-.48-.21-.75-.64-.8s-.88.12-.91.7a10.29 10.29 0 000 1.36c0 .5.21.7.62.75s.86-.13.92-.66c.03-.25.01-.49.01-.74zm3.45-1.39v2.75h.49v-.14-1c0-.09 0-.11.12-.11s.1.06.11.12l.27 1s0 .1.07.1h.46l-.36-1.34c.32-.19.32-.49.31-.8a.56.56 0 00-.44-.56 3.94 3.94 0 00-1.03-.02zm-5-3.1v.69a.67.67 0 00.71.74c.52 0 .84-.17.87-.73s0-.92 0-1.37a.65.65 0 00-.48-.68 1.45 1.45 0 00-.51 0 .57.57 0 00-.54.53c-.02.25-.02.54-.03.82zM8.9 3.19h-.32c-.1 0-.11 0-.1.12v1.34c-.2-.42-.38-.85-.56-1.27-.1-.23 0-.17-.28-.19s-.16 0-.15.16V6h.43V4.44l.56 1.37s.05.1.09.1A1.38 1.38 0 008.9 6zM8 9.23h.41a.58.58 0 00.54-.48 1.15 1.15 0 000-.61.54.54 0 00-.49-.42h-.79c-.11 0-.16 0-.16.16v2.59H8zm4.5-1.56h-.36c-.08 0-.11 0-.13.11l-.18 1-.12.67a.94.94 0 010-.16c-.1-.52-.19-1-.29-1.55 0 0-.05-.09-.08-.09h-.38a.49.49 0 000 .13l.45 2.26c0 .12 0 .29.1.35s.24 0 .36 0 .12 0 .13-.1c.14-.69.27-1.38.41-2.07.01-.15.05-.34.09-.55zM25.55 24a.84.84 0 000-1.67.84.84 0 000 1.67zM11 24a.84.84 0 10-.82-.83.83.83 0 00.82.83zm1.75-16.33v2.75h1.12v-.36h-.62V9.2h.39s.1 0 .1-.07a1.53 1.53 0 000-.31h-.5V8h.63a2.43 2.43 0 010-.27c0-.08 0-.1-.1-.1h-1zm4.43 0v.14c.11.33.2.66.32 1a2.77 2.77 0 01.22 1.19v.43h.38c.09 0 .11 0 .11-.12v-.76a1.64 1.64 0 01.05-.32c.11-.35.23-.7.34-1.05l.16-.51h-.2c-.28 0-.28 0-.36.27s-.14.5-.23.78a.22.22 0 000-.08c-.08-.29-.17-.57-.26-.86 0 0-.05-.1-.08-.1zm-.45 2.76V8.07h.16c.28 0 .28 0 .28-.29 0-.09 0-.11-.12-.11h-1c-.33 0-.27-.06-.28.3 0 .07 0 .1.1.1h.35v2.36z"/><path fill="#fff" d="M17.73 25.66h-1.06v3a.53.53 0 01-.4.52.51.51 0 01-.59-.32.75.75 0 010-.26v-2.91h-.26v3a.51.51 0 01-.36.5.49.49 0 01-.57-.19.75.75 0 01-.1-.36V25.71h-1.11c.07-.28.14-.53.21-.78l.9-3.36a.41.41 0 000-.19.12.12 0 00-.08-.09.15.15 0 00-.1.06.59.59 0 00-.06.14c-.2.71-.41 1.42-.61 2.13a1.17 1.17 0 01-.05.11.4.4 0 01-.71.15c-.27.5-.55 1-.81 1.49a.78.78 0 00-.05.54c.13.48.26 1 .38 1.44v.14h-.44v1.31a.39.39 0 01-.39.42.4.4 0 01-.42-.42v-1.29h-.21v1.23c0 .3-.15.48-.41.49a.43.43 0 01-.43-.53v-1.25h-.39c0-.11.05-.2.07-.3.11-.41.23-.82.33-1.24a.87.87 0 00-.07-.67c-.24-.43-.47-.86-.7-1.29l-.05-.09a1.64 1.64 0 01-.28.16.41.41 0 01-.5-.43v-2.35a.86.86 0 000-.16.16.16 0 00-.16-.16c-.1 0-.13.07-.14.15a1 1 0 000 .17v7.33a.56.56 0 01-.33.54.55.55 0 01-.65-.11.59.59 0 01-.2-.47v-4.19c0-.15 0-.21-.14-.22a.13.13 0 00-.16.13.49.49 0 000 .12v4.17a.58.58 0 11-1.16.08v-7.41a.88.88 0 000-.17.12.12 0 00-.13-.12.16.16 0 00-.16.13.75.75 0 000 .15v2.34A.47.47 0 015 24a.08.08 0 000 .07l-.93 4.53c0 .12-.05.25-.07.38a.24.24 0 01-.27.21.25.25 0 01-.18-.3c.09-.45.17-.9.26-1.36.21-1.17.43-2.33.64-3.5a.34.34 0 000-.16 1.13 1.13 0 01-.08-.24v-3.05a1.36 1.36 0 011.28-1.27h2.3a1.38 1.38 0 011.3 1.35v2.8c.3-.13.4-.09.57.19l.36.6a.45.45 0 00.43.23h.8a.39.39 0 00.38-.2l.42-.68a.33.33 0 01.52-.14l.36-1.2c.15-.5.3-1 .44-1.49a1.46 1.46 0 01.39-.63.79.79 0 01.62-.25h2a.89.89 0 01.68.29 1.5 1.5 0 01.33.59c.25.83.51 1.67.75 2.5a.87.87 0 010 .36.38.38 0 01-.3.37.35.35 0 01-.42-.21c-.1-.23-.16-.47-.24-.7-.16-.55-.31-1.1-.47-1.64 0-.09 0-.22-.17-.18s-.08.16-.05.25l1.05 3.91c-.02.06 0 .14.03.23zM30.74 24.84v3.69a.59.59 0 01-.45.62.58.58 0 01-.72-.56v-4.16a1.21 1.21 0 000-.19.12.12 0 00-.15-.12.13.13 0 00-.14.14v4.26a.61.61 0 01-.49.64.59.59 0 01-.68-.53v-7.37a.82.82 0 000-.22c0-.05-.08-.11-.12-.11a.26.26 0 00-.16.1.44.44 0 000 .17v2.36a.41.41 0 11-.82 0v-2.84a1.2 1.2 0 01.05-.33 1.36 1.36 0 011.32-1.08h2.12a1.39 1.39 0 011.37 1.39v2.87a.42.42 0 01-.42.46.4.4 0 01-.4-.45v-2.4A.31.31 0 0031 21a.25.25 0 00-.16-.08s-.09.07-.11.12a.47.47 0 000 .17zM23.54 25.67h-1a1 1 0 000 .17v2.73a.56.56 0 01-.32.57.53.53 0 01-.72-.54v-2.92h-.27v2.93a.54.54 0 01-.51.57.53.53 0 01-.53-.58v-2.93h-1l.07-.28c.35-1.29.7-2.58 1-3.86v-.1c0-.07 0-.16-.09-.18s-.12.06-.14.12l-.18.64c-.15.52-.3 1-.46 1.56a1 1 0 01-.1.24.37.37 0 01-.46.16.36.36 0 01-.28-.39 1.09 1.09 0 01.06-.36q.36-1.26.75-2.49a1.26 1.26 0 01.47-.68.81.81 0 01.5-.16h2a.85.85 0 01.58.23 1.48 1.48 0 01.4.64c.25.85.5 1.69.76 2.53a.85.85 0 010 .22.43.43 0 01-.34.48.4.4 0 01-.46-.28c-.08-.22-.14-.45-.21-.68-.16-.53-.31-1.07-.47-1.61a.14.14 0 000-.06c0-.07-.05-.13-.14-.11a.11.11 0 00-.07.16c.05.24.12.48.18.71.3 1.14.61 2.27.92 3.4a1.3 1.3 0 01.06.15zM24.54 25.36a.78.78 0 01-.05.14c-.12.41-.25.83-.38 1.25a.27.27 0 01-.41.17.29.29 0 01-.11-.35c.11-.32.23-.63.35-.94s.26-.62.4-.92a.67.67 0 01.7-.43h1.08a.72.72 0 01.8.57c.18.5.38 1 .58 1.49a.33.33 0 01-.26.47.18.18 0 01-.21-.13c-.15-.4-.29-.81-.44-1.21a.19.19 0 00-.07-.11v3.34a.43.43 0 11-.86 0v-1.23a.32.32 0 000-.14.13.13 0 00-.1-.08s-.08.05-.1.08 0 .08 0 .13v1.25a.44.44 0 01-.36.46.41.41 0 01-.49-.38 1.09 1.09 0 010-.18v-3.24zM3.19 4.66l-.51.19-.49.15a.2.2 0 010-.07v-.86A.12.12 0 012.26 4a4.82 4.82 0 001.21-.73.19.19 0 01.13 0h.81c.12 0 .16 0 .15.15v6.89c0 .13 0 .16-.15.16H3.33c-.11 0-.15 0-.15-.16V4.9zM6.77 18.93a1.06 1.06 0 010-2.11 1.06 1.06 0 010 2.11zM29.41 18.93a1.06 1.06 0 111-1 1 1 0 01-1 1zM21.31 19.42a1 1 0 01-1-1 1 1 0 112 0 1 1 0 01-1 1zM16.48 18.43a1 1 0 01-1 1 1 1 0 01-1-1 1 1 0 112 0zM10.7 9.06v.74c-.06.53-.4.72-.92.66s-.59-.25-.62-.75a10.29 10.29 0 010-1.36c0-.58.41-.75.91-.7s.63.32.64.8v.61zm-.51 0v-.68a.76.76 0 000-.15.24.24 0 00-.27-.23c-.14 0-.23.06-.23.21v1.64c0 .14.09.19.22.19s.28-.08.28-.29v-.7zM14.15 7.67a3.94 3.94 0 011 .06.56.56 0 01.44.56c0 .31 0 .61-.31.8l.36 1.34h-.46s-.06-.06-.07-.1l-.27-1c0-.06 0-.12-.11-.12s-.12 0-.12.11V10.46h-.49zm.5 1.17c.17 0 .34 0 .43-.14a.52.52 0 000-.55c-.1-.15-.26-.1-.42-.1zM9.17 4.57v-.85a.57.57 0 01.54-.53 1.45 1.45 0 01.51 0 .65.65 0 01.48.68v1.37c0 .46-.32.76-.84.76a.67.67 0 01-.67-.73v-.69zm1.05 0V3.8a.23.23 0 00-.22-.25.24.24 0 00-.26.24 1.11 1.11 0 000 .19v1.19a1.79 1.79 0 000 .23.23.23 0 00.24.2c.17 0 .26-.08.27-.27zM8.9 3.19V6a1.38 1.38 0 01-.29 0s-.07-.06-.09-.1L8 4.48V6h-.51V3.35c0-.12 0-.17.15-.16s.18 0 .28.19c.18.42.36.85.56 1.27V3.31c0-.08 0-.12.1-.12h.32zM8 9.23v1.19h-.5v-.13-2.46c0-.14 0-.17.16-.16h.79a.54.54 0 01.49.42 1.15 1.15 0 010 .61.58.58 0 01-.54.48zm0-.39c.17 0 .36.05.44-.14a.61.61 0 000-.57c-.13-.13-.3-.08-.44-.07zM12.5 7.67c0 .21-.08.4-.12.59-.14.69-.27 1.38-.41 2.07 0 .08-.05.11-.13.1s-.28 0-.36 0-.07-.23-.1-.35l-.45-2.28a.49.49 0 010-.13h.38s.07.05.08.09c.1.51.19 1 .29 1.55a.94.94 0 000 .16l.12-.67.18-1c0-.08.05-.11.13-.11zM25.55 24a.84.84 0 010-1.67.84.84 0 010 1.67z"/><path fill="#fff" d="M11 24a.84.84 0 11.82-.83.83.83 0 01-.82.83zM12.75 7.67h1c.07 0 .1 0 .1.1a2.43 2.43 0 000 .27h-.63v.77h.5a1.53 1.53 0 010 .31s-.06.07-.1.07h-.39v.86h.62v.36h-1.1zM17.18 7.67h.42s.07.06.08.1c.09.29.18.57.26.86a.22.22 0 010 .08c.09-.28.16-.53.23-.78s.08-.27.36-.27h.2l-.16.51c-.11.35-.23.7-.34 1.05a1.64 1.64 0 00-.05.32v.76c0 .09 0 .13-.11.12h-.38v-.43a2.77 2.77 0 00-.19-1.21c-.12-.32-.21-.65-.32-1 .02-.01.01-.05 0-.11zM16.73 10.43h-.51V8.07h-.35c-.07 0-.1 0-.1-.1 0-.36 0-.29.28-.3h1c.09 0 .11 0 .12.11 0 .29 0 .29-.28.29h-.16z"/><path fill="#ec1b2e" d="M10.19 9.05v.73c0 .25-.09.3-.28.29s-.22-.05-.22-.19V8.24c0-.15.09-.2.23-.21a.24.24 0 01.26.2.76.76 0 010 .15v.67zM14.65 8.84v-.79c.16 0 .32-.05.42.1a.52.52 0 010 .55c-.07.17-.25.14-.42.14zM10.22 4.58v.75c0 .19-.1.27-.27.27a.23.23 0 01-.24-.2 1.79 1.79 0 010-.23V4a1.11 1.11 0 010-.19.24.24 0 01.29-.26.23.23 0 01.24.26v.77zM8 8.84v-.78c.14 0 .31-.06.41.07a.61.61 0 010 .57c-.05.19-.24.13-.41.14z"/></g></svg>