<svg xmlns="http://www.w3.org/2000/svg" viewBox="0 0 36.76 37.49"><g data-name="Layer 2"><path fill="#df1a82" d="M36.76 37.49H0V0h36.76zM9 6.82v-1-1a2.42 2.42 0 00-.21-.83 1.56 1.56 0 00-1-.87 2.55 2.55 0 00-1.1-.05 1.57 1.57 0 00-1.27 1 2.6 2.6 0 00-.19 1v3.44a2.37 2.37 0 00.17.91 1.61 1.61 0 001.21 1.06 2.32 2.32 0 00.91 0 1.64 1.64 0 001.31-1 2.65 2.65 0 00.21-1zm9.42 15.65h3.37c.09 0 .12 0 .13-.13v-1.95c0-.2 0-.22-.23-.22H15a.1.1 0 00-.09.11v2c0 .22 0 .23.22.23zm0 4.43h3.35c.11 0 .14 0 .15-.15v-1.91c0-.23 0-.25-.25-.25h-6.65a.08.08 0 00-.08.09v2c0 .17 0 .19.18.19h3.3zm0-9.73h3.27a.08.08 0 000-.12.24.24 0 00-.08-.09l-3.09-3.16h-.06c-.07-.07-.1-.07-.17 0L15.18 17l-.07.08a.07.07 0 000 .12h3.27zm0 12.72h-3.1a.52.52 0 00-.17 0 .07.07 0 00-.05.12l.09.1 3.07 3.13c.15.16.15.16.3 0l3.09-3.14.06-.06v-.1a.17.17 0 00-.1-.06h-3.18zm-6.24-6.35v-3.19a.66.66 0 000-.14c0-.07-.07-.1-.14-.05l-.09.1-3.07 3.12-.05.06c-.08.08-.08.1 0 .19 1 1.06 2.07 2.11 3.11 3.17a.46.46 0 00.07.07c.06 0 .12 0 .13-.05a.61.61 0 000-.14zm12.48 0v3.2a.48.48 0 000 .12.08.08 0 00.13.06l.08-.07c.37-.39.75-.78 1.13-1.16l2-2c.1-.1.1-.13 0-.23-1-1.05-2.07-2.11-3.11-3.17l-.07-.06c-.07-.06-.12 0-.13.05a.48.48 0 000 .12zM3.15 10.38a9.2 9.2 0 001.39 0V3.31c0-.11 0-.12-.12-.12h-.87a.25.25 0 00-.15.06 2.6 2.6 0 01-.33.25c-.26.15-.52.3-.8.43a.2.2 0 00-.14.21v.76a.68.68 0 000 .14l1-.36zm13.63 0h.06a.64.64 0 00.25-.39c0-.11 0-.23.05-.34V8.51a1.53 1.53 0 000-.3.66.66 0 00-.47-.54 1.15 1.15 0 00-.61 0 .59.59 0 00-.39.33 1.07 1.07 0 00-.09.43v1.24a2.32 2.32 0 00.07.38.6.6 0 00.46.41h.21a.25.25 0 01.17.1c.1.12.22.24.33.35a.6.6 0 00.14.07c0-.12.06-.21.09-.31s0-.08-.05-.11zm-2-5.81v1.2c0 .21 0 .21.19.21H15.79a.61.61 0 00.47-.46 2.7 2.7 0 000-.41v-1-.31a.61.61 0 00-.57-.58h-.84a.09.09 0 00-.1.09v1.3zm6.56 0v1.26c0 .14 0 .15.14.15h.59a1.51 1.51 0 00.36-.06.53.53 0 00.35-.33.72.72 0 00.07-.28v-.89a5.62 5.62 0 000-.58.6.6 0 00-.51-.6 4 4 0 00-.92 0 .06.06 0 00-.07.07.45.45 0 000 .11zM14 10.45a1.28 1.28 0 000-.19V7.87v-.11a.08.08 0 00-.09-.09h-.22c-.13 0-.14 0-.14.15v1.27-.05c-.17-.4-.33-.8-.5-1.19-.08-.19 0-.19-.28-.19s-.18 0-.18.19v2.42a.37.37 0 000 .11s0 .07.06.07a1.72 1.72 0 00.39 0V9a.13.13 0 01.05.06c.1.23.19.47.29.7l.24.6c0 .05 0 .1.1.1zm-1.08-5.83a.53.53 0 00.26-.31 1.13 1.13 0 00.05-.48.6.6 0 00-.55-.61h-.87c-.06 0-.09 0-.08.09v2.58c0 .05 0 .08.07.08h.38a.08.08 0 00.08-.09v-1a.53.53 0 010-.13c.15 0 .16 0 .2.11s0 .12 0 .18c.07.27.14.55.22.83 0 .1 0 .1.13.11H13.23c-.05-.47-.23-.91-.31-1.36zm5.46 4.16v.83a1.24 1.24 0 010 .27.2.2 0 01-.22.18.2.2 0 01-.23-.18 1.63 1.63 0 010-.31v-1.8c0-.09 0-.1-.1-.1h-.29c-.12 0-.14 0-.14.15V9.6a1.51 1.51 0 00.07.48.58.58 0 00.41.38 1.23 1.23 0 00.43 0 .61.61 0 00.59-.49 2.31 2.31 0 000-.46V7.76c0-.06 0-.09-.08-.09h-.35a.08.08 0 00-.09.09v1zm-1.32-4.49v-1c0-.08 0-.1-.1-.1h-.27c-.15 0-.16 0-.16.15v1.74a1.66 1.66 0 000 .32.61.61 0 00.56.59 1.34 1.34 0 00.4 0 .58.58 0 00.51-.51 1.49 1.49 0 00.05-.36V3.27a.07.07 0 00-.05-.08h-.37a.07.07 0 00-.08.08V5.16a1 1 0 010 .25.2.2 0 01-.22.18.21.21 0 01-.22-.18 1.09 1.09 0 010-.26zm2.27-.06h.42a.07.07 0 00.08-.08 1.42 1.42 0 000-.54.54.54 0 00-.46-.42 1.7 1.7 0 00-.39 0 .61.61 0 00-.59.53 1.22 1.22 0 000 .32v1.12a1.33 1.33 0 000 .28.64.64 0 00.41.56 1 1 0 00.46 0 .61.61 0 00.53-.5 2.19 2.19 0 000-.51.08.08 0 00-.09-.09h-.29c-.13 0-.14 0-.14.14v.35a.17.17 0 01-.11.18.22.22 0 01-.33-.18 1.24 1.24 0 010-.27V4a1.09 1.09 0 010-.26c0-.14.1-.19.24-.18s.19.06.2.2a2.81 2.81 0 010 .29 1 1 0 00.06.18zm1.32 6.22v-.17c-.13-.64-.25-1.28-.38-1.92l-.12-.6s0-.09-.09-.09h-.41a.08.08 0 00-.08.07.3.3 0 000 .1c-.17.82-.33 1.63-.49 2.45a.76.76 0 000 .15h.39c.08 0 .1 0 .12-.11s0-.18 0-.28c.05-.27 0-.24.28-.24s.18 0 .23.2 0 .22.05.33 0 .1.08.1zm7.06-2a.66.66 0 00-.57-.78h-.22a.62.62 0 00-.55.42.83.83 0 00.13.81c.06.07.13.13.19.19l.43.39a.48.48 0 01.15.38c0 .13 0 .19-.13.22a.2.2 0 01-.25-.11.4.4 0 01-.07-.18 1.72 1.72 0 010-.24l-.39.08a.07.07 0 00-.06.09 2.88 2.88 0 00.09.4.55.55 0 00.42.36h.22a.65.65 0 00.7-.51.85.85 0 00-.13-.71 3.08 3.08 0 00-.3-.33l-.39-.36a.4.4 0 01-.1-.36.16.16 0 01.12-.13.19.19 0 01.28.13.78.78 0 010 .22s0 .08.08.07zm-13.45.64v1.31c0 .05 0 .08.09.08h1c.06 0 .09 0 .09-.09v-.18c0-.1 0-.12-.11-.12h-.42c-.1 0-.11 0-.11-.11v-.67c0-.1 0-.1.12-.11a2.62 2.62 0 00.28 0c.08 0 .09 0 .1-.09V8.9c0-.07 0-.09-.09-.09h-.29c-.11 0-.12 0-.12-.12v-.48c0-.13 0-.14.13-.14h.4c.08 0 .1 0 .1-.1a1.47 1.47 0 000-.21c0-.06 0-.1-.09-.1h-1c-.08 0-.09 0-.1.1v1.3zm.25-4.73h-.39c-.09 0-.1 0-.1-.1a4.68 4.68 0 010-.53c0-.09 0-.1.1-.11h.51a.37.37 0 000-.09v-.2c0-.13 0-.14-.14-.14h-.89c-.14 0-.15 0-.15.14v2.51c0 .12 0 .14.14.14h1c.05 0 .07 0 .07-.08a1.09 1.09 0 000-.18c0-.12 0-.13-.14-.13h-.39c-.1 0-.11 0-.11-.11v-.63c0-.21 0-.11.1-.11h.3c.05 0 .09 0 .09-.08zm11.72 6.11a2.35 2.35 0 000-.26c0-.1 0-.12-.12-.12h-.43c-.08 0-.09 0-.09-.09v-.67c0-.23 0-.09.09-.1s.2 0 .3 0 .11 0 .11-.1v-.22c0-.09 0-.1-.1-.1h-.3c-.1 0-.1 0-.11-.12v-.5c0-.11 0-.12.12-.12h.42c.08 0 .1 0 .1-.11V7.8c0-.12 0-.13-.13-.14h-.91c-.12 0-.13 0-.13.14v2.51c0 .14 0 .14.14.14h1zm-5-6.86v-.29c0-.12 0-.13-.14-.13h-.9c-.12 0-.13 0-.13.13v2.52C20 6 20 6 20.18 6H21c.26 0 .27 0 .25-.28 0-.1 0-.11-.13-.11h-.41c-.1 0-.11 0-.11-.1v-.67c0-.11 0-.11.11-.11H21c.05 0 .08 0 .08-.07a.86.86 0 000-.32h-.4c-.08 0-.09 0-.09-.09v-.56c0-.08 0-.09.1-.1h.54zm2.93 4.11h-1.34a.08.08 0 00-.09.09V8c0 .08 0 .09.1.09h.23c.11 0 .12 0 .12.11v2.17c0 .07 0 .09.09.09h.24c.19 0 .21.05.21-.21v-2c0-.13 0-.13.13-.13h.29zm-2.81 2.37V7.75s0-.08-.08-.08h-.38c-.05 0-.08 0-.07.07s0 0 0 .08v2.61h1.06c.07 0 .08 0 .09-.1v-.11c0-.18 0-.18-.18-.18zm.8.39h.39c.11 0 .12 0 .12-.12V7.75a.07.07 0 00-.08-.08h-.38s-.06 0-.07.07v2.55a1 1 0 000 .16zm2.12-1.39v1.28c0 .1 0 .11.11.11h.27c.14 0 .15 0 .15-.15V7.75a.07.07 0 00-.08-.08h-.37s-.08 0-.08.08v1.31zm-12-1.38h-.35c-.17 0-.18 0-.18.19v2.49c0 .1 0 .11.11.11h.26c.16 0 .16 0 .16-.16V7.68z"/><path fill="#fff" d="M9 6.82v1.65a2.65 2.65 0 01-.21 1 1.64 1.64 0 01-1.31 1 2.32 2.32 0 01-.91 0 1.61 1.61 0 01-1.21-1.05 2.37 2.37 0 01-.17-.91V5.14a2.6 2.6 0 01.19-1 1.57 1.57 0 011.27-1 2.55 2.55 0 011.1.05 1.56 1.56 0 011 .87 2.42 2.42 0 01.25.82v1zm-1.41 0V5.15a1.53 1.53 0 00-.09-.56.37.37 0 00-.15-.2.44.44 0 00-.67.25 1.79 1.79 0 00-.07.51v3.37a1.19 1.19 0 00.1.48.39.39 0 00.39.24.41.41 0 00.39-.24.33.33 0 000-.14 1.83 1.83 0 000-.4c.1-.53.1-1.07.1-1.62zM18.42 22.47h-3.26c-.21 0-.22 0-.22-.23v-2a.1.1 0 01.09-.11h6.66c.21 0 .23 0 .23.22v1.95c0 .09 0 .12-.13.13h-3.37zM18.42 26.9h-3.3c-.16 0-.18 0-.18-.19v-2a.08.08 0 01.08-.09h6.65c.23 0 .25 0 .25.25v1.91c0 .11 0 .14-.15.15h-3.35zM18.42 17.17h-3.27a.07.07 0 010-.12l.07-.08 3.12-3.19c.07-.07.1-.07.17 0h.06L21.66 17a.24.24 0 01.08.09.08.08 0 010 .12h-3.32zM18.43 29.89h3.22a.17.17 0 01.1.06v.1l-.06.06-3.09 3.14c-.15.16-.15.16-.3 0l-3.1-3.12-.09-.1a.07.07 0 01.05-.12.52.52 0 01.17 0h3.1zM12.19 23.54v3.18a.61.61 0 010 .14c0 .07-.07.09-.13.05a.46.46 0 01-.07-.07c-1-1.06-2.08-2.11-3.11-3.17-.08-.09-.08-.11 0-.19l.05-.06L12 20.26l.09-.1c.07-.05.13 0 .14.05a.66.66 0 010 .14zM24.67 23.53v-3.2a.48.48 0 010-.12c0-.07.07-.09.13-.05s.05 0 .07.06c1 1.06 2.07 2.12 3.11 3.17.09.1.09.13 0 .23l-2 2c-.38.38-.76.77-1.13 1.16l-.08.07a.08.08 0 01-.13-.06.48.48 0 010-.12zM3.15 10.38v-5.7l-1 .32a.68.68 0 010-.14v-.72a.2.2 0 01.14-.21c.28-.13.54-.28.8-.43a2.6 2.6 0 00.33-.25.25.25 0 01.15-.06h.87c.11 0 .12 0 .12.12v7.07a9.2 9.2 0 01-1.41 0zM16.78 10.39l.19.19s.06.06.05.11-.06.19-.09.31a.6.6 0 01-.14-.07 5.46 5.46 0 01-.33-.35.25.25 0 00-.17-.1h-.21a.6.6 0 01-.46-.41 2.32 2.32 0 01-.07-.38V8.44a1.07 1.07 0 01.09-.44.59.59 0 01.36-.32 1.15 1.15 0 01.61 0 .66.66 0 01.47.54 1.53 1.53 0 010 .3v1.1c0 .11 0 .23-.05.34a.64.64 0 01-.25.39zm-.69-1.33v.59a1.79 1.79 0 000 .23c0 .14.09.19.24.19s.21-.06.23-.2a2.11 2.11 0 000-.26V8.5a2.45 2.45 0 000-.27.21.21 0 00-.23-.18c-.14 0-.21 0-.24.17a1.64 1.64 0 000 .22c-.01.21 0 .41 0 .62zM14.8 4.58v-1.3a.09.09 0 01.1-.09h.84a.61.61 0 01.57.58v1.31a2.7 2.7 0 010 .41.61.61 0 01-.47.46H15c-.19 0-.19 0-.19-.21zm.54 0v.92s0 .07.07.07c.22 0 .36 0 .36-.31V4a1 1 0 000-.17.22.22 0 00-.21-.2h-.08c-.12 0-.14 0-.14.13zM21.36 4.58V3.37a.45.45 0 010-.11.06.06 0 01.07-.07 4 4 0 01.92 0 .6.6 0 01.51.6 5.62 5.62 0 010 .58v.89a.72.72 0 01-.07.28.53.53 0 01-.35.33 1.51 1.51 0 01-.36.06h-.58c-.13 0-.14 0-.14-.15zm.55 0v.9s0 .09.07.09c.25 0 .34-.06.36-.3V3.83a.21.21 0 00-.16-.21.65.65 0 00-.2 0 .07.07 0 00-.07.07v.92zM14 10.45h-.29c-.06 0-.08 0-.1-.1l-.24-.6c-.1-.23-.19-.47-.29-.7A.13.13 0 0013 9v1.45a1.72 1.72 0 01-.39 0l-.06-.07a.37.37 0 010-.11V7.85c0-.18 0-.19.18-.19s.2 0 .28.19c.17.39.33.79.5 1.19v.05-1.28c0-.14 0-.14.14-.15h.22a.08.08 0 01.09.09v2.5a1.28 1.28 0 01.04.2zM12.92 4.62c.12.45.26.89.36 1.34H12.86c-.1 0-.11 0-.13-.11-.08-.28-.15-.56-.22-.83v-.18c0-.06-.05-.15-.2-.11a.53.53 0 000 .13v1a.08.08 0 01-.08.09h-.43c-.05 0-.07 0-.07-.08V3.28c0-.06 0-.09.08-.09h.87a.6.6 0 01.55.61 1.13 1.13 0 01-.05.48.53.53 0 01-.26.34zm-.65-.26h.2a.28.28 0 00.25-.24.77.77 0 000-.34.21.21 0 00-.13-.16.51.51 0 00-.3 0zM18.38 8.78v-1a.08.08 0 01.09-.09h.35c.06 0 .08 0 .08.09v1.77a2.31 2.31 0 010 .46.61.61 0 01-.59.49 1.23 1.23 0 01-.43 0 .58.58 0 01-.41-.38 1.51 1.51 0 01-.07-.48V7.86c0-.13 0-.14.14-.15h.29c.08 0 .09 0 .1.1v1.8a1.63 1.63 0 000 .31.2.2 0 00.23.18.2.2 0 00.22-.18 1.24 1.24 0 000-.27v-.87zM17.06 4.29v.86a1.09 1.09 0 000 .26.21.21 0 00.22.18.2.2 0 00.22-.18 1 1 0 000-.25V3.27a.07.07 0 01.08-.08H18a.07.07 0 01.07.08v1.85a1.49 1.49 0 01-.05.36.58.58 0 01-.52.51 1.34 1.34 0 01-.4 0 .61.61 0 01-.56-.59 1.66 1.66 0 010-.32V3.34c0-.15 0-.15.16-.15h.3c.08 0 .09 0 .1.1v1zM19.33 4.23a1 1 0 010-.16 2.81 2.81 0 000-.29c0-.14-.07-.2-.2-.2s-.22 0-.24.18a1.09 1.09 0 000 .26v1.1a1.24 1.24 0 000 .27.22.22 0 00.33.18.17.17 0 00.11-.18v-.35c0-.12 0-.14.14-.14h.29a.08.08 0 01.09.09 2.19 2.19 0 010 .51.61.61 0 01-.53.5 1 1 0 01-.46 0 .64.64 0 01-.47-.55 1.33 1.33 0 010-.28V4.05a1.22 1.22 0 010-.32.61.61 0 01.59-.53 1.7 1.7 0 01.39 0 .54.54 0 01.46.42 1.42 1.42 0 010 .54.07.07 0 01-.08.08zM20.65 10.45h-.43c-.06 0-.07-.06-.08-.1s0-.22-.05-.33 0-.2-.23-.2-.23 0-.28.24v.28c0 .09 0 .11-.12.11H19a.76.76 0 010-.15c.16-.82.32-1.63.49-2.45a.3.3 0 010-.1.08.08 0 01.08-.07H20c.06 0 .08 0 .09.09l.12.6c.13.64.25 1.28.38 1.92.05.04.05.09.06.16zm-.81-1.93l-.14.9a.41.41 0 00.29 0zM27.71 8.42l-.36.08c-.05 0-.07 0-.08-.07a.78.78 0 000-.22.19.19 0 00-.27-.13.16.16 0 00-.11.14.4.4 0 00.1.36l.39.36a3.08 3.08 0 01.3.33.85.85 0 01.13.71.65.65 0 01-.7.51h-.22a.55.55 0 01-.42-.36 2.88 2.88 0 01-.09-.4.07.07 0 01.06-.09l.39-.08a1.72 1.72 0 000 .24.4.4 0 00.07.18.2.2 0 00.25.11c.09 0 .13-.09.13-.22a.48.48 0 00-.15-.38l-.43-.39c-.06-.06-.13-.12-.19-.19a.83.83 0 01-.13-.81.62.62 0 01.55-.42h.22a.66.66 0 01.56.74zM14.26 9.06V7.77c0-.08 0-.1.1-.1h1c.06 0 .09 0 .09.1a1.47 1.47 0 010 .21c0 .08 0 .1-.1.1h-.4c-.12 0-.13 0-.13.14v.48c0 .11 0 .12.12.12h.29c.06 0 .09 0 .09.09v.21c0 .08 0 .09-.1.09a2.62 2.62 0 01-.28 0c-.11 0-.12 0-.12.11V10c0 .1 0 .11.11.11h.42c.1 0 .11 0 .11.12v.18c0 .07 0 .09-.09.09h-1c-.06 0-.09 0-.09-.08V9.06zM14.51 4.33v.32c0 .06 0 .08-.09.08h-.3c-.09 0-.1 0-.1.11v.63c0 .21 0 .11.11.11h.39c.13 0 .13 0 .14.13a1.09 1.09 0 010 .18s0 .07-.07.08h-1c-.12 0-.14 0-.14-.14v-2.5c0-.13 0-.14.15-.14h.89c.13 0 .14 0 .14.14v.16a.37.37 0 010 .09h-.51c-.09 0-.1 0-.1.11a4.68 4.68 0 000 .53c0 .09 0 .1.1.1zM26.23 10.44h-1c-.13 0-.14 0-.14-.14V7.8c0-.12 0-.13.13-.14h.91c.12 0 .13 0 .13.14V8c0 .09 0 .11-.1.11h-.42c-.11 0-.11 0-.12.12v.5c0 .11 0 .12.11.12H26c.08 0 .1 0 .1.1v.15c0 .09 0 .1-.11.1h-.3c-.1 0-.09 0-.09.1v.67c0 .22 0 .09.09.09h.43c.1 0 .12 0 .12.12a2.35 2.35 0 01-.01.26zM21.21 3.58h-.54c-.08 0-.1 0-.1.1v.55c0 .08 0 .09.09.09h.4a.86.86 0 010 .32s0 .07-.08.07h-.31c-.1 0-.11 0-.11.11v.64c0 .1 0 .1.11.1h.41c.11 0 .12 0 .13.11 0 .27 0 .28-.25.28h-.79C20 6 20 6 20 5.84V3.32c0-.12 0-.13.13-.13h.9c.13 0 .14 0 .14.13zM24.14 7.69v.39h-.29c-.12 0-.13 0-.13.13v2c0 .26 0 .21-.21.21h-.24c-.06 0-.09 0-.09-.09V8.19c0-.1 0-.11-.12-.11h-.23c-.08 0-.09 0-.1-.09v-.23a.08.08 0 01.09-.09h1.26zM21.33 10.06h.46c.18 0 .18 0 .18.18v.11c0 .09 0 .1-.09.1h-1.06v-.15-2.48-.08c0-.03 0-.07.07-.07h.38c.05 0 .07 0 .08.08v2.31zM22.13 10.45a1 1 0 010-.16V7.74s0-.07.07-.07h.38a.07.07 0 01.08.08v2.58c0 .11 0 .12-.12.12zM24.25 9.06V7.75c0-.06 0-.08.08-.08h.37a.07.07 0 01.08.08v2.55c0 .15 0 .15-.15.15h-.27c-.09 0-.11 0-.11-.11V9.06zM12.26 7.68v2.61c0 .16 0 .16-.16.16h-.26c-.09 0-.1 0-.11-.11V7.85c0-.18 0-.19.18-.19h.22z"/><path fill="#df1a82" d="M7.59 6.84v1.64a1.83 1.83 0 010 .4.33.33 0 010 .14.41.41 0 01-.39.26.39.39 0 01-.49-.28 1.19 1.19 0 01-.11-.52V5.17a1.79 1.79 0 01.07-.51.44.44 0 01.67-.25.37.37 0 01.15.2 1.53 1.53 0 01.09.56c.01.55.01 1.11.01 1.67zM16.09 9.06v-.62a1.64 1.64 0 010-.22c0-.12.1-.17.24-.17a.21.21 0 01.23.18 2.45 2.45 0 010 .27v1.11a2.11 2.11 0 010 .26c0 .14-.09.19-.23.2s-.22-.05-.24-.19a1.79 1.79 0 010-.23c-.01-.2 0-.4 0-.59zM15.34 4.59v-.86c0-.13 0-.13.14-.13h.08a.22.22 0 01.21.2 1 1 0 010 .17v1.3c0 .26-.14.31-.36.31 0 0-.06 0-.07-.07v-.92zM21.91 4.59v-.92A.07.07 0 0122 3.6a.65.65 0 01.2 0 .21.21 0 01.16.21v1.47c0 .24-.11.3-.36.3-.06 0-.07 0-.07-.09v-.9zM12.27 4.36V3.6a.51.51 0 01.3 0 .21.21 0 01.13.16.77.77 0 010 .34.28.28 0 01-.25.24zM19.84 8.52l.14.89a.41.41 0 01-.29 0l.14-.9z"/></g></svg>