<svg xmlns="http://www.w3.org/2000/svg" viewBox="0 0 36.76 37.49"><g data-name="Layer 2"><path fill="#f89c25" d="M0 0h36.76v37.49H0zm18.41 24.32v-9.3c0-.24-.07-.29-.28-.29H13c-.24 0-.28 0-.28.28v18.72a.16.16 0 00.18.17h5.39a.15.15 0 00.15-.15.75.75 0 000-.15zm6.42 1.77v-7.67a.61.61 0 000-.13.16.16 0 00-.26-.05l-.05.07-.71.91-2.25 2.91-2.32 3a.44.44 0 00-.11.31v8.21c0 .18 0 .27.27.27h5.29c.1 0 .15 0 .16-.15a1.09 1.09 0 000-.18zM31.26 31v-2.77c0-.21-.09-.25-.23-.25h-5.34c-.24 0-.28 0-.28.29v5.56a.17.17 0 00.17.16h5.53a.15.15 0 00.15-.15V31zM9 29.11H6.23a.16.16 0 00-.16.18v4.44a.16.16 0 00.16.17h1.63c.19 0 .19 0 .19-.2v-2.63a.12.12 0 01.12-.07H9.8c.09 0 .13.05.14.15v2.69c0 .09 0 .1.11.11h1.64c.23 0 .28 0 .28-.28V29.4c0-.25 0-.29-.28-.29zm0-.46h2.75a.17.17 0 00.18-.1.17.17 0 000-.2l-.29-.35-2.43-3.2c-.13-.18-.25-.19-.39 0q-1.27 1.7-2.57 3.41l-.13.18a.16.16 0 00.11.25H9zm-5.88-24v5.65a.08.08 0 00.07.07h1.17c.19 0 .18 0 .18-.19V3.4c0-.2 0-.21-.21-.21h-.65a.37.37 0 00-.35.14h-.06a5.11 5.11 0 01-1 .57.17.17 0 00-.12.18v.8a.83.83 0 000 .13zm2.94 0v5.55a.57.57 0 000 .13c0 .05 0 .08.07.08h1.35V3.32c0-.12 0-.13-.13-.13H6.5a.26.26 0 00-.16.07 3 3 0 01-.34.26c-.26.15-.52.29-.79.42a.17.17 0 00-.12.18v.93zm22.3 21.48h-2.8c-.09 0-.13.05-.13.14v1.12c0 .09 0 .13.13.15h5.49c.16 0 .2-.05.21-.22v-1a.2.2 0 000-.07.14.14 0 00-.15-.15h-2.75zM18.94 7.68v2.54c0 .26 0 .24.22.24s.2 0 .21-.21V9.06a1.1 1.1 0 010-.18.09.09 0 010 .06l.27 1.32c.05.23 0 .2.24.2s.13 0 .16-.13l.21-1.05c0-.15.06-.3.1-.44v1.53q0 .09.09.09h.25a.08.08 0 00.09-.09 2.29 2.29 0 010-.25V8.06a2.81 2.81 0 000-.29c0-.08 0-.1-.09-.1h-.36c-.06 0-.1 0-.1.09a.24.24 0 000 .08c-.1.47-.2 1-.3 1.44v.17c-.06-.24-.11-.48-.16-.72s-.13-.63-.19-.94c0-.12 0-.12-.15-.12h-.41zm4 2.78V7.9a1.09 1.09 0 010-.18c0-.06 0-.09-.1-.09h-.28c-.16 0-.16 0-.19.14-.08.37-.15.73-.22 1.09 0 .19-.08.38-.13.59 0-.18-.07-.34-.1-.49-.08-.41-.16-.82-.25-1.22 0-.1 0-.11-.13-.11h-.32c-.1 0-.11 0-.12.12v2.6a.05.05 0 00.06.06 1 1 0 00.34 0V8.74a.25.25 0 000 .07c.1.48.2 1 .29 1.44 0 .18 0 .18.23.18s.14 0 .17-.14l.24-1.17c0-.12 0-.23.07-.36v1.59s0 .07.08.07zm-.26-6a.44.44 0 00.32-.34 1 1 0 000-.49.54.54 0 00-.27-.34 1.14 1.14 0 00-.45-.1h-.6c-.13 0-.14 0-.14.14v2.55c0 .08 0 .1.1.1h.79a.66.66 0 00.57-.56.77.77 0 000-.15c.08-.38 0-.64-.33-.79zm-8 4.58v-.63a.69.69 0 000-.13.61.61 0 00-.6-.59h-.72c-.24 0-.19 0-.19.19v2.47c0 .11 0 .13.13.13h.66a.92.92 0 00.28 0 .53.53 0 00.39-.39 1.85 1.85 0 00.07-.41c-.03-.26-.04-.44-.04-.62zm-2.2 0c-.16-.39-.33-.78-.5-1.18s-.06-.22-.36-.22a.08.08 0 00-.09.09v2.61a.08.08 0 00.08.09h.31c.05 0 .07 0 .08-.08V9a.05.05 0 010 .05l.51 1.23c.08.2 0 .18.25.18s.18 0 .18-.19v-2.5c0-.08 0-.1-.1-.1h-.16c-.19 0-.2 0-.2.19zm6.75-4.44v-.09c-.16-.39-.33-.77-.49-1.17-.05-.12-.11-.17-.24-.15-.2 0-.2 0-.2.2v2.49c0 .08 0 .1.1.1h.26c.09 0 .11 0 .11-.11V4.61v-.09a.19.19 0 01.05.1c.18.41.35.83.52 1.25 0 .08.07.12.16.11h.06c.19 0 .19 0 .19-.18V3.3c0-.09 0-.11-.11-.11h-.21c-.13 0-.14 0-.14.15V4.6zM25.35 9a.3.3 0 000 .1c.17.41.34.82.5 1.24a.18.18 0 00.2.13c.18 0 .18 0 .18-.19V7.76a.08.08 0 00-.09-.09H26c-.17 0-.17 0-.17.17v1.23a.1.1 0 010-.05l-.48-1.13c-.11-.26-.07-.22-.34-.22-.11 0-.13 0-.14.12v2.58a.08.08 0 00.09.09h.28a.08.08 0 00.09-.09.49.49 0 000-.12V9zm-6.64.06v-.62a1.61 1.61 0 00-.08-.38.53.53 0 00-.4-.38 1 1 0 00-.46 0 .66.66 0 00-.63.61 1.64 1.64 0 000 .22v1.12a1.33 1.33 0 000 .28.66.66 0 00.54.56 1.24 1.24 0 00.47 0 .63.63 0 00.5-.48 1.64 1.64 0 00.05-.32c.02-.2.01-.41.01-.61zm4.94-.28v-1c0-.14 0-.15-.14-.15h-.25c-.13 0-.14 0-.14.14v1.81a1.58 1.58 0 00.05.38.59.59 0 00.45.46 1.35 1.35 0 00.4 0 .61.61 0 00.61-.51 2.38 2.38 0 000-.46V7.79 7.7a.08.08 0 00-.09-.09h-.24c-.19 0-.19 0-.19.19v1.81a1.64 1.64 0 010 .22.21.21 0 01-.21.17.2.2 0 01-.23-.16 1.09 1.09 0 010-.26zM11.89 4.3v-1c0-.08 0-.1-.1-.1h-.33c-.08 0-.09 0-.1.1v1.76a2 2 0 000 .35A.62.62 0 0012 6a1.38 1.38 0 00.29 0 .61.61 0 00.63-.52 1.84 1.84 0 00.05-.41V3.3c0-.09 0-.11-.1-.11h-.21c-.21 0-.22 0-.22.22v1.72a2.45 2.45 0 010 .27.22.22 0 01-.23.19.21.21 0 01-.22-.19.58.58 0 010-.19zm15.5-.07h.43c.05 0 .08 0 .08-.07a1.75 1.75 0 000-.56.55.55 0 00-.44-.41 1.85 1.85 0 00-.41 0 .61.61 0 00-.59.53 1.27 1.27 0 00-.05.34v1.1a1.26 1.26 0 00.05.33.6.6 0 00.53.52 1.48 1.48 0 00.42 0 .59.59 0 00.51-.49 2.19 2.19 0 000-.51c0-.07 0-.09-.1-.09h-.29c-.12 0-.13 0-.14.14v.35a.19.19 0 01-.18.2c-.14 0-.22 0-.26-.16a.49.49 0 010-.12V3.87a.45.45 0 010-.16.21.21 0 01.26-.1.18.18 0 01.16.18v.3s.01.08.02.14zM17 8.7a.29.29 0 000-.09 3 3 0 000-.43.57.57 0 00-.44-.51 1.46 1.46 0 00-.42 0 .65.65 0 00-.62.58 2.53 2.53 0 000 .38v.93a1.7 1.7 0 00.09.54.6.6 0 00.42.38 1 1 0 00.6 0 .55.55 0 00.31-.25 1.31 1.31 0 00.06-.81 4 4 0 00-.49 0v.33a.71.71 0 010 .2c0 .11-.08.14-.2.14s-.19 0-.21-.15a1.7 1.7 0 010-.22V8.41a1.11 1.11 0 010-.17.2.2 0 01.25-.18c.13 0 .19.08.2.22a2.8 2.8 0 010 .29v.13zM19.77 6H20.12c.14 0 .15 0 .17-.14l.06-.33c0-.1 0-.11.12-.11h.21c.1 0 .11 0 .13.12s.05.28.07.42 0 .09.08.09h.37c.05 0 .07 0 .06-.08s0 0 0-.06c-.1-.48-.19-1-.29-1.44l-.21-1.08c0-.12 0-.13-.15-.13h-.29c-.14 0-.14 0-.17.15l-.48 2.35zm-4 0h.37c.12 0 .13 0 .15-.12s0-.27.07-.41 0-.1.12-.1h.2c.12 0 .12 0 .15.13l.06.36A.1.1 0 0017 6h.22c.19 0 .19 0 .15-.19L17 4c0-.24-.09-.47-.14-.7 0-.07 0-.1-.11-.1h-.37a.11.11 0 00-.11.08v.09c-.17.83-.33 1.65-.5 2.48a.49.49 0 00-.03.15zm-4.36 4.49a.54.54 0 000-.15c-.08-.44-.17-.88-.25-1.31l-.24-1.2c0-.11 0-.12-.15-.12h-.24c-.19 0-.19 0-.22.18L9.9 9.65c-.05.23-.1.47-.14.71 0 .08 0 .09.08.1h.23c.18 0 .18 0 .21-.18s.05-.24.07-.37 0-.08.09-.08h.25c.09 0 .09 0 .11.1s0 .28.07.43 0 .09.08.09h.43zM31 9.51l-.4.09c-.05 0-.06.05-.05.1a2.57 2.57 0 00.08.38.6.6 0 00.32.34.81.81 0 00.53.05A.62.62 0 0032 10a.91.91 0 00-.21-.79c-.1-.11-.2-.2-.31-.3l-.29-.27a.38.38 0 01-.12-.36.2.2 0 01.19-.18.2.2 0 01.2.14V8.55l.31-.06c.14 0 .15 0 .12-.19a.13.13 0 000-.06.61.61 0 00-.53-.55h-.22a.63.63 0 00-.62.53 1.45 1.45 0 000 .36.79.79 0 00.3.49l.48.44a.51.51 0 01.14.44.18.18 0 01-.25.15.22.22 0 01-.14-.13 1.8 1.8 0 01-.06-.22c.06-.11.01-.16.01-.24zM13.51 5l-.38.08a.08.08 0 00-.08.11c0 .12 0 .25.09.37a.61.61 0 00.51.4h.24a.62.62 0 00.55-.36.81.81 0 00-.06-.82 2.22 2.22 0 00-.28-.33l-.41-.38a.38.38 0 01-.13-.33.21.21 0 01.17-.2.18.18 0 01.22.13.83.83 0 010 .15L14 4h.24c.26-.05.22-.05.18-.28a.6.6 0 00-.5-.53 1.28 1.28 0 00-.39 0 .57.57 0 00-.48.49.81.81 0 00.18.73l.25.25.35.32a.53.53 0 01.14.45.19.19 0 01-.23.15.21.21 0 01-.16-.14 1.05 1.05 0 01-.06-.24zm19.33 1a.64.64 0 00.69-.52 1 1 0 00-.11-.66 2 2 0 00-.36-.4l-.35-.32a.38.38 0 01-.11-.35.18.18 0 01.15-.17.19.19 0 01.24.14A1.43 1.43 0 0133 4c0 .07 0 .08.1.07l.31-.07c.07 0 .08 0 .08-.1a.93.93 0 00-.1-.37.5.5 0 00-.36-.3.91.91 0 00-.54 0 .59.59 0 00-.38.43.86.86 0 00.2.82l.15.13.42.39a.52.52 0 01.12.4.19.19 0 01-.11.16.18.18 0 01-.22 0 .31.31 0 01-.09-.14 1.28 1.28 0 010-.27s0-.08-.08-.07l-.34.07a.08.08 0 00-.06.08 1.06 1.06 0 00.18.55.64.64 0 00.56.22zM10.78 4H11c.27-.05.21-.07.17-.28a.6.6 0 00-.51-.54.9.9 0 00-.43 0 .58.58 0 00-.38.34.81.81 0 00.13.87 3.07 3.07 0 00.26.25c.12.11.24.21.35.33a.46.46 0 01.13.46.17.17 0 01-.23.12.21.21 0 01-.16-.14 2.1 2.1 0 01-.06-.24v-.15l-.38.08a.08.08 0 00-.07.1 1.62 1.62 0 00.09.38.6.6 0 00.5.4h.24a.65.65 0 00.61-.51.84.84 0 00-.13-.69 2 2 0 00-.27-.32c-.13-.13-.27-.25-.41-.37a.39.39 0 01-.12-.35.19.19 0 01.17-.18.19.19 0 01.22.12v.15zm18.57 5v1.27c0 .13 0 .14.14.14h1c.08 0 .1 0 .1-.1a1 1 0 000-.17c0-.11 0-.13-.12-.13H30c-.09 0-.11 0-.11-.1v-.6c0-.09 0-.1.11-.1h.29c.08 0 .09 0 .1-.1V8.9a.08.08 0 00-.09-.09H30c-.1 0-.11 0-.11-.12v-.47c0-.14 0-.14.14-.14h.37c.1 0 .12 0 .13-.13a1 1 0 000-.17c0-.09 0-.11-.11-.11h-1c-.08 0-.1 0-.11.1v1.28zm-3.73-5.79h-1.05c-.11 0-.12 0-.12.13v2.51c0 .12 0 .13.13.13h.8c.25 0 .26.06.26-.27 0-.11 0-.12-.13-.12h-.42c-.1 0-.1 0-.11-.11v-.65c0-.09 0-.09.11-.1h.3c.08 0 .1 0 .1-.09a1.47 1.47 0 000-.21c0-.07 0-.09-.09-.09h-.32c-.09 0-.09 0-.1-.11v-.52c0-.1 0-.11.11-.11h.53zm6.27 1.13h-.4s-.08 0-.08-.07v-.59c0-.2 0-.08.08-.08H32a.09.09 0 000-.09v-.18c0-.13 0-.14-.14-.14H31a.07.07 0 00-.08.08v2.56c0 .15 0 .15.15.15h.79c.25 0 .27 0 .24-.28 0-.09 0-.11-.11-.11h-.43c-.1 0-.1 0-.11-.11v-.64c0-.1 0-.1.12-.11h.29c.05 0 .09 0 .1-.06a.76.76 0 00-.07-.33zm-17 .44V5.9A.08.08 0 0015 6h.35c.08 0 .09 0 .1-.1v-2c0-.3 0-.26.25-.26h.09c.06 0 .1 0 .1-.09v-.22c0-.13 0-.14-.14-.14h-1.22c-.08 0-.1 0-.1.11v.2c0 .1 0 .11.12.11h.22c.09 0 .1 0 .1.11a.27.27 0 010 .09zm14.22 0v1.1c0 .06 0 .09.1.09h.27c.17 0 .17 0 .17-.18V3.74c0-.12 0-.13.13-.13H30a.09.09 0 00.09-.08v-.2c0-.12 0-.14-.14-.14h-1.19c-.11 0-.12 0-.12.13v.17c0 .1 0 .12.11.12H29c.08 0 .09 0 .1.1v1.08zm-1 4.47V8.2c0-.11 0-.11.11-.12h.23c.07 0 .1 0 .1-.09v-.18c0-.13 0-.14-.15-.14h-1.16c-.09 0-.11 0-.11.11a.6.6 0 000 .19c0 .1 0 .11.11.11h.22c.12 0 .12 0 .12.12v2.17a.1.1 0 00.08.09h.39a.06.06 0 00.07-.07V9.26zM24.37 5.6h-.51c-.12 0-.13 0-.13-.14V3.32c0-.12 0-.13-.12-.13h-.28c-.12 0-.13 0-.13.13v2.53c0 .12 0 .13.13.13h1a.06.06 0 00.07-.07zm4.76 4.86V7.84a.22.22 0 010-.08.08.08 0 00-.13-.09h-.35c-.07 0-.09 0-.09.09a.22.22 0 000 .08v2.44a.37.37 0 000 .11.09.09 0 00.07.06zm-2-1.4V7.75a.07.07 0 00-.13-.08h-.38a.07.07 0 00-.07.08v2.63s0 .07.07.07a2.54 2.54 0 00.39 0 .06.06 0 00.07-.07V9.06zm3.51-4.46V3.31c0-.1 0-.12-.12-.12h-.27c-.13 0-.14 0-.14.14V5.9a.07.07 0 00.08.08h.37a.07.07 0 00.08-.08V4.6zm-2 0V3.39v-.11a.08.08 0 00-.09-.09h-.34c-.08 0-.09 0-.1.1v2.6c0 .08 0 .09.1.09h.34a.08.08 0 00.09-.09v-.11zM18 4.59V3.32c0-.12 0-.13-.13-.13h-.22c-.18 0-.18 0-.18.18v2.42a.49.49 0 000 .12.07.07 0 00.07.07h.38a.06.06 0 00.08-.07V4.59z"/><path fill="#fff" d="M18.41 24.32v9.28a.75.75 0 010 .15.15.15 0 01-.15.15h-5.39a.16.16 0 01-.18-.17V15c0-.24 0-.28.28-.28h5.17c.21 0 .28 0 .28.29q-.01 4.66-.01 9.31zm-1-6.21v-.62c0-.13 0-.13-.14-.14h-1.03c-.12 0-.13 0-.13.13v1.25c0 .12 0 .13.13.13h1.07c.12 0 .13 0 .13-.14zM15 21.33v-.63c0-.1 0-.12-.12-.12h-1.07c-.11 0-.12 0-.13.13V22c0 .11 0 .12.13.12h1.07c.13 0 .13 0 .13-.14zm1.1 0V22c0 .1 0 .11.12.11h1.1c.1 0 .11 0 .11-.12V20.7c0-.11 0-.12-.12-.12h-1.07c-.12 0-.13 0-.13.14zM15 18.11v-.64c0-.1 0-.11-.11-.11H13.8c-.1 0-.11 0-.12.11v1.26c0 .11 0 .13.12.13h1.09c.11 0 .12 0 .12-.13zM13.68 31v.63c0 .11 0 .12.12.12h1.1c.1 0 .11 0 .11-.12V30.4c0-.11 0-.12-.12-.12H13.8c-.1 0-.11 0-.12.12zm3.76 0v-.62c0-.12 0-.13-.13-.13h-1.07c-.12 0-.13 0-.13.13v1.23c0 .13 0 .14.13.14h1.07c.12 0 .13 0 .13-.14zM15 27.8v-.62c0-.12 0-.13-.12-.13h-1.07c-.11 0-.13 0-.13.13v1.23c0 .13 0 .14.14.14h1.06c.12 0 .13 0 .13-.13zm2.43 0v-.64c0-.11 0-.12-.12-.12h-1.08c-.1 0-.12 0-.12.12v1.25c0 .12 0 .13.13.13h1.07c.11 0 .13 0 .13-.13zm-1.33-3.25v.62c0 .12 0 .13.12.13h1.1c.09 0 .11 0 .11-.11v-1.26c0-.09 0-.11-.11-.11h-1.1c-.1 0-.12 0-.12.13zm-1.1 0V24c0-.13 0-.14-.14-.14h-1c-.12 0-.14 0-.14.14v1.22c0 .12 0 .13.14.13h1c.13 0 .14 0 .14-.14zM24.83 26.09v7.51a1.09 1.09 0 010 .18c0 .1-.06.14-.16.15h-5.3c-.24 0-.27-.09-.27-.27v-8.21a.44.44 0 01.11-.31l2.32-3 2.25-2.91.71-.91.05-.07a.16.16 0 01.26.05.61.61 0 010 .13v7.67zm-3.15-1.26v-1a.48.48 0 000-.12.11.11 0 00-.19-.07.64.64 0 00-.13.15c-.45.57-.89 1.14-1.35 1.71a.64.64 0 00-.15.49c0 .11 0 .14.14.15h1.57c.08 0 .11 0 .11-.12a.48.48 0 000-.12c.01-.39 0-.73 0-1.07zm-.91 3.82H20c-.14 0-.16 0-.16.17v.9c0 .14 0 .17.16.17h1.5c.14 0 .16 0 .16-.17v-.9c0-.15 0-.17-.17-.17zm0 1.9H20c-.14 0-.16 0-.16.17v.9c0 .14 0 .17.16.17h1.5c.14 0 .16 0 .16-.17v-.9c0-.15 0-.17-.16-.17zm0-3.8H20c-.14 0-.16 0-.16.17v.9c0 .14 0 .17.16.17h1.5c.14 0 .16 0 .16-.17v-.9c0-.15 0-.17-.16-.17zm2.46 3.14H24c.14 0 .17 0 .17-.18v-.87c0-.15 0-.19-.18-.19h-1.5c-.14 0-.16 0-.16.17v.9c0 .15 0 .17.17.17zm0-3.8H24c.14 0 .17 0 .17-.18V25c0-.14 0-.17-.17-.17h-1.5c-.15 0-.17 0-.17.18v.88c0 .15 0 .18.17.18zm0 5.7H24c.13 0 .16 0 .16-.17v-.9c0-.13 0-.17-.16-.17h-1.56c-.07 0-.1 0-.11.12v1a.11.11 0 00.1.1h.8zm0-7.6H24c.14 0 .17 0 .17-.18v-.89c0-.14 0-.17-.17-.17h-1.5c-.15 0-.17 0-.17.17V24c0 .15 0 .18.17.18zm0 3.8H24c.14 0 .17 0 .17-.18v-.88c0-.14 0-.18-.17-.18h-1.5c-.15 0-.17 0-.17.18v.79a.75.75 0 000 .15c0 .08 0 .11.11.11h.79zm.91-6.69v-.77a.37.37 0 000-.11.11.11 0 00-.19-.07.65.65 0 00-.11.12c-.36.46-.73.92-1.09 1.39a1.56 1.56 0 00-.16.2.14.14 0 00.09.22h1.26c.17 0 .21 0 .21-.2zM31.26 31v2.8a.15.15 0 01-.15.15h-5.53a.17.17 0 01-.17-.16v-5.56c0-.24 0-.29.28-.29H31c.14 0 .23 0 .23.25.02.92.03 1.81.03 2.81zm-4.14-1.05h.77c.12 0 .16 0 .16-.17v-.91c0-.13 0-.16-.16-.16h-1.54c-.14 0-.17 0-.17.17v.88c0 .16 0 .18.18.19zm2.51 0h.76c.15 0 .18 0 .18-.18v-.89c0-.14 0-.17-.16-.17h-1.54c-.14 0-.16 0-.16.17v.88c0 .29 0 .19.18.19zm-2.53 1.84h.8c.12 0 .15 0 .15-.16v-.88c0-.17 0-.2-.19-.2h-1.53c-.11 0-.14 0-.15.14v.95c0 .11 0 .14.14.15h.78zm2.55-1.24h-.77c-.15 0-.17 0-.17.19v.88c0 .14 0 .17.15.17h1.55c.14 0 .16 0 .16-.16v-.9c0-.14 0-.18-.17-.18zM9 29.11h2.67c.24 0 .28 0 .28.29v4.22c0 .24-.05.28-.28.28h-1.62c-.1 0-.11 0-.11-.11V31.1c0-.1 0-.14-.14-.15H8.17a.12.12 0 00-.12.12v2.63c0 .2 0 .2-.19.2H6.23a.16.16 0 01-.16-.17v-4.44a.16.16 0 01.16-.18H9zM9 28.65H6.23a.16.16 0 01-.11-.25l.13-.18q1.29-1.71 2.57-3.44c.14-.19.26-.18.39 0L11.64 28l.28.38a.17.17 0 010 .2.17.17 0 01-.18.1H9zM3.15 4.69l-1 .36a.83.83 0 010-.13v-.8a.17.17 0 01.12-.18 5.11 5.11 0 001-.57h.06a.37.37 0 01.35-.14h.65c.21 0 .21 0 .21.21v6.82c0 .21 0 .19-.18.19H3.22a.08.08 0 01-.07-.07V4.69zM6.09 4.69l-1 .36v-.93a.17.17 0 01.12-.18c.27-.13.53-.27.79-.42a3 3 0 00.36-.26.26.26 0 01.16-.07h.86c.12 0 .12 0 .13.13v7.08H6.17s-.07 0-.07-.08a.57.57 0 010-.13v-5.5zM28.36 26.13h2.74a.14.14 0 01.15.15.2.2 0 010 .07v1c0 .17-.05.21-.21.22h-5.48c-.09 0-.13-.06-.13-.15v-1.15c0-.09 0-.13.13-.14h2.8zM18.94 7.68h.41c.11 0 .12 0 .15.12.06.31.13.62.19.94s.1.48.16.72v-.17c.1-.48.2-1 .3-1.44a.24.24 0 010-.08c0-.06 0-.09.1-.09h.36c.07 0 .09 0 .09.1a2.81 2.81 0 010 .29v2.06a2.29 2.29 0 000 .25.08.08 0 01-.09.09h-.25s-.08 0-.09-.09V8.85c0 .14-.07.29-.1.44L20 10.33c0 .13 0 .13-.16.13s-.19 0-.24-.2l-.27-1.32a.09.09 0 000-.06 1.1 1.1 0 000 .18v1.19c0 .21 0 .21-.21.21s-.23 0-.22-.24V7.96c.02-.09.03-.17.04-.28zM22.93 10.46h-.34c-.05 0-.07 0-.08-.07v-.06V8.8c0 .13-.05.24-.07.36l-.24 1.17c0 .14 0 .14-.17.14s-.19 0-.23-.18c-.09-.48-.19-1-.29-1.44a.25.25 0 010-.07v1.67a1 1 0 01-.34 0 .05.05 0 01-.06-.06v-.09-1.06V7.79c0-.1 0-.12.12-.12h.32c.1 0 .11 0 .13.11.09.4.17.81.25 1.22 0 .15.06.31.1.49.05-.21.09-.4.13-.59.07-.36.14-.72.22-1.09 0-.14 0-.14.19-.14h.28c.06 0 .1 0 .1.09a1.09 1.09 0 000 .18V10.33zM22.67 4.48c.33.15.41.41.39.79a.77.77 0 010 .15.66.66 0 01-.66.56h-.79c-.08 0-.1 0-.1-.1V3.33c0-.13 0-.14.14-.14h.6a1.14 1.14 0 01.45.1.54.54 0 01.27.34 1 1 0 010 .49.44.44 0 01-.3.36zm-.67.66v.22c0 .22 0 .22.23.21a.25.25 0 00.27-.27 2.09 2.09 0 000-.25.32.32 0 00-.32-.34c-.12 0-.14 0-.14.13zM22 4v.27c0 .08 0 .09.1.09a.64.64 0 00.2 0 .18.18 0 00.15-.15 1.24 1.24 0 000-.27.24.24 0 00-.25-.25h-.13c-.07 0-.09 0-.1.08zM14.66 9.06v.54a1.85 1.85 0 01-.07.41.53.53 0 01-.39.39.92.92 0 01-.28 0h-.66c-.11 0-.12 0-.13-.13V7.86c0-.19 0-.2.19-.19s.48 0 .72 0a.61.61 0 01.6.59.69.69 0 010 .13v.65zm-.55 0v-.5a2.09 2.09 0 000-.25.22.22 0 00-.22-.23h-.09c-.11 0-.12 0-.12.12V10s0 .08.07.08c.21 0 .36-.06.36-.3zM12.46 9.07V7.86c0-.19 0-.19.2-.19h.16c.08 0 .1 0 .1.1v2.5c0 .19 0 .19-.18.19s-.17 0-.25-.18L12 9.05A.05.05 0 0012 9v1.38s0 .08-.08.08h-.31a.08.08 0 01-.08-.09V7.76a.08.08 0 01.09-.09c.3 0 .25 0 .36.22s.34.79.5 1.18zM19.23 4.6V3.34c0-.14 0-.15.14-.15h.21c.09 0 .1 0 .11.11v2.5c0 .18 0 .18-.19.18h-.06c-.09 0-.13 0-.16-.11-.17-.42-.34-.84-.52-1.25a.19.19 0 00-.05-.1v1.35c0 .09 0 .11-.11.11h-.26c-.08 0-.09 0-.1-.1V3.39c0-.2 0-.2.2-.2.13 0 .19 0 .24.15.16.4.33.78.49 1.17v.09zM25.35 9v1.25a.49.49 0 010 .12.08.08 0 01-.09.09H25a.08.08 0 01-.09-.09V7.79c0-.11 0-.12.14-.12.27 0 .23 0 .34.22L25.83 9a.1.1 0 000 .05V7.84c0-.17 0-.17.17-.17h.2a.08.08 0 01.09.09v2.51c0 .19 0 .19-.18.19a.18.18 0 01-.2-.13c-.16-.42-.33-.83-.5-1.24a.3.3 0 010-.1zM18.71 9.06v.61a1.64 1.64 0 01-.05.32.63.63 0 01-.5.48 1.24 1.24 0 01-.47 0 .66.66 0 01-.54-.56 1.33 1.33 0 010-.28V8.48a1.64 1.64 0 010-.22.66.66 0 01.63-.61 1 1 0 01.46 0 .53.53 0 01.4.38 1.61 1.61 0 01.08.38c0 .23-.01.44-.01.65zm-1 0v.63a1.41 1.41 0 000 .2.22.22 0 00.21.19c.15 0 .23 0 .26-.17a1.49 1.49 0 000-.21V8.43a.76.76 0 000-.21.16.16 0 00-.18-.15c-.2-.05-.32 0-.32.22a1.09 1.09 0 000 .18zM23.65 8.78v.86a1.09 1.09 0 000 .26.2.2 0 00.23.16.21.21 0 00.21-.17 1.64 1.64 0 000-.22V7.86c0-.19 0-.19.19-.19h.24a.08.08 0 01.09.09v1.75a2.38 2.38 0 010 .46.61.61 0 01-.61.51 1.35 1.35 0 01-.4 0 .59.59 0 01-.45-.46 1.58 1.58 0 01-.05-.38V7.83c0-.13 0-.14.14-.14h.25c.13 0 .14 0 .14.15v1zM11.89 4.3v.91a.58.58 0 000 .19.21.21 0 00.22.19.22.22 0 00.23-.19 2.45 2.45 0 000-.27V3.41c0-.24 0-.22.22-.22h.21c.08 0 .1 0 .1.11v1.78a1.84 1.84 0 01-.05.41.61.61 0 01-.63.52A1.38 1.38 0 0112 6a.62.62 0 01-.56-.59 2 2 0 010-.35V3.29c0-.08 0-.1.1-.1h.33c.07 0 .09 0 .1.1v1zM27.39 4.23V3.77a.18.18 0 00-.16-.18.21.21 0 00-.26.1.45.45 0 000 .16v1.46a.49.49 0 000 .12c0 .13.12.17.26.16a.19.19 0 00.18-.2V5c0-.12 0-.14.14-.14h.29c.06 0 .1 0 .1.09a2.19 2.19 0 010 .51.59.59 0 01-.51.49 1.48 1.48 0 01-.42 0 .6.6 0 01-.53-.52 1.26 1.26 0 01-.05-.33V4a1.27 1.27 0 01.05-.34.61.61 0 01.52-.49 1.85 1.85 0 01.41 0 .55.55 0 01.44.41 1.75 1.75 0 010 .56s0 .07-.08.07zM17 8.7h-.5v-.13a2.8 2.8 0 000-.29c0-.14-.07-.21-.2-.22a.2.2 0 00-.25.18 1.11 1.11 0 000 .17V9.7a1.7 1.7 0 000 .22c0 .11.09.15.21.15s.17 0 .2-.14a.71.71 0 000-.2V9.4a4 4 0 01.49 0 1.31 1.31 0 01-.12.78.55.55 0 01-.31.25 1 1 0 01-.6 0 .6.6 0 01-.42-.38 1.7 1.7 0 01-.09-.54v-.93a2.53 2.53 0 010-.38.65.65 0 01.62-.58 1.46 1.46 0 01.42 0 .57.57 0 01.44.51 3 3 0 010 .43.29.29 0 01.11.14zM19.77 6v-.2l.48-2.42c0-.15 0-.15.17-.15h.29c.11 0 .12 0 .15.13l.24 1.04c.1.48.19 1 .29 1.44v.06c0 .06 0 .08-.06.08H21s-.07 0-.08-.09 0-.28-.07-.42 0-.12-.13-.12h-.21c-.09 0-.1 0-.12.11l-.06.33c0 .14 0 .14-.17.14h-.27zm.93-1a3.31 3.31 0 00-.12-.87c0 .29-.11.57-.13.87zM15.74 6a.49.49 0 010-.12c.17-.83.33-1.65.5-2.48v-.09a.11.11 0 01.11-.08h.37c.07 0 .1 0 .11.1 0 .23.09.46.14.7l.36 1.8c0 .19 0 .19-.15.19H17a.1.1 0 01-.12-.09l-.06-.36c0-.12 0-.13-.15-.13h-.2c-.09 0-.1 0-.12.1s0 .27-.07.41 0 .12-.15.12h-.33zm.82-1.9l-.14.9a.7.7 0 00.29 0zM11.38 10.45h-.43c-.14 0-.07 0-.08-.09s0-.29-.07-.43 0-.1-.11-.1h-.25c-.06 0-.09 0-.09.08s0 .25-.07.37 0 .18-.21.18h-.23c-.08 0-.1 0-.08-.1 0-.24.09-.48.14-.71l.36-1.8c0-.18 0-.18.22-.18h.24c.12 0 .12 0 .15.12L11.11 9c.08.43.17.87.25 1.31a.54.54 0 01.02.14zm-.66-1l-.14-.88-.14.88a.76.76 0 00.28-.02zM31 9.51v.19a1.8 1.8 0 00.06.22.22.22 0 00.14.13.18.18 0 00.25-.15.51.51 0 00-.14-.44L30.89 9a.79.79 0 01-.3-.49 1.45 1.45 0 010-.36.63.63 0 01.62-.53h.22a.61.61 0 01.57.58.13.13 0 010 .06c0 .16 0 .17-.12.19l-.31.06V8.2a.2.2 0 00-.2-.14.2.2 0 00-.19.18.38.38 0 00.12.36l.29.27c.11.1.21.19.31.3a.91.91 0 01.1.83.62.62 0 01-.51.51.81.81 0 01-.53-.05.6.6 0 01-.32-.34 2.57 2.57 0 01-.08-.38s0-.09.05-.1zM13.51 5v.16a1.05 1.05 0 00.06.24.21.21 0 00.16.14.19.19 0 00.27-.11.53.53 0 00-.15-.43l-.35-.32-.25-.25a.81.81 0 01-.18-.73.57.57 0 01.48-.49 1.28 1.28 0 01.39 0 .6.6 0 01.5.53c0 .23.08.23-.18.28L14 4v-.16a.83.83 0 000-.15.18.18 0 00-.22-.13.21.21 0 00-.17.2.38.38 0 00.13.33l.41.38a2.22 2.22 0 01.28.33.81.81 0 01.06.82.62.62 0 01-.55.36h-.24a.61.61 0 01-.51-.4c0-.12-.06-.25-.09-.37a.08.08 0 01.08-.11zM32.84 6a.64.64 0 01-.58-.26 1.06 1.06 0 01-.18-.55.08.08 0 01.06-.08l.34-.07c.05 0 .07 0 .08.07a1.28 1.28 0 000 .27.31.31 0 00.09.14.18.18 0 00.22 0A.19.19 0 0033 5.4a.52.52 0 00-.12-.4l-.42-.39-.15-.13a.86.86 0 01-.2-.82.59.59 0 01.38-.43.91.91 0 01.54 0 .5.5 0 01.36.3.93.93 0 01.1.37c0 .06 0 .09-.08.1H33a1.43 1.43 0 000-.22.19.19 0 00-.24-.14.18.18 0 00-.15.17.38.38 0 00.11.35l.35.32a2 2 0 01.36.4 1 1 0 01.11.66.64.64 0 01-.7.46zM10.78 4v-.31a.19.19 0 00-.22-.12.19.19 0 00-.17.18.39.39 0 00.12.35c.14.12.28.24.41.37a2 2 0 01.27.32.84.84 0 01.13.69.65.65 0 01-.61.51h-.24a.6.6 0 01-.5-.4 1.62 1.62 0 01-.09-.38.08.08 0 01.07-.1l.32-.11v.15a2.1 2.1 0 00.06.24.21.21 0 00.16.14.17.17 0 00.23-.12.46.46 0 00-.1-.41c-.11-.12-.23-.22-.35-.33a3.07 3.07 0 01-.27-.26.81.81 0 01-.13-.87.58.58 0 01.38-.34.9.9 0 01.43 0 .6.6 0 01.51.54c0 .21.1.23-.17.28h-.21zM29.35 9.05V7.77c0-.08 0-.1.11-.1h1c.09 0 .11 0 .11.11a1 1 0 010 .17c0 .11 0 .12-.13.13H30c-.13 0-.14 0-.14.14v.47c0 .11 0 .12.11.12h.3a.08.08 0 01.09.09v.21c0 .08 0 .1-.1.1H30c-.09 0-.11 0-.11.1V10c0 .09 0 .1.11.1h.41c.11 0 .12 0 .12.13a1 1 0 010 .17c0 .08 0 .09-.1.1h-1c-.12 0-.14 0-.14-.14V9.05zM25.62 3.21v.37h-.53c-.09 0-.1 0-.11.11v.52c0 .1 0 .1.1.11h.32c.06 0 .09 0 .09.09a1.47 1.47 0 010 .21c0 .07 0 .09-.1.09h-.3c-.09 0-.1 0-.11.1v.65c0 .1 0 .11.11.11h.42c.11 0 .12 0 .13.12 0 .33 0 .27-.26.27h-.8c-.12 0-.13 0-.13-.13V3.32c0-.12 0-.13.12-.13h.92z"/><path fill="#fff" d="M31.89 4.34a.76.76 0 010 .33s-.05.06-.1.06h-.29c-.11 0-.11 0-.12.11v.64c0 .1 0 .11.11.11h.43c.09 0 .1 0 .11.11 0 .26 0 .28-.24.28H31c-.15 0-.15 0-.15-.15V3.27a.07.07 0 01.15-.08h.95c.13 0 .14 0 .14.14v.18a.09.09 0 01-.09.09h-.47s-.08 0-.08.08v.59c0 .2 0 .07.08.07h.4zM14.87 4.78v-1a.27.27 0 000-.09c0-.1 0-.11-.1-.11h-.22c-.1 0-.12 0-.12-.11V3.3c0-.09 0-.1.1-.11h1.19c.13 0 .14 0 .14.14v.19c0 .06 0 .09-.1.09h-.09c-.28 0-.25 0-.25.26v2c0 .08 0 .1-.1.1H15a.08.08 0 01-.09-.09v-.11c-.04-.33-.04-.66-.04-.99zM29.09 4.79V3.71c0-.09 0-.1-.1-.1h-.24c-.1 0-.11 0-.11-.12v-.17c0-.11 0-.13.12-.13h1.17c.12 0 .14 0 .14.14v.2a.09.09 0 01-.09.08h-.22c-.12 0-.12 0-.13.13V5.8c0 .18 0 .18-.17.18h-.27c-.07 0-.1 0-.1-.09v-1.1zM28.12 9.26v1.12a.06.06 0 01-.07.07h-.39a.1.1 0 01-.08-.09V8.2c0-.11 0-.11-.12-.12h-.22c-.1 0-.11 0-.11-.11a.6.6 0 010-.19c0-.09 0-.11.11-.11h1.17c.13 0 .15 0 .15.14V8c0 .06 0 .09-.1.09h-.23c-.1 0-.11 0-.11.12zM24.37 5.6v.31a.06.06 0 01-.07.09h-1c-.12 0-.13 0-.13-.13V3.32c0-.12 0-.13.13-.13h.28c.11 0 .12 0 .12.13v2.13c0 .13 0 .14.13.14h.51zM29.13 10.46h-.46a.09.09 0 01-.07-.06.37.37 0 010-.11V7.84a.22.22 0 010-.08c0-.06 0-.09.09-.09H29a.08.08 0 01.09.09.22.22 0 000 .08v2.62zM27.09 9.06v1.32a.06.06 0 01-.07.07 2.54 2.54 0 01-.39 0c-.05 0-.07 0-.07-.07V7.75a.07.07 0 01.07-.08H27a.07.07 0 01.08.08v1.31zM30.64 4.6v1.3a.07.07 0 01-.08.08h-.37a.07.07 0 01-.08-.08V3.33c0-.13 0-.14.14-.14h.27c.11 0 .12 0 .12.12V4.6zM28.61 4.59v1.3a.08.08 0 01-.09.09h-.34c-.08 0-.09 0-.1-.09v-2.6c0-.08 0-.1.1-.1h.34a.08.08 0 01.09.09v.11zM18 4.59v1.32a.06.06 0 01-.07.07h-.38a.07.07 0 01-.07-.07.49.49 0 010-.12V3.37c0-.18 0-.18.18-.18h.22c.12 0 .13 0 .13.13v1.27z"/><path fill="#f89c25" d="M17.44 18.11v.61c0 .13 0 .14-.13.14h-1.07c-.12 0-.13 0-.13-.13v-1.25c0-.11 0-.12.13-.13h1.06c.13 0 .14 0 .14.14zM15 21.33v.61c0 .14 0 .14-.13.14h-1.06c-.11 0-.12 0-.13-.12v-1.25c0-.12 0-.13.13-.13h1.08c.11 0 .12 0 .12.12zM16.11 21.33v-.61c0-.13 0-.14.13-.14h1.08c.1 0 .12 0 .12.12V22c0 .11 0 .12-.11.12h-1.1c-.1 0-.12 0-.12-.11zM15 18.11v.62c0 .11 0 .13-.12.13H13.8c-.1 0-.11 0-.12-.13v-1.26c0-.1 0-.11.12-.11h1.1c.1 0 .11 0 .11.11zM13.68 31v-.6c0-.11 0-.12.12-.12h1.09c.11 0 .12 0 .12.12v1.26c0 .11 0 .12-.11.12h-1.1c-.1 0-.11 0-.12-.12zM17.44 31v.61c0 .13 0 .14-.13.14h-1.07c-.12 0-.13 0-.13-.14v-1.2c0-.12 0-.13.13-.13h1.07c.12 0 .13 0 .13.13zM15 27.8v.62c0 .12 0 .13-.13.13h-1.05c-.12 0-.14 0-.14-.14v-1.23c0-.12 0-.13.13-.13h1.08c.11 0 .12 0 .12.13zM17.44 27.81v.61c0 .12 0 .13-.13.13h-1.07c-.11 0-.13 0-.13-.13v-1.25c0-.11 0-.12.12-.12h1.09c.11 0 .12 0 .12.12zM16.11 24.56V24c0-.11 0-.13.12-.13h1.1c.09 0 .11 0 .11.11v1.22c0 .09 0 .11-.11.11h-1.1c-.11 0-.12 0-.12-.13zM15 24.57v.6c0 .13 0 .14-.14.14h-1c-.12 0-.14 0-.14-.13V24c0-.13 0-.14.14-.14h1c.13 0 .14 0 .14.14zM21.68 24.83v1a.48.48 0 010 .12c0 .08 0 .11-.11.12H20c-.1 0-.13 0-.14-.15a.64.64 0 01.15-.49c.46-.57.9-1.14 1.35-1.71a.64.64 0 01.13-.15.11.11 0 01.19.07.48.48 0 010 .12c.01.37 0 .72 0 1.07zM20.77 28.65h.74c.15 0 .17 0 .17.17v.9c0 .14 0 .17-.16.17H20c-.14 0-.16 0-.16-.17v-.9c0-.15 0-.17.16-.17zM20.77 30.55h.75c.14 0 .16 0 .16.17v.9c0 .14 0 .17-.16.17H20c-.13 0-.16 0-.16-.17v-.9c0-.15 0-.17.16-.17zM20.77 26.75h.75c.14 0 .16 0 .16.17v.9c0 .14 0 .17-.16.17H20c-.14 0-.16 0-.16-.17v-.9c0-.15 0-.17.16-.17zM23.23 29.89h-.73c-.15 0-.17 0-.17-.17v-.9c0-.14 0-.17.16-.17H24c.15 0 .18 0 .18.19v.87c0 .15 0 .18-.17.18zM23.25 26.09h-.75c-.15 0-.17 0-.17-.18V25c0-.16 0-.18.17-.18H24c.14 0 .17 0 .17.17v.89c0 .14 0 .18-.17.18zM23.23 31.79h-.8a.11.11 0 01-.1-.1v-1c0-.08 0-.11.11-.12H24c.12 0 .16 0 .16.17v.9c0 .13 0 .17-.16.17zM23.23 24.19h-.73c-.15 0-.17 0-.17-.18v-.89c0-.15 0-.17.17-.17H24c.14 0 .17 0 .17.17V24c0 .14 0 .18-.17.18zM23.23 28h-.79c-.08 0-.1 0-.11-.11a.75.75 0 010-.15v-.79c0-.16 0-.18.17-.18H24c.14 0 .17 0 .17.18v.88c0 .15 0 .18-.17.18zM24.14 21.3v.78c0 .16 0 .2-.21.2h-1.26a.14.14 0 01-.09-.22 1.56 1.56 0 01.16-.2c.36-.47.73-.93 1.09-1.39a.65.65 0 01.11-.12.11.11 0 01.19.07.37.37 0 010 .11zM27.12 29.91h-.76c-.15 0-.18 0-.18-.19v-.88c0-.14 0-.17.17-.17h1.54c.13 0 .16 0 .16.16v.91c0 .13 0 .16-.16.17zM29.63 29.91h-.74c-.15 0-.18 0-.18-.19v-.88c0-.29 0-.17.16-.17h1.54c.14 0 .16 0 .16.17v.89c0 .14 0 .18-.18.18zM27.1 31.79h-.78c-.11 0-.14 0-.14-.15v-.95c0-.1 0-.13.15-.14h1.53c.16 0 .19 0 .19.2v.88c0 .13 0 .16-.15.16zM29.65 30.55h.75c.14 0 .17 0 .17.18v.9c0 .13 0 .16-.16.16h-1.55c-.13 0-.15 0-.15-.17v-.88c0-.29 0-.19.17-.19zM22 5.14v-.3c0-.12 0-.13.14-.13a.32.32 0 01.32.34 2.09 2.09 0 010 .25.25.25 0 01-.27.27c-.22 0-.23 0-.23-.21zM22 4v-.33c0-.07 0-.08.1-.08h.13a.24.24 0 01.25.25 1.24 1.24 0 010 .27.18.18 0 01-.15.15.64.64 0 01-.2 0c-.08 0-.09 0-.1-.09V4zM14.11 9.06v.7c0 .24-.15.3-.36.3-.05 0-.07 0-.07-.08V8.2c0-.11 0-.12.12-.12h.08a.22.22 0 01.22.23 2.09 2.09 0 010 .25v.5zM17.67 9.05v-.58a1.09 1.09 0 010-.18c0-.17.12-.27.32-.22a.16.16 0 01.14.15.76.76 0 010 .21v1.26a1.49 1.49 0 010 .21c0 .13-.11.17-.26.17a.22.22 0 01-.21-.19 1.41 1.41 0 010-.2zM20.7 5h-.25c0-.3.09-.58.13-.87a3.31 3.31 0 01.12.87zM16.56 4.06l.14.94a.7.7 0 01-.29 0l.14-.9zM10.72 9.43a.76.76 0 01-.3 0l.14-.88z"/></g></svg>