<svg xmlns="http://www.w3.org/2000/svg" viewBox="0 0 36.76 37.49"><g data-name="Layer 2"><path fill="#cc8b2a" d="M36.76 37.49H0V0h36.76zM14.28 27.7l-.12.08a3.43 3.43 0 01-1.55.51 4.19 4.19 0 01-1.61-.16 3.63 3.63 0 01-2.57-3.3 9.2 9.2 0 010-1 5.71 5.71 0 01.23-1.31A3.32 3.32 0 0110 20.58a3.88 3.88 0 011.36-.52 3.73 3.73 0 011.56 0 4.45 4.45 0 012.25 1.22 9.25 9.25 0 011.17 1.46 20.86 20.86 0 011.3 2.26 13.06 13.06 0 001 1.74 8.76 8.76 0 001.88 2 7.54 7.54 0 001.45.85 5.87 5.87 0 003.55.51 4.89 4.89 0 003.36-2.27 6.1 6.1 0 00.9-2.91 8.18 8.18 0 000-1.31 7 7 0 00-.3-1.64 5 5 0 00-2.77-3.19 6.24 6.24 0 00-2.06-.55 5.09 5.09 0 00-1.65.1 6.35 6.35 0 00-2.18 1A9.23 9.23 0 0019 21.09a.15.15 0 000 .17l.05.09.67 1.2.05.07a.15.15 0 00.25 0L20 22.6a8.37 8.37 0 011-1.17 4.65 4.65 0 012.18-1.32 4.26 4.26 0 01.62-.13 4.37 4.37 0 012 .33 3.28 3.28 0 011.78 1.62 4.59 4.59 0 01.44 1.67 6.76 6.76 0 010 1.19 5.22 5.22 0 01-.28 1.36 3.23 3.23 0 01-1.84 2 3.77 3.77 0 01-2.15.2 5.59 5.59 0 01-1.76-.7 6.1 6.1 0 01-1.71-1.57 11.46 11.46 0 01-1.18-2 19.36 19.36 0 00-1.48-2.58 10.6 10.6 0 00-1.61-1.86A5.91 5.91 0 0013 18.26a4.82 4.82 0 00-1.2 0 5.87 5.87 0 00-1.66.36 5 5 0 00-2.9 2.69 6.73 6.73 0 00-.55 2.33 9 9 0 00.07 1.87A5.21 5.21 0 008 28.28a5.33 5.33 0 003.53 1.77 6.1 6.1 0 002-.13 5.43 5.43 0 001.95-.92l.11-.09.09.07.66.62a.18.18 0 00.17.05c.07 0 .09-.08.1-.15l.21-1.27c.09-.6.19-1.2.28-1.8 0-.16 0-.31.08-.47a.16.16 0 00-.19-.19h-.11l-2.25.64-1.05.29a.14.14 0 00-.07.25.46.46 0 00.07.07l.59.55zM6.75 9.29l.08-.13c.32-.48.63-1 .94-1.44s.56-.84.82-1.27a2.72 2.72 0 00.36-2A1.52 1.52 0 007.82 3.2a2.49 2.49 0 00-1.15-.05A1.53 1.53 0 005.5 4a3.25 3.25 0 00-.18.43A3.78 3.78 0 005.2 5.6v.07a8 8 0 001.31 0v-.09-.51a1.41 1.41 0 01.11-.46.45.45 0 01.38-.3.45.45 0 01.59.39 1.58 1.58 0 01-.13 1c-.1.21-.22.41-.34.61l-1.88 3a.51.51 0 00-.07.24v.7a.66.66 0 000 .14h3.6a.13.13 0 000-.06 2.44 2.44 0 000-.27v-.65c0-.22 0-.11-.1-.11h-2zM3.1 4.67V10.39h1.36V3.21h-1a.22.22 0 00-.15.06 3.18 3.18 0 01-.31.26c-.26.15-.53.29-.79.42a.13.13 0 00-.1.14v.84a.65.65 0 000 .11zm18.49 4.08v1.59c0 .09 0 .1.1.1H22c.06 0 .09 0 .09-.08v-.09-.85-1.24-.5h-.49c-.13 0-.13 0-.16.13l-.15.75c-.07.31-.13.63-.2 1a.34.34 0 000-.08c0-.22-.08-.43-.13-.65s-.13-.67-.2-1c0-.11 0-.12-.13-.12H20.22c0 .15-.06 2.62 0 2.74a.82.82 0 00.27 0c.12 0 .12 0 .12-.13V8.75v.09c.09.46.19.91.28 1.36.06.28.06.28.33.24zm2.14-5.54v2.75h.98a.62.62 0 00.5-.43 1.07 1.07 0 000-.64.51.51 0 00-.3-.37h-.06a.43.43 0 00.29-.35 1.06 1.06 0 000-.47.5.5 0 00-.32-.38.86.86 0 00-.23-.06h-.8zM15 14.92h.93a.6.6 0 00.52-.5 3.05 3.05 0 00.05-.41v-.94a1.63 1.63 0 000-.31.59.59 0 00-.51-.55.91.91 0 00-.23 0H15zm7.57 0h.95a.59.59 0 00.5-.49 1.84 1.84 0 00.05-.41v-.89-.36a.59.59 0 00-.51-.56h-.97zM12.86 4.61a.52.52 0 00.29-.39 1.3 1.3 0 000-.52.57.57 0 00-.39-.44h-1.08V6a3.38 3.38 0 00.45 0v-.06a.37.37 0 000-.11v-.96-.14h.18c0 .1 0 .19.07.28.08.29.15.58.22.86 0 .1 0 .1.13.1h.41c-.03-.47-.14-.9-.28-1.36zm2.28 3.06a.93.93 0 000 .14v2.5a.5.5 0 000 .12 1 1 0 00.43 0V8.95l.21.49c.12.31.24.61.37.91 0 .05 0 .1.09.11h.27V7.69a1.49 1.49 0 00-.42 0V9.1c-.09-.17-.17-.33-.24-.5s-.23-.55-.35-.83c0 0 0-.1-.09-.1zm2.71-3.1v.66a1.53 1.53 0 00.08.37.57.57 0 00.41.37 1.08 1.08 0 00.44 0 .65.65 0 00.61-.57 1.66 1.66 0 000-.32v-1a1.31 1.31 0 00-.07-.44.61.61 0 00-.46-.42 1.18 1.18 0 00-.46 0 .64.64 0 00-.56.55 2.58 2.58 0 000 .29zm1.24 7.6v2.75h.5v-1.23h.19l.15.59c0 .19.1.37.14.56s0 .08.08.08h.47l-.19-.67-.18-.68a.61.61 0 00.31-.59v-.2a.72.72 0 00-.66-.62h-.82zm10.13-1.72a1.42 1.42 0 000-.19v-2.5c0-.06 0-.09-.08-.09h-.22c-.13 0-.14 0-.14.14V9.1a.13.13 0 01-.04-.1c-.06-.15-.12-.3-.19-.45s-.22-.54-.34-.81c0 0-.05-.09-.08-.1a.69.69 0 00-.32 0v2.75a2.06 2.06 0 00.43 0V9.06v-.1c.09.18.16.36.24.53s.23.56.34.85a.15.15 0 00.17.11zM14.91 9.06V8.6a1.83 1.83 0 000-.33.67.67 0 00-.49-.6 1.18 1.18 0 00-.56 0 .58.58 0 00-.45.43 2 2 0 00-.06.34v1.18a1.27 1.27 0 000 .28.65.65 0 00.47.55 1.3 1.3 0 00.52 0 .62.62 0 00.5-.46.58.58 0 000-.18c.06-.25.06-.5.07-.75zm17.18 5.86v-1.48a.47.47 0 01.06.09c.14.36.29.72.44 1.09a2.44 2.44 0 00.1.24.12.12 0 00.08.06h.27v-2.76h-.41v1.41a.16.16 0 01-.06-.08l-.33-.78c-.06-.16-.13-.31-.2-.47s0-.08-.08-.08h-.3v2.76zm-11.32-1.39v.8a.65.65 0 00.67.59.89.89 0 00.23 0 .62.62 0 00.6-.5 1.74 1.74 0 00.05-.39v-1a1.51 1.51 0 000-.3.65.65 0 00-.51-.57 1.19 1.19 0 00-.53 0 .59.59 0 00-.46.45 1.33 1.33 0 000 .34c-.05.19-.05.38-.05.58zM26 9V9.84a.63.63 0 00.56.58 1.41 1.41 0 00.41 0 .61.61 0 00.54-.51 1.61 1.61 0 000-.37v-1a1.51 1.51 0 000-.3.64.64 0 00-.49-.56 1.06 1.06 0 00-.56 0 .55.55 0 00-.43.4 1.28 1.28 0 00-.07.39c.04.19.04.38.04.53zm5.43 4.51v-.44a2.55 2.55 0 000-.39.65.65 0 00-.61-.59 1.28 1.28 0 00-.34 0 .59.59 0 00-.55.47 1.76 1.76 0 00-.06.38v1a1.55 1.55 0 000 .31.64.64 0 00.54.59 1.07 1.07 0 00.47 0 .59.59 0 00.48-.44 1.19 1.19 0 00.06-.37c.01-.1 0-.29 0-.48zM21.08 3.2h-.29c-.14 0-.14 0-.14.14v1.3a.24.24 0 01-.06-.09c-.17-.39-.34-.79-.5-1.19a.22.22 0 00-.25-.16c-.18 0-.19 0-.19.19v2.4a.49.49 0 000 .12s0 .06.05.06a1.7 1.7 0 00.39 0V4.45a.15.15 0 010 .07c.1.23.19.47.29.7s.17.43.26.65c0 0 .05.09.08.09a.51.51 0 00.3 0zM13.3 14.92h.45v-1.5a.31.31 0 01.05.1c.13.3.25.6.37.9l.17.42s0 .08.08.08a1 1 0 00.3 0V14v-.93-.9h-.42v1.42a.24.24 0 01-.06-.08c-.15-.37-.31-.73-.46-1.1l-.09-.19a.09.09 0 00-.07-.06h-.32zm5.05-7.23v1.9a1.63 1.63 0 000 .31.59.59 0 00.55.56 1.48 1.48 0 00.42 0 .55.55 0 00.48-.44 1.13 1.13 0 00.05-.32V7.78a.31.31 0 000-.09 2 2 0 00-.49 0V9.6a1 1 0 010 .3.19.19 0 01-.22.17.22.22 0 01-.24-.19 1.53 1.53 0 010-.3V7.69a1.4 1.4 0 00-.55 0zm6 4.48a.11.11 0 000 .05v2a1.13 1.13 0 00.06.32.55.55 0 00.4.38 1.1 1.1 0 00.54 0 .56.56 0 00.47-.45 1.74 1.74 0 000-.39v-1.8-.12a1.64 1.64 0 00-.5 0v1.88a1.53 1.53 0 010 .3.23.23 0 01-.24.19.23.23 0 01-.23-.2 2.83 2.83 0 010-.29v-1.89zm3.25 1a1.49 1.49 0 00-.09-.73.53.53 0 00-.34-.28 1.18 1.18 0 00-.56 0 .57.57 0 00-.46.43 1.52 1.52 0 00-.06.42v1.09a2.66 2.66 0 000 .28.66.66 0 00.53.57 1.1 1.1 0 00.51 0 .51.51 0 00.33-.24 1.21 1.21 0 00.11-.79h-.47v.48a.21.21 0 01-.21.21.22.22 0 01-.24-.19.47.47 0 010-.17v-1.39a.65.65 0 010-.19.21.21 0 01.26-.14.18.18 0 01.18.19 2 2 0 010 .25 1.41 1.41 0 000 .2zM13.14 8.69a.14.14 0 000-.06 1.57 1.57 0 00-.05-.53.55.55 0 00-.42-.42 1.06 1.06 0 00-.56 0 .62.62 0 00-.43.4 1.43 1.43 0 00-.07.46v1.05a1.36 1.36 0 000 .29.64.64 0 00.56.58 1 1 0 00.49 0 .55.55 0 00.37-.33 1.57 1.57 0 00.07-.68h-.46a.28.28 0 000 .08v.41c0 .13-.08.18-.19.19s-.23 0-.26-.16a.71.71 0 010-.21V8.4a.63.63 0 010-.19c0-.13.12-.17.27-.16a.18.18 0 01.18.19V8.69zm-.52 3.47h-.4c-.13 0-.13 0-.16.14-.15.78-.31 1.55-.46 2.33 0 .09 0 .18-.05.28H12l.11-.62a2.16 2.16 0 01.44 0l.11.61h.48zm8.68-7a1.1 1.1 0 00.05.4.62.62 0 00.52.45.65.65 0 00.2 0 .67.67 0 00.67-.79 1 1 0 00-.28-.58l-.33-.31-.24-.22a.4.4 0 01-.1-.33.21.21 0 01.4-.06.24.24 0 010 .12 1.06 1.06 0 010 .19h.26c.19 0 .19 0 .15-.23a.61.61 0 00-.53-.57.87.87 0 00-.48.06.57.57 0 00-.33.38.74.74 0 000 .36.81.81 0 00.29.54c.15.14.31.27.45.42a.69.69 0 01.16.22.37.37 0 010 .29.19.19 0 01-.26.13.21.21 0 01-.15-.15 1.17 1.17 0 01-.06-.2 1.35 1.35 0 000-.18zm-4.52 4.45a.9.9 0 00.18.64.76.76 0 00.23.17.81.81 0 00.51 0 .68.68 0 00.51-.8 1.07 1.07 0 00-.35-.62l-.37-.33-.15-.15a.39.39 0 01-.08-.31.21.21 0 01.18-.19.2.2 0 01.22.13 1.74 1.74 0 01.05.22v.1l.43-.09a1 1 0 00-.07-.38.55.55 0 00-.35-.3.86.86 0 00-.59 0 .53.53 0 00-.32.35.84.84 0 00.15.83c.05 0 .1.11.16.16s.29.25.43.39a.49.49 0 01.16.4.2.2 0 01-.13.21.21.21 0 01-.27-.1 2.76 2.76 0 01-.08-.27v-.16zm-2.1-4.48a1 1 0 000 .35.65.65 0 00.57.51.73.73 0 00.64-.17.75.75 0 00.17-.72 1 1 0 00-.35-.57l-.36-.32a1.14 1.14 0 01-.15-.16.36.36 0 01-.06-.3.18.18 0 01.19-.17.17.17 0 01.21.14.94.94 0 010 .16.78.78 0 000 .14l.43-.08A.89.89 0 0016 3.5a.55.55 0 00-.37-.31.84.84 0 00-.54 0 .57.57 0 00-.36.38.85.85 0 00.21.86 1.54 1.54 0 00.19.17l.35.33a.5.5 0 01.16.42.2.2 0 01-.13.2.22.22 0 01-.25-.09.7.7 0 01-.08-.2v-.25zm8.14 4.1H23a1.23 1.23 0 00.27 0 .6.6 0 00.47-.48 1.19 1.19 0 000-.53.57.57 0 00-.56-.5h-.76c-.25 0-.15 0-.15.15v2.54a.08.08 0 00.09.09h.43zm-6-4.48H17a2.06 2.06 0 00.26 0 .57.57 0 00.51-.47 1.26 1.26 0 000-.61.57.57 0 00-.44-.42h-.87c-.13 0-.14 0-.14.14v2.49a.08.08 0 00.09.09h.31c.12 0 .12 0 .12-.13V4.75zm1.18 9h.33a.62.62 0 00.61-.47 1.13 1.13 0 000-.63.55.55 0 00-.48-.43h-1v2.75H18zM27.89 3.2h-1c-.19 0-.19 0-.19.19v2.48c0 .09 0 .1.1.1h.93c.13 0 .14 0 .14-.14 0-.27 0-.23-.21-.23h-.41a3.17 3.17 0 010-.87h.4a.07.07 0 00.08-.06 1.17 1.17 0 000-.32h-.46a2.42 2.42 0 010-.76h.6zm-14.46 0v2.76h1.05c.08 0 .09 0 .09-.09a.6.6 0 000-.19c0-.09 0-.1-.1-.1H14a3.41 3.41 0 010-.85h.46v-.39H14v-.76h.62v-.25c0-.08 0-.14-.14-.14h-1zm10.75 4.87v2.29a.08.08 0 00.09.09h.44V8.23a.61.61 0 010-.14h.42v-.35s0-.06-.07-.07H23.74v.38zM28 12.56v2.36h.52v-2.36H29a1.19 1.19 0 000-.38h-1.4v.39zm-2-6.97v-2.2-.11a.08.08 0 00-.09-.09h-.42V6h1.08c.05 0 .08 0 .08-.08v-.25c0-.06 0-.08-.09-.08H26zm-3.07-1v1.26c0 .11 0 .12.12.12h.3c.08 0 .09 0 .1-.09V3.27a.06.06 0 00-.07-.07H23c-.05 0-.07 0-.07.09v1.28zm2.85 4.49V7.76a.08.08 0 00-.09-.09h-.29c-.14 0-.14 0-.14.14v2.56c0 .05 0 .08.07.08h.37a.07.07 0 00.08-.08V9.06zm3.83 3.11h-.48v2.75h.48c.01-.16.01-2.66-.02-2.77z"/><path fill="#fff" d="M14.28 27.7l-.11-.09-.59-.55a.46.46 0 01-.07-.07.14.14 0 01.07-.25l1.05-.29 2.25-.64h.11a.16.16 0 01.19.19c0 .16-.05.31-.08.47-.09.6-.19 1.2-.28 1.8l-.21 1.27c0 .07 0 .13-.1.15a.18.18 0 01-.17-.05l-.66-.64-.09-.07-.11.09a5.43 5.43 0 01-1.91.91 6.1 6.1 0 01-2 .13A5.33 5.33 0 018 28.28a5.21 5.21 0 01-1.31-2.8 9 9 0 01-.07-1.87 6.73 6.73 0 01.55-2.33 5 5 0 012.9-2.69 5.87 5.87 0 011.66-.36 4.82 4.82 0 011.2 0 5.91 5.91 0 013.08 1.42 10.6 10.6 0 011.61 1.86 19.36 19.36 0 011.48 2.58 11.46 11.46 0 001.18 2A6.1 6.1 0 0022 27.65a5.59 5.59 0 001.76.7 3.77 3.77 0 002.15-.2 3.23 3.23 0 001.84-2 5.22 5.22 0 00.28-1.36 6.76 6.76 0 000-1.19 4.59 4.59 0 00-.44-1.67 3.28 3.28 0 00-1.78-1.62 4.37 4.37 0 00-2-.33 4.26 4.26 0 00-.62.13A4.65 4.65 0 0021 21.43a8.37 8.37 0 00-1 1.17l-.06.08a.15.15 0 01-.25 0l-.05-.07-.64-1.22v-.09a.15.15 0 010-.17 9.23 9.23 0 011.84-1.8 6.35 6.35 0 012.18-1 5.09 5.09 0 011.65-.1 6.24 6.24 0 012.06.55A5 5 0 0129.49 22a7 7 0 01.3 1.64 8.18 8.18 0 010 1.31 6.1 6.1 0 01-.9 2.91 4.89 4.89 0 01-3.36 2.27 5.87 5.87 0 01-3.53-.54 7.54 7.54 0 01-1.45-.85 8.76 8.76 0 01-1.88-2 13.06 13.06 0 01-1-1.74 20.86 20.86 0 00-1.28-2.26 9.25 9.25 0 00-1.17-1.46 4.45 4.45 0 00-2.25-1.22 3.73 3.73 0 00-1.56 0 3.88 3.88 0 00-1.36.52 3.32 3.32 0 00-1.41 1.89 5.71 5.71 0 00-.23 1.31 9.2 9.2 0 000 1A3.63 3.63 0 0011 28.13a4.19 4.19 0 001.65.16 3.43 3.43 0 001.55-.51zM6.75 9.29h2c.09 0 .1 0 .1.11v.65a2.44 2.44 0 010 .27.13.13 0 010 .06h-3.6a.66.66 0 010-.14v-.7a.51.51 0 01.07-.24l1.82-2.94c.12-.2.24-.4.34-.61a1.58 1.58 0 00.13-1A.45.45 0 007 4.31a.45.45 0 00-.36.28 1.41 1.41 0 00-.11.46v.6a8 8 0 01-1.31 0v-.07a3.78 3.78 0 01.12-1.21A3.25 3.25 0 015.5 4a1.53 1.53 0 011.17-.81 2.49 2.49 0 011.15.05A1.52 1.52 0 019 4.44a2.72 2.72 0 01-.36 2c-.26.43-.55.85-.82 1.27s-.62 1-.94 1.44zM3.1 4.67L2.11 5a.65.65 0 010-.11v-.84A.13.13 0 012.19 4c.26-.13.53-.27.79-.42a3.18 3.18 0 00.37-.27.22.22 0 01.15-.11h1v7.18H3.11v-.18-5.36zM21.59 8.75l-.34 1.67c-.27 0-.27 0-.33-.24-.09-.45-.19-.9-.28-1.36v-.09 1.57c0 .12 0 .13-.12.13a.82.82 0 01-.27 0V7.69H20.66c.1 0 .11 0 .13.12.07.33.14.67.2 1s.09.43.13.65a.34.34 0 010 .08c.07-.34.13-.66.2-1l.15-.75c0-.13 0-.13.16-.13h.39V10.34c0 .06 0 .08-.09.08h-.22c-.09 0-.1 0-.1-.1V8.76zM23.73 3.21H24.6a.86.86 0 01.23.06.5.5 0 01.32.38 1.06 1.06 0 010 .47.43.43 0 01-.29.35h.06a.51.51 0 01.3.37 1.07 1.07 0 010 .64.62.62 0 01-.5.43h-.98c-.04-.06-.04-2.59-.01-2.7zm.51 2.37a.8.8 0 00.31 0 .23.23 0 00.18-.17.79.79 0 000-.48.3.3 0 00-.14-.17.52.52 0 00-.35 0zm0-1.26h.27a.22.22 0 00.19-.2 1.13 1.13 0 000-.32.15.15 0 00-.1-.14.59.59 0 00-.37-.05zM15 14.92v-2.75h.73a.91.91 0 01.23 0 .59.59 0 01.51.55 1.63 1.63 0 010 .31V14a3.05 3.05 0 01-.05.41.6.6 0 01-.52.5H15zm.53-2.37v2h.18a.23.23 0 00.29-.25 1.41 1.41 0 000-.2V13a1.27 1.27 0 000-.2.2.2 0 00-.19-.19zM22.59 14.92v-2.75h.97a.59.59 0 01.51.56v1.25a1.84 1.84 0 01-.05.41.59.59 0 01-.5.49h-.1zm.52-2.36v1.98h.19a.23.23 0 00.23-.25.45.45 0 000-.11V13a1.94 1.94 0 000-.24.2.2 0 00-.17-.2zM12.86 4.61c.12.46.25.89.36 1.35h-.41c-.1 0-.1 0-.13-.1-.07-.28-.14-.57-.22-.86 0-.09-.05-.18-.07-.28h-.18V5.8a.37.37 0 010 .11v.06a3.38 3.38 0 01-.45 0V3.21h1.08a.57.57 0 01.39.44 1.3 1.3 0 010 .52.52.52 0 01-.37.44zm-.66-1v.79h.24a.27.27 0 00.22-.22 1 1 0 000-.34.25.25 0 00-.22-.21 2.07 2.07 0 00-.24-.05zM15.14 7.67h.3c.06 0 .07.06.09.1.12.28.24.55.35.83s.15.33.24.5V7.69a1.49 1.49 0 01.42 0v2.77h-.27c-.06 0-.07-.06-.09-.11-.13-.3-.25-.6-.37-.91l-.21-.49v1.48a1 1 0 01-.43 0 .5.5 0 010-.12v-2.5a.93.93 0 01-.03-.14zM17.85 4.57V4a2.58 2.58 0 010-.29.64.64 0 01.56-.55 1.18 1.18 0 01.46 0 .61.61 0 01.46.42 1.31 1.31 0 01.07.44v1a1.66 1.66 0 010 .32.65.65 0 01-.61.57 1.08 1.08 0 01-.44 0 .57.57 0 01-.41-.37 1.53 1.53 0 01-.08-.37v-.66zm.53 0v.65a1.23 1.23 0 000 .2.21.21 0 00.25.17.21.21 0 00.23-.19 1.36 1.36 0 000-.21V4a1.36 1.36 0 000-.2.19.19 0 00-.14-.19c-.19 0-.33 0-.35.25a.81.81 0 000 .16zM19.09 12.17h.82a.72.72 0 01.66.62V13a.61.61 0 01-.31.59l.18.68.19.67h-.47c-.06 0-.07 0-.08-.08s-.09-.37-.14-.56l-.15-.59h-.19v1.23h-.5c-.03-.12-.04-2.55-.01-2.77zm.52.38v.66s0 .1.07.11c.27 0 .38-.08.41-.3V13c0-.32-.12-.45-.43-.42zM29.22 10.45H29a.15.15 0 01-.17-.11c-.11-.29-.23-.57-.34-.85s-.15-.35-.24-.53v1.48a2.06 2.06 0 01-.43 0V7.69a.69.69 0 01.32 0s.06.06.08.1c.12.27.23.54.34.81s.13.3.19.45a.13.13 0 00.05.06v-1.3c0-.13 0-.14.14-.14h.22c.06 0 .08 0 .08.09v2.5a1.42 1.42 0 01-.02.19zM14.91 9.06v.76a.58.58 0 010 .18.62.62 0 01-.5.46 1.3 1.3 0 01-.52 0 .65.65 0 01-.47-.55 1.27 1.27 0 010-.28V8.45a2 2 0 01.06-.34.58.58 0 01.45-.43 1.18 1.18 0 01.56 0 .67.67 0 01.49.6 1.83 1.83 0 010 .33v.46zm-1.06 0v.67a.58.58 0 000 .19.2.2 0 00.24.16.21.21 0 00.23-.16 1.49 1.49 0 000-.21V8.42a.66.66 0 000-.23c0-.11-.12-.13-.22-.13s-.19 0-.22.13a.65.65 0 000 .2zM32.09 14.92h-.41v-2.76H32c.05 0 .07 0 .08.08s.14.31.2.47l.33.78a.16.16 0 00.06.08v-.7-.71h.41v2.76h-.27a.12.12 0 01-.08-.06 2.44 2.44 0 01-.1-.24c-.15-.37-.3-.73-.44-1.09a.47.47 0 00-.06-.09c-.04.49-.02.98-.04 1.48zM20.77 13.53v-.59a1.33 1.33 0 010-.34.59.59 0 01.46-.45 1.19 1.19 0 01.53 0 .65.65 0 01.51.57 1.51 1.51 0 010 .3v1a1.74 1.74 0 01-.05.39.62.62 0 01-.6.5.89.89 0 01-.23 0 .65.65 0 01-.67-.59V13.49zm1.05 0v-.64a1.64 1.64 0 000-.22c0-.11-.11-.15-.23-.15a.2.2 0 00-.24.14.69.69 0 000 .2v1.34a.55.55 0 000 .17.22.22 0 00.23.18.23.23 0 00.24-.19.71.71 0 000-.21c.01-.15 0-.4 0-.61zM26 9v-.57a1.28 1.28 0 01.07-.39.55.55 0 01.43-.4 1.06 1.06 0 01.56 0 .64.64 0 01.49.56 1.51 1.51 0 010 .3v1a1.61 1.61 0 010 .37.61.61 0 01-.54.51 1.41 1.41 0 01-.41 0 .63.63 0 01-.6-.5V9zm.53 0v.87a.21.21 0 00.12.14.26.26 0 00.36-.2.57.57 0 000-.13V8.34a.71.71 0 000-.21c0-.11-.13-.13-.23-.13s-.19 0-.22.13a1.55 1.55 0 000 .21zM31.42 13.55v.57a1.19 1.19 0 01-.06.37.59.59 0 01-.48.44 1.07 1.07 0 01-.47 0 .64.64 0 01-.54-.59 1.55 1.55 0 010-.31V13a1.76 1.76 0 01.06-.38.59.59 0 01.55-.47 1.28 1.28 0 01.34 0 .65.65 0 01.61.59 2.55 2.55 0 010 .39v.44zm-1.05 0v.63a1.23 1.23 0 000 .19.24.24 0 00.48 0 .77.77 0 000-.15v-1.35a1.1 1.1 0 000-.18.2.2 0 00-.24-.15c-.13 0-.2 0-.23.15a.91.91 0 000 .23zM21.08 3.2V6a.51.51 0 01-.3 0s-.06 0-.08-.09c-.09-.22-.18-.43-.26-.65s-.19-.47-.29-.7a.15.15 0 000-.07V6a1.7 1.7 0 01-.39 0l-.05-.06a.49.49 0 010-.12V3.38c0-.19 0-.18.19-.19a.22.22 0 01.25.16c.16.4.33.8.5 1.19a.24.24 0 00.06.09v-1.3c0-.13 0-.14.14-.14zM13.3 14.92v-2.76h.32a.09.09 0 01.07.06l.09.19c.15.37.31.73.46 1.1a.24.24 0 00.06.08v-1.42h.43v2.74a1 1 0 01-.3 0s-.06 0-.08-.08l-.17-.42c-.12-.3-.24-.6-.37-.9a.31.31 0 00-.05-.1v1.5zM18.35 7.69a1.4 1.4 0 01.5 0v1.89a1.53 1.53 0 000 .3.22.22 0 00.24.19.19.19 0 00.22-.17 1 1 0 000-.3V7.69a2 2 0 01.49 0 .31.31 0 010 .09V9.7a1.13 1.13 0 01-.05.32.55.55 0 01-.48.44 1.48 1.48 0 01-.42 0 .59.59 0 01-.55-.56 1.63 1.63 0 010-.31v-1.9zM24.31 12.17h.49v1.89a2.83 2.83 0 000 .29.23.23 0 00.23.2.23.23 0 00.24-.19 1.53 1.53 0 000-.3v-1.88a1.64 1.64 0 01.5 0v1.92a1.74 1.74 0 010 .39.56.56 0 01-.47.45 1.1 1.1 0 01-.54 0 .55.55 0 01-.4-.38 1.13 1.13 0 01-.06-.32v-2a.11.11 0 01.01-.07zM27.56 13.17h-.49a1.41 1.41 0 010-.2 2 2 0 000-.25.18.18 0 00-.18-.19.21.21 0 00-.26.14.65.65 0 000 .19v1.34a.47.47 0 000 .17.22.22 0 00.24.19.21.21 0 00.21-.21v-.33-.15h.47a1.21 1.21 0 01-.11.79.51.51 0 01-.33.24 1.1 1.1 0 01-.51 0 .66.66 0 01-.53-.57 2.66 2.66 0 010-.28v-1.09a1.52 1.52 0 01.06-.42.57.57 0 01.46-.43 1.18 1.18 0 01.56 0 .53.53 0 01.34.28 1.49 1.49 0 01.07.78zM13.14 8.69h-.48v-.15-.3a.18.18 0 00-.18-.19c-.15 0-.24 0-.27.16a.63.63 0 000 .19v1.3a.71.71 0 000 .21c0 .12.12.17.26.16s.17-.06.19-.19 0-.27 0-.41a.28.28 0 010-.08h.46a1.57 1.57 0 01-.07.68.55.55 0 01-.37.33 1 1 0 01-.49 0 .64.64 0 01-.56-.58 1.36 1.36 0 010-.29v-.99a1.43 1.43 0 01.07-.46.62.62 0 01.43-.4 1.06 1.06 0 01.56 0 .55.55 0 01.42.42 1.57 1.57 0 01.05.53.14.14 0 01-.02.06zM12.62 12.16l.55 2.76h-.48l-.11-.61a2.16 2.16 0 00-.44 0l-.11.62h-.49c0-.1 0-.19.05-.28.15-.78.31-1.55.46-2.33 0-.14 0-.14.16-.14zm-.1 1.76l-.16-.92c0 .31-.12.62-.15.94zM21.3 5.13l.43-.13a1.35 1.35 0 010 .18 1.17 1.17 0 00.06.2.21.21 0 00.15.15.19.19 0 00.26-.13.37.37 0 000-.29.69.69 0 00-.2-.18c-.14-.15-.3-.28-.45-.42A.81.81 0 0121.3 4a.74.74 0 010-.36.57.57 0 01.33-.38.87.87 0 01.48-.06.61.61 0 01.53.57c0 .2 0 .2-.15.23h-.26a1.06 1.06 0 000-.19.24.24 0 000-.12.21.21 0 00-.4.06.4.4 0 00.1.33l.24.22.33.31a1 1 0 01.28.58.67.67 0 01-.67.79.65.65 0 01-.2 0 .62.62 0 01-.52-.45 1.1 1.1 0 01-.09-.4z"/><path fill="#fff" d="M16.78 9.61l.43-.09v.16a2.76 2.76 0 00.08.27.21.21 0 00.27.1.2.2 0 00.13-.21.49.49 0 00-.16-.4c-.14-.14-.29-.26-.43-.39s-.1-.11-.1-.16a.84.84 0 01-.15-.83.53.53 0 01.32-.35.86.86 0 01.59 0 .55.55 0 01.35.3 1 1 0 01.09.43l-.43.09v-.1a1.74 1.74 0 00-.05-.22.2.2 0 00-.22-.13.21.21 0 00-.18.19.39.39 0 00.08.31l.15.15.37.33a1.07 1.07 0 01.35.63.68.68 0 01-.51.8.81.81 0 01-.51 0 .76.76 0 01-.23-.17.9.9 0 01-.24-.71zM14.68 5.13l.43-.13v.25a.7.7 0 00.08.2.22.22 0 00.25.09.2.2 0 00.13-.2.5.5 0 00-.12-.34l-.35-.33a1.54 1.54 0 01-.19-.17.85.85 0 01-.21-.86.57.57 0 01.36-.38.84.84 0 01.54 0 .55.55 0 01.4.24.89.89 0 01.09.44l-.46.06a.78.78 0 010-.14.94.94 0 000-.16.17.17 0 00-.21-.14.18.18 0 00-.19.17.36.36 0 00.06.3 1.14 1.14 0 00.15.16l.36.32a1 1 0 01.35.57.75.75 0 01-.17.72.73.73 0 01-.64.17.65.65 0 01-.57-.51 1 1 0 01-.09-.33zM22.82 9.23v1.19h-.43a.08.08 0 01-.09-.09V7.82c0-.14 0-.15.15-.15h.76a.57.57 0 01.56.5 1.19 1.19 0 010 .53.6.6 0 01-.47.48 1.23 1.23 0 01-.27 0zm0-.4h.25a.21.21 0 00.2-.2 1.53 1.53 0 000-.37.2.2 0 00-.11-.17.7.7 0 00-.35 0zM16.79 4.75v1.09c0 .13 0 .13-.12.13h-.31a.08.08 0 01-.09-.09V3.33c0-.13 0-.14.14-.14h.87a.57.57 0 01.44.42 1.26 1.26 0 010 .61.57.57 0 01-.51.47 2.06 2.06 0 01-.26 0zm0-.39a1 1 0 00.3 0 .2.2 0 00.14-.14.8.8 0 000-.46.22.22 0 00-.09-.12.52.52 0 00-.35 0zM18 13.7v1.22h-.49v-2.75h1a.55.55 0 01.48.43 1.13 1.13 0 010 .63.62.62 0 01-.61.47zm0-.39h.23a.22.22 0 00.23-.22 1.93 1.93 0 000-.34.21.21 0 00-.13-.19.62.62 0 00-.33 0zM27.89 3.2v.37h-.6a2.42 2.42 0 000 .76h.46a1.17 1.17 0 010 .32.07.07 0 01-.08.06h-.4a3.17 3.17 0 000 .87h.41c.21 0 .21 0 .21.23 0 .14 0 .14-.14.14h-.93c-.08 0-.09 0-.1-.1V3.38c0-.19 0-.19.19-.19h1zM13.43 3.2h1c.13 0 .14 0 .14.14v.25H14v.75h.48v.37h-.46a3.41 3.41 0 000 .85h.52c.09 0 .1 0 .1.1a.6.6 0 010 .19c0 .08 0 .09-.09.09h-1.11c-.02-.08-.03-2.56-.01-2.74z"/><path fill="#fff" d="M24.18 8.07h-.43v-.38H25.07c.05 0 .07 0 .07.07v.32h-.42a.61.61 0 000 .14v2.19h-.44a.08.08 0 01-.09-.09V8.07zM28 12.56h-.4v-.39H29a1.19 1.19 0 010 .38h-.43v2.36H28v-2.35zM26 5.59h.55s.09 0 .09.08v.22c0 .06 0 .08-.08.08h-1.1V3.22h.42a.08.08 0 01.09.09v2.31zM22.91 4.57V3.28s0-.09.07-.09h.38a.06.06 0 01.07.07v2.62c0 .08 0 .09-.1.09H23c-.11 0-.12 0-.12-.12V4.57zM25.76 9.06v1.31a.07.07 0 01-.08.08h-.37s-.07 0-.07-.08V7.81c0-.13 0-.14.14-.14h.29a.08.08 0 01.09.09v1.3zM29.59 12.17v2.75h-.48v-2.75z"/><path fill="#cc8b2a" d="M24.24 5.58v-.86a.52.52 0 01.35 0 .3.3 0 01.14.17.79.79 0 010 .48.23.23 0 01-.18.17.8.8 0 01-.31.04zM24.24 4.32v-.73a.59.59 0 01.37.05.15.15 0 01.1.14 1.13 1.13 0 010 .32.22.22 0 01-.19.2zM15.55 12.55h.23a.2.2 0 01.19.19 1.27 1.27 0 010 .2v1.16a1.41 1.41 0 010 .2.23.23 0 01-.23.23h-.18c-.03-.1-.04-1.81-.01-1.98zM23.11 12.56h.26a.2.2 0 01.17.2 1.94 1.94 0 010 .24v1.18a.45.45 0 010 .11.23.23 0 01-.23.25h-.19v-.14-1.72zM12.2 3.58a2.07 2.07 0 01.25 0 .25.25 0 01.22.21 1 1 0 010 .34.27.27 0 01-.22.22h-.24c-.01-.25-.01-.5-.01-.77zM18.38 4.57V4a.81.81 0 010-.16c0-.25.16-.29.35-.25a.19.19 0 01.14.19 1.36 1.36 0 010 .2v1.21a1.36 1.36 0 010 .21.21.21 0 01-.23.19.21.21 0 01-.25-.17 1.23 1.23 0 010-.2v-.65zM19.61 12.55c.31 0 .45.1.43.42V13c0 .22-.14.31-.41.3-.07 0-.07-.06-.07-.11v-.56s.05-.05.05-.08zM13.85 9.05v-.67a.65.65 0 010-.2c0-.1.1-.13.22-.13s.19 0 .22.13a.66.66 0 010 .23V9.7a1.49 1.49 0 010 .21.21.21 0 01-.23.16.2.2 0 01-.24-.16.58.58 0 010-.19zM21.82 13.54v.62a.71.71 0 010 .21.23.23 0 01-.24.19.22.22 0 01-.23-.18.55.55 0 010-.17v-1.34a.69.69 0 010-.2.2.2 0 01.24-.14c.12 0 .2 0 .23.15a1.64 1.64 0 010 .22c.01.21 0 .43 0 .64zM26.52 9.05v-.66a1.55 1.55 0 010-.21c0-.09.1-.13.22-.13s.19 0 .23.13a.71.71 0 010 .21v1.34a.57.57 0 010 .13.26.26 0 01-.36.2.21.21 0 01-.12-.14v-.21zM30.37 13.53v-.62a.91.91 0 010-.23c0-.11.1-.15.23-.15a.2.2 0 01.24.15 1.1 1.1 0 010 .18v1.35a.77.77 0 010 .15.24.24 0 01-.48 0 1.23 1.23 0 010-.19zM12.52 13.92h-.31c0-.32.1-.63.15-.94zM22.83 8.83v-.76a.7.7 0 01.35 0 .2.2 0 01.11.17 1.53 1.53 0 010 .37.21.21 0 01-.2.2zM16.8 4.36V3.6a.52.52 0 01.35 0 .22.22 0 01.09.12.8.8 0 010 .46.2.2 0 01-.14.14 1 1 0 01-.3.04zM18 13.31v-.75a.62.62 0 01.33 0 .21.21 0 01.13.19 1.93 1.93 0 010 .34.22.22 0 01-.23.22z"/></g></svg>