<svg xmlns="http://www.w3.org/2000/svg" viewBox="0 0 36.76 37.49"><g data-name="Layer 2"><path fill="#48773c" d="M36.76 37.49H0V0h36.76zm-4.38-13.81l-.36-.5a16.9 16.9 0 00-4.16-3.89 16.21 16.21 0 00-8.51-2.74h-1.63a14.84 14.84 0 00-1.87.2 15.93 15.93 0 00-3.71 1.07 17.11 17.11 0 00-6.07 4.39A13.64 13.64 0 005 23.55c-.07.1-.07.1 0 .19a1.63 1.63 0 00.11.17 16.69 16.69 0 003.45 3.49A16.33 16.33 0 0018 30.79h1.63a13.52 13.52 0 001.55-.14 16.23 16.23 0 002.91-.7 16.53 16.53 0 005.67-3.3 16.3 16.3 0 002.53-2.78c.02-.07.05-.13.09-.19zM8.22 6.6a1.24 1.24 0 00.37-.24A1.52 1.52 0 009 5.75a2.45 2.45 0 000-1.37 1.52 1.52 0 00-1.12-1.17 2.42 2.42 0 00-1.41 0 1.52 1.52 0 00-1.09 1 3.25 3.25 0 00-.12 1.2h1.35v-.08-.37a1.52 1.52 0 01.1-.48.4.4 0 01.37-.26h.12a.43.43 0 01.4.3.88.88 0 010 .15 2.21 2.21 0 010 .85 1.34 1.34 0 01-.07.27.47.47 0 01-.35.32 2.6 2.6 0 01-.39 0h-.1v1L7 7.2a.61.61 0 01.58.46v.08a2.85 2.85 0 010 1 1.55 1.55 0 01-.07.31.35.35 0 01-.28.23.48.48 0 01-.65-.41 3.57 3.57 0 01-.06-.65.76.76 0 000-.15 9.85 9.85 0 00-1.34 0v.51a3 3 0 00.2.92 1.43 1.43 0 001 .9 2.64 2.64 0 001.12.05 1.56 1.56 0 001.4-1.1A3.34 3.34 0 009 7.66a1.41 1.41 0 00-.41-.79c-.12-.1-.25-.18-.37-.27zm-3.65 3.79V3.22h-.88a.36.36 0 00-.29.1 1.05 1.05 0 01-.27.2l-.8.43L2.2 4v1l1-.37V10.36zM15.69 3.2c0 .13-.08 2.62 0 2.75H16V4.26L16.42 6h.19c.11 0 .11 0 .13-.11L17 4.54c0-.1 0-.19.07-.29 0 .57 0 1.13.05 1.71a1.61 1.61 0 00.38 0V3.22a2.9 2.9 0 00-.51 0L16.58 5v-.06c-.05-.23-.09-.47-.14-.71s-.13-.63-.19-1c0 0 0-.1-.08-.1zm3.09 5.86v-.47a1.26 1.26 0 00-.09-.54.56.56 0 00-.39-.36 1 1 0 00-.6 0 .52.52 0 00-.41.37 1.8 1.8 0 00-.08.39v1.2a1.15 1.15 0 000 .26.65.65 0 00.49.54 1.16 1.16 0 00.49 0 .6.6 0 00.49-.43 1.59 1.59 0 00.06-.3c.05-.22.04-.44.04-.66zm1.22.07l-.61-1.44H19v2.74a1.48 1.48 0 00.42 0V8.92a.18.18 0 01.06.09c.09.2.17.4.25.6l.3.74s0 .09.08.09h.28V7.69a2.67 2.67 0 00-.4 0zm-5.1-.44a1.88 1.88 0 000-.63.55.55 0 00-.41-.38 1.23 1.23 0 00-.54 0 .57.57 0 00-.44.42 1.61 1.61 0 00-.07.37v1.19a2 2 0 00.06.34.58.58 0 00.44.44 1.07 1.07 0 00.47 0 .59.59 0 00.51-.52v-.5h-.47a.91.91 0 010 .17 1.71 1.71 0 010 .32.19.19 0 01-.21.19.21.21 0 01-.24-.18.31.31 0 010-.13V8.32a.35.35 0 010-.14c0-.11.13-.15.27-.14a.2.2 0 01.19.2v.31a.66.66 0 010 .14zm-1.6-4.48a1.88 1.88 0 00-.05-.63.55.55 0 00-.4-.37 1 1 0 00-.6 0 .52.52 0 00-.37.35 1 1 0 00-.07.33v1.22a1.25 1.25 0 00.07.43.61.61 0 00.42.46 1.2 1.2 0 00.38 0 .59.59 0 00.6-.57v-.41a.29.29 0 000-.09h-.48v.25a1.18 1.18 0 010 .26.2.2 0 01-.21.18.23.23 0 01-.24-.18 1 1 0 010-.24V4a1.5 1.5 0 010-.2.22.22 0 01.26-.2c.13 0 .21.08.22.23v.43h.48zm6 1.73l-.57-2.74h-.52c-.05.12-.55 2.65-.54 2.75a2.34 2.34 0 00.46 0l.11-.62h.45l.11.67a1.47 1.47 0 00.47-.06zm-7 1.75c-.18.91-.36 1.82-.54 2.75h.48l.11-.63h.44l.12.63h.47l-.55-2.75zm8.4-4.48v2.74a6.92 6.92 0 001.12 0V5.6h-.64v-.87h.49a1.09 1.09 0 000-.36h-.49V3.6h.62v-.39zm-1.5 0a1.47 1.47 0 000 .36h.44V5.93a2.88 2.88 0 00.51 0V3.59h.15a1.33 1.33 0 00.2 0h.08a1.2 1.2 0 000-.33 10.52 10.52 0 00-1.44-.03zm-2.85 4.48H15v.38h.44V10.43h.49a.92.92 0 000-.16v-2-.16h.42zM14.67 6v-.4h-.32a1.77 1.77 0 01-.32 0V3.22a1.19 1.19 0 00-.5 0v2.72a7.17 7.17 0 001.14.06zm.65 0V3.25a1.45 1.45 0 00-.47 0v2.74zm1.16 1.73v2.74H17V7.69z"/><path fill="#fff" d="M32.38 23.68c0 .06-.07.12-.11.17a16.3 16.3 0 01-2.53 2.78 16.53 16.53 0 01-5.67 3.3 16.23 16.23 0 01-2.91.7 13.52 13.52 0 01-1.55.14h-1.63a16.33 16.33 0 01-9.42-3.37 16.69 16.69 0 01-3.43-3.49 1.63 1.63 0 01-.13-.17c-.07-.09-.07-.09 0-.19a13.64 13.64 0 011.05-1.33 17.11 17.11 0 016.07-4.39 15.93 15.93 0 013.71-1.07 14.84 14.84 0 011.87-.2h1.63a16.21 16.21 0 018.51 2.74A16.9 16.9 0 0132 23.18zm-17-1c0-.06 0-.12-.05-.18s-.05-.13-.06-.19 0-.08 0-.09a.17.17 0 01.1 0 .16.16 0 01.07.07l.11.13c.08.11.08.11.21.05h.07a.19.19 0 01.26.14.3.3 0 01-.09.33.67.67 0 01-.63.17 4.76 4.76 0 01-.53-.19 4.85 4.85 0 00-1.14-.34.76.76 0 00-.38.11l-.28.41a.69.69 0 000 .13v.4a5.27 5.27 0 00.1 1.19 6 6 0 00.31 1.1s0 .08.06.09a.34.34 0 00.34 0 2.88 2.88 0 01.38-.22.23.23 0 01.31.06.93.93 0 00.15.13.37.37 0 01.17.28c0 .16 0 .15.18.11s.16 0 .19.11 0 .06 0 .08a3 3 0 00.06.32c0 .11.06.21.2.19v.48a3.58 3.58 0 00.09.45c0 .15.12.19.28.17a1 1 0 00.84-.57 2.74 2.74 0 00.15-.4 1.72 1.72 0 00.07-.21.23.23 0 01.13-.16.26.26 0 00.12-.18 2.5 2.5 0 01.07-.26.89.89 0 00.06-.39.85.85 0 010-.16.6.6 0 01.17-.46 2.72 2.72 0 01.24-.24.45.45 0 00.14-.26.22.22 0 00-.08-.25l-.21-.13a1.3 1.3 0 01-.61-.77.78.78 0 010-.22v-.14c0-.02.09 0 .13.07l.42.47a1.29 1.29 0 00.17.16.31.31 0 00.32.07.91.91 0 00.34-.17.57.57 0 00.13-.14.25.25 0 000-.35.43.43 0 00-.11-.12l-.59-.6a1.15 1.15 0 01-.14-.17c0-.05-.06-.1 0-.15a.11.11 0 01.14 0l.15.1a2.15 2.15 0 00.56.34.47.47 0 01.3.39.6.6 0 00.41.48l.37.12a1.57 1.57 0 01.73.46c.1.11.19.11.26 0a.83.83 0 00.19-.71.13.13 0 010-.06.16.16 0 010-.1.33.33 0 01.52 0 .39.39 0 01.08.14c.1.26.2.53.31.79a.72.72 0 00.14.24 2.56 2.56 0 00.67.56h.1c.08 0 .12 0 .11-.11a.62.62 0 00-.07-.19l-.19-.36a.46.46 0 01-.05-.23.9.9 0 01.15-.47.33.33 0 01.24-.17 1.06 1.06 0 00.51-.22c.17-.12.18-.16.08-.34a.72.72 0 01-.11-.37c0-.07 0-.16.09-.19s.13 0 .18.09a1.42 1.42 0 01.12.13.33.33 0 00.35.08.33.33 0 00.24-.28.81.81 0 000-.41 5.71 5.71 0 00-6.2-4.23 5.54 5.54 0 00-2.22.76l-.1.06a.45.45 0 00.16 0 7 7 0 011-.06 1.42 1.42 0 01.4.08.25.25 0 01.18.33.38.38 0 00.12.36 1.32 1.32 0 00.22.18l.12.11a.1.1 0 010 .16h-.06c-.21.13-.42.26-.64.38a1.36 1.36 0 01-.21.1h-.12a.09.09 0 01-.1-.09.12.12 0 010-.1.83.83 0 01.16-.12c.11-.06.22-.11.33-.18a.91.91 0 00.13-.1.34.34 0 00-.32-.1 1.6 1.6 0 00-.29 0 4.18 4.18 0 01-1.06.16 1.38 1.38 0 00-.77.29c-.19.16-.18.31 0 .43a1.82 1.82 0 00.63.22.32.32 0 00.31-.08l.21-.23a.94.94 0 01.18-.12.22.22 0 01.29.14 2.92 2.92 0 00-.5.43.41.41 0 01-.46.08 1.28 1.28 0 00-.75-.06.55.55 0 00-.25.1 2.17 2.17 0 01-.33.19c-.16.08-.16.07-.13.24a.23.23 0 01-.11.24.18.18 0 01-.22 0 .61.61 0 00-.44 0c-.2 0-.26.13-.24.33a.28.28 0 000 .09c0 .17.16.23.31.13a1 1 0 01.29-.1 1.52 1.52 0 00.8-.35.2.2 0 01.22 0 .43.43 0 01.16.19l.23.4c.12.16.17.19.21.24zm6.7 4.9v.14c0 .05.05.1.12.07a.24.24 0 01.28 0l.11.05a.13.13 0 00.17 0 6 6 0 001.24-2 .32.32 0 000-.17 1.47 1.47 0 00-.08-.28c-.11-.23-.12-.24-.33-.09a2.1 2.1 0 01-.83.35 7.44 7.44 0 00-.81.22 1.06 1.06 0 00-.69.81.86.86 0 000 .45c0 .13.08.26.12.39a.94.94 0 000 .16c0 .11.1.14.21.09l.2-.11zm.08.79l-.18-.08a1.13 1.13 0 00-.55 0 1.35 1.35 0 00-.56.28l-.3.26a.25.25 0 01-.22 0l-.26-.07-.81-.28a3.29 3.29 0 00-1.08-.16 1.67 1.67 0 00-.75.22.92.92 0 00-.45.46.22.22 0 00.16.32 5.57 5.57 0 004.61-.73zM23.89 23l.09.2a.2.2 0 010 .23.67.67 0 00-.15.51 1.45 1.45 0 00.37.89l.08.06a.41.41 0 000-.07 5.72 5.72 0 00.1-1.37.54.54 0 00-.19-.37.35.35 0 00-.3-.08zM13.4 21.51a.18.18 0 00.2 0l.19-.15c.11-.1.21-.22.31-.32l.25-.19.22-.15c.08-.06.07-.11 0-.16a.8.8 0 00-.67.13.35.35 0 00-.05.08l-.37.73s-.07 0-.08.03zm4.08 5.21a.2.2 0 00.11-.13l.15-.42a3 3 0 01.22-.59.6.6 0 00.06-.19c0-.11-.05-.17-.16-.14h-.07a.51.51 0 00-.24.32 4 4 0 00-.09.48 4.38 4.38 0 000 .51.14.14 0 00.02.16zm-3.19-6.5a1 1 0 00.4-.15.46.46 0 00.24-.43c0-.09 0-.13-.11-.14a.39.39 0 00-.38.12l-.29.39c-.07.08-.05.14 0 .19zM20 24.64h.12c.11 0 .15-.1.08-.19a.74.74 0 00-.19-.16.23.23 0 00-.33.09c-.05.07-.05.14 0 .18a2.49 2.49 0 00.32.08zm3.13.55h.15c.09 0 .12-.1.06-.18a1 1 0 00-.2-.16.22.22 0 00-.31.06q-.12.14 0 .21a1.81 1.81 0 00.31.07zm-.25-.6h.05c.09 0 .12-.06.07-.14a1 1 0 00-.12-.16l-.12-.09a.12.12 0 00-.14 0 .24.24 0 000 .12.28.28 0 00.27.27zM8.22 6.6c.12.09.25.17.36.27a1.41 1.41 0 01.42.79 3.34 3.34 0 01-.1 1.69 1.56 1.56 0 01-1.31 1.14 2.64 2.64 0 01-1.12-.05 1.43 1.43 0 01-1-.9 3 3 0 01-.2-.92v-.51a9.85 9.85 0 011.34 0 .76.76 0 010 .15 3.57 3.57 0 00.06.65.48.48 0 00.65.41.35.35 0 00.28-.22 1.55 1.55 0 00.07-.31 2.85 2.85 0 000-1v-.08A.61.61 0 007 7.2h-.35v-1h.17a2.6 2.6 0 00.39 0 .47.47 0 00.35-.32 1.34 1.34 0 00.07-.27 2.21 2.21 0 000-.85.88.88 0 000-.15.43.43 0 00-.4-.3h-.14a.4.4 0 00-.37.26 1.52 1.52 0 00-.1.48v.51H5.28a3.25 3.25 0 01.12-1.2 1.52 1.52 0 011.09-1 2.42 2.42 0 011.41 0A1.52 1.52 0 019 4.38a2.45 2.45 0 010 1.37 1.52 1.52 0 01-.36.61 1.24 1.24 0 01-.42.24zM4.57 10.39H3.22V4.66L2.2 5V4l.13-.06.8-.43a1.05 1.05 0 00.27-.2.36.36 0 01.29-.1h.88zM15.69 3.2h.44c.06 0 .07 0 .08.1.06.32.12.64.19 1s.09.48.14.71v.06L17 3.21a2.9 2.9 0 01.51 0v2.74a1.61 1.61 0 01-.38 0c0-.58 0-1.14-.05-1.71 0 .1 0 .19-.07.29l-.27 1.31c0 .11 0 .11-.13.11h-.19l-.36-1.7L16 6h-.38c-.01-.18.03-2.67.07-2.8zM18.78 9.06v.66a1.59 1.59 0 01-.06.3.6.6 0 01-.49.43 1.16 1.16 0 01-.49 0 .65.65 0 01-.49-.54 1.15 1.15 0 010-.26v-1.2a1.8 1.8 0 01.08-.39.52.52 0 01.41-.37 1 1 0 01.6 0 .56.56 0 01.39.36 1.26 1.26 0 01.09.54v.47zm-1 0v.58a1.32 1.32 0 000 .28.22.22 0 00.25.17.22.22 0 00.24-.18 1.23 1.23 0 000-.19V8.41a1.23 1.23 0 000-.2.2.2 0 00-.15-.16c-.18 0-.34 0-.36.25v.75zM20 9.13V7.69a2.67 2.67 0 01.4 0v2.75h-.28s-.06 0-.08-.09l-.3-.74c-.08-.2-.16-.4-.25-.6a.18.18 0 00-.06-.09v1.51a1.48 1.48 0 01-.42 0V7.69h.35L20 9.13zM14.92 8.69h-.48a.66.66 0 000-.14v-.31a.2.2 0 00-.19-.2c-.14 0-.23 0-.27.14a.35.35 0 000 .14v1.47a.31.31 0 000 .13.21.21 0 00.24.16.19.19 0 00.21-.19 1.71 1.71 0 000-.32.91.91 0 000-.17h.47v.5a.59.59 0 01-.51.52 1.07 1.07 0 01-.47 0 .58.58 0 01-.44-.44 2 2 0 01-.06-.34V8.47a1.61 1.61 0 01.07-.37.57.57 0 01.44-.42 1.23 1.23 0 01.54 0 .55.55 0 01.41.38 1.88 1.88 0 01.04.63zM13.3 4.21h-.48v-.42c0-.15-.09-.23-.22-.23a.22.22 0 00-.26.2 1.5 1.5 0 000 .2v1.23a1 1 0 000 .24.23.23 0 00.24.18.2.2 0 00.21-.18 1.18 1.18 0 000-.26v-.25h.48a.29.29 0 010 .09v.41a.59.59 0 01-.6.57 1.2 1.2 0 01-.38 0 .61.61 0 01-.44-.41 1.25 1.25 0 01-.07-.43V3.93a1 1 0 01.07-.33.52.52 0 01.37-.35 1 1 0 01.6 0 .55.55 0 01.4.37 1.88 1.88 0 01.08.59zM19.27 5.94a1.47 1.47 0 01-.47 0l-.11-.62h-.45l-.11.68a2.34 2.34 0 01-.46 0c0-.1.49-2.63.54-2.75h.52zm-.64-1l-.16-1L18.3 5zM12.24 7.69h.53l.55 2.75h-.47l-.12-.63h-.44l-.11.63h-.48c.18-.93.36-1.84.54-2.75zm.44 1.76l-.16-1c-.07.33-.13.65-.17 1zM20.64 3.21h1.12v.36h-.62v.77h.49a1.09 1.09 0 010 .36h-.49v.87h.64v.34a6.92 6.92 0 01-1.12 0c-.04-.05-.05-2.53-.02-2.7zM19.14 3.23a10.52 10.52 0 011.38 0 1.2 1.2 0 010 .33h-.08a1.33 1.33 0 01-.2 0h-.14V6a2.88 2.88 0 01-.51 0v-.78V3.6h-.44a1.47 1.47 0 01-.01-.37zM16.35 7.69v.38h-.42v2.16a.92.92 0 010 .16h-.49V8.07H15v-.38zM14.67 6a7.17 7.17 0 01-1.14 0V3.23a1.19 1.19 0 01.5 0v2.35a1.77 1.77 0 00.32 0h.32zM15.32 6h-.47V3.26a1.45 1.45 0 01.47 0c.02.04.03 2.54 0 2.74zM16.48 7.69H17v2.74h-.48c-.06-.1-.07-2.61-.04-2.74z"/><path fill="#48773c" d="M15.34 22.65s-.09-.08-.11-.13l-.23-.4a.43.43 0 00-.16-.19.2.2 0 00-.22 0 1.52 1.52 0 01-.8.35 1 1 0 00-.29.1c-.15.1-.26 0-.31-.13a.28.28 0 010-.09c0-.2 0-.29.24-.33a.61.61 0 01.44 0 .18.18 0 00.22 0 .23.23 0 00.11-.24c0-.17 0-.16.13-.24a2.17 2.17 0 00.33-.19.55.55 0 01.25-.1 1.28 1.28 0 01.75.06.41.41 0 00.46-.08 2.92 2.92 0 01.5-.43.22.22 0 00-.29-.14.94.94 0 00-.18.12l-.21.23a.32.32 0 01-.31.08 1.82 1.82 0 01-.63-.22c-.21-.12-.22-.27 0-.43a1.38 1.38 0 01.77-.29 4.18 4.18 0 001.06-.16 1.6 1.6 0 01.29 0 .34.34 0 01.32.1.91.91 0 01-.13.1c-.11.07-.22.12-.33.18a.83.83 0 00-.16.12.12.12 0 000 .1.09.09 0 00.1.09h.12a1.36 1.36 0 00.21-.1c.22-.12.43-.25.64-.38h.06a.1.1 0 000-.16l-.12-.11a1.32 1.32 0 01-.22-.18.38.38 0 01-.12-.36.25.25 0 00-.18-.33 1.42 1.42 0 00-.4-.08 7 7 0 00-1 .06.45.45 0 01-.16 0l.1-.06a5.54 5.54 0 012.12-.87 5.71 5.71 0 016.16 4.21.81.81 0 010 .41.33.33 0 01-.24.28.33.33 0 01-.35-.08 1.42 1.42 0 00-.12-.13c-.05-.06-.1-.12-.18-.09s-.08.12-.09.19a.72.72 0 00.11.37c.1.18.09.22-.08.34a1.06 1.06 0 01-.51.22.33.33 0 00-.24.17.9.9 0 00-.15.47.46.46 0 00.05.23l.19.36a.62.62 0 01.07.19c0 .08 0 .12-.11.11h-.1a2.56 2.56 0 01-.67-.56.72.72 0 01-.14-.24c-.11-.26-.21-.53-.31-.79a.39.39 0 00-.08-.14.33.33 0 00-.52 0 .16.16 0 000 .1.13.13 0 000 .06.83.83 0 01-.19.71c-.07.13-.16.13-.26 0a1.57 1.57 0 00-.73-.46l-.37-.12a.6.6 0 01-.41-.48.47.47 0 00-.3-.39 2.15 2.15 0 01-.56-.34l-.15-.1a.11.11 0 00-.14 0c-.05.05 0 .1 0 .15a1.15 1.15 0 00.14.17l.59.6a.43.43 0 01.11.12.25.25 0 010 .35.57.57 0 01-.13.14.91.91 0 01-.34.17.31.31 0 01-.32-.07 1.29 1.29 0 01-.17-.16l-.42-.47s-.07-.1-.13-.07 0 .09 0 .14a.78.78 0 000 .22 1.3 1.3 0 00.61.77l.21.13a.22.22 0 01.08.25.45.45 0 01-.14.26 2.72 2.72 0 00-.24.24.6.6 0 00-.17.46.85.85 0 000 .16.89.89 0 01-.06.39 2.5 2.5 0 00-.07.26.26.26 0 01-.12.18.23.23 0 00-.13.16 1.72 1.72 0 01-.07.21 2.74 2.74 0 01-.15.4 1 1 0 01-.84.57c-.16 0-.23 0-.28-.17a3.58 3.58 0 01-.09-.45v-.48c-.14 0-.18-.08-.2-.19a3 3 0 01-.06-.32v-.08c0-.03-.09-.14-.19-.11s-.16.05-.18-.11a.37.37 0 00-.17-.28.93.93 0 01-.15-.13.23.23 0 00-.31-.06 2.88 2.88 0 00-.38.22.34.34 0 01-.34 0s0-.06-.06-.09a6 6 0 01-.31-1.1 5.27 5.27 0 01-.1-1.19v-.4a.69.69 0 010-.13l.28-.41a.76.76 0 01.38-.11 4.85 4.85 0 011.14.34 4.76 4.76 0 00.53.19.67.67 0 00.63-.17.3.3 0 00.09-.33.19.19 0 00-.26-.14h-.07c-.13.06-.13.06-.21-.05l-.11-.13a.16.16 0 00-.07-.07.17.17 0 00-.1 0v.09c0 .03 0 .12.06.19s0 .12.05.18zM22 27.55l-.19.11-.2.11c-.11.05-.17 0-.21-.09a.94.94 0 010-.16c0-.13-.07-.26-.12-.39a.86.86 0 010-.45 1.06 1.06 0 01.69-.81 7.44 7.44 0 01.81-.22 2.1 2.1 0 00.83-.35c.21-.15.22-.14.33.09a1.47 1.47 0 01.08.28.32.32 0 010 .17 6 6 0 01-1.21 1.92.13.13 0 01-.17 0l-.11-.05a.24.24 0 00-.28 0c-.07 0-.12 0-.12-.07v-.14zM22.12 28.34l-.34.24a5.57 5.57 0 01-4.61.73A.22.22 0 0117 29a.92.92 0 01.4-.45 1.67 1.67 0 01.75-.22 3.29 3.29 0 011.08.16l.81.28.26.07a.25.25 0 00.22 0l.3-.26a1.35 1.35 0 01.56-.28 1.13 1.13 0 01.55 0z"/><path fill="#48773c" d="M23.89 23a.35.35 0 01.3.08.54.54 0 01.19.37 5.72 5.72 0 01-.1 1.37.41.41 0 010 .07l-.08-.06a1.45 1.45 0 01-.37-.89.67.67 0 01.15-.51.2.2 0 000-.23zM13.4 21.51v-.08l.37-.73a.35.35 0 01.05-.08.8.8 0 01.67-.13c.09.05.1.1 0 .16l-.22.15-.17.2c-.1.1-.2.22-.31.32l-.19.15a.18.18 0 01-.2.04zM17.48 26.72a.14.14 0 01-.06-.14 4.38 4.38 0 010-.51 4 4 0 01.09-.48.51.51 0 01.24-.32h.07c.11 0 .18 0 .16.14a.6.6 0 01-.06.19 3 3 0 00-.22.59l-.15.42a.2.2 0 01-.07.11zM14.29 20.22h-.09c-.1-.05-.12-.11 0-.19l.29-.39a.39.39 0 01.38-.12c.08 0 .11.05.11.14a.46.46 0 01-.24.43 1 1 0 01-.45.13zM20 24.64a2.49 2.49 0 01-.29-.11c-.08 0-.08-.11 0-.18a.23.23 0 01.33-.09.74.74 0 01.19.16c.07.09 0 .16-.08.19H20zM23.14 25.19a1.81 1.81 0 01-.27-.1q-.15-.07 0-.21a.22.22 0 01.31-.06 1 1 0 01.2.16c.06.08 0 .15-.06.18zM22.89 24.59a.28.28 0 01-.29-.25.24.24 0 010-.12.12.12 0 01.14 0l.12.09a1 1 0 01.12.16c0 .08 0 .13-.07.14zM17.74 9.05V8.3c0-.26.18-.28.36-.25a.2.2 0 01.15.16 1.23 1.23 0 010 .2v1.3a1.23 1.23 0 010 .19.22.22 0 01-.24.18.22.22 0 01-.25-.17 1.32 1.32 0 010-.28c-.03-.2-.02-.39-.02-.58zM18.63 5h-.33l.15-1zM12.68 9.45h-.33c0-.33.1-.65.17-1z"/></g></svg>