<svg xmlns="http://www.w3.org/2000/svg" viewBox="0 0 36.76 37.49"><g data-name="Layer 2"><path fill="#007dba" d="M36.76 37.49H0V0h36.76zM13 26.25a.28.28 0 000-.08 7.35 7.35 0 00-1.25-1.68 5.23 5.23 0 00-2.87-1.56 2.09 2.09 0 00-.35 0c-.14 0-.19.07-.13.2l.06.09a11.85 11.85 0 011 2.15 8 8 0 01.37 1.81A6.16 6.16 0 019.59 29a10.53 10.53 0 01-1.18 2.88v.08a.12.12 0 00.1.18h.15a5 5 0 002.17-.82A7.13 7.13 0 0013 28.9l.06-.12.09.07a17.87 17.87 0 003.52 2.26 10.27 10.27 0 003.11 1 6.6 6.6 0 002.08 0 8.17 8.17 0 002.49-.9 12.62 12.62 0 004-3.54c.08-.1.08-.11 0-.23A13.43 13.43 0 0025 24.25a8.29 8.29 0 00-3.62-1.34 6.64 6.64 0 00-1.78 0 9.69 9.69 0 00-2.23.66A17.55 17.55 0 0013.39 26zm-4.69-7.08v.38a.23.23 0 00.09.19c.16.11.31.24.48.34a2.62 2.62 0 002.21.31 3.94 3.94 0 001.63-1c.13-.12.15-.12.28 0a4.88 4.88 0 00.73.56 3.2 3.2 0 002.32.42 4.67 4.67 0 002.1-1c.11-.1.12-.1.23 0a5 5 0 001.55.87 3.26 3.26 0 002.2 0 3.94 3.94 0 001.41-.88c.11-.11.14-.11.25 0a4.2 4.2 0 001 .75 2.91 2.91 0 001.44.37 2.83 2.83 0 001.9-.79.17.17 0 00.07-.14v-.8c0-.27-.07-.18-.19-.12l-.1.05a4.06 4.06 0 01-1.67.4 3.27 3.27 0 01-2-.61c-.2-.14-.39-.31-.58-.46s-.1-.07-.18 0a5.2 5.2 0 01-1 .62 4.28 4.28 0 01-1.65.42 3.12 3.12 0 01-1.83-.47 4.29 4.29 0 01-.68-.53c-.09-.08-.13-.08-.22 0l-.23.21a3.23 3.23 0 01-2.52.78 4.82 4.82 0 01-2.33-1c-.11-.09-.12-.09-.23 0s-.25.23-.39.33a3.43 3.43 0 01-2.74.67 4.16 4.16 0 01-1.19-.39c-.14-.07-.2 0-.2.13s.04.22.04.39zm0-3.13v.39a.18.18 0 00.09.18c.15.12.3.24.46.35a2.67 2.67 0 002.38.26 4.19 4.19 0 001.5-1c.1-.1.14-.1.25 0s.31.28.48.41a3.25 3.25 0 002.79.55 4.79 4.79 0 001.9-1c.1-.09.11-.09.21 0a5.08 5.08 0 001.53.88 3.44 3.44 0 001.88.13 3.4 3.4 0 001.5-.76 1.64 1.64 0 00.24-.21c.13-.12.16-.12.28 0a4 4 0 001.37.9 2.62 2.62 0 001.41.18 3.09 3.09 0 001.55-.75.19.19 0 00.07-.17v-.77c0-.16-.07-.2-.21-.13a3.92 3.92 0 01-.74.29 3.56 3.56 0 01-2.41-.11 4 4 0 01-1.17-.79c-.09-.09-.12-.09-.21 0a5.25 5.25 0 01-1.78.9 3.37 3.37 0 01-2.06-.07 3.62 3.62 0 01-1.23-.7c-.12-.11-.15-.11-.27 0l-.38.32a3.16 3.16 0 01-2.39.64 4.83 4.83 0 01-2.3-1c-.09-.08-.12-.08-.21 0s-.27.24-.42.35a3.4 3.4 0 01-2.61.69 4.64 4.64 0 01-1.31-.41c-.12-.07-.19 0-.19.12V16zm.07-8.39V3.22H6.89v.06l-1.8 4.25a.45.45 0 000 .16v1h2.09V10a2.81 2.81 0 000 .41h1.2V8.72h.69a5.88 5.88 0 000-1zM4.46 3.23h-1a.11.11 0 00-.08 0 2.52 2.52 0 01-.64.44L2.12 4v1l1-.37v5.75h1.34zM17.74 7.7l.38 2.72h.4l.15-.88a8.17 8.17 0 01.17-.86l.29 1.74a1.7 1.7 0 00.39 0l.38-2.72h-.4l-.21 1.68L19 7.7h-.33l-.28 1.68-.24-1.68zm4.07 1c.12.58.21 1.16.31 1.74h.39l.38-2.72h-.4c-.08.56-.13 1.12-.23 1.67L22 7.69a1.76 1.76 0 00-.33 0l-.27 1.68-.26-1.67h-.41l.38 2.72h.41l.14-.87zm-10-1v2.73h.92a.61.61 0 00.56-.5 1.25 1.25 0 000-.51.52.52 0 00-.39-.42h-.06a.49.49 0 00.35-.51V8.3a.56.56 0 00-.51-.58 5.66 5.66 0 00-.92-.03zm15.42 0v2.72a1.32 1.32 0 00.49 0V9.18h.21l.32 1.24h.48l-.36-1.34a.43.43 0 00.27-.32 1.2 1.2 0 00.05-.38.6.6 0 00-.58-.67 8.55 8.55 0 00-.93-.02zM16 9v.85a.63.63 0 00.49.55 1.22 1.22 0 00.33 0 .65.65 0 00.68-.63 2 2 0 000-.25v-.99a1.36 1.36 0 000-.29.62.62 0 00-.5-.56 1.06 1.06 0 00-.47 0 .57.57 0 00-.46.42 1 1 0 000 .3c-.07.22-.07.43-.07.6zm7.31 1.38l.12-.62h.46l.11.62h.45l-.51-2.68h-.51l-.55 2.72zm-9.84 0h1.12v-.33H14v-.87h.49v-.35H14V8h.62v-.3a9.82 9.82 0 00-1.1 0zm12.89-1.55a3.34 3.34 0 010-.78h.6V7.7h-1.1v2.72H27v-.33h-.63v-.9h.49v-.36zM15.61 3.57h.61a1.36 1.36 0 000-.35h-1.09v2.72h1.11v-.33h-.63V4.7h.48v-.35h-.48zM15 3.22h-1.14v2.73a3.57 3.57 0 00.46 0V4.71h.48v-.35h-.48v-.8H15zm9.87 7.2h.49V8.06h.42V7.7h-1.36v.35h.45zM11.75 3.21v2.73h1.12v-.33h-.64V3.22h-.48zm3.06 4.49v2.72h1.12v-.33h-.64V7.7zm-1.29-1.76V3.23h-.46v2.71z"/><path fill="#fff" d="M13 26.25l.36-.29a17.55 17.55 0 013.95-2.35 9.69 9.69 0 012.26-.61 6.64 6.64 0 011.78 0A8.29 8.29 0 0125 24.25a13.43 13.43 0 013.33 3.14c.08.12.08.13 0 .23a12.62 12.62 0 01-4 3.54 8.17 8.17 0 01-2.49.9 6.6 6.6 0 01-2.08 0 10.27 10.27 0 01-3.11-1 17.87 17.87 0 01-3.52-2.26l-.13-.02v.12a7.13 7.13 0 01-2.18 2.42 5 5 0 01-2.17.82h-.18a.12.12 0 01-.1-.18v-.08A10.53 10.53 0 009.59 29a6.16 6.16 0 00.18-1.87 8 8 0 00-.37-1.81 11.85 11.85 0 00-1-2.15l-.06-.09c-.06-.13 0-.21.13-.2a2.09 2.09 0 01.35 0 5.23 5.23 0 012.87 1.56A7.35 7.35 0 0113 26.17a.28.28 0 010 .08zm11.17.56a1.25 1.25 0 00-1.15-1.31 1.26 1.26 0 101.15 1.31zM8.31 19.17v-.38c0-.13.06-.2.2-.13a4.16 4.16 0 001.19.39 3.43 3.43 0 002.74-.67c.14-.1.26-.22.39-.33s.12-.1.23 0a4.82 4.82 0 002.33 1 3.23 3.23 0 002.52-.78l.23-.21c.09-.08.13-.08.22 0a4.29 4.29 0 00.68.53 3.12 3.12 0 001.78.48 4.28 4.28 0 001.65-.42 5.2 5.2 0 001-.62c.08-.06.11-.06.18 0s.38.32.58.46a3.27 3.27 0 002 .61 4.06 4.06 0 001.67-.4l.1-.05c.12-.06.19 0 .19.12v.8a.17.17 0 01-.07.14 2.83 2.83 0 01-1.9.79 2.91 2.91 0 01-1.44-.37 4.2 4.2 0 01-1-.75c-.11-.11-.14-.11-.25 0a3.94 3.94 0 01-1.41.88 3.26 3.26 0 01-2.2 0 5 5 0 01-1.55-.87c-.11-.1-.12-.1-.23 0a4.67 4.67 0 01-2.1 1 3.2 3.2 0 01-2.32-.39 4.88 4.88 0 01-.73-.56c-.13-.12-.15-.12-.28 0a3.94 3.94 0 01-1.63 1 2.62 2.62 0 01-2.21-.31c-.17-.1-.32-.23-.48-.34a.23.23 0 01-.09-.19c.01-.17.01-.3.01-.43zM8.31 16v-.38c0-.13.07-.19.19-.12a4.64 4.64 0 001.31.5 3.4 3.4 0 002.61-.67c.15-.11.28-.23.42-.35s.12-.09.21 0a4.83 4.83 0 002.3 1 3.16 3.16 0 002.39-.64l.38-.32c.12-.1.15-.1.27 0a3.62 3.62 0 001.23.78 3.37 3.37 0 002.06.07 5.25 5.25 0 001.78-.9c.09-.07.12-.07.21 0a4 4 0 001.17.79 3.56 3.56 0 002.41.11 3.92 3.92 0 00.74-.29c.14-.07.21 0 .21.13v.77a.19.19 0 01-.07.17 3.09 3.09 0 01-1.55.75 2.62 2.62 0 01-1.41-.18 4 4 0 01-1.37-.9c-.12-.12-.15-.12-.28 0a1.64 1.64 0 01-.24.21 3.4 3.4 0 01-1.5.76 3.44 3.44 0 01-1.88-.13 5.08 5.08 0 01-1.53-.88c-.1-.09-.11-.09-.21 0a4.79 4.79 0 01-1.9 1 3.25 3.25 0 01-2.79-.55c-.17-.13-.32-.27-.48-.41s-.15-.09-.25 0a4.19 4.19 0 01-1.5 1A2.67 2.67 0 018.85 17c-.16-.11-.31-.23-.46-.35a.18.18 0 01-.09-.18c.01-.17.01-.3.01-.47zM8.38 7.65h.69a5.88 5.88 0 010 1h-.68v1.69h-1.2a2.81 2.81 0 010-.41V8.69H5.07v-1a.45.45 0 010-.16l1.79-4.25v-.06h1.52zm-1.21-3l-1 3h1zM4.46 3.23v7.15H3.13V4.65L2.12 5V4l.63-.32a2.52 2.52 0 00.64-.44.11.11 0 01.08 0h1zM17.74 7.7h.41l.21 1.67.28-1.68H19l.28 1.68.22-1.67h.4l-.38 2.72a1.7 1.7 0 01-.39 0l-.29-1.74a8.17 8.17 0 00-.17.86l-.15.88h-.4zM21.81 8.68l-.15.87-.14.87h-.41l-.38-2.72h.41l.21 1.67.27-1.68a1.76 1.76 0 01.33 0l.28 1.68c.1-.55.15-1.11.23-1.67h.4l-.38 2.72h-.39c-.09-.58-.16-1.16-.28-1.74zM11.76 7.69a5.66 5.66 0 01.92 0 .56.56 0 01.51.58v.14a.49.49 0 01-.35.51h.06a.52.52 0 01.35.42 1.25 1.25 0 010 .51.61.61 0 01-.56.5h-.92c-.03-.02-.04-2.48-.01-2.66zm.48 2.4h.34a.26.26 0 00.19-.19.91.91 0 000-.49.27.27 0 00-.15-.18.78.78 0 00-.37 0zm0-1.29a.85.85 0 00.32 0 .23.23 0 00.17-.17.77.77 0 000-.37.2.2 0 00-.16-.17.69.69 0 00-.35 0zM27.18 7.69a8.55 8.55 0 01.88 0 .6.6 0 01.58.67 1.2 1.2 0 01-.05.38.43.43 0 01-.27.32l.36 1.34h-.48l-.32-1.24h-.21v1.24a1.32 1.32 0 01-.49 0zm.49 1.16a.61.61 0 00.3 0 .25.25 0 00.18-.19.75.75 0 000-.42.21.21 0 00-.15-.18.65.65 0 00-.31 0zM16 9v-.63a1 1 0 010-.3.57.57 0 01.46-.42 1.06 1.06 0 01.47 0 .62.62 0 01.53.56 1.36 1.36 0 010 .29v1.08a2 2 0 010 .25.65.65 0 01-.68.63 1.22 1.22 0 01-.33 0 .63.63 0 01-.49-.55V9zm.49 0v.67a1.11 1.11 0 000 .19.23.23 0 00.26.18.23.23 0 00.25-.19.75.75 0 000-.21V8.37a.65.65 0 000-.19.22.22 0 00-.26-.2.23.23 0 00-.25.2.88.88 0 000 .16zM23.34 10.42h-.46l.55-2.72h.51l.54 2.72H24l-.11-.62h-.46zm.53-.95l-.17-1.05-.16 1.05zM13.5 10.42V7.71a9.82 9.82 0 011.1 0V8H14v.79h.49v.35H14v.91h.64v.33zM26.36 8.83h.48v.35h-.49v.89h.63v.33h-1.1V7.68H27V8h-.6a3.34 3.34 0 00-.04.83zM15.61 3.57v.78h.48v.35h-.48v.91h.63v.33h-1.11V3.22h1.09a1.36 1.36 0 010 .35zM15 3.22v.34h-.61v.8h.48v.34h-.48v1.24a3.57 3.57 0 01-.46 0V3.21zM24.82 10.42V8.06h-.45v-.35h1.36v.36h-.42v2.36zM11.75 3.21h.48v2.4h.64v.33h-1.12zM14.81 7.7h.48v2.39h.64v.33h-1.12zM13.52 5.94h-.46V3.23h.46z"/><path fill="#007dba" d="M24.2 26.81a1.23 1.23 0 11-1.15-1.31 1.24 1.24 0 011.15 1.31zM7.17 4.69v2.95H6.11l1-3zM12.24 10.09v-.92a.78.78 0 01.37 0 .27.27 0 01.15.18.91.91 0 010 .49.26.26 0 01-.19.19c-.1.05-.21.05-.33.06zM12.24 8.8v-.75a.69.69 0 01.35 0 .2.2 0 01.16.17.77.77 0 010 .37.23.23 0 01-.17.17.85.85 0 01-.34.04zM27.67 8.85V8a.65.65 0 01.31 0 .21.21 0 01.17.17.75.75 0 010 .42.25.25 0 01-.18.19.61.61 0 01-.3.07zM16.52 9.05v-.66a.88.88 0 010-.16.23.23 0 01.25-.2.22.22 0 01.26.2.65.65 0 010 .19v1.27a.75.75 0 010 .21.23.23 0 01-.25.19.23.23 0 01-.26-.18 1.11 1.11 0 010-.19zM23.87 9.47h-.36l.16-1.05z"/></g></svg>