<svg xmlns="http://www.w3.org/2000/svg" viewBox="0 0 36.76 37.49"><g data-name="Layer 2"><path fill="#40ad49" d="M36.76 37.49H0V0h36.76zM16.84 18.73a2.7 2.7 0 000-2.29A2.57 2.57 0 0015.15 15a2.46 2.46 0 00-2 .23 2.7 2.7 0 00-1.37 2.15 2 2 0 00-1.88 1.23 2 2 0 00.83 2.47l-.05.06a2.14 2.14 0 001.49 3.51h4a2.46 2.46 0 00.54 0 3 3 0 002.39-3.45 2.89 2.89 0 00-2.1-2.41zm1.35 12.06h8.94c.14 0 .15 0 .15-.16v-.89c0-.22 0-.24-.23-.24H9.27c-.12 0-.14 0-.14.15v.94c0 .2 0 .2.21.2zm0 .94H9.31c-.17 0-.18 0-.18.18v.89c0 .23 0 .22.23.22H27.1c.18 0 .18 0 .18-.18V32c0-.22 0-.22-.21-.22zM5.4 3.22c0 .17-.12 4-.09 4.07h1.13v-.12a.89.89 0 01.16-.34.54.54 0 01.52-.18.46.46 0 01.42.35 2 2 0 010 .24 6.76 6.76 0 010 1.62 1.66 1.66 0 01-.11.38.34.34 0 01-.18.19.48.48 0 01-.7-.29 3.55 3.55 0 01-.08-.47v-.36H5.23a.34.34 0 000 .09 4.8 4.8 0 00.12 1 1.33 1.33 0 001.09 1 2.74 2.74 0 001 0 1.48 1.48 0 001.31-1.05 4.75 4.75 0 00.15-.93 5.7 5.7 0 00-.05-1.37 2.26 2.26 0 00-.35-.9 1.13 1.13 0 00-.77-.5 1.79 1.79 0 00-.61 0 1.42 1.42 0 00-.67.28l.07-1.54h2.13V3.22zm-1 7.16V3.22h-.9a.3.3 0 00-.24.09 1.18 1.18 0 01-.25.19 6.1 6.1 0 01-.82.5h-.1v1l1-.37v5.73zm19.32 12l-.1-.08a2.76 2.76 0 00-.68-.36 2 2 0 00-2.18.44.29.29 0 00-.06.32.14.14 0 00.16.09l.1-.05a2.36 2.36 0 01.28-.12 2.2 2.2 0 011 0 2.75 2.75 0 011.28.71.24.24 0 00.37 0 2.16 2.16 0 01.33-.27 2.55 2.55 0 011.55-.51 1.28 1.28 0 01.74.19h.07a.16.16 0 00.19-.14.27.27 0 00-.09-.27l-.29-.23a2 2 0 00-1.17-.36 2.38 2.38 0 00-1.1.32zm-8.42 4.49v-1.29a.34.34 0 000-.1.16.16 0 00-.07-.07h-1c-.14 0-.16 0-.16.16v2.6c0 .15 0 .16.16.16h.94c.14 0 .16 0 .16-.15zm6.09-9.33l-.1-.06a2.12 2.12 0 00-1-.33 1.67 1.67 0 00-1.31.58.21.21 0 00-.05.2.16.16 0 00.26.13.81.81 0 01.18-.1 1.86 1.86 0 01.41-.08 2.06 2.06 0 011.48.49c.19.15.29.14.46 0a2.11 2.11 0 011.08-.62 1.33 1.33 0 011 .07c.12.07.25 0 .24-.18a.26.26 0 00-.09-.18c-.11-.07-.21-.15-.32-.21a1.58 1.58 0 00-1.08-.2 2.29 2.29 0 00-1 .45zm-.86-9.85v2.74a6.84 6.84 0 00.91 0 .59.59 0 00.56-.56 1.53 1.53 0 000-.3V8.52a2.64 2.64 0 000-.28.59.59 0 00-.5-.52h-.25zm-7.3 1.37v-.61a1.8 1.8 0 00-.08-.39.55.55 0 00-.41-.37 1.23 1.23 0 00-.54 0 .58.58 0 00-.47.45 1.65 1.65 0 000 .32v1.18a1.2 1.2 0 00.08.42.53.53 0 00.41.37 1 1 0 00.55 0 .54.54 0 00.42-.38 1.69 1.69 0 00.08-.39c-.03-.2-.04-.4-.04-.6zm6.59.1l-.66-1.46h-.32v2.72h.4V8.88l.63 1.56h.31V7.69h-.39zm-5.91-.28c.11.26.21.52.32.77l.31.78a.66.66 0 00.33 0V7.7h-.41V8.81a1.74 1.74 0 010 .39l-.64-1.5h-.32v2.73h.4zm10.64 6.68l-.11-.14a1.57 1.57 0 00-.42-.35 1.32 1.32 0 00-1.33 0 .24.24 0 00-.13.24.15.15 0 00.13.13h.11a1.69 1.69 0 01.23 0 1.55 1.55 0 01.76.34 1.8 1.8 0 01.41.5.2.2 0 00.3.09 1.72 1.72 0 01.92-.17 1 1 0 01.69.3.16.16 0 00.26 0 .23.23 0 000-.24 1.36 1.36 0 00-1.15-.73 2 2 0 00-.67.03zM17.6 7.69l-.54 2.73h.46l.11-.62h.46l.11.62h.46l-.54-2.73zm-2.5-4.47v2.72a8.25 8.25 0 001.12 0v-.33h-.64V4.7h.49a1.43 1.43 0 000-.36h-.47a4.56 4.56 0 010-.77h.61v-.35zm-.18 0h-1.07v2.72h.47V4.7h.48v-.34h-.47v-.8h.59zm-3.18 0v2.72h1.12v-.33h-.64V3.22h-.48zm4.17 4.48v2.74H17v-.35h-.64V8.16v-.47zM13.51 6V3.22H13V6z"/><path fill="#fff" d="M16.84 18.73l.19.06a2.89 2.89 0 012.07 2.41 3 3 0 01-2.41 3.43 2.46 2.46 0 01-.54 0h-4a2.14 2.14 0 01-1.49-3.51l.05-.06a2 2 0 01-.83-2.47 2 2 0 011.93-1.26 2.7 2.7 0 011.39-2.13 2.46 2.46 0 012-.23 2.57 2.57 0 011.71 1.47 2.7 2.7 0 01-.07 2.29zM18.19 30.79H9.34c-.21 0-.21 0-.21-.2v-.94c0-.13 0-.14.14-.15h17.78c.26 0 .23 0 .23.24v.89c0 .15 0 .16-.15.16h-8.94zM18.22 31.73h8.85c.21 0 .21 0 .21.22v.89c0 .18 0 .18-.18.18H9.36c-.23 0-.23 0-.23-.22v-.89c0-.17 0-.18.18-.18h8.91zM5.4 3.22h3.22v1.17H6.49l-.07 1.54a1.42 1.42 0 01.67-.28 1.79 1.79 0 01.61 0 1.13 1.13 0 01.77.5 2.26 2.26 0 01.35.9 5.7 5.7 0 01.08 1.37 4.75 4.75 0 01-.15.93 1.48 1.48 0 01-1.29 1.12 2.74 2.74 0 01-1 0 1.33 1.33 0 01-1.09-1 4.8 4.8 0 01-.12-1 .34.34 0 010-.09h1.27v.36a3.55 3.55 0 00.08.47.48.48 0 00.7.29.34.34 0 00.18-.19 1.66 1.66 0 00.11-.38 6.76 6.76 0 000-1.62 2 2 0 000-.24.46.46 0 00-.38-.35.54.54 0 00-.52.18.89.89 0 00-.16.34v.12H5.31c-.03-.17.07-3.97.09-4.14zM4.45 10.38H3.11V4.65L2.09 5V4h.1a6.1 6.1 0 00.87-.47 1.18 1.18 0 00.25-.19.3.3 0 01.24-.09h.9zM23.77 22.35l.42-.27a2.38 2.38 0 011.1-.32 2 2 0 011.17.36l.29.23a.27.27 0 01.09.27.16.16 0 01-.19.14h-.07a1.28 1.28 0 00-.74-.19 2.55 2.55 0 00-1.55.51 2.16 2.16 0 00-.33.27.24.24 0 01-.37 0 2.75 2.75 0 00-1.28-.71 2.2 2.2 0 00-1 0 2.36 2.36 0 00-.28.12l-.1.05a.14.14 0 01-.16-.09.29.29 0 01.06-.32 2 2 0 012.17-.49 2.76 2.76 0 01.68.36zM15.3 26.87v1.3c0 .14 0 .15-.16.15h-.94c-.15 0-.16 0-.16-.16v-2.6c0-.14 0-.16.16-.16h1a.16.16 0 01.07.07.34.34 0 010 .1zM21.39 17.54l.1-.08a2.29 2.29 0 011-.45 1.58 1.58 0 011.08.2c.11.06.21.14.32.21a.26.26 0 01.09.18c0 .15-.12.25-.24.18a1.33 1.33 0 00-1-.07 2.11 2.11 0 00-1.08.62c-.17.18-.27.19-.46 0a2.06 2.06 0 00-1.48-.49 1.86 1.86 0 00-.41.08.81.81 0 00-.18.1.16.16 0 01-.26-.13.21.21 0 01.05-.2 1.67 1.67 0 011.31-.58 2.12 2.12 0 011 .33l.1.06zM20.53 7.69h.95a.59.59 0 01.5.52 2.64 2.64 0 010 .28Q22 9 22 9.57a1.53 1.53 0 010 .3.59.59 0 01-.53.54 6.84 6.84 0 01-.91 0zm.49.36v2h.16c.22 0 .31-.09.31-.32V8.45a1.11 1.11 0 000-.19.24.24 0 00-.21-.23zM13.23 9.06v.6a1.69 1.69 0 01-.08.39.54.54 0 01-.42.38 1 1 0 01-.55 0 .53.53 0 01-.41-.37 1.2 1.2 0 01-.08-.42V8.46a1.65 1.65 0 010-.32.58.58 0 01.47-.45 1.23 1.23 0 01.54 0 .55.55 0 01.41.37 1.8 1.8 0 01.08.39c.05.2.04.41.04.61zm-1.05 0v.6a1.09 1.09 0 000 .26.26.26 0 00.5 0 .82.82 0 000-.22V8.44a.65.65 0 000-.2.23.23 0 00-.25-.2.23.23 0 00-.26.2 1.64 1.64 0 000 .23zM19.82 9.16V7.69h.39v2.74h-.31l-.63-1.56v1.54h-.4V7.69h.32l.63 1.47zM13.91 8.88v1.54h-.4V7.69h.32l.64 1.5a1.74 1.74 0 000-.39V7.7h.41v2.7a.66.66 0 01-.33 0l-.31-.78c-.11-.25-.21-.51-.32-.77zM24.55 15.56a2 2 0 01.71-.12 1.36 1.36 0 011.15.73.23.23 0 010 .24.16.16 0 01-.26 0 1 1 0 00-.69-.3 1.72 1.72 0 00-.92.17.2.2 0 01-.3-.09 1.8 1.8 0 00-.41-.5 1.55 1.55 0 00-.76-.34 1.69 1.69 0 00-.23 0h-.11a.15.15 0 01-.13-.13.24.24 0 01.13-.24 1.32 1.32 0 011.33 0 1.57 1.57 0 01.42.35zM17.6 7.69h.52l.54 2.73h-.46l-.11-.62h-.46l-.11.62h-.46zm.27.74c-.05.34-.12.68-.16 1H18zM15.1 3.22h1.11v.34h-.61a4.56 4.56 0 000 .77h.47a1.43 1.43 0 010 .36h-.49v.91h.64v.32a8.25 8.25 0 01-1.12 0zM14.92 3.22v.34h-.59v.8h.47v.34h-.48v1.24h-.47V3.22zM11.74 3.21h.48v2.4h.64v.33h-1.12zM15.91 7.69h.48V10.08H17v.35h-1.09zM13.51 6H13V3.22h.47z"/><path fill="#40ad49" d="M21 8.05h.26a.24.24 0 01.21.23 1.11 1.11 0 010 .19v1.28c0 .23-.09.31-.31.32H21zM12.18 9.05v-.59a1.64 1.64 0 010-.23.23.23 0 01.26-.2.23.23 0 01.25.2.65.65 0 010 .2v1.26a.82.82 0 010 .22.26.26 0 01-.5 0 1.09 1.09 0 010-.26zM17.87 8.43l.17 1h-.35c0-.35.11-.69.16-1z"/></g></svg>