<svg xmlns="http://www.w3.org/2000/svg" viewBox="0 0 36.76 37.49"><defs><style></style></defs><g id="Layer_2" data-name="Layer 2"><g id="Layer_2-2" data-name="Layer 2"><path fill="#005589" d="M36.76 37.49H0V0h36.76zM10.46 31h2.46l3.29-.08 3.71-.08a4 4 0 01.49 0l1.68.19c.12 0 .13 0 .13.14v.74c0 .24.1.32.3.32h2.91c.21 0 .31-.1.31-.32V29a.3.3 0 00-.32-.33h-2.88a.3.3 0 00-.33.33v.86l-.47.05-1 .12a4.73 4.73 0 01-.52 0L17.59 30h-.13a16.86 16.86 0 010-1.75h.06c.32-.06.64-.12 1-.2a5.52 5.52 0 001.77-.79 3.5 3.5 0 001.4-1.81 4.51 4.51 0 00.19-1.59 4.19 4.19 0 01.12-1.3 1.66 1.66 0 011.16-1.26 3 3 0 01.4-.11h.08a.28.28 0 010 .08 4.9 4.9 0 00.24 1.21c0 .11 0 .11.14.11h.1a.83.83 0 010-.15 4.88 4.88 0 01-.22-1.15c0-.11 0-.12.12-.12h.51l-.18-.17-.41-.3a.13.13 0 01-.05-.16 2.17 2.17 0 01.39-.89c.19-.24.39-.47.6-.7a8.21 8.21 0 00.67-.77s.05-.09.08-.14l-.17-.11-.05.06a5.75 5.75 0 01-.54.66c-.19.2-.39.4-.57.62a2.58 2.58 0 00-.6 1.13v.06l-.09-.07-.41-.39a1 1 0 00-.55-.32 1 1 0 00-.55.08 2.56 2.56 0 00-.68.39 9.67 9.67 0 00-1 .84 3.39 3.39 0 01-.74.55 2.4 2.4 0 01-2.15.12 4.08 4.08 0 01-1.25-.85l-.53-.53a7 7 0 00-1.51-1.09 5.24 5.24 0 00-3.06-.54h.07a1.62 1.62 0 01.71.71 4.84 4.84 0 01.28.66 13.18 13.18 0 01.44 1.75 5.6 5.6 0 00.55 1.53 3 3 0 002.06 1.55l.26.05a.43.43 0 01-.13.05 1.76 1.76 0 00-.54.2 3.38 3.38 0 00-.41.24c-.22.14-.43.28-.63.43a2.57 2.57 0 01-1.5.5 4.52 4.52 0 01-1-.08h-.14a.13.13 0 00.06.05c.24.12.48.23.71.37.39.23.77.47 1.15.71a5.66 5.66 0 002.31.81l.41.05v1.66h-1.8l-1.8-.05h-1.78a7.88 7.88 0 000 1.16zM6.58 6.26a10.83 10.83 0 010-1.4 2.45 2.45 0 01.08-.37.38.38 0 01.39-.3c.31 0 .42.1.46.34s0 .27 0 .41a.49.49 0 000 .12 10.91 10.91 0 001.28 0 3.16 3.16 0 00-.11-.93 1.33 1.33 0 00-1-.94 2.77 2.77 0 00-1.11 0 1.45 1.45 0 00-1.26 1v.06a4.14 4.14 0 00-.19 1.26v3.21a2.37 2.37 0 00.31.94 1.49 1.49 0 001 .75 2.48 2.48 0 001.21 0 1.37 1.37 0 00.91-.73 2.85 2.85 0 00.2-.51 4.37 4.37 0 00.09-1.87 2.34 2.34 0 00-.26-.77 1.05 1.05 0 00-.52-.48 1.44 1.44 0 00-1.48.21zM3.11 4.67v5.71h1.35V3.2h-.91a.33.33 0 00-.23.09 1.29 1.29 0 01-.3.22c-.26.15-.53.29-.8.43L2.1 4v1zM24 32.51h-1.64a.47.47 0 00-.46.43.48.48 0 00.38.52h3.33a.48.48 0 00.42-.65.47.47 0 00-.46-.31zm0-4.16h1.63a.46.46 0 00.44-.43.45.45 0 00-.36-.5.47.47 0 00-.17 0h-3.2a.48.48 0 000 1zM15.15 7.68v2.76h.6a1.51 1.51 0 00.3 0 .59.59 0 00.54-.52 2.16 2.16 0 000-.35V8.35a.65.65 0 00-.59-.66h-.83zm8.7 1.38v-.51a1.55 1.55 0 000-.31.64.64 0 00-.5-.57 1.3 1.3 0 00-.52 0 .59.59 0 00-.46.44 1.45 1.45 0 00-.06.41v1.07a1.23 1.23 0 00.09.5.6.6 0 00.41.35 1.14 1.14 0 00.45 0 .65.65 0 00.58-.54 1.35 1.35 0 000-.28zm1.06 4.48v-.64a1.8 1.8 0 00-.08-.39.57.57 0 00-.4-.35 1.45 1.45 0 00-.55 0 .6.6 0 00-.48.46.93.93 0 000 .23v1.37a1 1 0 00.08.34.6.6 0 00.42.38 1.43 1.43 0 00.46 0 .62.62 0 00.55-.51 1.35 1.35 0 00.05-.29zm-3.19-4.45a.56.56 0 00.28-.46 2.54 2.54 0 000-.39.57.57 0 00-.46-.52.83.83 0 00-.22 0h-.79v2.75h.49V9.23h.19a.93.93 0 010 .13l.24.91c.06.23 0 .2.25.21h.31zm3.81 1.36V7.69h-.41v1.43a.15.15 0 01-.07-.12l-.27-.63c-.09-.21-.17-.42-.27-.63 0 0 0-.08-.07-.08a.65.65 0 00-.31 0v2.75a2 2 0 00.42 0V8.92c.1.2.18.39.26.59s.23.55.33.82c0 .09.09.13.18.12zM13.82 8.92c.08.18.16.37.23.56l.35.86s0 .1.09.1a.88.88 0 00.28 0V7.7a1.48 1.48 0 00-.42 0v1.4a.16.16 0 01-.03-.1c-.07-.15-.13-.31-.2-.47l-.33-.78s0-.08-.07-.08a.54.54 0 00-.31 0v2.74h.4zm-.25 3.25v1.43l-.61-1.43h-.36v2.75a3.23 3.23 0 00.44 0V13.4v.06c.1.23.19.47.29.7l.27.67a.35.35 0 00.07.09 1 1 0 00.3 0v-2.74zm12.05 2.75v-1.53a.23.23 0 01.05.07c.12.31.25.61.37.92.06.16.13.31.19.46s0 .08.08.08h.28v-2.75h-.42v1.43a.46.46 0 01-.07-.1l-.51-1.22v-.07s0-.05-.08-.05h-.31V14.9h.43zm1.72-6.32a1.29 1.29 0 000-.48.53.53 0 00-.44-.44 1.06 1.06 0 00-.56 0 .56.56 0 00-.4.36 1.45 1.45 0 00-.08.36v1.15a1.28 1.28 0 00.11.58.62.62 0 001 .13v.19h.32V9h-.74a1 1 0 000 .35h.26a.25.25 0 010 .07v.27a1.74 1.74 0 01-.05.22.23.23 0 01-.25.14.21.21 0 01-.22-.17 1 1 0 010-.24V8.41a.69.69 0 01.05-.24c0-.1.12-.14.26-.12s.17 0 .19.16a1.49 1.49 0 010 .21v.18zm-4.48-5.39v1.9a1.36 1.36 0 010 .29.22.22 0 01-.23.2.23.23 0 01-.24-.2 1.66 1.66 0 010-.32V3.36v-.15a1.93 1.93 0 00-.48 0 .57.57 0 000 .12v1.75a1.66 1.66 0 000 .32.61.61 0 00.46.57 1.24 1.24 0 00.47 0 .59.59 0 00.53-.49 2.33 2.33 0 000-.38V3.31a.45.45 0 000-.11zm-1.95 9a1.3 1.3 0 00-.5 0v1.89a1.43 1.43 0 010 .29.24.24 0 01-.24.19.23.23 0 01-.23-.2 1.63 1.63 0 010-.31v-1.75-.15h-.49v2.18a.61.61 0 00.54.58 2 2 0 00.42 0 .57.57 0 00.5-.48 2.28 2.28 0 00.05-.44v-1.84zm7.48-7.25a.71.71 0 000 .14v.3c0 .1-.08.23-.21.24a.22.22 0 01-.26-.21.37.37 0 010-.11V3.93a.86.86 0 010-.16.23.23 0 01.26-.21c.14 0 .2.08.21.24s0 .2 0 .3v.12a3.81 3.81 0 00.48 0 1.62 1.62 0 00-.05-.62.56.56 0 00-.4-.39 1 1 0 00-.57 0 .56.56 0 00-.42.39 1.35 1.35 0 00-.07.44v1.23c.05.5.28.69.64.72.53 0 .79-.15.85-.62a2.26 2.26 0 000-.45zm-10.54-.75a1.59 1.59 0 000-.64.56.56 0 00-.39-.36 1 1 0 00-.6 0 .55.55 0 00-.38.36 1.32 1.32 0 00-.08.33v1.36a1.65 1.65 0 00.07.32.59.59 0 00.45.39 1 1 0 00.45 0 .57.57 0 00.49-.45 2.73 2.73 0 00.05-.4v-.21h-.49v.19a2.71 2.71 0 010 .29c0 .15-.09.21-.23.21a.22.22 0 01-.24-.2 1.49 1.49 0 010-.21V4a1.49 1.49 0 010-.21.23.23 0 01.25-.18.2.2 0 01.22.19 1.62 1.62 0 010 .22v.24zM16.22 6v-.17L15.83 4c0-.24-.09-.47-.14-.71 0 0 0-.09-.06-.09h-.49L14.59 6H15l.05-.07c.05-.07 0-.13 0-.19l.06-.37h.44a.5.5 0 010 .12c0 .14 0 .28.08.43a.08.08 0 00.08.09zm-3.55 1.68h-.42c-.11 0-.11 0-.13.11l-.51 2.53a.45.45 0 010 .11 1.53 1.53 0 00.48 0l.11-.6h.44l.06.31.05.31h.48zm-.42-2.93h.41a.58.58 0 00.53-.51 1.55 1.55 0 000-.43.6.6 0 00-.61-.59H11.73V6h.44a.07.07 0 00.07-.06V4.75zm5.33 4.87a1 1 0 00.09.47.58.58 0 00.44.36.91.91 0 00.23 0 .67.67 0 00.67-.8 1 1 0 00-.29-.59l-.43-.39-.15-.16a.39.39 0 01-.07-.33.18.18 0 01.14-.15.2.2 0 01.27.14 2.47 2.47 0 01.06.29l.37-.07a.06.06 0 00.09-.05 3.58 3.58 0 00-.13-.34.47.47 0 00-.36-.31.87.87 0 00-.55 0 .53.53 0 00-.36.43.83.83 0 00.24.82l.2.18.33.3a.53.53 0 01.15.4c0 .12-.05.2-.14.22a.21.21 0 01-.26-.11.9.9 0 01-.12-.21v-.19zm6-4.48a1 1 0 00.11.5.55.55 0 00.39.32 1.17 1.17 0 00.32 0 .62.62 0 00.6-.53 1 1 0 000-.34 1 1 0 00-.34-.58l-.36-.33a.85.85 0 01-.16-.17.34.34 0 01-.07-.29.2.2 0 01.18-.19.19.19 0 01.23.14.94.94 0 010 .16v.15l.52-.05a.9.9 0 000-.34.57.57 0 00-.47-.41.9.9 0 00-.46 0 .53.53 0 00-.36.38.8.8 0 00.19.84c.1.11.22.21.33.31l.24.22a.54.54 0 01.14.45.19.19 0 01-.22.17.24.24 0 01-.2-.15 2.3 2.3 0 01-.06-.28.31.31 0 010-.11zm3.27 9a.92.92 0 00.15.6.56.56 0 00.33.23.94.94 0 00.41 0 .62.62 0 00.52-.49 1 1 0 000-.35.87.87 0 00-.3-.55l-.4-.36-.14-.22a.37.37 0 01-.09-.3.21.21 0 01.19-.2.19.19 0 01.23.14.85.85 0 010 .17v.14l.42-.09a.88.88 0 00-.08-.41.49.49 0 00-.4-.33.83.83 0 00-.47 0 .56.56 0 00-.39.37.85.85 0 00.17.85l.21.19c.12.11.25.22.36.34a.49.49 0 01.16.46.17.17 0 01-.19.16.2.2 0 01-.22-.13 2.13 2.13 0 01-.07-.27v-.14zm-11.21-1.26a1.37 1.37 0 00-.09-.4.52.52 0 00-.4-.33.91.91 0 00-.49 0 .59.59 0 00-.4.47.85.85 0 00.26.81l.23.2a3.83 3.83 0 01.29.28.51.51 0 01.15.41c0 .15-.09.22-.23.2a.21.21 0 01-.18-.13 1.17 1.17 0 01-.07-.25v-.16l-.42.1a.84.84 0 00.05.39.62.62 0 00.52.45H15a.64.64 0 00.65-.66 1 1 0 00-.28-.7l-.35-.33a2.39 2.39 0 01-.23-.22.38.38 0 01-.1-.32.21.21 0 01.19-.19.18.18 0 01.22.13 1.17 1.17 0 010 .2v.11l.31-.06zM13.4 3.2v2.77h1.13a1.2 1.2 0 000-.38h-.61v-.87h.41s.08 0 .08-.06a.87.87 0 000-.32h-.48a3.61 3.61 0 010-.76h.6V3.2c-.38-.01-.75 0-1.13 0zm5.86 0h-1c-.12 0-.13 0-.13.13v2.5c0 .13 0 .14.13.14h1.03a2 2 0 000-.35h-.62v-.9h.48a1.15 1.15 0 000-.37h-.49v-.77H19a1.1 1.1 0 00.31 0zM29.13 6a6.16 6.16 0 001.14 0v-.4h-.63v-.87h.49v-.39h-.49v-.77h.61V3.2h-1.13zm-3.65-2.41v2.29c0 .04 0 .09.08.09h.28L26 6V3.61h.06a2.62 2.62 0 01.28 0 .08.08 0 00.09-.09v-.19c0-.13 0-.13-.13-.13h-1.25v.38zM19 7.69v.39h.44V10.44H20V8.26 8.1h.41v-.4A12.61 12.61 0 0019 7.69zm3 7.23v-2.16-.17h.42a1.19 1.19 0 000-.38h-1.38v.37h.44v2.37zm-5.83-2.37v2.37h.5v-2.17-.18h.41v-.37a12.4 12.4 0 00-1.37 0v.37zm2.18 0V14.92h.5a1 1 0 000-.17v-2-.18h.41v-.37a12.4 12.4 0 00-1.37 0v.37zM9.17 30.42v.47a.42.42 0 00.43.41h.17a.34.34 0 00.34-.21.83.83 0 00.07-.27v-.78a.58.58 0 00-.11-.34.61.61 0 00-.79 0 .59.59 0 00-.12.31zM20.68 5.65a1.15 1.15 0 000 .37 1.6 1.6 0 00.49 0 .43.43 0 00.32-.33 1.33 1.33 0 00.05-.34V3.21a2.26 2.26 0 00-.52 0v2.08a.91.91 0 010 .17.19.19 0 01-.18.18zm-3.43 6.52v2.75h.47v-2.75zM23 14.92v-2.75h-.47v2.76H23zm3.59-11.71V6a1.32 1.32 0 00.49 0V3.21a2 2 0 00-.49 0zM12.24 14.92v-2.75h-.46v2.75zm13.43 2.9a1.43 1.43 0 00.8-.16 1.05 1.05 0 00.47-.75 1.22 1.22 0 000-.43 1.19 1.19 0 00-1 .34 1.36 1.36 0 00-.27 1zm-1.8 1.6a1.06 1.06 0 00-.38-1.73 1.29 1.29 0 00-.27.84 1.14 1.14 0 00.65.89zm.6-2.8a1.07 1.07 0 00.38 1.73 1.39 1.39 0 00.28-.68 1.14 1.14 0 000-.37 1.32 1.32 0 00-.66-.68zm0 3.2A.93.93 0 0026 20a.93.93 0 00-1.52-.18zm2.46-1.07a1.08 1.08 0 00-.88-.36 1 1 0 00-.7.52 1.21 1.21 0 00.56.32.75.75 0 00.42 0 1.37 1.37 0 00.61-.48zM19.47 6.42a.4.4 0 00.38-.4v-.45-.07h-.45a3.53 3.53 0 000 .46h.22c0 .13 0 .14-.19.27v.06s.03.09.04.13z"/><path fill="#fff" d="M10.46 31a7.88 7.88 0 010-1.19h1.78l1.8.05h1.8V28.2l-.41-.05a5.66 5.66 0 01-2.31-.81c-.38-.24-.76-.48-1.15-.71-.23-.14-.47-.25-.71-.37a.13.13 0 01-.06-.05h.08a4.52 4.52 0 001 .08 2.57 2.57 0 001.5-.5c.2-.15.41-.29.63-.43a3.38 3.38 0 01.41-.24 1.76 1.76 0 01.54-.2.43.43 0 00.13-.05l-.26-.05a3 3 0 01-2.06-1.55 5.6 5.6 0 01-.55-1.53 13.18 13.18 0 00-.44-1.75 4.84 4.84 0 00-.28-.66 1.62 1.62 0 00-.71-.71h-.07a5.24 5.24 0 013.06.54 7 7 0 011.51 1.09l.53.53a4.08 4.08 0 001.25.85 2.4 2.4 0 002.15-.12 3.39 3.39 0 00.74-.55 9.67 9.67 0 011-.84 2.56 2.56 0 01.68-.39 1 1 0 01.55-.08 1 1 0 01.55.32l.39.41.09.07v-.06a2.58 2.58 0 01.6-1.13c.18-.22.38-.42.57-.62a5.75 5.75 0 00.54-.66l.05-.06.17.11c0 .05-.05.1-.08.14a8.21 8.21 0 01-.67.77c-.21.23-.41.46-.6.7a2.17 2.17 0 00-.39.89.13.13 0 00.05.16l.41.3.12.09h-.51c-.12 0-.12 0-.12.12a4.88 4.88 0 00.22 1.15.83.83 0 000 .15h-.1c-.11 0-.11 0-.14-.11a4.9 4.9 0 01-.24-1.21.28.28 0 000-.08h-.08a3 3 0 00-.4.11A1.66 1.66 0 0022 22.56a4.19 4.19 0 00-.12 1.27 4.51 4.51 0 01-.19 1.59 3.5 3.5 0 01-1.4 1.81 5.52 5.52 0 01-1.77.79c-.32.08-.64.14-1 .2h-.06a16.86 16.86 0 000 1.75h.13l2.6.05a4.73 4.73 0 00.52 0l1-.12.47-.05v-.14-.72a.3.3 0 01.33-.33h2.88a.3.3 0 01.32.33v2.91c0 .22-.1.32-.31.32h-2.88c-.2 0-.3-.11-.3-.32v-.74c0-.25 0-.13-.13-.14l-1.68-.19a4 4 0 00-.49 0l-3.71.08-3.29.09h-2.34zm6.47-1a15.31 15.31 0 000-1.66h-.58a13.1 13.1 0 000 1.66zM6.58 6.26a1.44 1.44 0 011.58-.2 1.05 1.05 0 01.52.48 2.34 2.34 0 01.26.77 4.37 4.37 0 01-.09 1.87 2.85 2.85 0 01-.2.51 1.37 1.37 0 01-.91.73 2.48 2.48 0 01-1.21 0 1.49 1.49 0 01-1-.75 2.37 2.37 0 01-.31-.94V5.51a4.14 4.14 0 01.19-1.26v-.06a1.45 1.45 0 011.26-1 2.77 2.77 0 011.11 0 1.33 1.33 0 011 .94 3.16 3.16 0 01.11.93 10.91 10.91 0 01-1.28 0 .49.49 0 010-.12v-.41c0-.13-.15-.35-.46-.34a.38.38 0 00-.39.3 2.45 2.45 0 00-.08.37 10.83 10.83 0 00-.1 1.4zM6.57 8v.83a.81.81 0 00.14.42.41.41 0 00.41.2.36.36 0 00.36-.29 1.77 1.77 0 00.08-.31 8.31 8.31 0 000-1.22 1.06 1.06 0 00-.09-.4A.41.41 0 007.2 7a.63.63 0 00-.57.22.25.25 0 00-.06.17c.01.21 0 .41 0 .61zM3.11 4.67L2.1 5V4l.12-.06c.27-.14.54-.28.8-.43a1.29 1.29 0 00.3-.22.33.33 0 01.23-.09h.91v7.18H3.12V4.67zM24 32.51h1.59a.47.47 0 01.46.31.48.48 0 01-.42.65h-3.35a.48.48 0 01-.38-.52.47.47 0 01.46-.43H24z"/><path fill="#fff" d="M24 28.35h-1.6a.48.48 0 010-1h3.18a.47.47 0 01.17 0 .45.45 0 01.36.5.46.46 0 01-.44.43H24zM15.15 7.68H16a.65.65 0 01.64.66v1.19a2.16 2.16 0 010 .35.59.59 0 01-.54.52 1.51 1.51 0 01-.3 0h-.6c-.08-.07-.08-2.58-.05-2.72zm.5 2.38h.24a.23.23 0 00.2-.22.86.86 0 000-.16V8.52a1.94 1.94 0 000-.24.2.2 0 00-.09-.18.5.5 0 00-.32 0zM23.85 9.06v.59a1.35 1.35 0 010 .28.65.65 0 01-.58.54 1.14 1.14 0 01-.45 0 .6.6 0 01-.41-.35 1.23 1.23 0 01-.09-.5V8.55a1.45 1.45 0 01.06-.41.59.59 0 01.46-.44 1.3 1.3 0 01.52 0 .64.64 0 01.5.57 1.55 1.55 0 010 .31v.51zm-.52 0v-.68a.55.55 0 000-.18c0-.12-.11-.16-.25-.16s-.2.05-.22.17a1 1 0 000 .23v1.23a1.49 1.49 0 000 .21.22.22 0 00.24.2.22.22 0 00.25-.2v-.16zM24.91 13.54v.6a1.35 1.35 0 01-.05.29.62.62 0 01-.55.51 1.43 1.43 0 01-.46 0 .6.6 0 01-.42-.38 1 1 0 01-.08-.34v-1.37a.93.93 0 010-.23.6.6 0 01.48-.46 1.45 1.45 0 01.55 0 .57.57 0 01.4.35 1.8 1.8 0 01.08.39v.64zm-.52 0v-.64a1.21 1.21 0 000-.19c0-.14-.11-.19-.26-.19s-.21.06-.23.2a1.1 1.1 0 000 .25v1.14a2.45 2.45 0 000 .27.25.25 0 00.48 0 .9.9 0 000-.23c.01-.15.01-.4.01-.61zM21.72 9.09l.37 1.35h-.31c-.24 0-.19 0-.25-.21l-.24-.91a.93.93 0 000-.13h-.19v1.24h-.49V7.68h.79a.83.83 0 01.22 0 .57.57 0 01.46.52 2.54 2.54 0 010 .39.56.56 0 01-.36.5zm-.65-.24a2 2 0 00.25 0 .25.25 0 00.22-.21.87.87 0 000-.36.23.23 0 00-.2-.2h-.26zM25.53 10.45h-.2c-.09 0-.14 0-.18-.12-.1-.27-.22-.54-.33-.82s-.16-.39-.26-.59v1.51a2 2 0 01-.42 0V7.68a.65.65 0 01.31 0s.06 0 .07.08c.1.21.18.42.27.63l.27.63a.15.15 0 00.07.09V7.69h.41zM13.82 8.92v1.52h-.4V7.7a.54.54 0 01.31 0l.07.08.33.78c.07.16.13.32.2.47a.16.16 0 00.06.08V7.69a1.48 1.48 0 01.42 0v2.74a.88.88 0 01-.28 0c-.06 0-.07-.06-.09-.1l-.35-.86c-.07-.19-.15-.38-.23-.56zM13.57 12.17H14v2.74a1 1 0 01-.3 0 .35.35 0 01-.07-.09l-.27-.67c-.1-.23-.19-.47-.29-.7v-.06 1.51a3.23 3.23 0 01-.44 0v-2.6-.13h.36l.61 1.43zM25.62 14.92h-.43v-2.71-.05h.28s.06 0 .08.05v.07l.51 1.22a.46.46 0 00.07.1v-1.43h.42v2.75h-.28s-.07 0-.08-.08-.13-.3-.19-.46c-.12-.31-.25-.61-.37-.92a.23.23 0 00-.05-.07zM27.34 8.6h-.49v-.18a1.49 1.49 0 000-.21c0-.11-.08-.15-.19-.16s-.23 0-.26.12a.69.69 0 00-.05.24v1.26a1 1 0 000 .24.21.21 0 00.22.17.23.23 0 00.25-.14 1.74 1.74 0 00.05-.22v-.27a.25.25 0 000-.07h-.26a1 1 0 010-.35h.74v1.41H27v-.19a.62.62 0 01-1-.13 1.28 1.28 0 01-.11-.58V8.39A1.45 1.45 0 0125.9 8a.56.56 0 01.4-.36 1.06 1.06 0 01.56 0 .53.53 0 01.44.44 1.29 1.29 0 01.04.52zM22.86 3.21h.49a.45.45 0 010 .11v1.79a2.33 2.33 0 010 .38.59.59 0 01-.53.49 1.24 1.24 0 01-.47 0 .61.61 0 01-.46-.57 1.66 1.66 0 010-.32V3.33a.57.57 0 010-.12 1.93 1.93 0 01.48 0V5.08a1.66 1.66 0 000 .32.23.23 0 00.24.2.22.22 0 00.23-.2 1.36 1.36 0 000-.29v-1.9zM20.91 12.17V14a2.28 2.28 0 01-.05.44.57.57 0 01-.5.48 2 2 0 01-.42 0 .61.61 0 01-.54-.58v-2.17h.49v1.88a1.63 1.63 0 000 .31.23.23 0 00.23.2.24.24 0 00.24-.19 1.43 1.43 0 000-.29v-1.89a1.3 1.3 0 01.55-.02zM28.39 4.92h.48a2.26 2.26 0 010 .45c-.06.47-.32.67-.85.62-.36 0-.59-.22-.64-.72V4a1.35 1.35 0 01.07-.44.56.56 0 01.42-.39 1 1 0 01.57 0 .56.56 0 01.4.39 1.62 1.62 0 01.05.62 3.81 3.81 0 01-.48 0v-.12-.3c0-.1-.07-.23-.21-.24a.23.23 0 00-.26.21.86.86 0 000 .16v1.39a.37.37 0 000 .11.22.22 0 00.26.21c.13 0 .2-.08.21-.24s0-.2 0-.3a.71.71 0 01-.02-.14zM17.85 4.21h-.48V4a1.62 1.62 0 000-.22.2.2 0 00-.22-.19.23.23 0 00-.25.18 1.49 1.49 0 000 .21v1.21a1.49 1.49 0 000 .21.22.22 0 00.24.2c.14 0 .21-.06.23-.21a2.71 2.71 0 000-.29v-.18h.49v.21a2.73 2.73 0 01-.05.4.57.57 0 01-.49.45 1 1 0 01-.45 0 .59.59 0 01-.45-.39 1.65 1.65 0 01-.07-.32V3.9a1.32 1.32 0 01.08-.33.55.55 0 01.38-.36 1 1 0 01.6 0 .56.56 0 01.39.36 1.59 1.59 0 01.05.64zM16.22 6h-.41a.08.08 0 01-.08-.09c0-.15-.05-.29-.08-.43a.5.5 0 000-.12h-.44l-.06.37v.19c0 .06-.09.08-.15.08h-.45l.55-2.76h.49l.06.09c.05.24.1.47.14.71l.36 1.8s.06.05.07.16zm-.65-1a8.73 8.73 0 00-.17-1l-.15 1zM12.67 7.68l.55 2.76h-.48l-.05-.31-.06-.31h-.44l-.11.6a1.53 1.53 0 01-.48 0 .45.45 0 000-.11l.51-2.53c0-.11 0-.11.13-.11zm-.1 1.77l-.15-1c-.06.33-.14.64-.17 1zM12.25 4.75V5.9a.07.07 0 01-.07.06h-.44V3.22H12.59a.6.6 0 01.61.59 1.55 1.55 0 010 .43.58.58 0 01-.53.51h-.41zm0-.38a2.53 2.53 0 00.3 0 .18.18 0 00.15-.15.93.93 0 000-.44.2.2 0 00-.16-.16.71.71 0 00-.29 0zM17.58 9.62l.42-.09v.19a.9.9 0 00.08.23.21.21 0 00.26.11c.09 0 .14-.1.14-.22a.53.53 0 00-.15-.4l-.33-.3-.16-.14a.83.83 0 01-.24-.82.53.53 0 01.4-.47.87.87 0 01.55 0 .47.47 0 01.36.31 3.58 3.58 0 01.09.35.06.06 0 01-.05.08l-.37.07a2.47 2.47 0 00-.06-.29.2.2 0 00-.27-.14.18.18 0 00-.14.15.39.39 0 00.07.33l.15.16.43.39a1 1 0 01.29.59.67.67 0 01-.67.8.91.91 0 01-.23 0 .58.58 0 01-.44-.36 1 1 0 01-.13-.53zM23.59 5.14l.41-.09a.31.31 0 000 .11 2.3 2.3 0 00.06.28.24.24 0 00.2.15.19.19 0 00.22-.17.54.54 0 00-.09-.42l-.24-.22c-.11-.1-.23-.2-.33-.31a.8.8 0 01-.19-.84.53.53 0 01.37-.41.9.9 0 01.46 0 .57.57 0 01.47.41.9.9 0 010 .34l-.38.03v-.15a.94.94 0 000-.16.19.19 0 00-.23-.14.2.2 0 00-.18.19.34.34 0 00.07.29.85.85 0 00.16.17l.36.33a1 1 0 01.34.58 1 1 0 010 .34.62.62 0 01-.6.53 1.17 1.17 0 01-.32 0 .55.55 0 01-.39-.32 1 1 0 01-.17-.52zM26.86 14.09l.43-.09v.14a2.13 2.13 0 00.07.27.2.2 0 00.22.13.17.17 0 00.19-.16.49.49 0 00-.16-.46c-.11-.12-.24-.23-.36-.34l-.21-.19a.85.85 0 01-.17-.85.56.56 0 01.39-.37.83.83 0 01.47 0 .49.49 0 01.4.33.88.88 0 01.08.41l-.42.09v-.14a.85.85 0 000-.17.19.19 0 00-.23-.14.21.21 0 00-.19.2.37.37 0 00.09.3l.15.16.4.36a.87.87 0 01.3.55 1 1 0 010 .35.62.62 0 01-.52.49.94.94 0 01-.41 0 .56.56 0 01-.33-.23.92.92 0 01-.19-.64zM15.64 12.88h-.12l-.31.06v-.11a1.17 1.17 0 000-.2.18.18 0 00-.22-.13.21.21 0 00-.19.19.38.38 0 00.1.32 2.39 2.39 0 00.23.22l.35.33a1 1 0 01.28.7.64.64 0 01-.76.74h-.21a.62.62 0 01-.52-.45.84.84 0 01-.05-.39l.42-.1v.16a1.17 1.17 0 00.07.25.21.21 0 00.18.13c.14 0 .22 0 .23-.2a.51.51 0 00-.15-.41 3.83 3.83 0 00-.29-.28l-.23-.2a.85.85 0 01-.26-.81.59.59 0 01.4-.47.91.91 0 01.49 0 .52.52 0 01.4.33 1.37 1.37 0 01.16.32zM13.4 3.2h1.13v.37h-.6a3.61 3.61 0 000 .76h.48a.87.87 0 010 .32s0 .06-.08.06h-.41v.87h.61a1.2 1.2 0 010 .38h-1.12c-.03-.1-.04-2.57-.01-2.76zM19.26 3.21v.35a1.1 1.1 0 01-.31 0h-.32v.75h.49a1.15 1.15 0 010 .37h-.48v.86h.62a2 2 0 010 .35h-1.03c-.12 0-.13 0-.13-.14V3.33c0-.13 0-.13.13-.13h1zM29.13 6V3.2h1.13v.37h-.61v.77h.49v.37h-.49v.87h.63v.34a6.16 6.16 0 01-1.15.08zM25.48 3.59h-.43v-.38h1.26c.12 0 .13 0 .13.13v.18a.08.08 0 01-.09.09 2.62 2.62 0 00-.28 0H26V6H25.56c-.06 0-.09 0-.08-.09s0-.07 0-.1V3.59zM19 7.69a12.61 12.61 0 011.38 0v.37H20V10.4h-.5v-.39V8.08H19zM22 14.92h-.51v-2.37H21v-.37h1.38a1.19 1.19 0 010 .38H22v2.36zM16.14 12.55h-.43v-.37a12.4 12.4 0 011.37 0v.37h-.41v2.35h-.5v-2.35zM18.32 12.55h-.43v-.37a12.4 12.4 0 011.37 0v.37h-.41v2.18a1 1 0 010 .17h-.5v-.59V12.55zM9.17 30.42V30a.59.59 0 01.12-.31.61.61 0 01.79 0 .58.58 0 01.11.34v.78a.83.83 0 01-.07.27.34.34 0 01-.34.21h-.17a.42.42 0 01-.43-.41v-.47zM20.68 5.65h.15a.19.19 0 00.17-.19.91.91 0 000-.17V3.21a2.26 2.26 0 01.52 0v2.12a1.33 1.33 0 01-.05.34.43.43 0 01-.32.33 1.6 1.6 0 01-.49 0 1.15 1.15 0 01.02-.35zM17.25 12.17h.47v2.75h-.47c-.03-.11-.03-2.63 0-2.75zM23 14.92h-.47v-2.76H23c.07.11.07 2.6 0 2.76zM26.59 3.21a2 2 0 01.49 0v2.73a1.32 1.32 0 01-.49 0zM12.24 14.92h-.47v-2.75h.46c.03.1.03 2.6.01 2.75zM25.67 17.82a1.36 1.36 0 01.28-1 1.19 1.19 0 011-.34 1.22 1.22 0 010 .43 1.05 1.05 0 01-.47.75 1.43 1.43 0 01-.81.16zM23.87 19.42a1.14 1.14 0 01-.65-.89 1.29 1.29 0 01.27-.84 1.06 1.06 0 01.38 1.73zM24.47 16.62a1.32 1.32 0 01.62.68 1.14 1.14 0 010 .37 1.39 1.39 0 01-.28.68 1.07 1.07 0 01-.34-1.73zM24.48 19.82A.93.93 0 0126 20a.93.93 0 01-1.52-.18zM26.94 18.75a1.37 1.37 0 01-.6.47.75.75 0 01-.42 0 1.21 1.21 0 01-.56-.32 1 1 0 01.7-.52 1.08 1.08 0 01.88.37zM19.47 6.42V6.25c.17-.13.18-.14.19-.27L19.4 6a3.53 3.53 0 010-.46h.45v.52a.4.4 0 01-.38.36z"/><path fill="#005589" d="M16.93 30h-.57a13.1 13.1 0 010-1.66h.58a15.31 15.31 0 01-.01 1.66zM6.57 8v-.61a.25.25 0 01.06-.17A.63.63 0 017.2 7a.41.41 0 01.32.23 1.06 1.06 0 01.09.4 8.31 8.31 0 010 1.22 1.77 1.77 0 01-.08.31.36.36 0 01-.36.29.41.41 0 01-.41-.2.81.81 0 01-.14-.42v-.41zM15.65 10.06v-2a.5.5 0 01.32 0 .2.2 0 01.12.18 1.94 1.94 0 010 .24v1.16a.86.86 0 010 .16.23.23 0 01-.2.22zM23.33 9.06V9.88a.22.22 0 01-.25.2.22.22 0 01-.24-.2 1.49 1.49 0 010-.21V8.44a1 1 0 010-.23c0-.12.09-.16.22-.17s.21 0 .25.16a.55.55 0 010 .18c.02.23.02.45.02.68zM24.39 13.54v.63a.9.9 0 010 .23.25.25 0 01-.48 0 2.45 2.45 0 010-.27v-1.14a1.1 1.1 0 010-.25c0-.14.09-.19.23-.2s.23.05.26.19a1.21 1.21 0 010 .19c-.01.19-.01.4-.01.62zM21.07 8.85v-.8h.26a.23.23 0 01.2.2.87.87 0 010 .36.25.25 0 01-.22.21 2 2 0 01-.24.03zM15.57 5h-.32l.15-1a8.73 8.73 0 01.17 1zM12.57 9.45h-.32c0-.33.11-.64.17-1zM12.26 4.37v-.78a.71.71 0 01.29 0 .2.2 0 01.16.16.93.93 0 010 .44.18.18 0 01-.15.15 2.53 2.53 0 01-.3.03z"/></g></g></svg>