<svg xmlns="http://www.w3.org/2000/svg" viewBox="0 0 36.76 37.49"><defs><style></style></defs><g id="Layer_2" data-name="Layer 2"><g id="Layer_2-2" data-name="Layer 2"><path fill="#1a3667" d="M0 0h36.76v37.49H0zm18.64 32.09l.11.07a4.65 4.65 0 003.63.61 4.9 4.9 0 003.75-4.65 4.85 4.85 0 00-.13-1.36.16.16 0 01.06-.18c.15-.14.3-.27.44-.42A4.91 4.91 0 0027.76 22a4.87 4.87 0 00-4.18-4.13h-.41a1 1 0 000-.1 4.83 4.83 0 00-5.52-3.06 4.71 4.71 0 00-3.5 3 .18.18 0 01-.19.13 5.07 5.07 0 00-.65.09 4.92 4.92 0 00-3.78 5.67 4.84 4.84 0 001.66 2.93l.12.1a5 5 0 00.1 3 4.84 4.84 0 001.82 2.4 4.76 4.76 0 005.41.06zM7.06 10.39v-.13c.45-1.75.86-3.51 1.28-5.26a5.29 5.29 0 00.21-1.63V3.3a.17.17 0 000-.07H5.33a6 6 0 000 1h1.89l-1.47 6.16zm-2.54 0V3.22h-.81a.53.53 0 00-.4.14 3.12 3.12 0 01-.72.45L2.15 4v1l1-.37v5.81zm11.55-5.78a.54.54 0 00.29-.37 1.28 1.28 0 000-.55.49.49 0 00-.34-.4 1.32 1.32 0 00-.32-.07h-.77v2.72h.49V4.72h.2l.31 1.22a1.18 1.18 0 00.5 0zm9.57 4.46v-.5a1.17 1.17 0 00-.09-.52.56.56 0 00-.4-.36 1.4 1.4 0 00-.54 0 .58.58 0 00-.48.47 1.34 1.34 0 00-.05.35V9.6a1.33 1.33 0 000 .28.65.65 0 00.6.59 1 1 0 00.42 0 .57.57 0 00.43-.38 1.73 1.73 0 00.07-.31c.05-.26.04-.48.04-.71zM20.05 7.7h-.49v1.12a1.35 1.35 0 01-.54 0V7.7h-.49v2.73H19V9.21h.54v1.21a1.34 1.34 0 00.49 0zm5.41-4.48v1.13h-.53v-.76a2.44 2.44 0 000-.38h-.48V6h.49V4.73h.54v1.23h.47V3.22h-.46zM15.93 9.1c.2-.16.24-.21.28-.38a1.14 1.14 0 000-.45.57.57 0 00-.54-.55 9 9 0 00-.9 0v2.73h.49V9.2h.21l.31 1.24h.51zm6.31-4.49a.5.5 0 00.3-.44 2 2 0 000-.42.54.54 0 00-.43-.49 1 1 0 00-.25 0H21.08V6h.49V4.72h.22l.31 1.22a1.18 1.18 0 00.5 0zm-7.73 4.45v-.62a1.06 1.06 0 00-.08-.4.58.58 0 00-.4-.35 1.32 1.32 0 00-.56 0 .57.57 0 00-.45.42 2.25 2.25 0 00-.06.36v1.17a1.09 1.09 0 000 .26.64.64 0 00.49.55 1.36 1.36 0 00.45 0 .62.62 0 00.54-.49 1.87 1.87 0 000-.32c.08-.19.07-.38.07-.58zm4.9-5.83a.92.92 0 00-.41 0v1.33a.13.13 0 010 .11l-.62-1.46H18v2.74a2.71 2.71 0 00.4 0V4.42a.2.2 0 01.07.1c.17.43.35.85.52 1.27a.61.61 0 00.05.12.15.15 0 00.06 0h.28zm4 6.14v.43a.36.36 0 010 .1.25.25 0 01-.28.19.23.23 0 01-.24-.22 1.64 1.64 0 010-.22V8.42a.52.52 0 010-.17.23.23 0 01.25-.25c.14 0 .21.07.23.23a1.62 1.62 0 010 .22v.11h.45a1.15 1.15 0 000-.45.57.57 0 00-.47-.47 1.4 1.4 0 00-.5 0 .56.56 0 00-.44.4 1.1 1.1 0 00-.07.36v1.25a1.07 1.07 0 00.11.46.53.53 0 00.38.3 1.06 1.06 0 00.25 0 .42.42 0 00.37-.19l.05-.06v.21h.31a12.58 12.58 0 000-1.38h-.71v.32zM26.3 7.7l-.54 2.73h.47l.11-.63h.45l.12.62h.46l-.54-2.72zM14.73 6l-.54-2.73h-.53L13.12 6h.47l.11-.62h.45l.12.62zm12.39-2.79v2.74h.48V4.74h.4a.58.58 0 00.55-.52 1.86 1.86 0 000-.41.61.61 0 00-.66-.59h-.79zm1.63 6.42a1.15 1.15 0 00.1.46.52.52 0 00.38.34 1.11 1.11 0 00.36 0 .62.62 0 00.58-.57.91.91 0 00-.17-.62 3.11 3.11 0 00-.31-.32l-.34-.32a.38.38 0 01-.13-.32.22.22 0 01.25-.23.19.19 0 01.19.16c0 .08 0 .18.06.28l.4-.08A.94.94 0 0030 8a.51.51 0 00-.36-.31.83.83 0 00-.56 0 .56.56 0 00-.34.38.85.85 0 00.19.82l.15.14.4.36a.55.55 0 01.18.44.22.22 0 01-.14.21.23.23 0 01-.27-.09.67.67 0 01-.07-.18 1.87 1.87 0 010-.25h-.06zm0-4.48a.71.71 0 00.82.84.64.64 0 00.59-.59.91.91 0 00-.16-.56 2.43 2.43 0 00-.3-.34l-.39-.36a.43.43 0 01-.14-.35.22.22 0 01.2-.22.2.2 0 01.24.16v.14a.68.68 0 010 .14l.42-.08A1.18 1.18 0 0030 3.5a.56.56 0 00-.33-.29.92.92 0 00-.59 0 .53.53 0 00-.33.39.83.83 0 00.22.83c.12.12.26.23.38.34l.19.18a.51.51 0 01.12.46.2.2 0 01-.19.15.23.23 0 01-.22-.12 1.21 1.21 0 01-.08-.25v-.17zm-4.6-1.22a1 1 0 00-.09-.42.5.5 0 00-.35-.3.89.89 0 00-.56 0 .49.49 0 00-.31.32.81.81 0 00.11.82 1.26 1.26 0 00.2.2l.4.37a.54.54 0 01.18.41c0 .13-.06.21-.15.23a.23.23 0 01-.28-.13 1.18 1.18 0 01-.07-.2v-.2a3.2 3.2 0 00-.42.1 1.22 1.22 0 00.09.46.61.61 0 00.41.34.86.86 0 00.45 0 .62.62 0 00.46-.52.86.86 0 00-.22-.65 2.34 2.34 0 00-.31-.32l-.33-.31a.43.43 0 01-.13-.35.21.21 0 01.22-.21.2.2 0 01.22.16v.28zm-12.4-.71V6h.49V4.87v-.14h.38a.59.59 0 00.55-.47 1.19 1.19 0 000-.46.61.61 0 00-.66-.59h-.79zm9 1.49v-.36h-.49v-.78h.62v-.35h-1.14v2.72a7.14 7.14 0 001.14 0 1.61 1.61 0 000-.31h-.63v-.92zm.76 3h-1.14v2.72a7 7 0 001.12 0v-.34h-.62v-.9h.48v-.36h-.49v-.77h.63zm-9.25 1.12a2.84 2.84 0 010-.78h.58v-.34a6.72 6.72 0 00-1.1 0v2.72h.49V9.2h.49a1.51 1.51 0 000-.37zm5.22-.76v2.35a1.13 1.13 0 00.49 0V8.23v-.17h.42v-.35a10.43 10.43 0 00-1.37 0v.36zm0-2.12V3.76v-.17h.42v-.37h-1.37v.38h.44V6zm10.09 4.47a6.19 6.19 0 001.14 0 1.74 1.74 0 000-.32h-.32a1.77 1.77 0 01-.32 0V7.71a1.34 1.34 0 00-.49 0zm-1.27-7.2V6h.47V3.27z"/><path fill="#fff" d="M18.64 32.09a4.76 4.76 0 01-5.45 0 4.84 4.84 0 01-1.82-2.4 5 5 0 01-.1-3l-.12-.1a4.84 4.84 0 01-1.66-2.93A4.92 4.92 0 0113.27 18a5.07 5.07 0 01.65-.09.18.18 0 00.19-.13 4.71 4.71 0 013.5-3 4.83 4.83 0 015.52 3.06 1 1 0 010 .1h.41A4.87 4.87 0 0127.76 22a4.91 4.91 0 01-1.27 4.14c-.14.15-.29.28-.44.42a.16.16 0 00-.06.18 4.85 4.85 0 01.16 1.37 4.9 4.9 0 01-3.75 4.65 4.65 4.65 0 01-3.63-.61l-.11-.07zm0-11.43a4.89 4.89 0 013.52-2.74A4 4 0 0021 16.4a3.73 3.73 0 00-2.21-.82 3.79 3.79 0 00-3.66 2.34 4.91 4.91 0 013.49 2.74zm-4.8-1.78a3.86 3.86 0 00-3.28 2.84 3.91 3.91 0 001.13 3.94 4.88 4.88 0 013.67-2.54 5 5 0 01-1.54-4.24zm-1.66 8.34a3.93 3.93 0 001.64 4.07 3.71 3.71 0 004 .1 5 5 0 01-1.14-2 5.14 5.14 0 01-.13-2.31 4.75 4.75 0 01-4.39.14zm11.26-8.33a5 5 0 01-1.49 4.2 4.9 4.9 0 013.65 2.56 3.93 3.93 0 001-4.18 3.82 3.82 0 00-3.18-2.58zm-4 12.5a3.75 3.75 0 004.37-.39 3.93 3.93 0 001.28-3.75 4.79 4.79 0 01-4.42-.12 5 5 0 01-1.23 4.26zm5.31-5.14a3.78 3.78 0 00-5.19-1.74 3.77 3.77 0 005.19 1.74zm-6.11 4.53a3.94 3.94 0 000-5.55 3.93 3.93 0 000 5.55zm-6.14-4.53a3.76 3.76 0 005.16-1.71 3.76 3.76 0 00-5.16 1.71zm6.7-2.89a3.87 3.87 0 003.2-4.45 3.88 3.88 0 00-3.2 4.45zm-4.37-4.45A3.86 3.86 0 0018 23.35a3.88 3.88 0 00-3.17-4.44zM7.06 10.39H5.75l1.47-6.12H5.34a6 6 0 010-1h3.2a.17.17 0 010 .07v.07A5.29 5.29 0 018.34 5c-.42 1.75-.83 3.51-1.25 5.26zM4.52 10.39H3.17V4.66L2.16 5V4l.44-.21a3.12 3.12 0 00.72-.45.53.53 0 01.4-.14h.81zM16.07 4.61l.36 1.32a1.18 1.18 0 01-.5 0l-.31-1.22h-.2V6h-.49V3.28h.78a1.32 1.32 0 01.32.07.49.49 0 01.34.4 1.28 1.28 0 010 .55.54.54 0 01-.3.31zm-.65-.24a.66.66 0 00.28 0 .27.27 0 00.2-.21.77.77 0 000-.37.25.25 0 00-.18-.19.61.61 0 00-.3 0zM25.64 9.07v.68a1.73 1.73 0 01-.07.31.57.57 0 01-.43.38 1 1 0 01-.42 0 .65.65 0 01-.6-.59 1.33 1.33 0 010-.28V8.5a1.34 1.34 0 01.05-.35.58.58 0 01.48-.47 1.4 1.4 0 01.54 0 .56.56 0 01.4.36 1.17 1.17 0 01.09.52v.5zm-1 0v.66a1.52 1.52 0 000 .21.2.2 0 00.17.16.26.26 0 00.33-.22V8.36a.65.65 0 000-.19c0-.11-.14-.13-.24-.13a.2.2 0 00-.22.14 1.43 1.43 0 000 .22zM20.05 7.7v2.72a1.34 1.34 0 01-.49 0V9.21H19v1.22h-.49V7.7H19v1.1a1.35 1.35 0 00.54 0V7.7zM25.46 3.22h.46v2.74h-.47V4.73h-.54V6h-.49V3.22h.48a2.44 2.44 0 010 .38v.76h.53c.03-.36.01-.76.03-1.14zM15.93 9.1l.37 1.34h-.51l-.31-1.24h-.21v1.23h-.49V7.71a9 9 0 01.9 0 .57.57 0 01.54.55 1.14 1.14 0 010 .45c-.05.18-.09.23-.29.39zm-.66-1v.82h.29a.23.23 0 00.19-.2.87.87 0 000-.36.28.28 0 00-.24-.22zM22.24 4.61l.36 1.32a1.18 1.18 0 01-.5 0l-.31-1.22h-.22V6h-.49V3.23H21.86a1 1 0 01.25 0 .54.54 0 01.43.49 2 2 0 010 .42.5.5 0 01-.3.47zm-.66-.24a.61.61 0 00.3 0 .24.24 0 00.18-.18.85.85 0 000-.42.2.2 0 00-.15-.16.69.69 0 00-.32 0zM14.51 9.06v.59a1.87 1.87 0 010 .32.62.62 0 01-.54.49 1.36 1.36 0 01-.45 0A.64.64 0 0113 9.9a1.09 1.09 0 010-.26V8.47a2.25 2.25 0 010-.36.57.57 0 01.45-.42 1.32 1.32 0 01.56 0 .58.58 0 01.4.35 1.06 1.06 0 01.08.4v.62zm-.5 0v-.61a1.5 1.5 0 000-.22.22.22 0 00-.27-.23c-.15 0-.23.06-.25.2a.65.65 0 000 .2v1.24a1.94 1.94 0 000 .24.24.24 0 00.26.17.22.22 0 00.25-.13 1 1 0 000-.24zM19.41 3.23V6h-.28a.15.15 0 01-.06 0 .61.61 0 01-.07-.21c-.17-.42-.35-.84-.52-1.27a.2.2 0 00-.07-.1V6A2.71 2.71 0 0118 6V3.26h.33L19 4.67a.13.13 0 000-.11V3.24a.92.92 0 01.41-.01zM23.43 9.37h-.29v-.32h.71a12.58 12.58 0 010 1.38h-.31v-.21l-.05.06a.42.42 0 01-.37.19 1.06 1.06 0 01-.25 0 .53.53 0 01-.38-.3 1.07 1.07 0 01-.11-.46V8.46a1.1 1.1 0 01.07-.36.56.56 0 01.44-.4 1.4 1.4 0 01.5 0 .57.57 0 01.47.47 1.15 1.15 0 010 .45h-.45v-.11a1.62 1.62 0 000-.22c0-.16-.09-.22-.23-.23a.23.23 0 00-.27.21.52.52 0 000 .17v1.23a1.64 1.64 0 000 .22.23.23 0 00.24.22.25.25 0 00.28-.19.36.36 0 000-.1c-.01-.16-.01-.29 0-.45zM26.3 7.7h.53l.54 2.73h-.46l-.12-.62h-.45l-.11.63h-.47zm.28.77l-.15 1h.34zM14.73 6h-.46l-.12-.62h-.45l-.11.62h-.47l.54-2.73h.53zm-.79-2l-.16 1h.34zM27.12 3.21h.79a.61.61 0 01.66.59 1.86 1.86 0 010 .41.58.58 0 01-.55.52h-.4v1.21h-.48c-.04-.08-.05-2.52-.02-2.73zm.5 1.16h.26a.22.22 0 00.21-.21 1.21 1.21 0 000-.38.21.21 0 00-.2-.2 2.43 2.43 0 00-.27 0zM28.75 9.63l.37-.08h.06a1.87 1.87 0 000 .25.67.67 0 00.07.18.23.23 0 00.27.09.22.22 0 00.14-.21.55.55 0 00-.18-.44l-.4-.36-.08-.14a.85.85 0 01-.19-.82.56.56 0 01.34-.38.83.83 0 01.56 0A.51.51 0 0130 8a.94.94 0 01.08.41l-.4.08c0-.1 0-.2-.06-.28a.19.19 0 00-.19-.16.22.22 0 00-.25.23.38.38 0 00.13.32l.34.32a3.11 3.11 0 01.31.32.91.91 0 01.17.66.62.62 0 01-.58.57 1.11 1.11 0 01-.36 0 .52.52 0 01-.38-.34 1.15 1.15 0 01-.06-.5zM28.71 5.15l.41-.09v.17a1.21 1.21 0 00.08.25.23.23 0 00.22.12.2.2 0 00.19-.15.51.51 0 00-.1-.45l-.19-.18c-.12-.11-.26-.22-.38-.34a.83.83 0 01-.22-.83.53.53 0 01.33-.39.92.92 0 01.59 0 .56.56 0 01.36.24 1.18 1.18 0 01.1.43l-.45.07a.68.68 0 000-.14v-.14a.2.2 0 00-.24-.16.22.22 0 00-.2.22.43.43 0 00.14.35l.39.36a2.43 2.43 0 01.3.34.91.91 0 01.13.56.64.64 0 01-.59.59.71.71 0 01-.87-.83zM24.15 3.93l-.41.07v-.28a.2.2 0 00-.22-.16.21.21 0 00-.22.21.43.43 0 00.13.35l.33.31a2.34 2.34 0 01.31.32.86.86 0 01.17.69.62.62 0 01-.46.52.86.86 0 01-.45 0 .61.61 0 01-.41-.34 1.22 1.22 0 01-.09-.46 3.2 3.2 0 01.42-.1v.2a1.18 1.18 0 00.07.2.23.23 0 00.28.13c.09 0 .14-.1.15-.23a.54.54 0 00-.2-.36l-.4-.37a1.26 1.26 0 01-.2-.2.81.81 0 01-.11-.82.49.49 0 01.31-.32.89.89 0 01.56 0 .5.5 0 01.35.3 1 1 0 01.09.34zM11.75 3.22h.79a.61.61 0 01.66.59 1.19 1.19 0 010 .46.59.59 0 01-.55.47h-.38V6h-.49zm.5 1.16h.29a.19.19 0 00.17-.16 1 1 0 000-.45.2.2 0 00-.17-.16 1 1 0 00-.3 0zM20.73 4.71h-.49v.88h.63a1.61 1.61 0 010 .31 7.14 7.14 0 01-1.14 0V3.22h1.12v.35h-.62v.78h.49zM21.49 7.7v.35h-.63v.77h.49v.36h-.48v.89h.62v.34a7 7 0 01-1.12 0V7.7zM12.26 8.83h.45a1.51 1.51 0 010 .37h-.49v1.23h-.49V7.71a6.72 6.72 0 011.1 0V8h-.58a2.84 2.84 0 00.01.83zM17.48 8.07H17v-.36a10.43 10.43 0 011.37 0v.35H18v2.35a1.13 1.13 0 01-.49 0V8.07zM17.44 6h-.5V3.6h-.44v-.37h1.37v.37h-.42V6zM27.53 10.42V7.71a1.34 1.34 0 01.49 0v2.36a1.77 1.77 0 00.32 0h.32a1.74 1.74 0 010 .32 6.19 6.19 0 01-1.13.03zM26.3 3.22h.46v2.73h-.46z"/><path fill="#1a3667" d="M18.62 20.66a4.91 4.91 0 00-3.51-2.74 3.79 3.79 0 013.66-2.34 3.73 3.73 0 012.23.82 4 4 0 011.16 1.52 4.89 4.89 0 00-3.54 2.74zM13.82 18.88a5 5 0 001.52 4.24 4.88 4.88 0 00-3.67 2.54 3.91 3.91 0 01-1.13-3.94 3.86 3.86 0 013.28-2.84zM12.16 27.22a4.75 4.75 0 004.4-.12 5.14 5.14 0 00.13 2.31 5 5 0 001.14 2 3.71 3.71 0 01-4-.1 3.93 3.93 0 01-1.67-4.09zM23.42 18.89a3.82 3.82 0 013.2 2.58 3.93 3.93 0 01-1 4.18 4.9 4.9 0 00-3.65-2.56 5 5 0 001.45-4.2zM19.44 31.39a5 5 0 001.23-4.29 4.79 4.79 0 004.42.12A3.93 3.93 0 0123.81 31a3.75 3.75 0 01-4.37.39zM24.75 26.25a3.77 3.77 0 01-5.19-1.74 3.78 3.78 0 015.19 1.74zM18.64 30.78a3.93 3.93 0 010-5.55 3.94 3.94 0 010 5.55zM12.5 26.25a3.76 3.76 0 015.16-1.71 3.76 3.76 0 01-5.16 1.71zM19.2 23.36a3.88 3.88 0 013.2-4.45 3.87 3.87 0 01-3.2 4.45zM14.83 18.91A3.88 3.88 0 0118 23.35a3.86 3.86 0 01-3.17-4.44zM15.42 4.37v-.79a.61.61 0 01.3 0 .25.25 0 01.18.19.77.77 0 010 .37.27.27 0 01-.2.21.66.66 0 01-.28.02zM24.6 9.06V8.4a1.43 1.43 0 010-.22.2.2 0 01.26-.18c.1 0 .2 0 .24.13a.65.65 0 010 .19v1.51a.26.26 0 01-.33.22.2.2 0 01-.17-.16 1.52 1.52 0 010-.21zM15.27 8.05h.25a.28.28 0 01.24.22.87.87 0 010 .36.23.23 0 01-.19.2h-.29zM21.58 4.37v-.79a.69.69 0 01.32 0 .2.2 0 01.15.16.85.85 0 010 .42.24.24 0 01-.18.18.61.61 0 01-.29.03zM14 9.06v.62a1 1 0 010 .24.22.22 0 01-.23.17.24.24 0 01-.26-.17 1.94 1.94 0 010-.24V8.44a.65.65 0 010-.2c0-.14.1-.2.25-.2a.22.22 0 01.25.19 1.5 1.5 0 010 .22zM26.58 8.47l.16 1h-.34l.15-1zM13.94 4l.16 1h-.34l.16-1zM27.62 4.37v-.79a2.43 2.43 0 01.27 0 .21.21 0 01.2.2 1.21 1.21 0 010 .38.22.22 0 01-.21.21zM12.25 4.38v-.8a1 1 0 01.3 0 .2.2 0 01.17.16 1 1 0 010 .45.19.19 0 01-.17.16z"/></g></g></svg>