<svg xmlns="http://www.w3.org/2000/svg" viewBox="0 0 36.76 37.49"><g data-name="Layer 2"><path fill="#d09e2a" d="M36.76 37.49H0V0h36.76zM17.88 24.11H8.12a.27.27 0 00-.25.34v.13a8.66 8.66 0 00.65 2.1 9.65 9.65 0 003.22 3.88 10.47 10.47 0 002.71 1.37c.15.05.15.05.16.22s0 .23 0 .35a.27.27 0 00.28.28H21a.26.26 0 00.27-.28v-.44c0-.14 0-.14.13-.18a11 11 0 001.32-.57A10.11 10.11 0 0025.68 29a9.14 9.14 0 002.06-3.93c.05-.2.09-.41.13-.62a.29.29 0 00-.29-.36h-9.7zM4.48 9.28a.63.63 0 00.09-.14c.29-.44.58-.87.86-1.31s.61-.93.9-1.4a2.69 2.69 0 00.34-2 1.52 1.52 0 00-1.14-1.24 2.67 2.67 0 00-1.16 0 1.76 1.76 0 00-.72.3A1.77 1.77 0 003 4.4a3.89 3.89 0 00-.12 1.18c0 .1 0 .11.13.12h1.1c.1 0 .12 0 .12-.13v-.49a1.46 1.46 0 01.1-.45.51.51 0 01.67-.31.43.43 0 01.33.38 1.78 1.78 0 010 .69 2.52 2.52 0 01-.33.75l-.88 1.38L3 9.32a.39.39 0 00-.06.18v.78c0 .12 0 .12.13.12h3.46v-1a.07.07 0 00-.08-.08h-2zm17.38 14H23.07c.1 0 .12 0 .14-.11a3.28 3.28 0 00.1-.7 3.08 3.08 0 00-.22-1.17 4.07 4.07 0 00-.77-1.22 2.52 2.52 0 01-.57-1 2.93 2.93 0 010-1.5 4.62 4.62 0 01.6-1.43.51.51 0 00-.13-.71.69.69 0 00-.57-.11.61.61 0 00-.42.3 5.31 5.31 0 00-.85 2.37 3.48 3.48 0 00.07 1.16 3.54 3.54 0 00.78 1.53 4.43 4.43 0 01.49.65 2.12 2.12 0 01.18 1.82s-.02.11-.04.16zm-3.87 0H19.2c.1 0 .11 0 .14-.11a3.2 3.2 0 00.09-.81 3.05 3.05 0 00-.22-1.07 4 4 0 00-.79-1.24 2.46 2.46 0 01-.64-1.46 3.27 3.27 0 01.15-1.28 4.8 4.8 0 01.53-1.15.45.45 0 00.08-.36.52.52 0 00-.34-.42.69.69 0 00-.88.27A5.56 5.56 0 0016.5 18a3.57 3.57 0 00.25 1.74 4.15 4.15 0 00.67 1 4.29 4.29 0 01.36.48 2.1 2.1 0 01.22 2zm-3.88 0H15.33c.09 0 .1 0 .13-.11a2.86 2.86 0 00.1-.77 3.15 3.15 0 00-.2-1.05 4.26 4.26 0 00-.82-1.31 2.4 2.4 0 01-.63-1.41 3.35 3.35 0 01.09-1.2 4.64 4.64 0 01.54-1.2.51.51 0 00-.17-.74.71.71 0 00-.55-.09.66.66 0 00-.41.3 5.39 5.39 0 00-.82 2.3 3.52 3.52 0 00.92 2.81 2.79 2.79 0 01.45.63 2.09 2.09 0 01.15 1.76s.02.07 0 .12zm-2.9-12.87V7.77c0-.09 0-.1-.11-.1h-.24c-.19 0-.19 0-.19.2v.85c0 .09 0 .1-.1.1h-.32s-.08 0-.08-.08V7.8c0-.13 0-.13-.14-.14h-.2c-.19 0-.19 0-.19.19v2.47c0 .12 0 .13.13.13H10c.2 0 .19 0 .19-.19v-.91c0-.12 0-.13.12-.13h.25c.12 0 .13 0 .13.14v1s0 .07.07.07zM19 9.23c.16 0 .17 0 .2.09l.06.22c.07.26.13.53.2.8 0 .11 0 .11.15.11H20v-.17c-.1-.36-.19-.72-.3-1.08 0-.07 0-.11.05-.14a.42.42 0 00.19-.26 1.12 1.12 0 000-.7.51.51 0 00-.28-.31.75.75 0 00-.29-.09h-.71c-.24 0-.19 0-.19.2v2.52a.07.07 0 00.08.07h.38c.05 0 .07 0 .08-.07V9.23zm-3.18-4.64v-.54a2.13 2.13 0 00-.07-.44.59.59 0 00-.43-.41 1.25 1.25 0 00-.51 0 .64.64 0 00-.55.53 1.86 1.86 0 000 .33v1.09a2.14 2.14 0 00.07.43.58.58 0 00.48.43 1.37 1.37 0 00.29 0 .66.66 0 00.73-.6.22.22 0 000-.08zm-2.19 0a.49.49 0 00.28-.39 1.25 1.25 0 000-.38.6.6 0 00-.53-.63 1.63 1.63 0 00-.31 0h-.51c-.15 0-.15 0-.15.15v2.54c0 .08 0 .09.1.1h.28C13 6 13 6 13 5.83v-.94a.61.61 0 010-.14c.15 0 .16 0 .2.1l.09.38c.06.21.11.42.17.64 0 0 0 .1.08.1H14a4.69 4.69 0 00-.17-.67c-.07-.23-.14-.45-.2-.68zm-.21 5.83h.38s.07 0 .07-.07a.49.49 0 000-.12V9.06a.49.49 0 010-.11c.18.45.35.88.53 1.3.09.23.05.2.3.2s.14 0 .14-.14V7.77c0-.09 0-.1-.1-.1h-.25c-.08 0-.1 0-.1.1a.38.38 0 000 .1v1.2s-.15-.35-.23-.53-.21-.49-.31-.74c0 0 0-.09-.1-.09h-.24a.06.06 0 00-.07.07v2.71zm-.85-1.68v.85a1.18 1.18 0 010 .27.19.19 0 01-.22.17.22.22 0 01-.23-.17V7.8c0-.12 0-.13-.13-.14h-.26c-.12 0-.13 0-.13.14v1.8a1.43 1.43 0 00.07.46.59.59 0 00.41.39 1.14 1.14 0 00.55 0A.59.59 0 0013 10a2 2 0 00.05-.42V7.76c0-.07 0-.09-.09-.09h-.33c-.08 0-.09 0-.1.1v1zm3.76 1.5a.37.37 0 010 .09c0 .07 0 .1.11.09h.15c.1 0 .11 0 .11-.12V9.16c0-.14 0-.14-.14-.15h-.53C16 9 16 9 16 9.08a.76.76 0 000 .3h.2a.06.06 0 01.07.07 1.29 1.29 0 010 .44.21.21 0 01-.27.17.21.21 0 01-.21-.2 2.85 2.85 0 010-.29v-1a2.46 2.46 0 010-.26c0-.16.1-.22.26-.22s.21.08.22.25a1.62 1.62 0 000 .22c0 .08 0 .1.09.1a1.71 1.71 0 00.32 0c.08 0 .11 0 .1-.1a2.32 2.32 0 00-.06-.45.5.5 0 00-.4-.39 1 1 0 00-.45 0 .65.65 0 00-.61.57 1.63 1.63 0 000 .31v1.01a1.36 1.36 0 000 .29.73.73 0 00.28.48.64.64 0 00.79-.11zm-4.26-5.89h-.4c-.08 0-.1 0-.1-.09v-.57c0-.08 0-.09.1-.1H12.11c.12 0 .09 0 .09-.1a.86.86 0 000-.16c0-.13 0-.14-.15-.14h-.83c-.2 0-.2 0-.2.2v2.48c0 .09 0 .11.11.11h1c.09 0 .1 0 .1-.11V5.7c0-.1 0-.11-.12-.11h-.4c-.11 0-.12 0-.12-.13v-.62a.44.44 0 010-.1H12a.08.08 0 00.09-.09 2.8 2.8 0 01-.02-.3zm5 6.09h1.08a.07.07 0 00.08-.07v-.2c0-.1 0-.12-.12-.12h-.41c-.1 0-.11 0-.11-.11v-.63c0-.09 0-.1.11-.1h.3c.06 0 .09 0 .09-.08v-.22c0-.09 0-.1-.11-.1h-.28c-.09 0-.11 0-.11-.11v-.52c0-.09 0-.1.11-.11h.41c.1 0 .11 0 .12-.13v-.17c0-.08 0-.1-.11-.1h-1c-.08 0-.09 0-.1.1v2.52a.77.77 0 00.03.15zm-6.8-6.86a.87.87 0 010 .1c-.21.59-.41 1.19-.62 1.79a.93.93 0 00-.06.37c0 .13 0 .14.14.14h1c.09 0 .1 0 .11-.11V5.7c0-.1 0-.11-.11-.11h-.62a1.3 1.3 0 010-.13c.22-.64.45-1.27.66-1.91a.92.92 0 000-.29.06.06 0 00-.06-.07H9.67c-.05 0-.07 0-.07.08v.22c0 .07 0 .09.09.09h.56z"/><path fill="#fff" d="M17.88 24.11h9.7a.29.29 0 01.29.36c0 .21-.08.42-.13.62A9.14 9.14 0 0125.68 29a10.11 10.11 0 01-2.95 2.29 11 11 0 01-1.32.57c-.13 0-.13 0-.13.18v.44a.26.26 0 01-.27.28h-6.1a.27.27 0 01-.28-.28v-.35c0-.12 0-.17-.16-.22a10.47 10.47 0 01-2.71-1.37 9.65 9.65 0 01-3.22-3.88 8.66 8.66 0 01-.65-2.1v-.13a.27.27 0 01.25-.34h9.76zM4.48 9.28h2a.07.07 0 01.08.08v1H3c-.12 0-.13 0-.13-.12V9.5A.39.39 0 013 9.32l1.15-1.8L5 6.14a2.52 2.52 0 00.33-.75 1.78 1.78 0 000-.69.43.43 0 00-.33-.38.51.51 0 00-.63.31 1.46 1.46 0 00-.1.45v.49c0 .16 0 .12-.12.13H3c-.11 0-.13 0-.13-.12A3.89 3.89 0 013 4.4a1.77 1.77 0 01.62-1 1.76 1.76 0 01.72-.3 2.67 2.67 0 011.16 0 1.52 1.52 0 011.17 1.31 2.69 2.69 0 01-.34 2c-.29.47-.6.93-.9 1.4s-.57.87-.86 1.31a.63.63 0 01-.09.16zM21.86 23.32v-.12a2.12 2.12 0 00-.18-1.82 4.43 4.43 0 00-.49-.65 3.54 3.54 0 01-.78-1.53 3.48 3.48 0 01-.03-1.2 5.31 5.31 0 01.83-2.34.61.61 0 01.42-.3.69.69 0 01.57.11.51.51 0 01.13.71 4.62 4.62 0 00-.6 1.43 2.93 2.93 0 000 1.5 2.52 2.52 0 00.57 1 4.07 4.07 0 01.77 1.22 3.08 3.08 0 01.22 1.17 3.28 3.28 0 01-.1.7c0 .09 0 .11-.14.11H22zM18 23.32v-.1a2.1 2.1 0 00-.24-1.94 4.29 4.29 0 00-.36-.48 4.15 4.15 0 01-.67-1 3.57 3.57 0 01-.23-1.8 5.56 5.56 0 01.82-2.32.69.69 0 01.88-.27.52.52 0 01.34.42.45.45 0 01-.08.36 4.8 4.8 0 00-.53 1.15 3.27 3.27 0 00-.15 1.28 2.46 2.46 0 00.64 1.46 4 4 0 01.79 1.24 3.05 3.05 0 01.22 1.07 3.2 3.2 0 01-.09.81c0 .09 0 .11-.14.11h-1.11zM14.11 23.32v-.12a2.09 2.09 0 00-.11-1.76 2.79 2.79 0 00-.45-.63 3.52 3.52 0 01-.92-2.81 5.39 5.39 0 01.82-2.3.66.66 0 01.41-.3.71.71 0 01.55.09.51.51 0 01.17.74 4.64 4.64 0 00-.54 1.2 3.35 3.35 0 00-.13 1.26 2.4 2.4 0 00.63 1.41 4.26 4.26 0 01.82 1.31 3.15 3.15 0 01.2 1.05 2.86 2.86 0 01-.1.77c0 .09 0 .11-.13.11h-1.12zM11.21 10.45h-.46s-.06 0-.07-.07v-1c0-.13 0-.14-.13-.14h-.25c-.12 0-.12 0-.12.13v.91c0 .2 0 .19-.19.19h-.22c-.12 0-.12 0-.13-.13V7.85c0-.19 0-.19.19-.19H10c.13 0 .14 0 .14.14v.93c0 .06 0 .08.08.08h.32c.09 0 .1 0 .1-.1v-.85c0-.2 0-.2.19-.2h.24c.09 0 .1 0 .11.1v2.47c.04.08.03.14.03.22zM19 9.23v1.15s0 .07-.08.07h-.38a.07.07 0 01-.08-.07V7.86c0-.2 0-.2.19-.2h.71a.75.75 0 01.29.09.51.51 0 01.28.31 1.12 1.12 0 010 .7.42.42 0 01-.19.26c-.06 0-.07.07-.05.14.11.36.2.72.3 1.08v.17h-.41c-.11 0-.12 0-.15-.11-.07-.27-.13-.54-.2-.8l-.06-.22c-.03-.09-.04-.09-.17-.05zm0-.79v.23c0 .15 0 .18.18.16a.26.26 0 00.27-.22 1.93 1.93 0 000-.34.21.21 0 00-.18-.19h-.15c-.11 0-.12 0-.12.11zM15.82 4.59v.73a.22.22 0 010 .08.66.66 0 01-.73.6 1.37 1.37 0 01-.29 0 .58.58 0 01-.48-.43 2.14 2.14 0 01-.07-.43V4.05a1.86 1.86 0 010-.33.64.64 0 01.55-.53 1.25 1.25 0 01.51 0 .59.59 0 01.43.41 2.13 2.13 0 01.07.44v.54zm-.56 0V4a.81.81 0 000-.16c0-.09 0-.18-.12-.2s-.33 0-.36.19a.17.17 0 000 .07v1.4a.53.53 0 000 .17.15.15 0 00.12.11c.18 0 .3 0 .33-.22a1 1 0 000-.17zM13.63 4.62c.06.23.13.45.18.68A4.69 4.69 0 0114 6h-.46c-.15 0-.07-.06-.08-.1-.06-.22-.11-.43-.17-.64l-.09-.38c0-.13 0-.14-.2-.1a.61.61 0 000 .14v.94C13 6 13 6 12.82 6h-.28c-.09 0-.1 0-.1-.1V3.34c0-.15 0-.15.15-.15h.51a1.63 1.63 0 01.31 0 .6.6 0 01.53.63 1.25 1.25 0 010 .38.49.49 0 01-.31.42zM13 4.36h.21a.25.25 0 00.23-.24.94.94 0 000-.29.25.25 0 00-.27-.24c-.14 0-.14 0-.14.14v.5a.76.76 0 00-.03.13zM13.42 10.45V7.74a.06.06 0 01.07-.07h.24c.06 0 .08 0 .1.09.1.25.21.5.31.74s.15.36.23.53V7.87a.38.38 0 010-.1c0-.08 0-.1.1-.1h.25c.08 0 .09 0 .1.1v2.54c0 .14 0 .14-.14.14s-.21 0-.3-.2c-.18-.42-.35-.85-.53-1.3a.49.49 0 000 .11v1.2a.49.49 0 010 .12s0 .07-.07.07zM12.57 8.77v-1c0-.08 0-.1.1-.1H13c.06 0 .1 0 .09.09v1.81A2 2 0 0113 10a.59.59 0 01-.47.47 1.14 1.14 0 01-.55 0 .59.59 0 01-.41-.39 1.43 1.43 0 01-.07-.46v-1.8c0-.12 0-.13.13-.14h.26c.12 0 .13 0 .13.14V9.89a.22.22 0 00.23.17.19.19 0 00.22-.17 1.18 1.18 0 000-.27zM16.33 10.27a.64.64 0 01-.86.11.73.73 0 01-.28-.48 1.36 1.36 0 010-.29V8.52a1.63 1.63 0 010-.31.65.65 0 01.61-.57 1 1 0 01.45 0 .5.5 0 01.4.39 2.32 2.32 0 01.06.45c0 .08 0 .1-.1.1a1.71 1.71 0 01-.32 0c-.07 0-.09 0-.09-.1a1.62 1.62 0 010-.22c0-.17-.08-.24-.22-.25s-.24.06-.26.22a2.46 2.46 0 000 .26v1a2.85 2.85 0 000 .29.21.21 0 00.21.2.21.21 0 00.27-.17 1.29 1.29 0 000-.44.06.06 0 00-.07-.07H16a.76.76 0 010-.3H16.58c.14 0 .14 0 .14.15v1.17c0 .11 0 .12-.11.12h-.15c-.07 0-.1 0-.11-.09a.37.37 0 00-.02-.08zM12.07 4.35a2.8 2.8 0 000 .29.08.08 0 01-.09.09h-.39a.44.44 0 000 .1v.62c0 .12 0 .12.12.13h.4c.11 0 .12 0 .12.11v.17c0 .09 0 .11-.1.11h-1c-.09 0-.1 0-.11-.11V3.39c0-.2 0-.2.2-.2h.83c.14 0 .14 0 .15.14a.86.86 0 010 .16c0 .08 0 .1-.09.1H11.67c-.08 0-.1 0-.1.1v.55c0 .08 0 .09.1.09h.4zM17.05 10.44a.77.77 0 010-.15V7.77c0-.08 0-.1.1-.1h1c.08 0 .1 0 .11.1v.17c0 .11 0 .13-.12.13h-.41c-.09 0-.11 0-.11.11v.52c0 .1 0 .11.11.11H18c.09 0 .11 0 .11.1v.21c0 .06 0 .08-.09.08h-.3c-.1 0-.11 0-.11.1v.7c0 .1 0 .11.11.11h.41c.1 0 .12 0 .12.12v.2a.07.07 0 01-.08.07h-1.12zM10.25 3.58h-.56c-.06 0-.1 0-.09-.09v-.22s0-.08.07-.08h1.08a.06.06 0 01.06.07.92.92 0 010 .29c-.21.64-.44 1.27-.66 1.91a1.3 1.3 0 000 .13h.62c.09 0 .1 0 .11.11v.17c0 .09 0 .1-.11.11h-1c-.12 0-.13 0-.14-.14a.93.93 0 01.06-.37c.21-.6.41-1.2.62-1.79a.87.87 0 00-.06-.1z"/><path fill="#d09e2a" d="M19 8.44v-.27c0-.11 0-.12.12-.11h.15a.21.21 0 01.18.19 1.93 1.93 0 010 .34.26.26 0 01-.27.22c-.2 0-.18 0-.18-.16zM15.26 4.58v.61a1 1 0 010 .17c0 .22-.15.25-.33.22a.15.15 0 01-.12-.11.53.53 0 010-.17V3.86a.17.17 0 010-.07c0-.21.17-.25.36-.19s.11.11.12.2a.81.81 0 010 .16zM13 4.36a.76.76 0 010-.14v-.5c0-.14 0-.14.14-.14a.25.25 0 01.27.24.94.94 0 010 .29.25.25 0 01-.23.24z"/></g></svg>