<svg xmlns="http://www.w3.org/2000/svg" viewBox="0 0 36.76 37.49"><g data-name="Layer 2"><path fill="#2c9947" d="M36.76 37.49H0V0h36.76zM18 23.71a.45.45 0 010 .08c.1.57.19 1.13.29 1.7l.3 1.77c.1.62.21 1.24.31 1.86s.19 1.11.28 1.67l.12.7a.43.43 0 00.41.34.42.42 0 00.43-.27.88.88 0 000-.15l.27-.91 2.78-9.42c.51-1.71 1-3.42 1.52-5.13a.65.65 0 01.05-.15l.07.14 1.53 3.24c.08.17.16.34.25.51a.4.4 0 00.44.24.46.46 0 00.39-.36.53.53 0 00-.07-.35c-.61-1.28-1.21-2.56-1.82-3.85-.16-.34-.32-.69-.49-1a.44.44 0 00-.83.06v.1l-.54 1.83c-.82 2.76-1.63 5.53-2.45 8.3L20 29.19a1.42 1.42 0 01-.05.16 1 1 0 01-.05-.22c-.09-.52-.17-1-.26-1.54s-.17-1-.26-1.51-.19-1.13-.28-1.7-.19-1.11-.28-1.67c0-.16-.05-.31-.08-.47a.45.45 0 00-.44-.39.48.48 0 00-.43.29c-.61 1.17-1.23 2.34-1.85 3.51l-.06.1c0-.21-.06-.4-.08-.59-.06-.38-.11-.76-.16-1.15s-.11-.74-.16-1.11-.11-.76-.16-1.15-.11-.75-.16-1.13l-.15-1.05a.44.44 0 00-.82-.15l-.06.13c-.55 1.25-1.09 2.5-1.64 3.76-.11.24-.21.48-.32.73a.13.13 0 01-.15.09H6.41a.45.45 0 00-.41.37.44.44 0 00.27.5.59.59 0 00.23 0h5.9a.5.5 0 00.51-.33c.47-1.1.95-2.2 1.43-3.29a1.29 1.29 0 01.06-.12c0 .15 0 .27.06.4.05.38.11.76.16 1.14s.11.75.16 1.13.1.76.16 1.15.1.75.16 1.13.09.68.14 1a.45.45 0 00.37.38.45.45 0 00.45-.21l.12-.23c.6-1.13 1.2-2.25 1.79-3.38zm9.68 3.79l.11-.09c.81-.84 1.62-1.67 2.44-2.5a2.23 2.23 0 00.38-.53 2 2 0 00.2-1.21 2 2 0 00-.5-1.13 1.41 1.41 0 00-1.88-.26 5.72 5.72 0 00-.65.55.57.57 0 00-.11.11l-.09-.11a3.54 3.54 0 00-.76-.63 1.23 1.23 0 00-.45-.17 1.58 1.58 0 00-1.21.42 2 2 0 00-.63 1.62 2 2 0 00.57 1.31l2.48 2.53zM4.31 7.19h.29a.61.61 0 01.64.52v.06a3 3 0 010 .85 3.39 3.39 0 01-.08.44.39.39 0 01-.17.21.5.5 0 01-.67-.27 2.42 2.42 0 01-.07-.47v-.35c0-.12 0-.09-.1-.1H2.85a.71.71 0 000 .14v.51a2.64 2.64 0 00.26.95 1.41 1.41 0 00.88.74 2.78 2.78 0 001.25.06 1.48 1.48 0 00.95-.48 1.66 1.66 0 00.31-.55 3.22 3.22 0 00.18-1.15 3.17 3.17 0 00-.08-.69 1.35 1.35 0 00-.72-1 3.24 3.24 0 00.35-.27 1.37 1.37 0 00.35-.59 2.55 2.55 0 000-1.37 1.55 1.55 0 00-1.14-1.2 2.72 2.72 0 00-1.17 0A1.6 1.6 0 003 4.3a3.41 3.41 0 00-.11 1.1c0 .08 0 .1.11.1h1.12c.1 0 .12 0 .12-.13v-.38a1.76 1.76 0 01.09-.5.37.37 0 01.23-.23.5.5 0 01.69.37 2.37 2.37 0 010 .75 1.35 1.35 0 01-.11.45.47.47 0 01-.29.26H4.26zm11.35.49l.34 2.77h.33c.1 0 .11 0 .13-.11.07-.4.13-.8.2-1.21l.06-.34c.07.35.13.7.19 1.05 0 .16.05.33.08.49s0 .11.07.12a1.45 1.45 0 00.36 0c.06-.16.4-2.65.38-2.77h-.21c-.24 0-.2 0-.24.22-.06.46-.11.93-.17 1.4-.06-.3-.11-.6-.16-.9S17 8 17 7.77s0-.1-.11-.1h-.16c-.1 0-.11 0-.13.11l-.18 1.1-.06.39-.2-1.58zm9 1.27a.48.48 0 00.29-.42 1.35 1.35 0 000-.35.54.54 0 00-.39-.46H23.59c-.08 0-.09 0-.1.1v2.57c0 .1 0 .11.11.11h.77a.64.64 0 00.63-.64 1.48 1.48 0 000-.42.53.53 0 00-.37-.44zm-11.51 1.48H14a.76.76 0 00.16 0 .61.61 0 00.49-.48 1.81 1.81 0 000-.4v-.91-.35a.62.62 0 00-.51-.57.63.63 0 00-.19 0h-.71a.09.09 0 00-.1.09v2.49a.51.51 0 00.01.13zm2-5.85v1.25c0 .14 0 .14.15.15h.47a1.67 1.67 0 00.32 0 .59.59 0 00.44-.28.77.77 0 00.12-.35v-.53-1a.61.61 0 00-.59-.62h-.78c-.26 0-.13 0-.13.14v1.24zM26 4.33v-.39-.36a1.71 1.71 0 000-.39h-.41c-.09 0-.1 0-.1.11a.13.13 0 000 .06V5.8a.13.13 0 000 .06c0 .1 0 .11.1.11a1.82 1.82 0 00.33 0L26 6V4.78a4.17 4.17 0 01.5 0v1.1c0 .07 0 .1.09.1a2.25 2.25 0 01.26 0c.19 0 .19 0 .19-.2v-2.4a.41.41 0 000-.11s0-.08-.07-.08h-.38c-.05 0-.07 0-.08.08v1.06zm-7.73 0v-.15-.87c0-.11 0-.12-.11-.12H18c-.17 0-.18 0-.18.18v2.52c0 .03 0 .08.07.08h.38c.05 0 .07 0 .07-.07v-.09V4.74h.49v1.15c0 .09 0 .1.11.1a1.71 1.71 0 00.32 0c.09 0 .1 0 .11-.1V3.38a.31.31 0 000-.1c0-.06 0-.09-.08-.09h-.39s-.08 0-.08.09v1.05zm-6.53 6.11V9v.09l.48 1.17c.09.24.09.24.34.22.06 0 .09 0 .09-.08V7.75a.07.07 0 00-.08-.08h-.29c-.05 0-.07 0-.07.08a.31.31 0 000 .1v1.24a.2.2 0 01.08-.09c-.16-.37-.32-.74-.47-1.11s-.11-.24-.36-.22a.07.07 0 00-.08.08v2.69zm1.49-5.87v.55a2.14 2.14 0 00.07.43.56.56 0 00.48.43 1.79 1.79 0 00.4 0 .65.65 0 00.6-.56 1.47 1.47 0 000-.36v-1a2.12 2.12 0 00-.06-.44.6.6 0 00-.5-.46 1.19 1.19 0 00-.46 0 .63.63 0 00-.52.46 1.13 1.13 0 000 .18zm-1.84 0v.55a1.37 1.37 0 000 .29.67.67 0 00.47.57 1.07 1.07 0 00.47 0 .64.64 0 00.67-.52 1.65 1.65 0 000-.32V4a1.27 1.27 0 000-.28.64.64 0 00-.47-.54 1 1 0 00-.46 0 .64.64 0 00-.59.55 1.43 1.43 0 000 .29c-.05.17-.05.35-.05.54zm17.15 4.54L28 7.88c-.11-.24-.06-.21-.32-.21s-.14 0-.14.14v2.56c0 .06 0 .08.08.08h.3s.07 0 .07-.08V8.92L28 9l.21.51.33.82s.05.09.08.09a.51.51 0 00.3 0V7.68a.67.67 0 00-.4 0v1.43zm-17.87-4.2a1.59 1.59 0 010 .49.23.23 0 01-.28.19.21.21 0 01-.21-.21 1.22 1.22 0 010-.26V4a2 2 0 010-.25.23.23 0 01.26-.2c.14 0 .2.07.22.22a2.17 2.17 0 010 .26.08.08 0 00.09.09h.33c.07 0 .09 0 .09-.1a2.7 2.7 0 00-.05-.41.53.53 0 00-.47-.44 1.53 1.53 0 00-.37 0 .62.62 0 00-.61.52A1.33 1.33 0 009.6 4v1.1a1.36 1.36 0 00.09.48.57.57 0 00.45.38.55.55 0 00.61-.18v.1c0 .03 0 .07.06.07a.71.71 0 00.29 0 13.26 13.26 0 000-1.42h-.67a.09.09 0 00-.06.07.57.57 0 000 .29zM30.83 9h-.69a.09.09 0 00-.06.06.57.57 0 000 .29h.24a1.28 1.28 0 010 .48.23.23 0 01-.28.2c-.12 0-.19-.08-.21-.23a1.24 1.24 0 010-.27v-1a2.64 2.64 0 010-.28.22.22 0 01.24-.21c.16 0 .22.06.24.23v.33a3 3 0 00.42 0 .08.08 0 00.07-.1 3.15 3.15 0 000-.43.57.57 0 00-.43-.42 1.23 1.23 0 00-.47 0 .64.64 0 00-.55.53 1 1 0 000 .3v1.17a1.27 1.27 0 00.15.56.66.66 0 001 .09v.12c0 .04.05.06.07.06h.28zm-19.69 1.44v-.14c-.11-.57-.22-1.13-.34-1.69 0-.28-.11-.55-.16-.83 0-.06 0-.11-.11-.11h-.38q-.08 0-.09.09v.17c-.16.79-.31 1.58-.47 2.37v.14a3.3 3.3 0 00.44 0s.05 0 .06-.06 0-.06 0-.09 0-.27.07-.41 0-.06.06-.06h.37c.07.22.06.43.14.63a3.76 3.76 0 00.41-.01zM22.59 6a.28.28 0 000-.09l-.33-1.71c-.06-.27-.11-.53-.16-.8s0-.16-.19-.16h-.26c-.12 0-.13 0-.15.13L21 5.86A.49.49 0 0121 6h.3c.19 0 .19 0 .23-.2s0-.22.05-.33 0-.12.13-.12h.2c.12 0 .12 0 .14.12s.05.29.08.43 0 .1.1.1h.32zm-3.92 3.2h.47v-.39h-.48V8.23c0-.16 0-.16.16-.16h.37c.09 0 .1 0 .1-.11a.65.65 0 000-.14c0-.14 0-.15-.15-.15h-.84c-.19 0-.19 0-.19.19v2.49c0 .09 0 .1.12.1h1c.08 0 .1 0 .1-.09v-.2c0-.08 0-.09-.1-.1h-.52a4 4 0 01-.04-.86zm7.11-.39v-.67c0-.06 0-.07.1-.07h.29c.26 0 .25 0 .25-.26 0-.13 0-.14-.15-.14h-.92c-.09 0-.1 0-.11.11v2.51a.77.77 0 000 .15h1c.15 0 .15 0 .15-.16v-.08c0-.14 0-.15-.14-.15h-.35c-.11 0-.12 0-.12-.13v-.6c0-.12 0-.12.12-.13h.1c.29 0 .26.05.26-.26 0-.12 0-.13-.13-.13zm-5.53-3.22a3.48 3.48 0 010-.86h.37c.09 0 .1 0 .11-.1v-.19c0-.09 0-.1-.11-.1h-.31c-.07 0-.09 0-.09-.09v-.58c0-.08 0-.09.1-.09h.52V3.2h-1c-.11 0-.13 0-.13.13v2.5c0 .15 0 .16.16.16h.82c.2 0 .2 0 .2-.2s0-.19-.19-.19zm4.13-2v2.28c0 .09 0 .1.1.1h.24c.19 0 .19 0 .19-.19v-2a.92.92 0 010-.16h.29c.13 0 .13 0 .14-.13v-.18c0-.11 0-.12-.13-.12h-1.27v.4zm-1 2V3.33c0-.14 0-.14-.14-.14H23c-.13 0-.14 0-.14.14v2.5c0 .14 0 .15.15.15h.83c.2 0 .2 0 .2-.21s0-.18-.18-.18zm-3.86 2.09v2.68a.08.08 0 00.09.09h.95c.12 0 .13 0 .13-.13v-.16c0-.08 0-.09-.1-.1h-.53a1.09 1.09 0 010-.17v-2c0-.27 0-.24-.25-.24zm1.38 2.76H22c.08 0 .09 0 .09-.1v-.18c0-.09 0-.1-.1-.11h-.53V7.76a.08.08 0 00-.09-.09h-.45zm6.28-1.38V7.81c0-.13 0-.14-.14-.14h-.24c-.13 0-.14 0-.14.14v2.55c0 .07 0 .09.09.09h.34c.08 0 .09 0 .09-.09v-1.3zm-4.1.13h-.75s-.07 0-.07.06a.57.57 0 000 .29 4.17 4.17 0 00.81 0z"/><path fill="#fff" d="M18 23.71l-.07.11c-.59 1.13-1.19 2.25-1.79 3.38l-.12.23a.45.45 0 01-.45.21.45.45 0 01-.37-.38c-.05-.33-.09-.67-.14-1s-.11-.76-.16-1.13-.11-.77-.16-1.15-.11-.75-.16-1.13-.11-.76-.16-1.14c0-.13 0-.25-.06-.4a1.29 1.29 0 00-.06.12c-.48 1.09-1 2.19-1.43 3.29a.5.5 0 01-.51.33H6.49a.59.59 0 01-.23 0A.44.44 0 016 24.5a.45.45 0 01.42-.37h5.65a.13.13 0 00.15-.09c.11-.25.21-.49.32-.73.55-1.26 1.09-2.51 1.64-3.76l.06-.13a.44.44 0 01.82.15l.15 1.05c.05.38.11.75.16 1.13s.11.77.16 1.15.1.74.16 1.11.1.77.16 1.15c0 .19.05.38.08.59l.06-.1c.62-1.17 1.24-2.34 1.85-3.51a.48.48 0 01.43-.29.45.45 0 01.44.39c0 .16.05.31.08.47.09.56.18 1.11.28 1.67s.19 1.13.28 1.7.17 1 .26 1.51.17 1 .26 1.54a1 1 0 00.05.22 1.42 1.42 0 00.05-.16l1.35-4.56c.82-2.77 1.63-5.54 2.45-8.3l.54-1.83v-.1a.44.44 0 01.83-.06c.17.34.33.69.49 1 .61 1.29 1.21 2.57 1.82 3.85a.53.53 0 01.07.35.46.46 0 01-.39.36.4.4 0 01-.44-.24c-.09-.17-.17-.34-.25-.51l-1.53-3.24-.07-.14a.65.65 0 00-.05.15c-.51 1.71-1 3.42-1.52 5.13l-2.78 9.42-.27.91a.88.88 0 010 .15.42.42 0 01-.43.27.43.43 0 01-.41-.34l-.12-.7c-.09-.56-.19-1.12-.28-1.67s-.21-1.24-.31-1.86l-.3-1.77c-.1-.57-.19-1.13-.29-1.7a.45.45 0 00-.08-.05z"/><path fill="#fff" d="M27.71 27.5l-.1-.09-2.48-2.53a2 2 0 01-.57-1.31 2 2 0 01.63-1.57 1.58 1.58 0 011.21-.42 1.23 1.23 0 01.45.17 3.54 3.54 0 01.76.63l.09.11a.57.57 0 01.11-.11 5.72 5.72 0 01.65-.55 1.41 1.41 0 011.88.26 2 2 0 01.5 1.13 2 2 0 01-.2 1.21 2.23 2.23 0 01-.38.53c-.82.83-1.63 1.66-2.44 2.5zM4.31 7.19v-1H4.9a.47.47 0 00.29-.26 1.35 1.35 0 00.11-.45 2.37 2.37 0 000-.75.5.5 0 00-.69-.37.37.37 0 00-.23.23 1.76 1.76 0 00-.09.5v.38c0 .13 0 .13-.12.13H3c-.09 0-.11 0-.11-.1A3.41 3.41 0 013 4.3a1.6 1.6 0 011.3-1.16 2.72 2.72 0 011.17 0A1.55 1.55 0 016.6 4.39a2.55 2.55 0 010 1.37 1.37 1.37 0 01-.35.59 3.24 3.24 0 01-.35.27 1.35 1.35 0 01.72 1 3.17 3.17 0 01.08.69 3.22 3.22 0 01-.2 1.11 1.66 1.66 0 01-.31.55 1.48 1.48 0 01-.92.52A2.78 2.78 0 014 10.43a1.41 1.41 0 01-.88-.74 2.64 2.64 0 01-.26-.95v-.51a.71.71 0 010-.14H4.14c.08 0 .1 0 .1.1v.35a2.42 2.42 0 00.08.46.5.5 0 00.73.29.39.39 0 00.17-.21 3.39 3.39 0 00.08-.44 3 3 0 000-.85v-.06a.61.61 0 00-.7-.53zM15.66 7.68h.45l.2 1.58.06-.39.18-1.1c0-.1 0-.11.13-.11h.16c.08 0 .1 0 .11.1s.07.42.1.62.1.6.16.9c.06-.47.11-.94.17-1.4 0-.24 0-.22.24-.22h.21c0 .12-.32 2.61-.38 2.77a1.45 1.45 0 01-.36 0c-.06 0-.06-.07-.07-.12S17 10 17 9.84c-.06-.35-.12-.7-.19-1.05l-.06.34c-.07.41-.13.81-.2 1.21 0 .1 0 .11-.13.11H16zM24.61 9a.53.53 0 01.34.46 1.48 1.48 0 010 .42.64.64 0 01-.66.59h-.77c-.25 0-.11 0-.11-.11V7.77c0-.09 0-.1.1-.1H24.48a.54.54 0 01.39.46 1.35 1.35 0 010 .35.48.48 0 01-.26.52zM24 10.05a.66.66 0 00.28 0 .23.23 0 00.21-.21.79.79 0 000-.43.25.25 0 00-.12-.16.53.53 0 00-.37-.06zm0-1.26h.28a.23.23 0 00.19-.22 2.09 2.09 0 000-.25.22.22 0 00-.2-.22h-.18c-.09 0-.1 0-.1.1v.62zM13.15 10.43a.51.51 0 010-.13V7.76a.09.09 0 01.1-.09h.71a.63.63 0 01.19 0 .62.62 0 01.51.57V9.5a1.81 1.81 0 010 .4.61.61 0 01-.49.48.76.76 0 01-.16 0h-.77zm1-1.36v-.45-.32a.21.21 0 00-.22-.22h-.1c-.09 0-.1 0-.11.11V10s0 .07.06.07c.2 0 .37 0 .38-.3zM15.17 4.58V3.33c0-.13 0-.14.13-.14h.78a.61.61 0 01.59.62v1.53a.77.77 0 01-.12.35.59.59 0 01-.44.28 1.67 1.67 0 01-.32 0h-.47c-.14 0-.15 0-.15-.15zm1 0v-.72c0-.24-.08-.26-.27-.27s-.16 0-.16.16v1.68a.33.33 0 000 .1.29.29 0 00.38-.27v-.67zM26 4.33h.49V3.27s0-.08.08-.08H27c.05 0 .07 0 .07.08a.41.41 0 010 .11v2.4c0 .2 0 .2-.19.2a2.25 2.25 0 00-.26 0c-.06 0-.09 0-.09-.1V4.74a4.17 4.17 0 00-.5 0v1.22h-.09a1.82 1.82 0 01-.33 0c-.09 0-.1 0-.1-.11a.13.13 0 010-.06V3.36a.13.13 0 010-.06c0-.09 0-.11.1-.11H26a1.71 1.71 0 010 .39v.36zM18.31 4.33h.5V3.28c0-.06 0-.09.08-.09h.37c.06 0 .08 0 .08.09a.31.31 0 010 .1v2.49c0 .09 0 .1-.11.1a1.71 1.71 0 01-.32 0c-.09 0-.1 0-.11-.1v-1-.15h-.49V5.9s0 .07-.07.07h-.38c-.05 0-.07 0-.07-.08V3.37c0-.18 0-.18.18-.18h.24c.11 0 .11 0 .11.12v.87zM11.78 10.44h-.42V7.75a.07.07 0 01.08-.08c.25 0 .25 0 .36.22s.31.74.47 1.11a.2.2 0 00.05.09V7.85a.31.31 0 010-.1s0-.08.07-.08h.29a.07.07 0 01.08.08v2.62c0 .06 0 .08-.09.08-.25 0-.25 0-.34-.22l-.48-1.17v-.09 1.43a.05.05 0 01-.07.04zM13.27 4.57v-.75a1.13 1.13 0 010-.18.63.63 0 01.52-.46 1.19 1.19 0 01.46 0 .6.6 0 01.5.46 2.12 2.12 0 01.06.44v1a1.47 1.47 0 010 .36.65.65 0 01-.6.56 1.79 1.79 0 01-.4 0 .56.56 0 01-.48-.43 2.14 2.14 0 01-.07-.43v-.55zm.55 0v.61a1.15 1.15 0 000 .19.22.22 0 00.22.22.23.23 0 00.27-.2V3.86a.4.4 0 000-.15c0-.1-.1-.13-.22-.14s-.2 0-.23.15a.78.78 0 000 .22zM11.43 4.56v-.55a1.43 1.43 0 010-.29.64.64 0 01.59-.55 1 1 0 01.46 0 .64.64 0 01.47.54A1.27 1.27 0 0113 4v1.14a1.65 1.65 0 010 .32.64.64 0 01-.6.54 1.07 1.07 0 01-.47 0 .67.67 0 01-.47-.57 1.37 1.37 0 010-.29c-.03-.22-.03-.4-.03-.58zm1.06 0V4a1.46 1.46 0 000-.22c0-.12-.11-.16-.25-.16a.21.21 0 00-.22.17A1.64 1.64 0 0012 4v1.21a.83.83 0 000 .22c0 .11.1.16.23.16a.21.21 0 00.23-.16 1.66 1.66 0 000-.22zM28.54 9.11V7.7a.67.67 0 01.4 0v2.74a.51.51 0 01-.3 0s-.06-.06-.08-.09l-.33-.82L28 9v-.08 1.45c0 .05 0 .08-.07.08h-.3c-.05 0-.08 0-.08-.08V7.81c0-.14 0-.14.14-.14s.21 0 .32.21l.5 1.19zM10.67 4.91h-.26a.57.57 0 010-.29.09.09 0 01.06-.07h.67a13.26 13.26 0 010 1.42.71.71 0 01-.29 0l-.06-.07c-.06-.07 0-.07 0-.1a.55.55 0 01-.61.18.57.57 0 01-.45-.38 1.36 1.36 0 01-.09-.48v-1.1a1.33 1.33 0 01.05-.34.62.62 0 01.61-.52 1.53 1.53 0 01.37 0 .53.53 0 01.47.44 2.7 2.7 0 01.05.41c0 .08 0 .1-.09.1h-.33a.08.08 0 01-.09-.09 2.17 2.17 0 000-.26c0-.15-.08-.21-.22-.22a.23.23 0 00-.26.2 2 2 0 000 .25v1.1a1.22 1.22 0 000 .26.21.21 0 00.21.21.23.23 0 00.28-.19 1.59 1.59 0 00-.02-.46zM30.83 9v1.43h-.28s-.05 0-.07-.06 0-.07 0-.12a.66.66 0 01-1-.09 1.27 1.27 0 01-.15-.56V8.48a1 1 0 010-.3.64.64 0 01.55-.53 1.23 1.23 0 01.47 0 .57.57 0 01.43.42 3.15 3.15 0 010 .43.08.08 0 01-.07.1 3 3 0 01-.42 0v-.33c0-.17-.08-.23-.24-.23a.22.22 0 00-.24.21 2.64 2.64 0 000 .28v1a1.24 1.24 0 000 .27c0 .15.09.22.21.23a.23.23 0 00.28-.2 1.28 1.28 0 000-.48h-.24a.57.57 0 010-.29.09.09 0 01.08-.06zM11.14 10.44a3.76 3.76 0 01-.47 0c-.08-.2-.07-.41-.14-.63h-.37s-.05 0-.06.06 0 .27-.07.41 0 .06 0 .09 0 .06-.06.06a3.3 3.3 0 01-.44 0v-.14c.16-.79.31-1.58.47-2.37v-.17c0-.05 0-.09.09-.09h.38c.08 0 .1 0 .11.11.05.28.11.55.16.83.12.56.23 1.12.34 1.69.05.05.05.09.06.15zm-.81-1.92l-.14.91a.51.51 0 00.3 0zM22.59 6h-.39c-.06 0-.09 0-.1-.1s-.05-.28-.08-.43 0-.12-.14-.12h-.2c-.1 0-.11 0-.13.12s0 .22-.05.33 0 .2-.23.2H21a.49.49 0 000-.11l.51-2.54c0-.12 0-.13.15-.13h.26c.16 0 .16 0 .19.16s.1.53.16.8l.33 1.71a.28.28 0 01-.01.11zm-.65-1c-.05-.3-.09-.59-.15-.88a8.07 8.07 0 00-.15.88zM18.67 9.2a4 4 0 000 .85h.52c.08 0 .1 0 .1.1v.2c0 .08 0 .09-.1.09h-1c-.1 0-.11 0-.12-.1V7.86c0-.19 0-.19.19-.19h.83c.14 0 .15 0 .15.15a.65.65 0 010 .14c0 .09 0 .1-.1.11h-.37c-.16 0-.16 0-.16.16V8.81h.48v.39zM25.78 8.81h.37c.12 0 .13 0 .13.13 0 .31 0 .26-.26.26h-.12c-.11 0-.12 0-.12.13v.6c0 .12 0 .13.12.13h.38c.13 0 .14 0 .14.15v.08c0 .16 0 .16-.15.16h-1a.77.77 0 010-.15V7.78c0-.1 0-.11.11-.11h.92c.13 0 .14 0 .15.14 0 .29 0 .25-.25.26h-.29c-.05 0-.1 0-.1.07zM20.25 5.59h.44c.19 0 .19 0 .19.19s0 .2-.2.2h-.82c-.15 0-.16 0-.16-.16v-2.5c0-.12 0-.13.13-.13h1v.37h-.52c-.09 0-.1 0-.1.09v.58c0 .06 0 .09.09.09h.31c.09 0 .1 0 .11.1v.18c0 .09 0 .1-.11.1h-.37a3.48 3.48 0 00.01.89zM24.38 3.6h-.44v-.4h1.28c.11 0 .12 0 .13.12v.16c0 .13 0 .13-.14.13h-.29a.92.92 0 000 .16v2c0 .19 0 .19-.19.19h-.24c-.09 0-.1 0-.1-.1V3.6zM23.34 5.59h.47c.18 0 .18 0 .18.18s0 .21-.2.21H23c-.14 0-.15 0-.15-.15v-2.5c0-.13 0-.14.14-.14h.25c.14 0 .14 0 .14.14v2.26zM19.52 7.68h.28c.26 0 .25 0 .25.24v2a1.09 1.09 0 000 .17h.53c.08 0 .09 0 .1.1v.16c0 .12 0 .13-.13.13h-.95a.08.08 0 01-.09-.09V7.68zM20.9 10.44V7.69h.43a.08.08 0 01.09.09v2.27H22c.09 0 .1 0 .1.11v.18c0 .09 0 .1-.09.1H20.9zM27.18 9.06v1.3c0 .08 0 .09-.09.09h-.34c-.07 0-.09 0-.09-.09V7.81c0-.13 0-.14.14-.14h.2c.13 0 .14 0 .14.14v1.25zM23.08 9.19v.31a4.17 4.17 0 01-.81 0 .57.57 0 010-.29s0-.05.07-.06h.61z"/><path fill="#2c9947" d="M24 10.05v-.86a.53.53 0 01.37.05.25.25 0 01.12.16.79.79 0 010 .43.23.23 0 01-.21.21.66.66 0 01-.28.01zM24 8.79v-.62c0-.09 0-.1.1-.1h.18a.22.22 0 01.2.22 2.09 2.09 0 010 .25.23.23 0 01-.19.22zM14.11 9.07v.69c0 .27-.18.31-.38.3 0 0-.05 0-.06-.07V8.18c0-.09 0-.1.11-.11h.1a.21.21 0 01.22.22v.77zM16.14 4.59v.72a.29.29 0 01-.38.27.33.33 0 010-.1V3.76c0-.16 0-.17.16-.16s.27.07.27.27v.72zM13.82 4.57v-.63a.78.78 0 010-.22c0-.11.1-.15.23-.15s.18 0 .22.14a.4.4 0 010 .15v1.53a.23.23 0 01-.27.2.22.22 0 01-.22-.22 1.15 1.15 0 010-.19v-.61zM12.49 4.57v.64a1.66 1.66 0 010 .22.21.21 0 01-.23.16c-.13 0-.21 0-.23-.16a.83.83 0 010-.22V4a1.64 1.64 0 010-.22.21.21 0 01.22-.17c.14 0 .22 0 .25.16a1.46 1.46 0 010 .22zM10.33 8.52l.15.9a.51.51 0 01-.3 0l.14-.91zM21.94 5h-.3a8.07 8.07 0 01.15-.88c.06.25.1.54.15.88z"/></g></svg>