<svg xmlns="http://www.w3.org/2000/svg" viewBox="0 0 36.76 37.49"><g data-name="Layer 2"><path fill="#c12033" d="M36.76 37.49H0V0h36.76zm-13-21.28l-.12.06-6.47 3.81a.17.17 0 00-.1.18v10.66l6.69-2.05zm-14.06 0v12.65h.08l6.51 2V20.25a.2.2 0 00-.1-.2l-6.41-3.78zm14.77 13h-.14l-6.87 2.29a2.07 2.07 0 01-.85.13 1 1 0 01-.17 0 .93.93 0 01-.24 0l-7-2-.2-.09V16.27a.51.51 0 000-.09l-.1.08c-.17.13-.33.27-.51.4a.26.26 0 00-.1.22v13.17h.13l7.21 2a5.23 5.23 0 00.68.18 5.77 5.77 0 00.72 0 .64.64 0 00.24 0L21 31.08c1.37-.45 2.74-.88 4.11-1.32h.09V16.83a.15.15 0 00-.07-.15l-.57-.45-.08-.05zm2.93-11.82v11.14a.76.76 0 000 .21c.23.85.48 1.71.72 2.56v.13c0-.07 0-.11.05-.16.23-.83.47-1.66.7-2.48a1.17 1.17 0 000-.32v-11-.09zM2.77 8.69h2.12v1.69h1.22V8.69h.69a6.08 6.08 0 000-1h-.68V3.7v-.48H4.69c-.08 0-.1 0-.13.1-.56 1.4-1.17 2.8-1.75 4.21a.39.39 0 000 .18v1zm8-2.77a.74.74 0 00.35-.53v-.3-1-.3a.63.63 0 00-.51-.57 1.2 1.2 0 00-.38 0 .63.63 0 00-.63.59v1.36a1.34 1.34 0 00.09.45.54.54 0 00.39.36 1.45 1.45 0 00.28 0 .16.16 0 01.12.07l.35.37a.74.74 0 00.13.08l.09-.34zm.26 4.52a6 6 0 00.95 0 .58.58 0 00.49-.49 1.32 1.32 0 000-.34V8.52a1.94 1.94 0 000-.24.6.6 0 00-.47-.56h-.98zM20.36 9v.5a1.37 1.37 0 00.08.53.57.57 0 00.44.37 1.14 1.14 0 00.45 0 .63.63 0 00.54-.51 1.57 1.57 0 00.05-.37v-1a1.53 1.53 0 000-.3.62.62 0 00-.51-.56 1.34 1.34 0 00-.49 0 .62.62 0 00-.48.44 1.09 1.09 0 000 .25c-.09.24-.08.47-.08.65zm2.87.11l-.64-1.41h-.34v2.73h.42V8.9l.12.28c.16.39.31.77.47 1.15 0 0 0 .1.07.1a.71.71 0 00.29 0V7.7a2.71 2.71 0 00-.4 0zM12.86 7.69v2a1.15 1.15 0 00.08.41.54.54 0 00.34.32 1 1 0 00.52 0 .59.59 0 00.53-.52 3.26 3.26 0 00.05-.45V7.69h-.49v1.88a1.34 1.34 0 01-.05.35.22.22 0 01-.3.15.22.22 0 01-.16-.16 2 2 0 010-.34V7.84v-.15zM13 3.22h-.48v1.92a1 1 0 010 .3.21.21 0 01-.23.17.22.22 0 01-.29-.18A1.81 1.81 0 0112 5V3.33v-.14h-.47V5.11a1.43 1.43 0 000 .29.58.58 0 00.56.55 1.63 1.63 0 00.38 0 .56.56 0 00.48-.42 1.61 1.61 0 00.05-.47v-1.7zm2.7 6.18a2.61 2.61 0 010 .28.78.78 0 010 .22.2.2 0 01-.22.19.22.22 0 01-.24-.17 1.23 1.23 0 010-.19V8.36a.52.52 0 010-.18.21.21 0 01.25-.18.19.19 0 01.2.18v.47h.47a2.09 2.09 0 000-.56.56.56 0 00-.52-.46h-.34a.6.6 0 00-.56.46.85.85 0 000 .22v1.3a1 1 0 00.08.42.61.61 0 00.39.36 1 1 0 00.62 0 .53.53 0 00.3-.25 1.54 1.54 0 00.1-.77zm1.21-1.71c-.06.2-.54 2.65-.53 2.74h.45l.11-.62h.45l.12.62a2.26 2.26 0 00.45 0c0-.21-.51-2.65-.55-2.74zm12 9v-.95a.78.78 0 00-1-.67.79.79 0 00-.53.77v.75a.34.34 0 000 .1zM13.77 3.21c-.07.32-.13.62-.19.92L13.4 5c-.06.3-.13.6-.17.91h.46l.11-.62h.45l.12.62h.46c-.18-.92-.36-1.83-.55-2.74zM9.66 7.69v2.73a6.89 6.89 0 001.12 0v-.33h-.62a4.34 4.34 0 010-.89h.47v-.37h-.49v-.77h.62v-.37zm8.9-4.47a.5.5 0 000 .13c.15.48.31 1 .46 1.44a.85.85 0 010 .23V6h.47a.71.71 0 000-.14V5a1.17 1.17 0 010-.26c.15-.48.31-1 .46-1.43v-.13h-.45l-.3 1-.32-1zm-1.4 0v.38h.44V6h.5V4.18v-.59h.42v-.38zm1.71 4.85h.43V7.7a12.44 12.44 0 00-1.37 0v.36h.45v2.36h.49zM15.56 5.6V3.22h-.49v2.72a8.52 8.52 0 001.13 0V5.6zM20 10.43V7.7h-.48v2.73zm-3.53-7.21v2.73H17V3.22z"/><path fill="#fff" d="M23.72 16.21v12.66L17 30.92V20.26a.17.17 0 01.1-.18l6.47-3.81zM9.66 16.21l.12.06 6.43 3.78a.2.2 0 01.1.2v10.62l-6.51-2h-.08z"/><path fill="#fff" d="M24.43 29.19v-13l.08.05.57.45a.15.15 0 01.07.15v12.88h-.09c-1.37.44-2.74.87-4.11 1.32l-3.74 1.2a.64.64 0 01-.24 0 5.77 5.77 0 01-.72 0 5.23 5.23 0 01-.68-.18l-7.21-2h-.13V16.88a.26.26 0 01.1-.22c.18-.13.34-.27.51-.4l.1-.08a.51.51 0 010 .09v13.27l.24.07 7 2a.93.93 0 00.24 0 1 1 0 00.17 0 2.07 2.07 0 00.85-.13l6.83-2.26zM27.36 17.37h1.57v11.09a1.17 1.17 0 010 .32c-.23.82-.47 1.65-.7 2.48 0 .05 0 .09-.05.16v-.13c-.24-.85-.49-1.71-.72-2.56a.76.76 0 010-.21V17.37zM2.77 8.69v-1a.39.39 0 010-.18C3.39 6.12 4 4.72 4.56 3.31c0-.06.05-.1.13-.1h1.42v4.43h.67a6.08 6.08 0 010 1h-.66v1.7H4.9V8.7H2.77zm2.12-4l-1 2.92a6.07 6.07 0 001 0zM10.8 5.92l.26.25-.06.34a.74.74 0 01-.13-.08l-.35-.37a.16.16 0 00-.15-.06 1.45 1.45 0 01-.28 0 .54.54 0 01-.39-.36 1.34 1.34 0 01-.09-.45V3.93v-.1a.63.63 0 01.63-.59 1.2 1.2 0 01.38 0 .63.63 0 01.51.57v1.6a.74.74 0 01-.33.51zm-.14-1.34v-.65a.62.62 0 000-.19.24.24 0 00-.26-.19.22.22 0 00-.23.19.58.58 0 000 .19v1.31a.57.57 0 000 .18.23.23 0 00.25.19.23.23 0 00.24-.18 1.36 1.36 0 000-.2zM11.06 10.44V7.7h.98a.6.6 0 01.48.53 1.94 1.94 0 010 .24v1.09a1.32 1.32 0 010 .34.58.58 0 01-.49.49 6 6 0 01-.97.05zm.51-2.39v2h.23a.22.22 0 00.2-.18 1.23 1.23 0 000-.19V8.41a.88.88 0 000-.16.21.21 0 00-.18-.18zM20.36 9v-.67a1.09 1.09 0 010-.25.62.62 0 01.48-.44 1.34 1.34 0 01.49 0 .62.62 0 01.51.56 1.53 1.53 0 010 .3v1a1.57 1.57 0 01-.05.37.63.63 0 01-.54.51 1.14 1.14 0 01-.45 0 .57.57 0 01-.44-.37 1.37 1.37 0 01-.08-.53v-.5zm1 0v-.49a1.42 1.42 0 000-.29.26.26 0 00-.5 0 1.1 1.1 0 000 .18v1.32a.76.76 0 000 .21.32.32 0 00.1.13.27.27 0 00.4-.19v-.13zM23.23 9.15V7.7a2.71 2.71 0 01.4 0v2.73a.71.71 0 01-.29 0s-.06-.06-.07-.1c-.16-.38-.31-.76-.47-1.15l-.12-.28v1.53h-.42V7.7h.34l.62 1.45zM12.86 7.69h.47v1.88a2 2 0 000 .34.22.22 0 00.16.16.22.22 0 00.3-.15 1.34 1.34 0 00.05-.35V7.69h.49v1.8a3.26 3.26 0 01-.05.45.59.59 0 01-.53.52 1 1 0 01-.52 0 .54.54 0 01-.34-.32 1.15 1.15 0 01-.08-.41v-2zM13 3.22V5.06a1.61 1.61 0 01-.06.49.56.56 0 01-.48.42 1.63 1.63 0 01-.38 0 .58.58 0 01-.56-.55 1.43 1.43 0 010-.29V3.3v-.09H12v1.81a1.81 1.81 0 000 .4.22.22 0 00.23.18.21.21 0 00.23-.17 1 1 0 000-.3V3.22zM15.7 9.4h.48a1.54 1.54 0 01-.1.77.53.53 0 01-.3.25 1 1 0 01-.62 0 .61.61 0 01-.39-.36 1 1 0 01-.08-.42v-1.3a.85.85 0 010-.22.6.6 0 01.56-.46h.33a.56.56 0 01.52.46 2.09 2.09 0 010 .56h-.47v-.14-.32a.19.19 0 00-.2-.18.21.21 0 00-.26.14.52.52 0 000 .18v1.37a1.23 1.23 0 000 .19.22.22 0 00.24.17.2.2 0 00.22-.19.78.78 0 000-.22 2.61 2.61 0 00.07-.28zM16.91 7.69h.5c0 .09.53 2.53.55 2.74a2.26 2.26 0 01-.45 0l-.12-.62h-.45l-.11.62h-.45c-.01-.09.47-2.54.53-2.74zm.43 1.77l-.16-1-.16 1zM28.93 16.74h-1.56a.34.34 0 010-.1v-.75a.79.79 0 01.53-.77.78.78 0 011 .67c.1.31.03.63.03.95zM13.77 3.21h.51c.19.91.37 1.82.55 2.74h-.46l-.12-.62h-.45l-.11.67h-.46c0-.31.11-.61.17-.91l.18-.91c.06-.35.12-.65.19-.97zM14.19 5c0-.35-.1-.68-.16-1-.06.33-.13.66-.17 1zM9.66 7.69h1.12V8h-.62v.77h.49v.36h-.47a4.34 4.34 0 000 .89h.62v.33a6.89 6.89 0 01-1.12 0c-.03-.02-.04-2.41-.02-2.66zM18.56 3.22H19l.32 1 .3-1h.45v.13c-.15.48-.31.95-.46 1.43a1.17 1.17 0 000 .26v.77a.71.71 0 010 .14h-.51v-.14-.79a.85.85 0 000-.23c-.15-.48-.31-1-.46-1.44a.5.5 0 01-.08-.13zM17.16 3.21h1.37v.38h-.42V6h-.5V3.59h-.44zM18.87 8.06v2.37h-.49V9.26 8.07h-.45v-.36a12.44 12.44 0 011.37 0v.36zM15.56 5.6h.64v.34a8.52 8.52 0 01-1.13 0V3.22h.49zM20 10.43h-.48V7.7H20zM16.47 3.22H17V6h-.47c-.08-.14-.09-2.59-.06-2.78z"/><path fill="#c12033" d="M4.89 4.71v2.91a6.07 6.07 0 01-1 0l1-2.92zM10.66 4.58v.65a1.36 1.36 0 010 .2.23.23 0 01-.24.18.23.23 0 01-.25-.19.57.57 0 010-.18V3.93a.58.58 0 010-.19.22.22 0 01.23-.19.24.24 0 01.26.19.62.62 0 010 .19zM11.57 8.05h.26a.21.21 0 01.18.18.88.88 0 010 .16v1.3a1.23 1.23 0 010 .19.22.22 0 01-.2.18h-.23c-.03-.06-.03-1.82-.01-2.01zM21.4 9.06v.81a.27.27 0 01-.4.19.32.32 0 01-.1-.13.76.76 0 010-.21V8.4a1.1 1.1 0 010-.18.26.26 0 01.5 0 1.42 1.42 0 010 .29v.55zM17.34 9.46H17l.16-1zM14.19 5h-.33c0-.35.11-.68.17-1 .06.3.12.63.16 1z"/></g></svg>