<svg xmlns="http://www.w3.org/2000/svg" viewBox="0 0 36.76 37.49"><g data-name="Layer 2"><path fill="#ee412a" d="M36.76 37.49H0V0h36.76zM25.22 17.2v1.6c0 .14 0 .15.14.15h1.32c.19 0 .21 0 .21-.21v-4.41a.33.33 0 000-.1c0-.1 0-.11-.11-.12h-4.51a.07.07 0 00-.08.07v1.45a.22.22 0 000 .08c0 .07 0 .09.1.09H24l-2 2a6 6 0 00-6.88-.37 6.21 6.21 0 00-2.8 6.08 6 6 0 001.36 3.11 6 6 0 003.83 2.16v1.78h-1.64a.34.34 0 00-.1 0c-.08 0-.09 0-.1.09v1.63s0 .08.09.08h1.79v1.65a.34.34 0 000 .1.07.07 0 00.08.08h1.6a.08.08 0 00.09-.09v-1.66H21c.19 0 .19 0 .19-.19v-1.49c0-.11 0-.12-.13-.12h-1.73v-1.8a6.11 6.11 0 004.57-3.71 6.27 6.27 0 00-.62-5.93zm-21-9.91v-.13a1.91 1.91 0 01.16-.32.5.5 0 01.51-.18.42.42 0 01.37.34 2.56 2.56 0 01.1.54v1.14a1.21 1.21 0 01-.09.49.53.53 0 01-.18.24.48.48 0 01-.72-.27c0-.13-.05-.27-.07-.4s0-.28 0-.42a9.4 9.4 0 00-1.3 0 3.48 3.48 0 00.13 1.11 1.31 1.31 0 001 .94 2.84 2.84 0 001.36 0 1.36 1.36 0 00.7-.37 1.9 1.9 0 00.31-.6 4.83 4.83 0 00.13-.76 5.94 5.94 0 000-1.52 2.19 2.19 0 00-.34-.92 1.11 1.11 0 00-.8-.51 1.82 1.82 0 00-.77 0 1.34 1.34 0 00-.52.26l.04-1.55H6a2.08 2.08 0 00.35 0V3.22H3.09c0 1.35-.06 2.7-.09 4.06zm8 3.11a.64.64 0 00.27-.41 2.33 2.33 0 000-.37V8.57v-.3a.64.64 0 00-.49-.59 1.14 1.14 0 00-.52 0 .58.58 0 00-.45.42 1 1 0 00-.05.24V9.8a.68.68 0 00.63.67h.11a.15.15 0 01.13.07l.34.36a.38.38 0 00.14.09 1.63 1.63 0 01.07-.26.13.13 0 000-.15 1.53 1.53 0 01-.18-.18zM18.4 6v-.63-.6c.19 0 .19 0 .24.13.08.33.17.66.25 1V6a1.11 1.11 0 00.5 0l-.36-1.31a.62.62 0 00.31-.55V3.8a.57.57 0 00-.46-.55.63.63 0 00-.19 0L18 3.2h-.08V6zm-3.72 0h.85a.58.58 0 00.55-.46.76.76 0 000-.21V3.92a.61.61 0 00-.59-.64h-.88zm-1.36-1.57v.08c.13.34.27.68.41 1 .05.12.09.24.15.36A.17.17 0 0014 6a.7.7 0 00.29 0V3.21h-.41v1.45l-.15-.34c-.14-.34-.28-.68-.43-1 0 0 0-.09-.08-.09h-.31V6a1.55 1.55 0 00.43 0zm-2.63.47v.33a.86.86 0 010 .23.24.24 0 01-.26.15.22.22 0 01-.22-.18 1 1 0 010-.23V3.93a.55.55 0 010-.18.23.23 0 01.25-.19.22.22 0 01.24.2 1.09 1.09 0 010 .18v.18h.48a1.33 1.33 0 00-.05-.53.54.54 0 00-.39-.38 1.22 1.22 0 00-.57 0 .54.54 0 00-.41.36.94.94 0 00-.08.33v1.21a1.49 1.49 0 00.07.43.64.64 0 00.78.46.41.41 0 00.26-.17l.06-.07v.2h.32v-1.4h-.73a1.29 1.29 0 000 .34zm2.2 2.79v1.87a1.68 1.68 0 00.07.5.56.56 0 00.41.38 1 1 0 00.46 0 .57.57 0 00.54-.52 1.92 1.92 0 00.05-.41V7.82 7.7a1.31 1.31 0 00-.49 0V9.56a1.73 1.73 0 010 .32.22.22 0 01-.24.19.22.22 0 01-.23-.19 1.12 1.12 0 010-.32V7.69zm3.34 2.73l-.54-2.73h-.53l-.27 1.37c-.09.46-.19.91-.27 1.37h.47l.11-.62h.45l.11.61a1.24 1.24 0 00.47 0zm.26-4.48a5.36 5.36 0 001.14 0V5.6h-.31a1.61 1.61 0 01-.31 0 3.56 3.56 0 010-.88h.47a2.29 2.29 0 000-.37H17a2.7 2.7 0 010-.77h.59v-.36a7.07 7.07 0 00-1.13 0zm-5.69 4.14h-.62a4.23 4.23 0 010-.88h.46v-.38h-.47a3.26 3.26 0 010-.77h.6V7.7a7 7 0 00-1.13 0v2.71a5.4 5.4 0 001.14 0zm1.82-6.88h-1.13v2.74a6.29 6.29 0 001.15 0 1.27 1.27 0 000-.33H12v-.89h.49v-.38H12v-.77h.62zm8.43 4.49l-.3 1-.31-1H20a.93.93 0 010 .13c.15.48.31 1 .46 1.44a.75.75 0 010 .26v.91H21v-.92a.67.67 0 010-.24c.15-.48.3-1 .46-1.44v-.14zM19 8.07V10.43h.5V8.66v-.59h.41V7.7a10.47 10.47 0 00-1.38 0 2.3 2.3 0 000 .36zm-2 2V7.7a1.32 1.32 0 00-.49 0v2.71a7.1 7.1 0 001.13 0v-.34zm.91-2.39v2.75h.47V7.69z"/><path fill="#fff" d="M25.22 17.2l-1.94 2a6.27 6.27 0 01.62 5.93 6.11 6.11 0 01-4.57 3.71v1.79h1.75c.02 0 .13 0 .13.12v1.49c0 .19 0 .19-.19.19h-1.7v1.74a.08.08 0 01-.09.09h-1.6a.07.07 0 01-.08-.08.34.34 0 010-.1v-1.64h-1.79c-.06 0-.08 0-.09-.08v-1.63c0-.07 0-.09.1-.09a.34.34 0 01.1 0h1.67v-1.78a6 6 0 01-3.83-2.16 6 6 0 01-1.36-3.11 6.21 6.21 0 012.8-6.08 6 6 0 016.88.37l2-2h-1.74c-.08 0-.09 0-.1-.09a.22.22 0 010-.08v-1.49a.07.07 0 01.08-.07h4.54c.09 0 .11 0 .11.12a.33.33 0 010 .1v4.41c0 .24 0 .21-.21.21H25.4c-.13 0-.14 0-.14-.15v-1.6zm-6.88 1a4.52 4.52 0 104.42 4.6 4.48 4.48 0 00-4.42-4.57zM4.19 7.29H3c0-1.36.07-2.71.09-4.06h3.26v1.16A2.08 2.08 0 016 4.4H4.24l-.08 1.54a1.34 1.34 0 01.52-.26 1.82 1.82 0 01.77 0 1.11 1.11 0 01.8.51 2.19 2.19 0 01.34.92 5.94 5.94 0 010 1.52 4.83 4.83 0 01-.13.76 1.9 1.9 0 01-.31.6 1.36 1.36 0 01-.78.49 2.84 2.84 0 01-1.36 0 1.31 1.31 0 01-1-.94A3.48 3.48 0 013 8.37a9.4 9.4 0 011.3 0v.42c0 .14 0 .27.07.4a.48.48 0 00.72.27.53.53 0 00.18-.24 1.21 1.21 0 00.09-.49V7.59a2.56 2.56 0 00-.1-.59.42.42 0 00-.37-.34.5.5 0 00-.51.18 1.91 1.91 0 00-.16.32zM12.22 10.4a1.53 1.53 0 00.18.18.13.13 0 010 .15 1.63 1.63 0 00-.07.26.38.38 0 01-.14-.09l-.34-.36a.15.15 0 00-.13-.07h-.11A.68.68 0 0111 9.8V8.34a1 1 0 01.05-.24.58.58 0 01.45-.42 1.14 1.14 0 01.52 0 .64.64 0 01.51.55v1.35a2.33 2.33 0 010 .37.64.64 0 01-.27.41zm-.16-1.33v-.72a.55.55 0 000-.17c0-.1-.11-.14-.24-.14a.22.22 0 00-.23.15 1.13 1.13 0 000 .18v1.37a.59.59 0 000 .14.24.24 0 00.26.21.23.23 0 00.15-.21.78.78 0 000-.22zM18.4 6h-.5V3.22h.82a.63.63 0 01.19 0 .57.57 0 01.46.55v.27a.62.62 0 01-.31.55l.36 1.31a1.11 1.11 0 01-.5 0v-.1c-.08-.33-.17-.66-.25-1-.05-.16-.05-.16-.24-.13v.6c0 .2-.03.47-.03.73zm0-1.58h.26a.27.27 0 00.22-.21 1 1 0 000-.39.22.22 0 00-.19-.18h-.29zM14.68 5.94V3.22h.88a.61.61 0 01.59.64v1.41a.76.76 0 010 .21.58.58 0 01-.55.46h-.85zm.5-.35h.22a.23.23 0 00.23-.24 1 1 0 000-.16V3.94a.88.88 0 000-.17.2.2 0 00-.15-.17.61.61 0 00-.3 0zM13.32 4.43V6a1.55 1.55 0 01-.43 0V3.21h.31c.06 0 .06 0 .08.09.15.34.29.68.43 1l.15.34V3.21h.41v2.73A.7.7 0 0114 6a.17.17 0 01-.06-.08c-.06-.12-.1-.24-.15-.36-.14-.33-.28-.67-.41-1v-.08zM10.69 4.9h-.27a1.29 1.29 0 010-.34h.73V6h-.32v-.2l-.06.07a.41.41 0 01-.26.17.64.64 0 01-.78-.46 1.49 1.49 0 01-.07-.43V3.94a.94.94 0 01.08-.33.54.54 0 01.41-.36 1.22 1.22 0 01.57 0 .54.54 0 01.39.38 1.33 1.33 0 01.05.53h-.48v-.22a1.09 1.09 0 000-.18.22.22 0 00-.24-.2.23.23 0 00-.25.19.55.55 0 000 .18V5.2a1 1 0 000 .23.22.22 0 00.22.18.24.24 0 00.26-.15.86.86 0 000-.23c.03-.11.02-.23.02-.33zM12.89 7.69h.48v1.88a1.12 1.12 0 000 .32.22.22 0 00.23.19.22.22 0 00.24-.19 1.73 1.73 0 000-.32V7.71a1.31 1.31 0 01.49 0V9.53a1.92 1.92 0 01-.05.41.57.57 0 01-.54.52 1 1 0 01-.46 0 .56.56 0 01-.41-.38 1.68 1.68 0 01-.07-.5V7.82s.09-.08.09-.13zM16.23 10.42a1.24 1.24 0 01-.47 0l-.11-.61h-.45l-.11.62h-.47c.08-.46.18-.91.27-1.37l.27-1.37h.53zm-.79-2a8.54 8.54 0 00-.17 1h.32zM16.49 5.94V3.23a7.07 7.07 0 011.13 0v.35H17a2.7 2.7 0 000 .77h.48a2.29 2.29 0 010 .37H17a3.56 3.56 0 000 .88 1.61 1.61 0 00.31 0h.31v.33a5.36 5.36 0 01-1.13.01zM10.8 10.08v.33a5.4 5.4 0 01-1.14 0v-2.7a7 7 0 011.13 0v.35h-.6a3.26 3.26 0 000 .77h.47v.37h-.46a4.23 4.23 0 000 .88h.62zM12.62 3.2v.37H12v.77h.49v.36H12v.9h.62a1.27 1.27 0 010 .33 6.29 6.29 0 01-1.15 0V3.21zM21.05 7.69h.47v.14c-.16.48-.31 1-.46 1.44a.67.67 0 000 .24v.92h-.56v-.13-.78a.75.75 0 000-.26c-.15-.48-.31-1-.46-1.44a.93.93 0 000-.13h.47l.31 1zM19 8.07h-.43a2.3 2.3 0 010-.36 10.47 10.47 0 011.38 0v.37h-.41v2.36H19V8.07zM17 10.08h.64v.34a7.1 7.1 0 01-1.13 0V7.71a1.32 1.32 0 01.49 0zM17.87 7.69h.48v2.75h-.47c-.03-.11-.03-2.62-.01-2.75z"/><path fill="#ee412a" d="M18.34 18.23a4.52 4.52 0 11-4.44 4.48 4.48 4.48 0 014.44-4.48zm0 2.65h-2.65c-.08 0-.09 0-.1.09v1.14c0 .22 0 .22.22.22H21c.11 0 .12 0 .12-.13V21c0-.12 0-.12-.13-.13h-2.64zm0 2.38h-2.65c-.08 0-.09 0-.1.09v1.15c0 .21 0 .21.2.21H21c.12 0 .13 0 .13-.14V23.4c0-.14 0-.14-.14-.14h-2.64zM12.06 9.07v.59a.78.78 0 010 .22.23.23 0 01-.24.21.24.24 0 01-.26-.21.59.59 0 010-.14V8.37a1.13 1.13 0 010-.18.22.22 0 01.22-.19c.13 0 .21 0 .24.14a.55.55 0 010 .17v.72zM18.4 4.38v-.81h.28a.22.22 0 01.19.18 1 1 0 010 .39.27.27 0 01-.22.21zM15.18 5.59v-2a.61.61 0 01.3 0 .2.2 0 01.15.17.88.88 0 010 .17v1.26a1 1 0 010 .16.23.23 0 01-.23.24zM15.44 8.46l.15 1h-.32a8.54 8.54 0 01.17-1z"/><path fill="#fff" d="M18.35 20.88H21c.12 0 .13 0 .13.13v1.2c0 .11 0 .12-.12.13h-5.2c-.22 0-.22 0-.22-.22V21c0-.08 0-.09.1-.09h2.66zM18.35 23.26H21c.13 0 .14 0 .14.14v1.17c0 .13 0 .14-.13.14h-5.22c-.2 0-.2 0-.2-.21v-1.15c0-.07 0-.09.1-.09h2.66z"/></g></svg>