<svg xmlns="http://www.w3.org/2000/svg" viewBox="0 0 37.49 37.49"><g data-name="Layer 2"><path fill="#24aadf" d="M37.49 37.49H0V0h37.49zm-16.92-8.15h2.87a.16.16 0 00.17-.14v-.09l.24-1.53c.09-.62.19-1.23.28-1.85s.21-1.35.32-2 .21-1.36.31-2 .19-1.24.29-1.86.21-1.34.31-2 .19-1.24.29-1.86c0-.22.07-.43.1-.65s0-.19-.17-.2H11.87a.15.15 0 00-.14.16.22.22 0 000 .08c.06.4.13.8.2 1.2.15.94.3 1.88.46 2.81l.51 3.09.54 3.25c.18 1.14.37 2.27.56 3.4 0 .25.06.26.31.26H17l.19 2.25H16.03l2.76 2.76 2.69-2.7h-1.1zM6.71 5.07a3.12 3.12 0 00-.11-.86 1.31 1.31 0 00-1-1 2.89 2.89 0 00-1.34 0 1.37 1.37 0 00-1 .78 3.93 3.93 0 00-.2.54A4.22 4.22 0 003 5.63v2.88a2.69 2.69 0 00.22.93 1.59 1.59 0 001.16 1 2.65 2.65 0 001.22 0 1.38 1.38 0 00.89-.71 2.85 2.85 0 00.2-.51 4.39 4.39 0 00.1-1.84 2.11 2.11 0 00-.28-.81A1.15 1.15 0 005.79 6a1.64 1.64 0 00-.73 0 1.06 1.06 0 00-.53.21l-.14.13V5.17a2.26 2.26 0 01.09-.57.43.43 0 01.52-.41.34.34 0 01.33.3c0 .15 0 .29.06.44a.76.76 0 000 .14zM19.57 6l.29-1.72.32 1.72h.41L21 3.22h-.42l-.22 1.65L20 3.22h-.3c-.1.55-.18 1.09-.29 1.63 0-.27-.08-.54-.11-.82s-.07-.54-.11-.81h-.43L19.15 6zm-6.15 4.49a6.51 6.51 0 001 0 .58.58 0 00.47-.45 1.09 1.09 0 000-.25V8.55a2.3 2.3 0 000-.26.58.58 0 00-.45-.47 1 1 0 00-.24 0H13.41zm3.83-5.77a.54.54 0 010-.11c-.12-.26-.23-.53-.34-.79s-.14-.33-.22-.49a.14.14 0 00-.07-.08 1.08 1.08 0 00-.31 0v2.68h.43v-1.5L17.32 6h.34V3.22h-.41zm9.6-.06a.53.53 0 00.31-.44 2 2 0 000-.42.55.55 0 00-.45-.5.64.64 0 00-.2 0h-.83v2.73h.49v-.71-.61h.21l.32 1.23a1.42 1.42 0 00.51 0zm-7.37 3.02v2.74h.42V8.89s.1.05.1.11l.42 1 .15.37s.05.08.07.08a.7.7 0 00.29 0V7.71a2.75 2.75 0 00-.4 0v1.44a.19.19 0 01-.11-.15L20 8l-.12-.28a.08.08 0 00-.08-.07 2.8 2.8 0 01-.32.03zm8.06 1.37v.44a2.85 2.85 0 000 .41.61.61 0 00.46.53 1.08 1.08 0 00.59 0 .57.57 0 00.42-.37 1.61 1.61 0 00.08-.38V8.43a1.63 1.63 0 00-.09-.37.56.56 0 00-.43-.37 1.1 1.1 0 00-.57 0 .54.54 0 00-.43.37 1.45 1.45 0 00-.07.35c.03.22.04.43.04.64zm2.36 1.38V8.89c.12.23.21.47.31.7l.31.75s0 .09.09.09h.28V7.69h-.42v1.1a2.08 2.08 0 010 .35.47.47 0 01-.06-.09l-.25-.6-.3-.67s0-.09-.07-.09h-.3v2.74zM12.61 9.15L12 7.69h-.4v2.74h.4V8.89a.18.18 0 01.07.09c.18.45.37.89.55 1.33v.07H13V7.64c0-.09-.26 0-.39 0zm-1.76-4.23v.49a.22.22 0 01-.23.2.22.22 0 01-.25-.19.76.76 0 010-.16V3.89a.47.47 0 010-.17.23.23 0 01.27-.16.19.19 0 01.21.18 1.93 1.93 0 010 .24v.23h.49a1.86 1.86 0 000-.58.56.56 0 00-.43-.42 1 1 0 00-.58 0 .53.53 0 00-.4.36 1.37 1.37 0 00-.08.35v1.3a.92.92 0 00.09.39.55.55 0 00.34.31 1 1 0 00.72 0 .49.49 0 00.24-.21 1.38 1.38 0 00.13-.8zm8.38 5.51l-.55-2.74a4.86 4.86 0 00-.54 0l-.55 2.74h.48l.11-.62h.46c.06.2.06.42.13.62zm-7.88 0l-.55-2.74h-.53c0 .16-.55 2.64-.54 2.74h.46l.11-.62h.46l.12.62zm13.28 0a3.41 3.41 0 00.46 0c0-.17-.52-2.65-.56-2.73H24l-.56 2.73h.48l.12-.61h.46zM22.67 6c0-.17-.52-2.66-.56-2.73h-.51L21 6h.48l.12-.62h.46l.11.62zM16 6l-.55-2.74h-.52c-.06.18-.55 2.64-.55 2.74h.46l.11-.62h.47l.11.62zm1.41 2.4a1 1 0 00-.09-.4.53.53 0 00-.35-.3.87.87 0 00-.48 0 .61.61 0 00-.47.5.83.83 0 00.24.76l.36.32a1.8 1.8 0 01.2.19.51.51 0 01.18.43.18.18 0 01-.2.17.21.21 0 01-.22-.12 1.43 1.43 0 01-.08-.22 2 2 0 000-.2l-.5.09a1.09 1.09 0 00.1.48.58.58 0 00.42.34 1.63 1.63 0 00.31 0 .64.64 0 00.62-.58.79.79 0 00-.13-.58A2.5 2.5 0 0017 9c-.12-.13-.26-.24-.39-.36a.4.4 0 01-.14-.35.2.2 0 01.19-.21.22.22 0 01.26.15v.14a.89.89 0 000 .15zM25.4 6v-.4h-.63a4.39 4.39 0 010-.89h.48a2.28 2.28 0 000-.37h-.5v-.77h.63v-.35a8.57 8.57 0 00-1.14 0V6zM14.06 4.71a.61.61 0 000-.36h-.48V4v-.38h.63v-.39a7.22 7.22 0 00-1.14 0v2.72h1.14v-.34h-.64v-.9zM23 10.43v-2.2-.17h.43v-.37H22v.37h.45v2.37zm2.54-2.37v2.37H26V8.85v-.79h.43v-.37a12.46 12.46 0 00-1.39 0v.35zM23.1 3.58v2.21a.92.92 0 000 .16h.49V4.38v-.8H24v-.36h-1.35v.36zm-10.93-.36h-.5v2.72a7.13 7.13 0 001.14 0v-.33h-.65zm9.63 7.21V7.69a3.69 3.69 0 00-.47 0v2.74zm5.37 0V7.7a1.26 1.26 0 00-.48 0v2.72z"/><path fill="#fff" d="M20.57 29.34l-.19 2.24h1.14l-2.69 2.7-2.76-2.76H17.23L17 29.34h-2.7c-.25 0-.27 0-.31-.26-.19-1.13-.38-2.26-.56-3.4l-.54-3.25-.51-3.09c-.16-.93-.31-1.87-.46-2.81-.07-.4-.14-.8-.2-1.2a.22.22 0 010-.08.15.15 0 01.14-.16h13.73c.13 0 .19.08.17.2s-.07.43-.1.65c-.1.62-.19 1.24-.29 1.86s-.21 1.34-.31 2-.19 1.24-.29 1.86-.21 1.36-.31 2-.21 1.35-.32 2-.14 1.34-.28 1.91l-.24 1.53v.09a.16.16 0 01-.17.14h-2.88zm-7.69-10.9H13a4.93 4.93 0 00.86-.1 9.11 9.11 0 001.46-.44 2.63 2.63 0 011.64-.08 10.41 10.41 0 011.11.39 8.24 8.24 0 001.62.51 5 5 0 001.45.07 6.66 6.66 0 001.53-.35l.92-.35a1.72 1.72 0 011.14-.09l.38-2.33H12.34zm5.91 1.91l-.07.1c-.47.7-.93 1.4-1.39 2.11a10.2 10.2 0 00-.54.9A2.6 2.6 0 0016.5 25a2.12 2.12 0 001.59 1.8 3.35 3.35 0 001.18 0 1.93 1.93 0 001.15-.56 2.16 2.16 0 00.63-2 3 3 0 00-.47-1.17l-1.74-2.68zM6.71 5.07H5.43a.76.76 0 010-.14c0-.15 0-.29-.06-.44a.34.34 0 00-.37-.3.43.43 0 00-.55.33 2.26 2.26 0 00-.09.57v1.17l.14-.13A1.06 1.06 0 015.06 6a1.64 1.64 0 01.73 0 1.15 1.15 0 01.72.54 2.11 2.11 0 01.28.81 4.39 4.39 0 01-.1 1.84 2.85 2.85 0 01-.2.51 1.38 1.38 0 01-.89.71 2.65 2.65 0 01-1.22 0 1.59 1.59 0 01-1.16-1 2.69 2.69 0 01-.22-.9v-.62-2.26a4.22 4.22 0 01.11-1.12A3.93 3.93 0 013.29 4a1.37 1.37 0 011-.78 2.89 2.89 0 011.34 0 1.31 1.31 0 011 1 3.12 3.12 0 01.1.78zM4.37 8v.85a.82.82 0 00.15.39.43.43 0 00.44.2.38.38 0 00.35-.29 1.57 1.57 0 00.08-.31 6.18 6.18 0 000-1.29.69.69 0 00-.1-.37A.39.39 0 005 7a.58.58 0 00-.57.2.27.27 0 00-.09.21c.04.2.03.41.03.59zM19.57 6h-.42l-.39-2.73h.43c0 .27.07.54.11.81s.07.55.11.82c.11-.54.19-1.08.29-1.63h.3l.29 1.65.22-1.65H21L20.59 6h-.41l-.29-1.72zM13.42 10.44V7.7H14.21a1 1 0 01.24 0 .58.58 0 01.45.47 2.3 2.3 0 010 .26v1.24a1.09 1.09 0 010 .25.58.58 0 01-.47.45 6.51 6.51 0 01-1.01.07zm.52-2.39v2h.14c.21 0 .28-.07.31-.28a.41.41 0 000-.11V8.49a1.64 1.64 0 000-.22.21.21 0 00-.2-.2 2 2 0 00-.25-.02zM17.25 4.67V3.22h.41V6h-.34l-.63-1.52V6h-.43V3.28v-.06a1.08 1.08 0 01.31 0 .14.14 0 01.07.08c.08.16.14.32.22.49s.22.53.34.79a.54.54 0 000 .11zM26.85 4.61l.37 1.32a1.42 1.42 0 01-.51 0l-.32-1.23h-.21V6h-.49V3.27h.83a.64.64 0 01.2 0 .55.55 0 01.45.5 2 2 0 010 .42.53.53 0 01-.32.42zm-.66-.24a.65.65 0 00.31 0 .25.25 0 00.16-.17.79.79 0 000-.43.23.23 0 00-.12-.15.69.69 0 00-.35 0zM19.48 7.68a2.8 2.8 0 00.29 0 .08.08 0 01.08.07L20 8l.45 1a.19.19 0 00.07.11V7.7a2.75 2.75 0 01.4 0v2.74a.7.7 0 01-.29 0s-.05 0-.07-.08l-.17-.36L20 9s0-.06-.07-.08v1.53h-.42zM27.54 9.05v-.64a1.45 1.45 0 01.07-.35.54.54 0 01.39-.37 1.1 1.1 0 01.57 0 .56.56 0 01.43.37 1.63 1.63 0 01.08.37v1.25a1.61 1.61 0 01-.08.38.57.57 0 01-.42.37 1.08 1.08 0 01-.59 0 .61.61 0 01-.46-.53 2.85 2.85 0 010-.41v-.44zm.51 0v.65a.63.63 0 000 .19.22.22 0 00.24.19.24.24 0 00.26-.19.55.55 0 000-.18V8.39a.71.71 0 000-.21.22.22 0 00-.22-.18.22.22 0 00-.24.16.54.54 0 000 .22zM29.9 10.43h-.42V7.69h.3c.1 0 .06 0 .07.09l.3.67.25.6a.47.47 0 00.06.09 2.08 2.08 0 000-.35v-1.1h.42v2.74h-.28c-.06 0-.07 0-.09-.09l-.31-.75c-.1-.23-.19-.47-.31-.7zM12.61 9.15V7.69H13c.12 0 0 2.57 0 2.74h-.34v-.07c-.18-.44-.37-.88-.55-1.33a.18.18 0 00-.11-.14v1.54h-.4V7.69h.4l.63 1.47zM10.85 4.92h.48a1.38 1.38 0 01-.13.8.49.49 0 01-.24.21 1 1 0 01-.72 0 .55.55 0 01-.34-.31.92.92 0 01-.09-.39v-1.3a1.37 1.37 0 01.08-.35.53.53 0 01.4-.36 1 1 0 01.58 0 .56.56 0 01.43.42 1.86 1.86 0 010 .58h-.49V4a1.93 1.93 0 000-.24.19.19 0 00-.21-.18.23.23 0 00-.27.16.47.47 0 000 .17v1.35a.76.76 0 000 .16.22.22 0 00.25.19.22.22 0 00.23-.2v-.35c0-.11.04-.06.04-.14zM19.23 10.43h-.46c-.07-.2-.07-.42-.13-.62h-.46l-.11.62h-.48l.55-2.74a4.86 4.86 0 01.54 0zm-1-1h.35l-.17-1zM11.35 10.43h-.47l-.12-.62h-.46l-.11.62h-.46c0-.1.49-2.58.54-2.74h.53zm-.64-1l-.17-1-.16 1zM24.63 10.43l-.11-.62h-.46l-.12.61h-.48L24 7.69h.51c0 .08.56 2.56.56 2.73a3.41 3.41 0 01-.44.01zm-.33-2c-.05.33-.12.66-.16 1h.34zM22.67 6h-.46l-.11-.62h-.46l-.12.62H21l.56-2.73h.51c.08.02.59 2.51.6 2.73zm-.79-2l-.16 1H22zM16 6h-.47l-.11-.62h-.47l-.13.62h-.46c0-.1.49-2.56.55-2.74h.52zm-1-1h.35l-.16-1zM17.41 8.4l-.41.09a.89.89 0 010-.15V8.2a.22.22 0 00-.26-.15.2.2 0 00-.19.21.4.4 0 00.14.35c.13.12.27.23.39.36a2.5 2.5 0 01.31.34.79.79 0 01.13.58.64.64 0 01-.62.58 1.63 1.63 0 01-.31 0 .58.58 0 01-.42-.34 1.09 1.09 0 01-.1-.48l.43-.09a2 2 0 010 .2 1.43 1.43 0 00.08.22.21.21 0 00.22.12.18.18 0 00.2-.2.51.51 0 00-.15-.45 1.8 1.8 0 00-.2-.19l-.36-.32a.83.83 0 01-.29-.76.61.61 0 01.47-.5.87.87 0 01.48 0 .53.53 0 01.35.3 1 1 0 01.11.42zM25.4 6h-1.15V3.23a8.57 8.57 0 011.14 0v.35h-.63v.77h.5a2.28 2.28 0 010 .37h-.48a4.39 4.39 0 000 .89h.63zM14.06 4.71h-.48v.89h.64V6h-1.14V3.28a7.22 7.22 0 011.14 0v.34h-.63v.77h.48a.61.61 0 01-.01.32zM23 10.43h-.5V8.07H22v-.38h1.4v.37H23v2.37zM25.52 8.06h-.45v-.35a12.46 12.46 0 011.39 0v.37H26v2.37h-.51zM23.1 3.58h-.45v-.36H24v.36h-.43V6h-.49a.92.92 0 010-.16V3.58zM12.17 3.22V5.6h.65v.32a7.13 7.13 0 01-1.14 0V3.2zM21.8 10.43h-.48V7.69a3.69 3.69 0 01.47 0c.03.1.04 2.56.01 2.74zM27.17 10.43h-.47V7.71a1.26 1.26 0 01.48 0z"/><path fill="#24aadf" d="M12.88 18.44l-.54-2.74h12.81l-.38 2.3a1.72 1.72 0 00-1.16.06l-.92.35a6.66 6.66 0 01-1.53.35 5 5 0 01-1.45-.07 8.24 8.24 0 01-1.62-.51 10.41 10.41 0 00-1.11-.39 2.63 2.63 0 00-1.64.08 9.11 9.11 0 01-1.46.44 4.93 4.93 0 01-.86.1zM18.79 20.35l.05.07 1.74 2.68a3 3 0 01.47 1.17 2.16 2.16 0 01-.63 2 1.93 1.93 0 01-1.15.56 3.35 3.35 0 01-1.18 0A2.12 2.12 0 0116.5 25a2.6 2.6 0 01.29-1.53 10.2 10.2 0 01.54-.9c.46-.71.92-1.41 1.39-2.11zM4.37 8v-.61a.27.27 0 01.09-.21A.58.58 0 015 7a.39.39 0 01.3.2.69.69 0 01.1.37 6.18 6.18 0 010 1.29 1.57 1.57 0 01-.08.31.38.38 0 01-.32.29.43.43 0 01-.44-.2.82.82 0 01-.15-.39v-.38zM13.94 8.05a2 2 0 01.25 0 .21.21 0 01.2.2 1.64 1.64 0 010 .22v1.21a.41.41 0 010 .11c0 .21-.1.27-.31.28H14c-.08-.07-.09-1.82-.06-2.02zM26.19 4.37v-.8a.69.69 0 01.35 0 .23.23 0 01.12.15.79.79 0 010 .43.25.25 0 01-.16.17.65.65 0 01-.31.05zM28.05 9.06v-.65a.54.54 0 010-.22.22.22 0 01.28-.19.22.22 0 01.24.16.71.71 0 010 .21v1.32a.55.55 0 010 .18.24.24 0 01-.26.19.22.22 0 01-.24-.19.63.63 0 010-.19zM18.24 9.46l.16-1 .17 1zM10.71 9.46h-.35l.16-1zM24.3 8.46l.16 1h-.34c0-.34.11-.67.16-1zM21.88 4L22 5h-.35l.16-1zM15 5l.16-1 .16 1z"/></g></svg>