<svg xmlns="http://www.w3.org/2000/svg" viewBox="0 0 36.76 37.49"><g data-name="Layer 2"><path fill="#fcb614" d="M0 0h36.76v37.49H0zm13 23.8a5.43 5.43 0 105.43-5.53A5.49 5.49 0 0013 23.8zM4.72 10.39v-.13c.4-1.72.81-3.43 1.22-5.15.06-.29.13-.58.2-.87a6.42 6.42 0 000-.88.28.28 0 010-.09H3a5.81 5.81 0 000 1h1.9l-1.48 6.12zM21.5 4.48a.44.44 0 00.35-.43 1.45 1.45 0 000-.36.51.51 0 00-.35-.41 1.31 1.31 0 00-.27-.06h-.8V6h.84a.63.63 0 00.64-.47 1.08 1.08 0 000-.59.48.48 0 00-.32-.37zM29 3.22v2.72a5.39 5.39 0 00.9 0 .61.61 0 00.54-.55v-.3-1a1.67 1.67 0 000-.32.58.58 0 00-.44-.52 2.91 2.91 0 00-.51 0c-.19-.04-.33-.03-.49-.03zm-12 0V6a7.17 7.17 0 00.93 0 .6.6 0 00.51-.54 1.53 1.53 0 000-.3v-1a2.45 2.45 0 000-.27.57.57 0 00-.44-.64 2.69 2.69 0 00-.49 0c-.18-.04-.32-.03-.51-.03zM15.25 6h.49V4.71H16L16.28 6h.49l-.37-1.39a.62.62 0 00.32-.61v-.2a.57.57 0 00-.53-.59 4.62 4.62 0 00-.91 0zm6.93 1.7v2.72h.48v-1.1a.53.53 0 010-.13h.21l.31 1.23h.49c-.11-.45-.25-.89-.36-1.34a.53.53 0 00.31-.47 2 2 0 000-.35.55.55 0 00-.42-.51 1.58 1.58 0 00-.38 0zM15 4.6v-.61a1.59 1.59 0 00-.07-.39.55.55 0 00-.41-.38 1.18 1.18 0 00-.53 0 .59.59 0 00-.48.46 1.42 1.42 0 00-.05.36v1.11a1.15 1.15 0 00.1.48.54.54 0 00.36.33 1.06 1.06 0 00.61 0 .58.58 0 00.39-.34A1 1 0 0015 5.2v-.6zm4.13 3.1v2.72a1.17 1.17 0 00.42 0V8.88l.63 1.54h.31V7.69h-.4v1.47l-.67-1.46zm-3.82 0v2.72h.4v-1-.5l.62 1.53h.32V7.7h-.4v1a1.94 1.94 0 010 .48L15.6 7.7zM27.69 6V4.41L28.35 6h.31V3.28a1.71 1.71 0 00-.39 0v1.41l-.62-1.47h-.33V6zm-8.83 25.76v-1.2a.47.47 0 00-.44-.45.46.46 0 00-.45.46v2.38a.45.45 0 10.89 0zm7.4-7.54h1.16a.45.45 0 00.42-.59.46.46 0 00-.43-.32h-2.34a.47.47 0 00-.42.45.46.46 0 00.44.47zm-15.68-.91H9.4a.48.48 0 00-.44.46.46.46 0 00.45.45h2.34a.45.45 0 00.43-.42.47.47 0 00-.44-.49zm8.28-7.54v-1.16a.48.48 0 00-.06-.26.45.45 0 00-.5-.21.49.49 0 00-.34.45v2.35a.45.45 0 00.28.43.42.42 0 00.48-.11.44.44 0 00.13-.33zm-8.69 12.55a.44.44 0 00.66.41l2-1.19a.49.49 0 00.16-.16.45.45 0 00-.07-.54.46.46 0 00-.55-.08l-2 1.18a.44.44 0 00-.2.38zm12.68 3.85a.46.46 0 00.45-.66l-1.17-2.08a.37.37 0 00-.13-.13.44.44 0 00-.55 0 .47.47 0 00-.1.58L22.51 32a.43.43 0 00.34.17zM15 18.3a.45.45 0 00.43-.67l-.07-.13-1.06-1.88a.7.7 0 00-.15-.19.44.44 0 00-.56 0 .48.48 0 00-.09.57l1.16 2a.4.4 0 00.34.3zm11.63 10a.45.45 0 00-.23-.36l-1.23-.72-.79-.46a.41.41 0 00-.47 0 .41.41 0 00-.18.42.44.44 0 00.22.34l.7.41c.44.25.88.5 1.31.76a.45.45 0 00.71-.41zm-2.91-7.84c0 .3.42.48.66.32l.2-.12 1.81-1.05a.48.48 0 00.23-.39.44.44 0 00-.67-.41L24 20a.49.49 0 00-.24.44zM14 32.18a.45.45 0 00.37-.24l.3-.54c.28-.5.56-1 .85-1.51a.42.42 0 000-.47.38.38 0 00-.39-.2.42.42 0 00-.37.23l-.63 1.14c-.18.3-.35.61-.52.92a.46.46 0 00.39.67zm9.37-16.37a.49.49 0 00-.33-.46.47.47 0 00-.52.22c-.12.23-.25.45-.38.68-.26.46-.52.92-.77 1.39a.45.45 0 00.17.6.44.44 0 00.6-.16c.39-.68.78-1.37 1.16-2.06a.86.86 0 00.04-.21zm-10.75 5a.45.45 0 00.38-.31.45.45 0 00-.2-.52l-2-1.18a.45.45 0 00-.61.17.47.47 0 00.17.62l.27.16 1.71 1a.43.43 0 00.25.08zM25.4 8.59a1.28 1.28 0 000-.44.54.54 0 00-.48-.46 1.69 1.69 0 00-.45 0 .55.55 0 00-.48.44 1.83 1.83 0 00-.07.46v1A1.76 1.76 0 0024 10a.56.56 0 00.51.45.51.51 0 00.57-.24v.2h.3V9.05h-.68v.32h.3a3 3 0 010 .3.94.94 0 01-.06.28.24.24 0 01-.27.15.22.22 0 01-.22-.18V8.5a1.33 1.33 0 010-.28.24.24 0 01.23-.22.23.23 0 01.25.21 1.21 1.21 0 010 .19v.16zm-14.73.1v-.51a.56.56 0 00-.49-.5 1.07 1.07 0 00-.47 0 .57.57 0 00-.44.41 1.2 1.2 0 00-.06.33V9.6a2.32 2.32 0 00.06.38.58.58 0 00.46.45 1.63 1.63 0 00.31 0 .62.62 0 00.64-.59v-.39a.19.19 0 000-.08h-.45v.46a.22.22 0 01-.22.23.24.24 0 01-.27-.2 2 2 0 010-.25V8.45a.93.93 0 010-.23A.24.24 0 0110 8a.22.22 0 01.21.23v.43zm8.49-5.47l-.54 2.72h.46l.06-.31c0-.1 0-.2.05-.3h.46l.11.61h.46l-.54-2.72zM10.21 6h.45l-.54-2.72h-.51L9.07 6h.46l.11-.62h.46zm15.26 0h.46l.12-.62h.46l.11.62h.45l-.54-2.71H26zm-10.41 4.42c-.18-.91-.36-1.82-.55-2.72H14l-.54 2.72h.46L14 9.8h.46l.11.62zm-1.83-1.24v-.35h-.48V8h.62v-.3h-1.11v2.72a9.82 9.82 0 001.1 0v-.32h-.62a6.71 6.71 0 010-.91zm5.49-.35h-.48v-.78h.62v-.36h-1.12v2.73h1.12v-.33h-.62a6.5 6.5 0 010-.9h.47zm2.11-1.13v2.72H22v-.33h-.62a3.94 3.94 0 010-.91h.46v-.34h-.48a3.25 3.25 0 010-.79h.59V7.7zm2.7-4.48v2.72a6.86 6.86 0 001.12 0v-.32H24a5.06 5.06 0 010-.9h.47v-.37H24v-.78h.62a2 2 0 000-.35zm3 7.2v-.14-.77a1 1 0 010-.23c.15-.49.31-1 .47-1.46V7.7h-.45l-.3 1-.25-1h-.46a1.42 1.42 0 01.05.16c.16.48.31 1 .46 1.43a1.57 1.57 0 010 .23v.9zm-15.66-7.2v2.72h.48v-.62-.62h.47v-.34h-.47v-.8H12v-.34zm1.3 0V6h.48V4.71h.48v-.34h-.47a3.39 3.39 0 010-.79h.59v-.36zM10.93 7.7v2.72a8.29 8.29 0 001.12 0v-.32h-.64V7.7zm11.75-2.09V3.23h-.47v2.72a7.66 7.66 0 001.1 0v-.34z"/><path fill="#fff" d="M13 23.8a5.43 5.43 0 115.41 5.54A5.49 5.49 0 0113 23.8zm4.57-2.8a2.85 2.85 0 00-2 3.14A2.81 2.81 0 1019.25 21V21.95a.17.17 0 00.11.18 1.89 1.89 0 01.89 1.92 1.84 1.84 0 01-2.12 1.56 1.75 1.75 0 01-1.46-1.29 1.8 1.8 0 01.46-1.9 4.23 4.23 0 01.45-.37zm1.25.38v-.94a.4.4 0 00-.8 0v1.89a.37.37 0 00.08.22.4.4 0 00.44.15.44.44 0 00.29-.4c-.02-.3-.01-.59-.01-.89zM4.72 10.39h-1.3L4.9 4.27H3a5.81 5.81 0 010-1h3.2a.28.28 0 000 .09 6.42 6.42 0 010 .88c-.07.29-.14.58-.2.87-.41 1.72-.82 3.43-1.22 5.15a.31.31 0 00-.06.13zM21.5 4.48h.09a.48.48 0 01.32.37 1.08 1.08 0 010 .59.63.63 0 01-.64.47h-.84V3.23h.8a1.31 1.31 0 01.27.06.51.51 0 01.35.41 1.45 1.45 0 010 .36.44.44 0 01-.35.42zm-.58.2a4.6 4.6 0 000 .92h.25a.28.28 0 00.26-.2.78.78 0 000-.5.26.26 0 00-.2-.19 3 3 0 00-.31-.03zm0-1.1v.76h.3a.26.26 0 00.2-.19.65.65 0 000-.34.22.22 0 00-.17-.19.77.77 0 00-.34-.04zM29 3.22h.42a2.91 2.91 0 01.51 0 .58.58 0 01.51.55 1.67 1.67 0 010 .32v1.3a.61.61 0 01-.54.55 5.39 5.39 0 01-.9 0zm.5 2.38h.23a.25.25 0 00.27-.25V4.04a2.83 2.83 0 000-.29.22.22 0 00-.19-.21 2.46 2.46 0 00-.28 0zM17 3.22h.45a2.69 2.69 0 01.49 0 .57.57 0 01.51.55 2.45 2.45 0 010 .27v1a1.53 1.53 0 010 .3.6.6 0 01-.51.54A7.17 7.17 0 0117 6zm.5 2.38h.23a.23.23 0 00.27-.24 2.46 2.46 0 000-.26V4a1.94 1.94 0 000-.24.24.24 0 00-.22-.22 1.92 1.92 0 00-.24 0zM15.25 6V3.24a4.62 4.62 0 01.91 0 .57.57 0 01.53.59V4a.62.62 0 01-.32.57l.4 1.43h-.49L16 4.71h-.22V6zm.5-1.55h.3a.24.24 0 00.19-.22 1.93 1.93 0 000-.34.23.23 0 00-.14-.2.6.6 0 00-.35 0zM22.18 7.7h.65a1.58 1.58 0 01.38 0 .55.55 0 01.42.51 2 2 0 010 .35.53.53 0 01-.31.47c.11.45.25.89.36 1.34h-.49l-.31-1.23h-.21a.53.53 0 000 .13v1.1h-.48zm.48 1.17h.28a.28.28 0 00.22-.23.78.78 0 000-.37.22.22 0 00-.16-.19.68.68 0 00-.35 0zM15 4.6v.6a1 1 0 01-.08.41.58.58 0 01-.39.34 1.06 1.06 0 01-.61 0 .54.54 0 01-.36-.33 1.15 1.15 0 01-.1-.48V4.03a1.42 1.42 0 01.05-.36.59.59 0 01.48-.46 1.18 1.18 0 01.53 0 .55.55 0 01.41.38A1.59 1.59 0 0115 4v.61zm-.5 0v-.66a1.11 1.11 0 000-.19.24.24 0 00-.28-.2.23.23 0 00-.24.23 1.64 1.64 0 000 .22v1.17a2.06 2.06 0 000 .26.23.23 0 00.24.19c.14 0 .23 0 .26-.18a.76.76 0 000-.21zM19.09 7.7h.33l.63 1.47V7.7h.4v2.73h-.31l-.63-1.54v1.53a1.17 1.17 0 01-.42 0zM15.27 7.7h.33l.62 1.47a1.94 1.94 0 000-.48v-1h.4v2.72h-.32l-.62-1.53v1.5h-.4zM27.69 6h-.41V3.22h.33l.62 1.47V3.23a1.71 1.71 0 01.39 0v2.72h-.31l-.59-1.55zM18.86 31.76v1.17A.45.45 0 1118 33v-2.38a.46.46 0 01.45-.46.47.47 0 01.44.45v1.2z"/><path fill="#fff" d="M26.26 24.22h-1.17a.46.46 0 01-.44-.47.47.47 0 01.42-.45h2.34a.46.46 0 01.43.32.45.45 0 01-.42.59zM10.58 23.31h1.16a.47.47 0 01.44.49.45.45 0 01-.43.42H9.41a.46.46 0 01-.41-.46.48.48 0 01.44-.46zM18.86 15.77v1.16a.44.44 0 01-.13.33.42.42 0 01-.48.11.45.45 0 01-.28-.43v-2.35a.49.49 0 01.34-.45.45.45 0 01.5.21.48.48 0 01.06.26zM10.17 28.32a.44.44 0 01.22-.38l2-1.18a.46.46 0 01.55.08.45.45 0 01.07.54.49.49 0 01-.16.16l-2 1.19a.44.44 0 01-.68-.41zM22.85 32.17a.43.43 0 01-.34-.22l-1.15-2.06a.47.47 0 01.1-.58.44.44 0 01.55 0 .37.37 0 01.12.13l1.17 2.08a.46.46 0 01-.45.65zM15 18.3a.4.4 0 01-.34-.22l-1.16-2a.48.48 0 01.09-.57.44.44 0 01.56 0 .7.7 0 01.15.19l1.1 1.8.07.13a.45.45 0 01-.47.67zM26.67 28.28a.45.45 0 01-.67.43c-.43-.26-.87-.51-1.31-.76l-.7-.41a.44.44 0 01-.22-.34.41.41 0 01.18-.42.41.41 0 01.47 0l.79.46 1.23.72a.45.45 0 01.23.32zM23.76 20.44A.49.49 0 0124 20l2-1.18a.44.44 0 01.67.41.48.48 0 01-.23.39l-1.81 1.05-.2.12c-.25.13-.68-.05-.67-.35zM14 32.18a.46.46 0 01-.42-.67c.17-.31.34-.62.52-.92l.63-1.14a.42.42 0 01.37-.23.38.38 0 01.39.2.42.42 0 010 .47c-.29.5-.57 1-.85 1.51l-.3.54a.45.45 0 01-.34.24zM23.34 15.81a.86.86 0 01-.07.21c-.38.69-.77 1.38-1.16 2.06a.44.44 0 01-.6.16.45.45 0 01-.17-.6c.25-.47.51-.93.77-1.39.13-.23.26-.45.38-.68a.47.47 0 01.52-.22.49.49 0 01.33.46zM12.59 20.83a.43.43 0 01-.23-.08l-1.71-1-.27-.16a.47.47 0 01-.17-.62.45.45 0 01.61-.17l2 1.18a.45.45 0 01.2.52.45.45 0 01-.43.33zM25.4 8.59h-.46v-.16a1.21 1.21 0 000-.19.23.23 0 00-.26-.24.24.24 0 00-.26.19 1.33 1.33 0 000 .28v1.45a.22.22 0 00.22.18.24.24 0 00.27-.15.94.94 0 00.09-.28 3 3 0 000-.3h-.3v-.32h.71v1.37h-.3v-.2a.51.51 0 01-.57.24A.56.56 0 0124 10a1.76 1.76 0 01-.07-.45v-1a1.83 1.83 0 01.07-.43.55.55 0 01.48-.44 1.69 1.69 0 01.45 0 .54.54 0 01.48.46 1.28 1.28 0 01-.01.45zM10.67 8.69h-.48v-.11-.32A.22.22 0 0010 8a.24.24 0 00-.28.19.93.93 0 000 .23v1.2a2 2 0 000 .25.24.24 0 00.27.2.22.22 0 00.22-.23v-.39-.07h.45a.19.19 0 010 .08v.39a.62.62 0 01-.64.59 1.63 1.63 0 01-.31 0 .58.58 0 01-.49-.44 2.32 2.32 0 01-.06-.38V8.44a1.2 1.2 0 01.06-.33.57.57 0 01.44-.41 1.07 1.07 0 01.47 0 .56.56 0 01.49.5c.03.14.03.31.05.49zM19.16 3.22h.52l.54 2.72h-.46l-.11-.61h-.46c0 .1 0 .2-.05.3l-.06.31h-.46zm.27.73l-.16 1h.35zM10.21 6l-.11-.62h-.46L9.53 6h-.46l.54-2.73h.51l.54 2.72h-.45zm-.33-2c-.07.35-.14.69-.18 1h.35zM25.47 6L26 3.23h.51l.54 2.71h-.45l-.11-.62h-.46l-.1.68zm.82-2c-.08.34-.14.68-.19 1a2 2 0 00.35 0zM15.06 10.42h-.46l-.11-.62h-.46l-.11.62h-.46L14 7.7h.51c.19.9.37 1.81.55 2.72zm-.64-.95a5.51 5.51 0 00-.17-1l-.17 1zM13.23 9.18h-.47a6.71 6.71 0 000 .91h.62v.32a9.82 9.82 0 01-1.1 0V7.69h1.11V8h-.62v.79h.48zM18.72 8.83v.34h-.47a6.5 6.5 0 000 .9h.62v.33h-1.13V7.69h1.12V8h-.62v.78zM20.83 7.7h1.1V8h-.59a3.25 3.25 0 000 .79h.48v.34h-.46a3.94 3.94 0 000 .91H22v.33h-1.17zM23.53 3.22h1.1a2 2 0 010 .35H24v.78h.49v.35H24a5.06 5.06 0 000 .9h.63v.31a6.86 6.86 0 01-1.12 0zM26.55 10.42h-.46v-.9a1.57 1.57 0 000-.23c-.15-.48-.3-.95-.46-1.43a1.42 1.42 0 00-.05-.16H26l.32 1 .3-1h.45v.12c-.16.49-.32 1-.47 1.46a1 1 0 000 .23v.77zM10.87 3.22H12v.34h-.6v.8h.47v.34h-.47v1.24h-.48zM12.17 3.22h1.09v.34h-.59a3.39 3.39 0 000 .79h.47v.34h-.48V6h-.48zM10.93 7.7h.48v2.39h.64v.32a8.29 8.29 0 01-1.12 0zM22.68 5.61h.64v.32a7.66 7.66 0 01-1.1 0V3.21h.47z"/><path fill="#fcb614" d="M17.57 21v1a4.23 4.23 0 00-.45.37 1.8 1.8 0 00-.46 1.9 1.75 1.75 0 001.46 1.29A1.84 1.84 0 0020.24 24a1.89 1.89 0 00-.89-1.92.17.17 0 01-.11-.18V21a2.91 2.91 0 012 2.76A2.83 2.83 0 1117.57 21z"/><path fill="#fcb614" d="M18.82 21.41v.91a.44.44 0 01-.29.4.4.4 0 01-.44-.15.37.37 0 01-.08-.22v-1.89a.4.4 0 01.8 0c.01.32.01.63.01.95zM20.92 4.68a3 3 0 01.31 0 .26.26 0 01.2.19.78.78 0 010 .5.28.28 0 01-.26.2h-.25a4.6 4.6 0 010-.89zM20.91 3.58a.77.77 0 01.34 0 .22.22 0 01.17.19.65.65 0 010 .34.26.26 0 01-.2.19h-.3c-.02-.22-.01-.47-.01-.72zM29.5 5.6v-2a2.46 2.46 0 01.28 0 .22.22 0 01.22.2 2.83 2.83 0 010 .29v1.22a.25.25 0 01-.24.25zM17.53 5.6v-2a1.92 1.92 0 01.24 0 .24.24 0 01.23.2 1.94 1.94 0 010 .2v1.1a2.46 2.46 0 010 .26.23.23 0 01-.23.23zM15.75 4.4v-.83a.6.6 0 01.35 0 .23.23 0 01.14.2 1.93 1.93 0 010 .34.24.24 0 01-.19.22zM22.66 8.87V8a.68.68 0 01.35 0 .22.22 0 01.14.17.78.78 0 010 .37.28.28 0 01-.22.23zM14.46 4.58v.65a.76.76 0 010 .21c0 .13-.12.18-.26.18a.23.23 0 01-.24-.19 2.06 2.06 0 010-.26V4a1.64 1.64 0 010-.22.23.23 0 01.24-.23.24.24 0 01.28.2 1.11 1.11 0 010 .19zM19.43 4l.17 1h-.35l.16-1zM9.88 3.94l.17 1H9.7c.04-.31.11-.65.18-1zM26.29 4l.16 1a2 2 0 01-.35 0c.05-.36.11-.7.19-1zM14.42 9.47h-.34l.17-1a5.51 5.51 0 01.17 1z"/></g></svg>