<svg xmlns="http://www.w3.org/2000/svg" viewBox="0 0 36.76 37.49"><g data-name="Layer 2"><path fill="#8e1838" d="M0 0h36.76v37.49H0zm25.77 25.71v-7.07a.86.86 0 000-.16c0-.14-.13-.19-.24-.11a.81.81 0 00-.14.12l-2.77 2.68c-.31.3-.61.61-.93.9a.72.72 0 00-.24.59v10.2a.23.23 0 00.23.25h3.78c.26 0 .32-.06.32-.32zm-5.38 2.69V24a.47.47 0 000-.17c0-.11-.11-.15-.21-.09a.55.55 0 00-.17.14l-1.73 1.78c-.1.1-.12.1-.22 0L16.46 24a.9.9 0 00-.19-.15c-.09-.05-.16 0-.19.09a1.09 1.09 0 000 .18v8.78a.2.2 0 00.17.2h4a.21.21 0 00.18-.2v-4.5zm-5.46-.31v-3.45-1.27a.52.52 0 000-.18c0-.1-.11-.13-.2-.08a.53.53 0 00-.14.12L13 24.77l-2.13 2.05a.72.72 0 00-.24.55v5.42c0 .25.06.32.31.32h3.66c.26 0 .33-.06.33-.33zm3.19-6L18 22c-.94-1-1.89-1.92-2.83-2.89-.13-.13-.14-.13-.27 0l-2.62 2.67-2.91 3c-.11.11-.11.13 0 .24l.68.7c.15.15.15.15.29 0Q12.68 23.38 15 21l.11-.11.1.09.89.91 2 2 .07.08a.1.1 0 00.14 0l.08-.09 7.21-7.35.12-.11.07.07.55.56a.46.46 0 00.07.07.11.11 0 00.18-.05v-.14c.2-.94.4-1.87.59-2.81a.5.5 0 000-.12.11.11 0 00-.18-.1h-.13l-2.25.52-.55.12a.12.12 0 00-.07.21l.06.06.54.55.06.07zM5.82 6.61a1.67 1.67 0 00.53-.82 2.81 2.81 0 000-1.44A1.44 1.44 0 005.34 3.2a2.4 2.4 0 00-1.16 0A1.47 1.47 0 003 4.31a2.4 2.4 0 00-.07 1 1.83 1.83 0 00.67 1.25 1.5 1.5 0 00-.6.94 2.63 2.63 0 00-.11.88A2.82 2.82 0 003 9.49a1.46 1.46 0 001 .93 2.65 2.65 0 001.12 0 1.53 1.53 0 001.4-1.21 4 4 0 00.09-.5 3.25 3.25 0 00-.11-1.2 1.48 1.48 0 00-.65-.86zm13.27 2.08v1.73h.37V7.69H19l-.4 1.85-.4-1.84h-.51l-.05 2.73H18V8.71l.36 1.72h.3zm9.33-1l.38 2.73h.41l.29-1.72.29 1.72h.4l.38-2.73h-.41L30 9.36l-.33-1.66h-.33l-.27 1.65-.2-1.65zm-8.75-2.83l-.21-1.63H19L19.4 6h.41l.29-1.72c.12.57.21 1.15.31 1.72h.4l.38-2.73h-.41l-.2 1.64-.27-1.64h-.34zM9.26 6a5.71 5.71 0 00.93 0 .59.59 0 00.51-.52.85.85 0 000-.23V4.03a1.06 1.06 0 00-.05-.31.51.51 0 00-.36-.38H9.26zm21.42-2.79V6a7.11 7.11 0 00.93 0 .61.61 0 00.52-.54 2.45 2.45 0 000-.27V4.1a2.29 2.29 0 000-.25.59.59 0 00-.51-.54 7.26 7.26 0 00-.94-.1zm-2.45 5.85v-.52a1.33 1.33 0 00-.09-.49.58.58 0 00-.4-.36 1.4 1.4 0 00-.54 0 .61.61 0 00-.49.48 2.2 2.2 0 000 .36v1.08a1.26 1.26 0 00.08.47.58.58 0 00.45.37 1.63 1.63 0 00.31 0 .65.65 0 00.69-.6.25.25 0 000-.08c-.02-.23-.01-.47-.01-.71zm-10.87 0v-.5a1.48 1.48 0 00-.09-.51.59.59 0 00-.41-.36 1.35 1.35 0 00-.53 0 .58.58 0 00-.48.47 1.25 1.25 0 000 .32v1.16a1.13 1.13 0 00.09.45.55.55 0 00.39.35 1.1 1.1 0 00.51 0 .6.6 0 00.5-.44.75.75 0 00.05-.26c-.03-.22-.03-.44-.03-.67zm15.84 1.37h.49V7.7h-.49v1.13h-.54V7.69h-.48v2.72a1.27 1.27 0 00.48 0v-1.2h.53zm-7.55-1.24l.35 1.24h.5l-.4-1.34a.5.5 0 00.28-.37 1.18 1.18 0 000-.56.52.52 0 00-.34-.39 1.21 1.21 0 00-.37-.07H25v2.73h.49V9.19zm-2.76-4.6v-.66a1.36 1.36 0 00-.07-.35.56.56 0 00-.41-.36 1.14 1.14 0 00-.58 0 .55.55 0 00-.41.37 1.34 1.34 0 00-.07.39v1.2a1 1 0 00.08.42.58.58 0 00.4.36 1.11 1.11 0 00.6 0 .57.57 0 00.37-.31.93.93 0 00.09-.4c.01-.25 0-.44 0-.66zM23.66 6v-.88a2.84 2.84 0 010-.41h.2L24.19 6h.5l-.37-1.34a.5.5 0 00.3-.42 1.69 1.69 0 000-.45.53.53 0 00-.4-.47h-1.04v2.72zm-9.83 3.06v-.65a1 1 0 00-.07-.35.59.59 0 00-.41-.37 1.35 1.35 0 00-.53 0 .58.58 0 00-.48.47 1.74 1.74 0 00-.05.39v1.3a.64.64 0 00.53.58 1.09 1.09 0 00.44 0 .6.6 0 00.5-.44 1.12 1.12 0 00.05-.31c.02-.2.02-.41.02-.62zM30.36 6V3.22a1.88 1.88 0 00-.41 0v1.46l-.65-1.47H29V6h.41V4.52a.28.28 0 010-.09L30 6zm-13.6 0V3.22h-.41v1.45l-.61-1.45h-.34V6h.41V4.79v-.37L16.43 6zm-2.64 1.7v2.73h.42V8.89l.63 1.55h.33V7.7h-.39v1.42l-.65-1.42zm10.5.89a1.18 1.18 0 000-.46.56.56 0 00-.47-.45 1.45 1.45 0 00-.36 0 .6.6 0 00-.6.51 1.83 1.83 0 00-.05.4v1a1.71 1.71 0 000 .31.64.64 0 00.72.61.41.41 0 00.37-.2l.05-.06v.22h.32V9.05h-.73v.32h.29v.45a.58.58 0 01-.05.14.24.24 0 01-.26.13.21.21 0 01-.22-.16 1.63 1.63 0 010-.31V8.48a1.06 1.06 0 010-.25.23.23 0 01.28-.23c.14 0 .21.07.23.22a1.48 1.48 0 010 .21.53.53 0 010 .13h.46zm.31-5.37V6h.49v-.19-.87a.44.44 0 01.1-.25L26 6h.49s0-.09-.05-.13c-.16-.43-.31-.85-.48-1.27a.3.3 0 010-.21l.42-1 .05-.12h-.47c-.06.13-.12.25-.17.38L25.6 4a1.73 1.73 0 01-.18.36v-.78-.36zM13.3 4.93v.31a1.21 1.21 0 010 .19.22.22 0 01-.22.19.23.23 0 01-.25-.18v-.17-1.39a.57.57 0 010-.18.21.21 0 01.26-.14.2.2 0 01.2.18v.31a.81.81 0 010 .16h.47a1.94 1.94 0 000-.59.57.57 0 00-.37-.4 1 1 0 00-.63 0 .52.52 0 00-.37.35 1.16 1.16 0 00-.07.31v1.29a1.2 1.2 0 00.08.42.58.58 0 00.36.34 1.07 1.07 0 00.64 0 .58.58 0 00.28-.21 1.26 1.26 0 00.12-.81zM11.58 9.4V9.88a.21.21 0 01-.21.21.22.22 0 01-.26-.18.91.91 0 010-.23V8.42a.76.76 0 010-.21.22.22 0 01.25-.21.21.21 0 01.21.21v.16a2.53 2.53 0 010 .28h.47a2.16 2.16 0 000-.57.57.57 0 00-.45-.44 1.2 1.2 0 00-.5 0 .55.55 0 00-.45.43 1.2 1.2 0 00-.06.33v1.23a2.41 2.41 0 00.07.37.58.58 0 00.44.39 1.42 1.42 0 00.35 0 .61.61 0 00.56-.53v-.37-.09zm10.09 0v.22a2.28 2.28 0 010 .26.2.2 0 01-.22.2.21.21 0 01-.25-.18.76.76 0 010-.21V8.41a.76.76 0 010-.21.22.22 0 01.25-.2.21.21 0 01.21.2v.45h.48a2.46 2.46 0 000-.55.56.56 0 00-.46-.46 1.11 1.11 0 00-.48 0 .57.57 0 00-.46.43.92.92 0 00-.05.28v1.33a.93.93 0 00.07.33.58.58 0 00.39.37 1 1 0 00.62 0 .53.53 0 00.3-.25 1.64 1.64 0 00.11-.76zm6.54-4.09l.11.63h.46q-.27-1.38-.54-2.73h-.52L27.18 6h.46l.12-.62h.45zm-19 5.1a8.34 8.34 0 001.12 0v-.34h-.57v-.88h.48a1.45 1.45 0 000-.36h-.48v-.78h.62V7.7a10.19 10.19 0 00-1.12 0zM11 3.22V6h1.12v-.39h-.62v-.9h.5a2 2 0 000-.35h-.48v-.78h.62v-.36zm4.15 0a6.91 6.91 0 00-1.12 0v2.71a10 10 0 001.11 0v-.32h-.62a4.29 4.29 0 010-.89h.47a1.46 1.46 0 000-.36h-.47v-.79h.62zm1.73.36h.45V5.94h.5V3.6h.42a1.36 1.36 0 000-.35 10.3 10.3 0 00-1.37 0zM30.64 7.7v.37h.45v2.36h.5V8.07H32V7.7zm-10.76 0v2.75h.46V7.69h-.46z"/><path fill="#fff" d="M25.77 25.71v7.08c0 .26-.06.32-.32.32h-3.78a.23.23 0 01-.23-.25v-10.2a.72.72 0 01.24-.59c.32-.29.62-.6.93-.9l2.77-2.68a.81.81 0 01.14-.12c.11-.08.22 0 .24.11a.86.86 0 010 .16zM20.39 28.4v4.5a.21.21 0 01-.18.2h-4a.2.2 0 01-.17-.2v-8.76a1.09 1.09 0 010-.18c0-.1.1-.14.19-.09a.9.9 0 01.19.15L18 25.63c.1.1.12.1.22 0L20 23.88a.55.55 0 01.17-.14c.1-.06.18 0 .21.09a.47.47 0 010 .17v4.4zM14.93 28.09v4.69c0 .27-.07.33-.33.33h-3.69c-.25 0-.31-.07-.31-.32v-5.42a.72.72 0 01.24-.55L13 24.77l1.59-1.54a.53.53 0 01.14-.12c.09-.05.16 0 .2.08a.52.52 0 010 .18v1.27z"/><path fill="#fff" d="M18.12 22.12l6.54-6.66-.06-.07-.54-.55-.06-.06a.12.12 0 01.07-.21l.55-.12 2.25-.52H27a.11.11 0 01.14.12.5.5 0 010 .12c-.19.94-.39 1.87-.59 2.81v.14a.11.11 0 01-.18.05.46.46 0 01-.07-.07l-.55-.56-.07-.07-.12.11-7.26 7.32-.08.09a.1.1 0 01-.14 0l-.08-.08-2-2-.83-.91-.1-.09L15 21q-2.28 2.34-4.58 4.67c-.14.15-.14.15-.29 0L9.41 25c-.11-.11-.11-.13 0-.24l2.91-3 2.62-2.67c.13-.13.14-.13.27 0 .94 1 1.89 1.93 2.83 2.89zM5.82 6.61a1.48 1.48 0 01.65.86 3.25 3.25 0 01.11 1.2 4 4 0 01-.09.5 1.53 1.53 0 01-1.29 1.29 2.65 2.65 0 01-1.12 0 1.46 1.46 0 01-1-.93 2.82 2.82 0 01-.19-1.11A2.63 2.63 0 013 7.5a1.5 1.5 0 01.65-.85A1.83 1.83 0 013 5.31a2.4 2.4 0 01.07-1 1.47 1.47 0 011.11-1.12 2.4 2.4 0 011.16 0 1.44 1.44 0 011.08 1.12 2.81 2.81 0 010 1.44 1.67 1.67 0 01-.53.82zM5.3 8.34v-.31a3.88 3.88 0 00-.11-.49.42.42 0 00-.19-.27.49.49 0 00-.69.29v.11a3 3 0 00-.06 1 3.12 3.12 0 00.09.44.47.47 0 00.6.32.44.44 0 00.32-.31 2.41 2.41 0 00.04-.78zm-.06-3.28v-.25a1 1 0 00-.11-.41.42.42 0 00-.74 0 .64.64 0 00-.1.24 2.28 2.28 0 00.05 1.13.75.75 0 00.1.2.37.37 0 00.63 0 1.08 1.08 0 00.11-.3c.02-.24.03-.42.06-.61zM19.09 8.69l-.35 1.74h-.3l-.36-1.72v1.72h-.38l.05-2.73h.51l.37 1.84L19 7.7h.5v2.73h-.37V8.7zM28.42 7.7h.42L29 9.35l.27-1.65h.33l.4 1.66.21-1.66h.41l-.38 2.73h-.4l-.29-1.72-.29 1.72h-.46zM19.67 4.86l.27-1.64h.34l.27 1.64.2-1.64h.41L20.81 6h-.4c-.1-.57-.19-1.15-.31-1.72L19.81 6h-.41L19 3.23h.42l.21 1.63zM9.26 6V3.23h1.06a.51.51 0 01.36.38 1.06 1.06 0 01.05.31v1.22a.85.85 0 010 .23.59.59 0 01-.51.52 5.71 5.71 0 01-.96.11zm.51-2.39v2H10a.24.24 0 00.23-.24V4a1.5 1.5 0 000-.2.19.19 0 00-.23-.2zM30.68 3.21a7.26 7.26 0 01.94 0 .59.59 0 01.51.54 2.29 2.29 0 010 .25v1.09a2.45 2.45 0 010 .27.61.61 0 01-.52.54 7.11 7.11 0 01-.93 0zm.5.37v2h.21a.24.24 0 00.24-.24V3.82a.24.24 0 00-.22-.23zM28.23 9.06v.73a.25.25 0 010 .08.65.65 0 01-.69.6 1.63 1.63 0 01-.31 0 .58.58 0 01-.45-.37 1.26 1.26 0 01-.08-.47V8.55a2.2 2.2 0 010-.36.61.61 0 01.49-.48 1.4 1.4 0 01.54 0 .58.58 0 01.4.36 1.33 1.33 0 01.09.49v.52zm-1.05 0v.66a.78.78 0 000 .22.21.21 0 00.23.16.23.23 0 00.25-.16.91.91 0 000-.23V8.43a.58.58 0 000-.19.26.26 0 00-.51 0 1.21 1.21 0 000 .19zM17.36 9.07v.68a.75.75 0 01-.05.26.6.6 0 01-.5.44 1.1 1.1 0 01-.51 0 .55.55 0 01-.39-.35 1.13 1.13 0 01-.09-.45V8.49a1.25 1.25 0 010-.32.58.58 0 01.48-.47 1.35 1.35 0 01.53 0 .59.59 0 01.41.36 1.48 1.48 0 01.09.51v.51zm-.5 0v-.7a.71.71 0 000-.2.2.2 0 00-.28-.17c-.1 0-.2 0-.23.14a.85.85 0 000 .23v1.3a1.09 1.09 0 000 .18.24.24 0 00.26.2.23.23 0 00.25-.19.88.88 0 000-.16zM33.2 10.43V9.21h-.53v1.2a1.27 1.27 0 01-.48 0V7.69h.48v1.14h.54V7.7h.49v2.73zM25.65 9.19h-.21v1.24H25V7.7h.73a1.21 1.21 0 01.37.07.52.52 0 01.34.39 1.18 1.18 0 010 .56.5.5 0 01-.28.37l.36 1.34H26zM25.45 8a4.48 4.48 0 000 .83h.27a.27.27 0 00.2-.21.92.92 0 000-.37.24.24 0 00-.22-.2 2.28 2.28 0 00-.25-.05zM22.89 4.59v.65a.93.93 0 01-.09.4.57.57 0 01-.37.31 1.11 1.11 0 01-.6 0 .58.58 0 01-.4-.36 1 1 0 01-.08-.42v-1.2a1.34 1.34 0 01.07-.39.55.55 0 01.41-.37 1.14 1.14 0 01.58 0 .56.56 0 01.41.36 1.36 1.36 0 01.07.35v.66zm-.5 0v-.67a.64.64 0 000-.2.21.21 0 00-.24-.16.22.22 0 00-.24.16.85.85 0 000 .23v1.27a1.49 1.49 0 000 .21.24.24 0 00.26.19.24.24 0 00.24-.19.65.65 0 000-.2c-.01-.23-.02-.43-.02-.64zM23.66 6h-.48V3.28h1.04a.53.53 0 01.4.47 1.69 1.69 0 010 .45.5.5 0 01-.3.42L24.69 6h-.5l-.32-1.24h-.2a2.84 2.84 0 000 .41V6zm0-1.57a.93.93 0 00.29 0 .27.27 0 00.2-.23 1.82 1.82 0 000-.33.25.25 0 00-.15-.27.65.65 0 00-.34 0zM13.83 9.06v.64a1.12 1.12 0 01-.05.31.6.6 0 01-.5.44 1.09 1.09 0 01-.44 0 .64.64 0 01-.53-.58v-.3-1a1.74 1.74 0 01.05-.39.58.58 0 01.48-.47 1.35 1.35 0 01.53 0 .59.59 0 01.41.37 1 1 0 01.07.35v.65zm-.5 0v-.65a.88.88 0 000-.17A.24.24 0 0013 8a.23.23 0 00-.24.23.82.82 0 000 .22v1.19a1.43 1.43 0 000 .29c0 .12.12.17.26.16a.22.22 0 00.23-.17.76.76 0 000-.21zM30.36 6H30l-.62-1.52a.28.28 0 000 .09V6H29V3.21h.33l.62 1.47V3.23a1.88 1.88 0 01.41 0zM16.76 6h-.33l-.62-1.53V6h-.41V3.22h.34l.61 1.45V3.22h.41zM14.12 7.7h.34l.63 1.46V7.74h.39v2.73h-.33l-.63-1.55v1.54h-.42zM24.62 8.59h-.46a.53.53 0 000-.13 1.48 1.48 0 000-.21c0-.15-.09-.22-.23-.22a.23.23 0 00-.27.19 1.06 1.06 0 000 .25v1.14a1.63 1.63 0 000 .31.21.21 0 00.22.16.24.24 0 00.26-.13.58.58 0 00.05-.14v-.45h-.29v-.31h.73v1.38h-.32v-.22l-.05.06a.41.41 0 01-.37.2.64.64 0 01-.72-.61 1.71 1.71 0 010-.31v-1a1.83 1.83 0 01.05-.4.6.6 0 01.6-.51 1.45 1.45 0 01.36 0 .56.56 0 01.47.45 1.18 1.18 0 01-.03.5zM24.93 3.22h.48v1.1A1.73 1.73 0 0025.6 4l.17-.36c.05-.13.11-.25.17-.38h.47l-.05.12-.42 1a.3.3 0 000 .21c.17.42.32.84.48 1.27 0 0 0 .08.05.13H26l-.46-1.26a.44.44 0 00-.1.25V6h-.49zM13.3 4.93h.47a1.26 1.26 0 01-.12.81.58.58 0 01-.28.21 1.07 1.07 0 01-.64 0 .58.58 0 01-.36-.34 1.2 1.2 0 01-.08-.42V3.9a1.16 1.16 0 01.07-.31.52.52 0 01.37-.35 1 1 0 01.63 0 .57.57 0 01.37.4 1.94 1.94 0 010 .59h-.47a.81.81 0 000-.16v-.31a.2.2 0 00-.2-.18.21.21 0 00-.26.14.57.57 0 000 .18V5.46a.23.23 0 00.25.18.22.22 0 00.22-.19 1.21 1.21 0 000-.19c.04-.12.03-.26.03-.33zM11.58 9.4H12V9.86a.61.61 0 01-.62.61 1.42 1.42 0 01-.35 0 .58.58 0 01-.44-.39 2.41 2.41 0 01-.07-.37V8.48a1.2 1.2 0 01.06-.33.55.55 0 01.45-.43 1.2 1.2 0 01.5 0 .57.57 0 01.45.44 2.16 2.16 0 010 .57h-.47a2.53 2.53 0 000-.28v-.2a.21.21 0 00-.15-.25.22.22 0 00-.27.17.76.76 0 000 .21v1.3a.91.91 0 000 .23.22.22 0 00.26.18.21.21 0 00.21-.21v-.34zM21.67 9.41h.48a1.64 1.64 0 01-.11.76.53.53 0 01-.3.25 1 1 0 01-.62 0 .58.58 0 01-.39-.37.93.93 0 01-.07-.33V8.39a.92.92 0 01.05-.28.57.57 0 01.46-.43 1.11 1.11 0 01.48 0 .56.56 0 01.46.46 2.46 2.46 0 010 .55h-.48v-.2-.25a.21.21 0 00-.21-.2.22.22 0 00-.27.16.76.76 0 000 .21V9.7a.76.76 0 000 .21.21.21 0 00.25.18.2.2 0 00.22-.2 2.28 2.28 0 000-.26zM28.21 5.32h-.45l-.12.68h-.46l.54-2.73h.52q.27 1.35.54 2.73h-.46zM28.15 5A6.08 6.08 0 0028 4l-.16 1zM9.26 10.42V7.71a10.19 10.19 0 011.12 0v.35h-.62v.77h.48a1.45 1.45 0 010 .36h-.48v.89h.62v.34a8.34 8.34 0 01-1.12 0zM11 3.22h1.12v.35h-.62v.77h.5a2 2 0 010 .35h-.49v.9h.62V6H11zM15.16 3.23v.34h-.62v.77H15a1.46 1.46 0 010 .36h-.47a4.29 4.29 0 000 .89h.62v.33a10 10 0 01-1.11 0V3.21a6.91 6.91 0 011.12.02zM16.89 3.59v-.35a10.3 10.3 0 011.37 0 1.36 1.36 0 010 .35h-.42V6h-.5v-.78-1.58zM30.64 7.7H32v.37h-.42v2.36h-.5V8.07h-.45zM19.88 7.69h.46v2.74h-.46c-.03-.09-.03-2.6 0-2.74z"/><path fill="#8e1838" d="M5.3 8.34a2.41 2.41 0 01-.11.81.44.44 0 01-.32.31.47.47 0 01-.6-.32 3.12 3.12 0 01-.09-.44 3 3 0 01.06-1v-.11A.49.49 0 015 7.27a.42.42 0 01.22.27 3.88 3.88 0 01.07.46c.01.14.01.25.01.34zM5.24 5.06c0 .19 0 .37-.08.56a1.08 1.08 0 01-.11.3.37.37 0 01-.63 0 .75.75 0 01-.1-.2 2.28 2.28 0 01-.05-1.13.64.64 0 01.1-.24.42.42 0 01.74 0 1 1 0 01.11.41v.25zM9.77 3.57h.27a.19.19 0 01.17.18 1.5 1.5 0 010 .2v1.4a.24.24 0 01-.23.24h-.21c-.02-.09-.03-1.86 0-2.02zM31.18 3.58h.24a.24.24 0 01.22.23v1.54a.24.24 0 01-.24.24h-.21c-.03-.08-.04-1.83-.01-2.01zM27.18 9.05v-.62a1.21 1.21 0 010-.19.26.26 0 01.51 0 .58.58 0 010 .19V9.7a.91.91 0 010 .23.23.23 0 01-.25.16.21.21 0 01-.23-.16.78.78 0 010-.22c-.04-.22-.03-.44-.03-.66zM16.86 9.07v.67a.88.88 0 010 .16.23.23 0 01-.25.19.24.24 0 01-.26-.2 1.09 1.09 0 010-.18v-1.3a.85.85 0 010-.23c0-.12.13-.14.23-.14a.2.2 0 01.24.13.71.71 0 010 .2v.7zM25.45 8a2.28 2.28 0 01.26 0 .24.24 0 01.22.2.92.92 0 010 .37.27.27 0 01-.2.21h-.27a4.48 4.48 0 01-.01-.78zM22.39 4.59v.64a.65.65 0 010 .2.24.24 0 01-.24.19.24.24 0 01-.26-.19 1.49 1.49 0 010-.21V4a.85.85 0 010-.23.22.22 0 01.24-.16.21.21 0 01.24.16.64.64 0 010 .2c.03.17.02.4.02.62zM23.67 4.38v-.8a.65.65 0 01.34 0 .25.25 0 01.15.2 1.82 1.82 0 010 .33.27.27 0 01-.2.23.93.93 0 01-.29.04zM13.33 9.06v.65a.76.76 0 010 .21.22.22 0 01-.23.17c-.14 0-.23 0-.26-.16a1.43 1.43 0 010-.29V8.48a.82.82 0 010-.22A.23.23 0 0113 8a.24.24 0 01.27.21.88.88 0 010 .17zM28.15 5h-.34L28 4a6.08 6.08 0 01.15 1z"/></g></svg>