<svg xmlns="http://www.w3.org/2000/svg" viewBox="0 0 36.76 37.49"><g data-name="Layer 2"><path fill="#f26e24" d="M0 0h36.76v37.49H0zm15.17 3.52a.41.41 0 01-.05-.09.54.54 0 00-.34-.27.83.83 0 00-.58 0 .55.55 0 00-.32.33.85.85 0 00.13.83 1.29 1.29 0 00.17.16l.45.41a.49.49 0 01.14.45.18.18 0 01-.21.17.2.2 0 01-.19-.13 1.12 1.12 0 01-.08-.26.66.66 0 010-.15l-.43.09a1 1 0 00.14.64.6.6 0 00.34.22 1.27 1.27 0 00.34 0 .64.64 0 00.59-.58.86.86 0 00-.14-.6 2.28 2.28 0 00-.29-.33l-.37-.34a.41.41 0 01-.15-.36.2.2 0 01.18-.21.19.19 0 01.24.15 1.22 1.22 0 010 .17v.12l.34-.07c.08 0 .09 0 .08-.11l-.06-.28a.37.37 0 00.14 0h.33v2.43a2.9 2.9 0 00.51 0V4.35v-.79h.42v-.41h-1.32zm-6 24.12v2.59a.44.44 0 00.23.41L11.76 32l2.08 1.22a.35.35 0 00.42 0l4.17-2.46a.23.23 0 01.26 0L22 32.7l.93.55a.33.33 0 00.38 0h.08l4.38-2.57a.4.4 0 00.22-.39V25a.4.4 0 00-.22-.39l-3-1.79-1.19-.7a.16.16 0 01-.1-.18v-5a.33.33 0 00-.17-.3l-.1-.06-3.12-1.83L18.8 14a.33.33 0 00-.29-.05l-.14.08L14 16.6a.41.41 0 00-.23.4v5a.08.08 0 01-.05.1l-.09.05q-2.08 1.24-4.19 2.47a.41.41 0 00-.23.4c-.02.89-.02 1.75-.02 2.62zM3 8.54a2.54 2.54 0 00.11 1 1.31 1.31 0 001 .92 2.77 2.77 0 001.28 0 1.41 1.41 0 001.08-.92c0-.1.08-.2.11-.3a3.77 3.77 0 00.15-1.11V5.59v-.61a2.49 2.49 0 00-.23-.89 1.55 1.55 0 00-1.17-.93 2.42 2.42 0 00-.85 0 1.52 1.52 0 00-1.26.92 2.86 2.86 0 00-.22.4 4.27 4.27 0 00-.1 1.78 2 2 0 00.29.83 1.13 1.13 0 00.73.55 1.64 1.64 0 00.32.05 1.38 1.38 0 00.63-.09 1 1 0 00.37-.26V8.25a5.12 5.12 0 010 .56 1.8 1.8 0 01-.1.4.31.31 0 01-.29.21h-.16a.38.38 0 01-.4-.34v-.41a.71.71 0 000-.14zm7.59-5.37V5.9a5.28 5.28 0 00.89 0 .62.62 0 00.52-.53 2.58 2.58 0 000-.29V4a1.33 1.33 0 000-.28.6.6 0 00-.47-.48 4.5 4.5 0 00-1 0zm.9 4.49a.22.22 0 000 .08v2.59h.4a3.85 3.85 0 00.48 0 .6.6 0 00.54-.5 1.81 1.81 0 000-.4v-1a3 3 0 000-.31.6.6 0 00-.5-.53 4.33 4.33 0 00-.95 0zm6.32-3.09a.52.52 0 00.28-.38 1.8 1.8 0 000-.4.59.59 0 00-.57-.61h-.91v2.73a1.2 1.2 0 00.5 0V4.7h.19a.83.83 0 010 .15c.09.32.17.65.25 1 0 .11 0 .11.13.11h.42zm15.5 5.83L32.9 9a.5.5 0 00.28-.35 1.35 1.35 0 000-.53.59.59 0 00-.43-.48 1.26 1.26 0 00-.27 0h-.76v2.74a1.39 1.39 0 00.5 0V9.16h.19v.11c.08.3.15.6.23.9s0 .23.29.23zm-9-1.24l.32 1.23h.51a.7.7 0 010-.14c-.11-.37-.21-.74-.31-1.11v-.1a.51.51 0 00.28-.37 1.28 1.28 0 000-.55.54.54 0 00-.35-.41 1.07 1.07 0 00-.39-.07h-.72v2.74a1.38 1.38 0 00.5 0V9.16zm8.61-4.61v-.53a1.82 1.82 0 000-.32.63.63 0 00-.48-.55 1.25 1.25 0 00-.43 0 .65.65 0 00-.61.61v1.35a1.05 1.05 0 00.09.46.6.6 0 00.44.38 1.41 1.41 0 00.46 0 .63.63 0 00.53-.49 1.57 1.57 0 00.05-.3zm-6.57 0v-.3a4.36 4.36 0 000-.51.63.63 0 00-.47-.57 1.14 1.14 0 00-.58 0 .55.55 0 00-.42.41 1.29 1.29 0 00-.07.4V5.1a1.17 1.17 0 00.09.48.56.56 0 00.38.34 1.25 1.25 0 00.51 0 .63.63 0 00.54-.52 2 2 0 00.05-.34c-.02-.16-.03-.34-.03-.52zm6.75-1.4v2.76a2 2 0 00.42 0v-1.5l.18.44.4 1s0 .09.07.09a.61.61 0 00.3 0V3.16a1.49 1.49 0 00-.42 0V4.6a3 3 0 01-.18-.36l-.42-1s0-.1-.09-.11zM23 5.92V3.17a.81.81 0 00-.41 0V4.6l-.06-.06c-.05-.14-.11-.27-.17-.41L22 3.25s0-.09-.08-.09h-.31v2.75a1.55 1.55 0 00.43 0v-1.5a.2.2 0 01.07.1c.08.18.15.37.23.55s.2.51.31.76c0 0 0 .1.08.1zM9 3.15v2.76a1.49 1.49 0 00.42 0V4.4a6.21 6.21 0 01.19.6c.12.28.23.55.34.83 0 0 .05.09.07.09a.51.51 0 00.3 0V3.18a1.9 1.9 0 00-.41 0v1.4l-.21-.5-.35-.84s0-.1-.1-.1zm15.61 2.77V3.16a1.55 1.55 0 00-.43 0V4.6c-.08-.15-.14-.29-.21-.44-.12-.3-.25-.61-.38-.91 0 0 0-.09-.08-.09h-.32v2.75a2.16 2.16 0 00.44 0V4.4a.16.16 0 01.06.08l.37.91.18.45s0 .08.08.08zm-7.08 1.73v2.74H18v-1.1-.13h.19v.12c.09.32.17.64.25 1 .05.17 0 .16.21.16H19.09c-.11-.45-.25-.89-.36-1.34a.59.59 0 00.27-.63v-.18a.58.58 0 00-.52-.62 4.22 4.22 0 00-.94 0zm-2.48 1.24v.09l.25.61c.1.24.2.48.29.72 0 0 0 .09.09.09H16V7.66a.85.85 0 00-.42 0v1.42L15 7.64h-.34v2.75h.42zm-4.29.17c-.08-.18-.16-.36-.23-.55l-.33-.78s0-.09-.09-.09h-.32v2.75h.41V8.87a.23.23 0 01.07.1c.09.21.17.43.26.64l.28.69s0 .1.09.1h.28V7.65h-.42zm1.43-5.9a.49.49 0 000 .11v1.79a1.49 1.49 0 00.07.47.55.55 0 00.4.38 1 1 0 00.59 0 .52.52 0 00.4-.37 2.66 2.66 0 00.07-.39V3.26a.38.38 0 000-.1h-.47a1 1 0 000 .17V5.3a.45.45 0 010 .16.21.21 0 01-.2.14.22.22 0 01-.26-.19 1.36 1.36 0 010-.29V3.31v-.15zM31 7.65v1.91a1.24 1.24 0 010 .27.22.22 0 01-.23.2.23.23 0 01-.24-.2 2 2 0 010-.35V7.81v-.17H30v2.07a1.37 1.37 0 000 .29.51.51 0 00.42.38 2.07 2.07 0 00.43 0 .59.59 0 00.56-.52 1.32 1.32 0 000-.34V7.71a.34.34 0 000-.1zm-5.69 0V9.57a1.26 1.26 0 00.08.47.59.59 0 00.37.35 1.21 1.21 0 00.5 0 .6.6 0 00.55-.54 2.53 2.53 0 000-.38V7.78a.76.76 0 000-.14h-.48v2.03a.78.78 0 010 .21.2.2 0 01-.14.14.23.23 0 01-.31-.17 1.22 1.22 0 010-.32V7.79v-.15zM28 9.34v.52a.21.21 0 01-.22.18.22.22 0 01-.23-.17.78.78 0 010-.22v-1.3a.63.63 0 010-.19c0-.12.11-.17.25-.16s.18.05.2.18 0 .22 0 .33v.14h.46v-.06a1.59 1.59 0 000-.53.56.56 0 00-.43-.43 1.14 1.14 0 00-.52 0 .58.58 0 00-.46.44 1.46 1.46 0 00-.06.46v.92a1.83 1.83 0 000 .33.66.66 0 00.48.62 1.13 1.13 0 00.45 0 .58.58 0 00.53-.51v-.56H28zm.35-6.19l-.55 2.76a3.89 3.89 0 00.48 0 .83.83 0 000-.13c0-.14.05-.28.08-.42s0-.09.07-.09h.38c0 .15.05.29.08.43s0 .21.24.21h.27a.69.69 0 010-.13c-.13-.64-.26-1.28-.38-1.92-.05-.2-.09-.41-.13-.61s0-.09-.08-.09zm-7.67 7.24c-.18-.93-.36-1.84-.55-2.74h-.52c-.07.22-.54 2.65-.53 2.74h.46l.11-.63h.39c.05 0 .06 0 .07.07a3.06 3.06 0 00.05.32 2 2 0 000 .24zM8.59 7.64c-.07.23-.55 2.66-.54 2.75h.46l.12-.62h.44l.11.62a1.13 1.13 0 00.47 0l-.54-2.75zm12.15 1.94c0 .13 0 .25.07.36a.63.63 0 00.55.48h.25a.61.61 0 00.56-.49 1.34 1.34 0 000-.4 1 1 0 00-.32-.53l-.39-.35a1.22 1.22 0 01-.15-.17.35.35 0 01-.06-.31.2.2 0 01.2-.17.2.2 0 01.21.14 1.7 1.7 0 010 .22v.09l.41-.08a.72.72 0 00-.02-.37.52.52 0 00-.36-.32.89.89 0 00-.56 0 .6.6 0 00-.35.41.83.83 0 00.24.84l.29.27a2.83 2.83 0 01.25.24.47.47 0 01.13.45.17.17 0 01-.19.15.2.2 0 01-.2-.11.68.68 0 01-.07-.2 1.37 1.37 0 010-.23zm6.69-3.67c.18-.92.36-1.83.55-2.75h-.37c-.09 0-.1 0-.12.1l-.15.85q-.07.42-.15.87v-.06l-.18-1c0-.23-.09-.46-.13-.69 0 0 0-.09-.06-.09a1.42 1.42 0 00-.41 0l.54 2.74zM34 10v-.85h.49v-.38H34V8h.62v-.35a6.89 6.89 0 00-1.12 0v2.72a6 6 0 001.13 0V10zM19.67 3.15h-.33c-.14 0-.14 0-.18.14s-.15.5-.22.75l-.05.15v-.11c-.08-.23-.15-.47-.22-.71s0-.22-.29-.22a.72.72 0 00-.25 0c0 .06 0 .11.05.16.15.46.29.93.45 1.39a.78.78 0 010 .3v.9a3.81 3.81 0 00.48 0V5a1.43 1.43 0 010-.22c.15-.49.31-1 .46-1.46a1 1 0 00.1-.17zM16.8 8h.6a2.16 2.16 0 000-.36h-1.1v2.76a4.13 4.13 0 00.49 0V9.16h.47v-.39h-.46zm12.68 2.39V8h.43v-.34a10.59 10.59 0 00-1.38 0V8H29v2.39zM22.59 8v2.39h.5V8.62v-.59h.42v-.38a10.42 10.42 0 00-1.38 0 1.54 1.54 0 000 .37zm7.1-4.48v2.39h.51V3.56h.43v-.4H29.24a2.43 2.43 0 000 .27c0 .1 0 .11.1.11zm-21 2.36V3.13a2.46 2.46 0 00-.47 0v2.75zm12.17-2.73v2.77a3.89 3.89 0 00.48 0V3.3a.25.25 0 000-.08s0-.07-.06-.07zm9.83 0V5.9h.48V3.16zm-16.36 7.24v-2.6-.09h-.25a.65.65 0 00-.24 0v2.74zm5.33-4a.41.41 0 00.39-.4v-.4-.12h-.44v.46h.21c0 .15-.1.21-.2.27z"/><path fill="#fff" d="M9.19 27.64v-2.6a.41.41 0 01.23-.4q2.1-1.23 4.19-2.47l.09-.05a.08.08 0 00.05-.1V17a.41.41 0 01.23-.4l4.39-2.6.14-.08a.33.33 0 01.29.05l1.28.76 3.12 1.83.1.06a.33.33 0 01.17.3v5a.16.16 0 00.1.18l1.19.7 3 1.79A.4.4 0 0128 25v5.22a.4.4 0 01-.22.39l-4.38 2.57h-.08a.33.33 0 01-.38 0L22 32.7l-3.3-1.94a.23.23 0 00-.26 0l-4.14 2.46a.35.35 0 01-.42 0L11.76 32l-2.35-1.36a.44.44 0 01-.23-.41c.01-.87.01-1.73.01-2.59zm.63 2.5l3.91 2.3v-4.62l-3.91-2.31zM19.24 25l.09.07 3.73 2.19a.17.17 0 00.19 0L27 25a.35.35 0 00.09-.06l-3.92-2.3zm4.23 7.46l3.89-2.29v-4.65l-.13.07-3.63 2.15a.23.23 0 00-.13.24v4.43zm-5.18-6.9l-3.61 2.13 3.61 2.12zm-3.61-3.23l3.59 2.11v-4.23zm-.31-4.81v4.24h.06l3.51-2.08zm0 15l3.63-2.2h-.05l-3.49-2.06h-.07zm8.16-10.16l-3.59-2.12v4.23zm.31-4.78l-3.41 2a.57.57 0 01-.13.08l3.49 2.06h.06zM3 8.54h1.23a.71.71 0 010 .14v.41a.38.38 0 00.4.34h.13a.31.31 0 00.29-.21 1.8 1.8 0 00.1-.4 5.12 5.12 0 000-.56v-.82-.09a1 1 0 01-.37.26 1.38 1.38 0 01-.63.09 1.64 1.64 0 01-.32-.05 1.13 1.13 0 01-.73-.55 2 2 0 01-.29-.83A4.27 4.27 0 013 4.48a2.86 2.86 0 01.15-.41 1.52 1.52 0 011.26-.92 2.42 2.42 0 01.85 0 1.55 1.55 0 011.17.93 2.49 2.49 0 01.19.92v3.11a3.77 3.77 0 01-.12 1.11c0 .1-.07.2-.11.3a1.41 1.41 0 01-1.08.92 2.77 2.77 0 01-1.28 0 1.31 1.31 0 01-1-.92A2.54 2.54 0 013 8.54zm2.29-3v-.63a1.52 1.52 0 00-.1-.48.42.42 0 00-.41-.27.4.4 0 00-.39.29 2.64 2.64 0 00-.07.3A7.58 7.58 0 004.25 6a1 1 0 00.11.42.39.39 0 00.27.18.53.53 0 00.55-.2.28.28 0 00.07-.19zM10.55 3.17a4.5 4.5 0 011 0 .6.6 0 01.47.48A1.33 1.33 0 0112 4v1.08a2.58 2.58 0 010 .29.62.62 0 01-.54.53 5.28 5.28 0 01-.89 0c-.04-.09-.04-2.59-.02-2.73zm.52.38v2c.38 0 .44-.1.44-.38V3.93c0-.41-.09-.38-.38-.36zM11.45 7.66a4.33 4.33 0 01.95 0 .6.6 0 01.5.53 3 3 0 010 .31v1a1.81 1.81 0 010 .4.6.6 0 01-.54.5 3.85 3.85 0 01-.48 0h-.4V7.74a.22.22 0 01-.03-.08zM12 8a19 19 0 000 2h.21c.13 0 .18-.08.21-.21a1.1 1.1 0 000-.18V8.38a1.1 1.1 0 000-.18.21.21 0 00-.19-.2zM17.77 4.57l.37 1.34h-.42c-.1 0-.1 0-.13-.11-.08-.33-.16-.66-.25-1a.83.83 0 000-.15h-.19v1.21a1.2 1.2 0 01-.5 0V3.13H17.56a.59.59 0 01.57.61 1.8 1.8 0 010 .4.52.52 0 01-.36.43zm-.65-.25h.24a.25.25 0 00.22-.23 1.22 1.22 0 000-.33.23.23 0 00-.18-.21.66.66 0 00-.28 0zM33.27 10.4H33c-.28 0-.21 0-.29-.23s-.15-.6-.23-.9v-.11h-.19v1.21a1.39 1.39 0 01-.5 0V7.63h.76a1.26 1.26 0 01.27 0 .59.59 0 01.43.48 1.35 1.35 0 010 .53.5.5 0 01-.35.36zm-1-1.6h.26a.28.28 0 00.21-.22.77.77 0 000-.37.22.22 0 00-.17-.21.47.47 0 00-.33 0zM24.31 9.16h-.19v1.21a1.38 1.38 0 01-.5 0V7.63h.72a1.07 1.07 0 01.39.07.54.54 0 01.35.41 1.28 1.28 0 010 .55.51.51 0 01-.28.37v.1c.1.37.2.74.31 1.11a.7.7 0 000 .14h-.51zm-.19-.36a1.18 1.18 0 00.27 0 .2.2 0 00.17-.14.63.63 0 000-.52c-.1-.14-.26-.14-.4-.14zM32.92 4.55v.6a1.57 1.57 0 01-.05.3.63.63 0 01-.53.49 1.41 1.41 0 01-.46 0 .6.6 0 01-.44-.38 1.05 1.05 0 01-.09-.46V3.83v-.08a.65.65 0 01.65-.62 1.25 1.25 0 01.43 0 .63.63 0 01.48.55 1.82 1.82 0 010 .32v.53zm-.52 0v-.69a1.25 1.25 0 000-.19.22.22 0 00-.24-.15.2.2 0 00-.23.16.76.76 0 000 .21v1.28a1.1 1.1 0 000 .18.23.23 0 00.24.21.23.23 0 00.25-.2 1.11 1.11 0 000-.17zM26.35 4.54v.54a2 2 0 01-.05.34.63.63 0 01-.54.52 1.25 1.25 0 01-.51 0 .56.56 0 01-.38-.34 1.17 1.17 0 01-.09-.48V4a1.29 1.29 0 01.07-.4.55.55 0 01.42-.41 1.14 1.14 0 01.58 0 .63.63 0 01.47.57 4.36 4.36 0 010 .51zm-.52 0v-.69a1 1 0 000-.18.23.23 0 00-.25-.15.19.19 0 00-.22.15.83.83 0 000 .22v1.29a1.1 1.1 0 000 .18.22.22 0 00.23.2.23.23 0 00.25-.19 1 1 0 000-.17zM33.1 3.15h.29c.07 0 .08.06.09.11l.42 1a3 3 0 00.18.36V3.17a1.49 1.49 0 01.42 0V5.9a.61.61 0 01-.3 0s-.05 0-.07-.09l-.4-1-.18-.44v1.5a2 2 0 01-.42 0c-.05-.05-.06-2.53-.03-2.72zM23 5.92h-.28c-.06 0-.07-.06-.08-.1-.11-.25-.21-.5-.31-.76s-.15-.37-.23-.55a.2.2 0 00-.07-.1v1.5a1.55 1.55 0 01-.43 0V3.15h.31c.05 0 .06 0 .08.09l.37.88c.06.14.12.27.17.41l.06.06V3.18a.81.81 0 01.41 0v2.74zM8.93 3.15h.28c.06 0 .08.06.1.1l.35.84.21.5V3.17a1.9 1.9 0 01.41 0v2.74a.51.51 0 01-.3 0l-.07-.09c-.11-.28-.22-.55-.34-.83a6.21 6.21 0 00-.26-.59v1.5a1.49 1.49 0 01-.42 0c.02-.09.01-2.57.04-2.75zM24.61 5.92h-.29c-.05 0-.06 0-.08-.08l-.18-.45-.37-.91a.16.16 0 00-.06-.08v1.51a2.16 2.16 0 01-.44 0V3.16h.32c.1 0 .06 0 .08.09.13.3.26.61.38.91.07.15.13.29.21.44V3.17a1.55 1.55 0 01.43 0zM17.53 7.65a4.22 4.22 0 01.94 0 .58.58 0 01.52.62v.18a.59.59 0 01-.31.57c.11.45.25.89.36 1.34H18.7c-.2 0-.16 0-.21-.16l-.25-1v-.12H18v1.23h-.48c-.01-.01-.02-2.52.01-2.66zM18 8.8a1.23 1.23 0 00.28 0 .24.24 0 00.2-.19.78.78 0 000-.4.21.21 0 00-.16-.21H18v.8zM15.05 8.89v1.5h-.42V7.64H15l.61 1.44V7.67a.85.85 0 01.42 0v2.73h-.28c-.06 0-.07-.05-.09-.09-.09-.24-.19-.48-.29-.72L15.11 9v-.09zM10.76 9.06V7.65h.42v2.75h-.28c-.06 0-.07-.05-.09-.1l-.28-.69c-.09-.21-.17-.43-.26-.64a.23.23 0 00-.07-.1v1.52h-.41V7.64h.29c.06 0 .07.05.09.09l.33.78c.07.19.15.37.23.55zM12.19 3.16h.48v1.91a1.36 1.36 0 000 .29.22.22 0 00.26.19.21.21 0 00.2-.14.45.45 0 000-.16V3.33a1 1 0 010-.17h.47a.38.38 0 010 .1v1.89a2.66 2.66 0 01-.07.39.52.52 0 01-.4.37 1 1 0 01-.59 0 .55.55 0 01-.4-.38 1.49 1.49 0 01-.07-.47V3.27a.49.49 0 01.12-.11zM31 7.65h.49a.34.34 0 010 .1v1.81a1.32 1.32 0 010 .34.59.59 0 01-.56.52 2.07 2.07 0 01-.43 0A.51.51 0 0130 10a1.37 1.37 0 010-.32v-2-.07h.48V9.48a2 2 0 000 .35.23.23 0 00.24.2.22.22 0 00.23-.2 1.24 1.24 0 000-.27C31 9 31 8.39 31 7.8zM25.3 7.64h.48v1.89a1.22 1.22 0 000 .32.23.23 0 00.31.17.2.2 0 00.14-.14.78.78 0 000-.21V7.79v-.15h.48a.76.76 0 010 .14V9.5a2.53 2.53 0 010 .38.6.6 0 01-.55.54 1.21 1.21 0 01-.5 0 .59.59 0 01-.37-.35 1.26 1.26 0 01-.08-.47V7.74s.09-.06.09-.1zM28 9.34h.47v.56a.58.58 0 01-.53.51 1.13 1.13 0 01-.45 0 .66.66 0 01-.49-.63 1.83 1.83 0 010-.33v-.92a1.46 1.46 0 01.06-.46.58.58 0 01.46-.44 1.14 1.14 0 01.52 0 .56.56 0 01.43.43 1.59 1.59 0 010 .53v.06H28v-.14-.33c0-.11-.07-.18-.19-.18s-.22 0-.25.16a.63.63 0 000 .19v1.3a.78.78 0 000 .22.22.22 0 00.23.17.21.21 0 00.21-.18v-.31zM28.38 3.15h.46c.06 0 .07 0 .08.09s.08.41.13.61c.12.64.25 1.28.38 1.92a.69.69 0 000 .13h-.27c-.25 0-.19 0-.24-.21s-.05-.28-.08-.43h-.38c-.06 0-.07 0-.07.09s-.05.28-.08.42a.83.83 0 010 .13 3.89 3.89 0 01-.48 0zm.43 1.78l-.16-1-.15 1zM20.71 10.39h-.47a2 2 0 010-.24 3.06 3.06 0 01-.05-.32s0-.07-.07-.07h-.39l-.11.63h-.46c0-.09.46-2.52.53-2.74h.52c.14.9.32 1.81.5 2.74zm-.8-1.93l-.15.94h.32zM8.59 7.64h.52l.54 2.73a1.13 1.13 0 01-.47 0l-.11-.62h-.44l-.12.62h-.46c-.05-.07.47-2.5.54-2.73zm.27.82l-.15.94H9zM15.16 3.51l.06.28c0 .08 0 .1-.08.11l-.34.1v-.12a1.22 1.22 0 000-.17.19.19 0 00-.24-.15.2.2 0 00-.18.21.41.41 0 00.15.36l.37.34a2.28 2.28 0 01.29.33.86.86 0 01.14.6.64.64 0 01-.59.58 1.27 1.27 0 01-.34 0 .6.6 0 01-.4-.28 1 1 0 01-.15-.61l.43-.09a.66.66 0 000 .15 1.12 1.12 0 00.08.26.2.2 0 00.19.13.18.18 0 00.21-.17.49.49 0 00-.14-.45l-.45-.41a1.29 1.29 0 01-.17-.16.85.85 0 01-.13-.83.55.55 0 01.32-.33.83.83 0 01.58 0 .54.54 0 01.34.27.41.41 0 00.05.09zM20.74 9.58l.45-.1a1.37 1.37 0 000 .23.68.68 0 00.07.2.2.2 0 00.2.11.17.17 0 00.19-.15.47.47 0 00-.13-.45 2.83 2.83 0 00-.25-.24L21 8.91a.83.83 0 01-.24-.84.6.6 0 01.35-.41.89.89 0 01.56 0 .52.52 0 01.36.32.72.72 0 01.08.42l-.41.08v-.09a1.7 1.7 0 000-.22.2.2 0 00-.25-.17.2.2 0 00-.2.17.35.35 0 00.06.31 1.22 1.22 0 00.15.17l.39.35a1 1 0 01.32.53 1.34 1.34 0 010 .4.61.61 0 01-.56.49h-.25a.63.63 0 01-.55-.48c-.03-.11-.04-.23-.07-.36zM27.43 5.91h-.5l-.54-2.74a1.42 1.42 0 01.41 0c.05 0 .05 0 .06.09 0 .23.09.46.13.69l.18 1v.06q.07-.45.15-.87l.15-.85c0-.09 0-.1.12-.1H28c-.21.89-.39 1.81-.57 2.72zM34 10h.63v.34a6 6 0 01-1.13 0V7.62a6.89 6.89 0 011.12 0V8H34v.76h.49v.38H34zM19.67 3.15a1 1 0 01-.05.16c-.15.48-.31 1-.46 1.46a1.43 1.43 0 000 .22v.92a3.81 3.81 0 01-.48 0V5a.78.78 0 000-.3c-.16-.46-.3-.93-.45-1.39 0-.05 0-.1-.05-.16a.72.72 0 01.25 0c.27 0 .21 0 .29.22s.14.48.22.71v.11V4c.07-.25.14-.5.22-.75s0-.14.18-.14zM16.8 8v.77h.47v.37h-.47v1.23a4.13 4.13 0 01-.49 0V7.61h1.1a2.16 2.16 0 010 .36zM29.48 10.39H29V8h-.44v-.34a10.59 10.59 0 011.38 0V8h-.43zM22.59 8h-.43a1.54 1.54 0 010-.37 10.42 10.42 0 011.38 0V8h-.42v2.36h-.5V8zM29.69 3.55h-.35c-.09 0-.1 0-.1-.11a2.43 2.43 0 010-.27H30.63v.37h-.43v2.37h-.51z"/><path fill="#fff" d="M15.17 3.52v-.36h1.38v.38h-.42v2.37a2.9 2.9 0 01-.51 0V3.55h-.32a.37.37 0 01-.14 0zM8.67 5.91H8.2V3.16a2.46 2.46 0 01.47 0c.03.12.03 2.63 0 2.75zM20.86 3.15h.42s.06 0 .06.07a.25.25 0 010 .08v2.61a3.89 3.89 0 01-.48 0c-.03-.1-.03-2.62 0-2.76zM30.69 3.16h.48v2.75h-.48c-.02-.09-.03-2.57 0-2.75zM14.33 10.39h-.47V7.65a.65.65 0 01.24 0h.25v2.69a.08.08 0 01-.02.05zM19.66 6.37V6.2c.1-.06.21-.12.2-.27h-.21v-.48h.44v.52a.41.41 0 01-.43.4z"/><path fill="#f26e24" d="M9.82 30.14v-4.63l3.91 2.31v4.62zM19.24 25l3.92-2.3 3.92 2.3a.35.35 0 01-.08 0l-3.74 2.21a.17.17 0 01-.19 0L19.33 25zM23.47 32.41V28a.23.23 0 01.13-.24l3.66-2.15.13-.07v4.62l-3.89 2.27zM18.29 25.51v4.25l-3.61-2.12zM14.68 22.28l3.59-2.12v4.23zM14.37 17.47L18 19.58l-3.51 2.08h-.06zM14.37 32.44v-4.22h.07l3.49 2.06h.05zM22.53 22.28l-3.59 2.11v-4.23zM22.84 17.5v4.19h-.06l-3.49-2.06a.57.57 0 00.13-.08l3.41-2s-.01-.05.01-.05zM5.25 5.56v.66a.28.28 0 01-.07.19.53.53 0 01-.55.2.39.39 0 01-.27-.18A1 1 0 014.25 6a7.58 7.58 0 010-1.26 2.64 2.64 0 01.07-.3.4.4 0 01.39-.29.42.42 0 01.41.27 1.52 1.52 0 01.1.48v.65zM11.07 3.55h.06c.29 0 .38.07.38.36v1.24c0 .28-.06.43-.44.38-.02-.08-.07-1.79 0-1.98zM12 8h.25a.21.21 0 01.17.17 1.1 1.1 0 010 .18v1.27a1.1 1.1 0 010 .18c0 .13-.08.19-.21.21H12A19 19 0 0112 8zM17.12 4.32v-.78a.66.66 0 01.28 0 .23.23 0 01.18.21 1.22 1.22 0 010 .33.25.25 0 01-.22.23zM32.24 8.8V8a.47.47 0 01.33 0 .22.22 0 01.14.16.77.77 0 010 .37.28.28 0 01-.21.22zM24.12 8.8V8c.14 0 .3 0 .39.11a.63.63 0 010 .52.2.2 0 01-.17.14 1.18 1.18 0 01-.22.03zM32.4 4.54v.65a1.11 1.11 0 010 .17.23.23 0 01-.25.2.23.23 0 01-.24-.21 1.1 1.1 0 010-.18V3.89a.76.76 0 010-.21.2.2 0 01.23-.16.22.22 0 01.24.15 1.25 1.25 0 010 .19zM25.83 4.54v.66a1 1 0 010 .17.23.23 0 01-.25.19.22.22 0 01-.23-.2 1.1 1.1 0 010-.18V3.89a.83.83 0 010-.22.19.19 0 01.22-.15.23.23 0 01.25.15 1 1 0 010 .18v.69zM18 8.8V8h.29a.21.21 0 01.17.17.78.78 0 010 .4.24.24 0 01-.2.19 1.23 1.23 0 01-.26.04zM28.81 4.93h-.33l.15-1zM19.91 8.46l.15.94h-.32l.15-.94zM8.86 8.46L9 9.4h-.32l.15-.94z"/></g></svg>