<svg width="64" height="64" fill="none" xmlns="http://www.w3.org/2000/svg"><path fill-rule="evenodd" clip-rule="evenodd" d="M32 64c17.677 0 32-14.323 32-32S49.677 0 32 0 0 14.323 0 32s14.323 32 32 32zM4.129 32c0-15.316 12.4-27.871 27.871-27.871 15.316 0 27.871 12.4 27.871 27.871 0 15.316-12.4 27.871-27.871 27.871-15.316 0-27.871-12.4-27.871-27.871zm19.613-10.206v20.503c0 .593.645.968 1.161.67l17.355-9.96c.503-.284.516-1.02.013-1.33L24.916 21.136a.768.768 0 00-1.174.658z" fill="var(--play-color,#fff)"/></svg>