<svg width="25" height="22" fill="none" xmlns="http://www.w3.org/2000/svg"><path fill-rule="evenodd" clip-rule="evenodd" d="M1.25 8.25c0 .118.04.235.125.33l11 12.5a.5.5 0 00.75 0l11-12.5a.5.5 0 10-.75-.661L12.75 19.993 2.125 7.92a.498.498 0 00-.875.33z" fill="#182B33"/><path d="M1.25 8.25c0 .118.04.235.125.33l11 12.5a.5.5 0 00.75 0l11-12.5a.5.5 0 10-.75-.661L12.75 19.993 2.125 7.92a.498.498 0 00-.875.33" stroke="#182B33"/><path fill-rule="evenodd" clip-rule="evenodd" d="M1.25 1.25c0 .118.04.235.125.33l11 12.5a.5.5 0 00.75 0l11-12.5a.5.5 0 10-.75-.661L12.75 12.993 2.125.92a.498.498 0 00-.875.33z" fill="#182B33"/><path d="M1.25 1.25c0 .118.04.235.125.33l11 12.5a.5.5 0 00.75 0l11-12.5a.5.5 0 10-.75-.661L12.75 12.993 2.125.92a.498.498 0 00-.875.33" stroke="#182B33"/></svg>