<svg xmlns="http://www.w3.org/2000/svg" xmlns:xlink="http://www.w3.org/1999/xlink"><symbol id="bolb-icon"><path fill-rule="evenodd" clip-rule="evenodd" d="M15.769 38.077H26.23v-2.154H15.77v2.154zM15 39h12v-4H15v4zM14 41h13v-1H14v1zM14 43h13v-1H14v1z" fill="#FD6F63"/><path fill-rule="evenodd" clip-rule="evenodd" d="M15.146 35.306h-.8c0-2.857-1.257-6.495-2.421-8.226-1.269-1.889-2.577-3.838-2.577-6.695 0-2.443.761-4.77 2.201-6.73a11.297 11.297 0 015.584-4.043c.634-.205 1.29-.352 1.952-.438l.102.803a10.22 10.22 0 00-1.811.406 10.49 10.49 0 00-5.184 3.754 10.48 10.48 0 00-2.044 6.248c0 2.608 1.239 4.453 2.437 6.236 1.26 1.875 2.56 5.634 2.56 8.686zM26.843 35.307h-.8c0-3.137 1.333-7.118 2.57-9.007 1.122-1.718 2.281-3.492 2.281-5.914 0-2.276-.71-4.441-2.055-6.264a10.488 10.488 0 00-5.212-3.75 10.22 10.22 0 00-1.67-.38l.11-.803c.61.086 1.215.224 1.8.41 2.22.707 4.213 2.14 5.613 4.039a11.286 11.286 0 012.215 6.748c0 2.665-1.227 4.543-2.414 6.358-1.173 1.794-2.438 5.577-2.438 8.563zM20.121 4.362h.8V.059h-.8v4.303zM9.617 8.48L6.883 5.185l.613-.52L10.23 7.96l-.614.52zM4.19 18.464L0 17.717l.139-.797 4.19.747-.14.797zM36.756 18.58l-.139-.798 4.19-.747.139.797-4.19.748zM31.398 8.557l-.613-.52L33.52 4.74l.613.52-2.735 3.297z" fill="#FD6F63"/><path fill-rule="evenodd" clip-rule="evenodd" d="M20.57 8.716c-3.29 3.319-4.938 6.902-4.898 10.656.06 5.558 3.831 9.896 4.894 11.009 1.055-1.135 4.814-5.573 4.832-11.17.013-3.719-1.611-7.248-4.828-10.495zm.004 22.795l-.276-.258c-.054-.051-1.358-1.281-2.686-3.36-1.23-1.923-2.702-4.961-2.74-8.513-.044-4.09 1.78-7.966 5.42-11.522l.278-.272.278.272c3.566 3.483 5.366 7.307 5.35 11.363-.013 3.574-1.467 6.654-2.685 8.607-1.315 2.111-2.612 3.369-2.667 3.421l-.272.262z" fill="#FD6F63"/><path fill-rule="evenodd" clip-rule="evenodd" d="M20.168 35.574h.8v-22.63h-.8v22.63z" fill="#FD6F63"/><path fill-rule="evenodd" clip-rule="evenodd" d="M20.252 25.518l-5.115-5.174.566-.573 5.115 5.174-.566.573zM20.25 20.168l-4.414-4.465.566-.572 4.414 4.465-.566.572z" fill="#FD6F63"/><path fill-rule="evenodd" clip-rule="evenodd" d="M20.816 25.518l-.566-.573 5.115-5.174.566.573-5.115 5.174zM20.816 20.168l-.566-.573 4.46-4.511.566.572-4.46 4.511z" fill="#FD6F63"/></symbol><symbol id="canvas-bg-mobile"><path fill-rule="evenodd" clip-rule="evenodd" d="M130 72.486c-.332.01-.665.014-1 .014-19.606 0-35.5-16.118-35.5-36S109.394.5 129 .5c.335 0 .668.005 1 .014v71.972z" fill="#BEDD9A"/><path fill-rule="evenodd" clip-rule="evenodd" d="M0 198c0 50.258 40.742 91 91 91s91-40.742 91-91H0z" fill="#609073"/></symbol><symbol id="canvas-bg"><path fill-rule="evenodd" clip-rule="evenodd" d="M0 485c0 211.525 171.475 383 383 383s383-171.475 383-383H0z" fill="#609073"/><path fill-rule="evenodd" clip-rule="evenodd" d="M676.5 270.5c-74.558 0-135-60.442-135-135 0-74.558 60.442-135 135-135v270z" fill="#BEDD9A"/></symbol><symbol id="case-goal-bg"><path fill="#023A15" d="M-.5 0h1680v1737H-.5z"/><path fill-rule="evenodd" clip-rule="evenodd" d="M1095.5 1737c0-334.68 271.32-606 606-606s606 271.32 606 606h-1212z" fill="#FECE63"/><path fill-rule="evenodd" clip-rule="evenodd" d="M122 588.498c-98.951-.54-179-81.144-179-180.497 0-99.353 80.049-179.958 179-180.498v360.995z" fill="#609073"/></symbol><symbol id="combined-shape-mobile"><path fill-rule="evenodd" clip-rule="evenodd" d="M-12 41C-12 18.356 6.356 0 29 0s41 18.356 41 41h-82z" fill="#FECE63" style="mix-blend-mode:multiply"/></symbol><symbol id="combined-shape"><path fill-rule="evenodd" clip-rule="evenodd" d="M0 135C0 60.442 60.442 0 135 0c74.558 0 135 60.442 135 135H0z" fill="#FECE63" style="mix-blend-mode:multiply"/></symbol><symbol id="Left arrow"><path fill-rule="evenodd" clip-rule="evenodd" d="M63.5 12H.5a.5.5 0 010-1h63a.5.5 0 010 1z" fill="#fff"/><mask id="a" maskUnits="userSpaceOnUse" x="0" y="0" width="14" height="23"><path fill-rule="evenodd" clip-rule="evenodd" d="M0 0h13.5v23H0V0z" fill="#fff"/></mask><g mask="url(#a)"><path fill-rule="evenodd" clip-rule="evenodd" d="M13 23a.495.495 0 01-.33-.125l-12.5-11a.5.5 0 010-.75l12.5-11a.5.5 0 11.661.75L1.257 11.5 13.33 22.125A.498.498 0 0113 23z" fill="#fff"/></g></symbol><symbol id="Right arrow"><path fill-rule="evenodd" clip-rule="evenodd" d="M.5 12h63a.5.5 0 000-1H.5a.5.5 0 000 1z" fill="#fff"/><mask id="a" maskUnits="userSpaceOnUse" x="50" y="0" width="15" height="23"><path fill-rule="evenodd" clip-rule="evenodd" d="M64 0H50.5v23H64V0z" fill="#fff"/></mask><g mask="url(#a)"><path fill-rule="evenodd" clip-rule="evenodd" d="M51 23a.495.495 0 00.33-.125l12.5-11a.5.5 0 000-.75l-12.5-11a.5.5 0 10-.661.75L62.743 11.5 50.67 22.125A.498.498 0 0051 23z" fill="#fff"/></g></symbol><symbol id="scroll-down"><path fill-rule="evenodd" clip-rule="evenodd" d="M1.25 8.25c0 .118.04.235.125.33l11 12.5a.5.5 0 00.75 0l11-12.5a.5.5 0 10-.75-.661L12.75 19.993 2.125 7.92a.498.498 0 00-.875.33z" fill="#182B33"/><path d="M1.25 8.25c0 .118.04.235.125.33l11 12.5a.5.5 0 00.75 0l11-12.5a.5.5 0 10-.75-.661L12.75 19.993 2.125 7.92a.498.498 0 00-.875.33" stroke="#182B33"/><path fill-rule="evenodd" clip-rule="evenodd" d="M1.25 1.25c0 .118.04.235.125.33l11 12.5a.5.5 0 00.75 0l11-12.5a.5.5 0 10-.75-.661L12.75 12.993 2.125.92a.498.498 0 00-.875.33z" fill="#182B33"/><path d="M1.25 1.25c0 .118.04.235.125.33l11 12.5a.5.5 0 00.75 0l11-12.5a.5.5 0 10-.75-.661L12.75 12.993 2.125.92a.498.498 0 00-.875.33" stroke="#182B33"/></symbol><symbol id="slider-bg-desktop"><path fill="#023A15" d="M0 0h1680v800H0z"/><circle cx="-63" cy="657" r="427" fill="#fff" fill-opacity=".05"/></symbol><symbol id="slider-bg"><path fill="#023A15" d="M0 0h415v897H0z"/><circle cx="-55" cy="821" r="263" fill="#fff" fill-opacity=".05"/></symbol></svg>