<svg xmlns="http://www.w3.org/2000/svg" viewBox="0 0 10.86 10.07"><g data-name="Layer 2"><path d="M10.84 3.83a.33.33 0 00-.3-.24l-.67-.07-2.68-.29h-.06c-.01 0-.13-.35-.22-.51l-.27-.58c-.29-.63-.59-1.26-.88-1.9A.37.37 0 005.43 0a.35.35 0 00-.33.24L3.93 2.73l-.2.44c0 .05 0 .05-.06.06l-3.34.36a.39.39 0 00-.17.06.29.29 0 00-.16.23.4.4 0 00.15.32l.76.68c.57.49 1.13 1 1.69 1.49a.07.07 0 010 .09l-.21 1.13-.06.29c-.12.59-.25 1.18-.37 1.77a.35.35 0 00.04.29.28.28 0 00.21.12.48.48 0 00.29-.06l2.87-1.59a.09.09 0 01.12 0l1.6.88.66.37.65.34a.41.41 0 00.18.05.34.34 0 00.33-.34.17.17 0 000-.07l-.1-.48c-.19-.89-.37-1.77-.56-2.65v-.13L9.9 4.91l.82-.72a.33.33 0 00.12-.36zM3 8.06c.11-.55.23-1.1.34-1.65A.36.36 0 003.2 6L2.08 5l-1-.87h.29l1.87-.21h.66a.38.38 0 00.33-.24c.19-.4.37-.81.56-1.21l.61-1.3.26.57.9 1.92a.4.4 0 00.44.2L8.42 4h.45l.79.09h.09l-.44.39L7.67 6a.4.4 0 00-.14.41c.17.78.33 1.59.47 2.33l.08.36-.5-.27-1.91-1.07a.47.47 0 00-.24-.07.44.44 0 00-.24.07l-1.86 1-.57.31z" fill="#009dda" data-name="Layer 5"/></g></svg>